<?xml version="1.0" encoding="UTF-8"?>
<svg width="400" height="400" version="1.1" viewBox="0 0 400 400" xmlns="http://www.w3.org/2000/svg">
 <defs>
  <clipPath id="m">
   <path transform="translate(-40 -190)" d="m0 300h300v-300h-300z"/>
  </clipPath>
  <clipPath id="d">
   <path transform="translate(-100.5 -256.07)" d="m0 300h300v-300h-300z"/>
  </clipPath>
  <clipPath id="b">
   <path transform="translate(-190 -260)" d="m0 300h300v-300h-300z"/>
  </clipPath>
  <clipPath id="a">
   <path transform="translate(-256.07 -199.5)" d="m0 300h300v-300h-300z"/>
  </clipPath>
  <clipPath id="r">
   <path transform="translate(-43.934 -100.5)" d="m0 300h300v-300h-300z"/>
  </clipPath>
  <clipPath id="q">
   <path transform="translate(-110 -40)" d="m0 300h300v-300h-300z"/>
  </clipPath>
  <clipPath id="p">
   <path transform="translate(-199.5 -43.934)" d="m0 300h300v-300h-300z"/>
  </clipPath>
  <clipPath id="o">
   <path transform="translate(-106.84 -189.53)" d="m0 300h300v-300h-300z"/>
  </clipPath>
  <clipPath id="n">
   <path transform="translate(-147.43 -208.47)" d="m0 300h300v-300h-300z"/>
  </clipPath>
  <clipPath id="l">
   <path transform="translate(-189.53 -193.16)" d="m0 300h300v-300h-300z"/>
  </clipPath>
  <clipPath id="k">
   <path transform="translate(-91.533 -147.43)" d="m0 300h300v-300h-300z"/>
  </clipPath>
  <clipPath id="j">
   <path transform="translate(-110.47 -106.84)" d="m0 300h300v-300h-300z"/>
  </clipPath>
  <clipPath id="i">
   <path transform="translate(-152.57 -91.533)" d="m0 300h300v-300h-300z"/>
  </clipPath>
  <clipPath id="h">
   <path transform="translate(-157.77 -139.44)" d="m0 300h300v-300h-300z"/>
  </clipPath>
  <clipPath id="g">
   <path transform="translate(-186.78 -139.44)" d="m0 300h300v-300h-300z"/>
  </clipPath>
  <clipPath id="f">
   <path transform="translate(-211.3 -137.93)" d="m0 300h300v-300h-300z"/>
  </clipPath>
  <clipPath id="e">
   <path transform="translate(-239.67 -141.81)" d="m0 300h300v-300h-300z"/>
  </clipPath>
  <clipPath id="c">
   <path transform="translate(-272.1 -141.27)" d="m0 300h300v-300h-300z"/>
  </clipPath>
 </defs>
 <g>
  <path transform="matrix(1.3333 0 0 -1.3333 53.333 146.67)" d="m0 0c22.091 0 40-17.909 40-40 0-22.092-17.909-40-40-40s-40 17.908-40 40c0 22.091 17.909 40 40 40" clip-path="url(#m)"/>
  <path transform="matrix(1.3333 0 0 -1.3333 134 58.579)" d="m0 0c15.621-15.621 15.621-40.947 0-56.568s-40.947-15.621-56.568 0-15.621 40.947 0 56.568 40.947 15.621 56.568 0" clip-path="url(#d)"/>
  <path transform="matrix(1.3333 0 0 -1.3333 253.33 53.333)" d="m0 0c0-22.091-17.908-40-40-40-22.091 0-40 17.909-40 40s17.909 40 40 40c22.092 0 40-17.909 40-40" clip-path="url(#b)"/>
  <path transform="matrix(1.3333 0 0 -1.3333 341.42 134)" d="m0 0c-15.621-15.621-40.948-15.621-56.569 0-15.62 15.621-15.62 40.947 0 56.568 15.621 15.621 40.948 15.621 56.569 0 15.62-15.621 15.62-40.947 0-56.568" clip-path="url(#a)"/>
  <path transform="matrix(1.3333 0 0 -1.3333 58.579 266)" d="m0 0c15.621 15.62 40.947 15.62 56.568 0 15.621-15.621 15.621-40.948 0-56.569-15.621-15.62-40.947-15.62-56.568 0-15.621 15.621-15.621 40.948 0 56.569" clip-path="url(#r)"/>
  <path transform="matrix(1.3333 0 0 -1.3333 146.67 346.67)" d="m0 0c0 22.092 17.909 40 40 40 22.092 0 40-17.908 40-40s-17.908-40-40-40c-22.091 0-40 17.908-40 40" clip-path="url(#q)"/>
  <path transform="matrix(1.3333 0 0 -1.3333 266 341.42)" d="m0 0c-15.62 15.621-15.62 40.948 0 56.569 15.621 15.62 40.948 15.62 56.569 0 15.62-15.621 15.62-40.948 0-56.569-15.621-15.62-40.948-15.62-56.569 0" clip-path="url(#p)"/>
  <path transform="matrix(1.3333 0 0 -1.3333 142.45 147.3)" d="m0 0c10.205-4.227 15.051-15.927 10.824-26.131-4.227-10.205-15.927-15.052-26.132-10.825-10.204 4.227-15.05 15.927-10.823 26.132s15.926 15.051 26.131 10.824" clip-path="url(#o)"/>
  <path transform="matrix(1.3333 0 0 -1.3333 196.57 122.04)" d="m0 0c4.227-10.205-0.619-21.904-10.824-26.131s-21.905 0.618-26.132 10.823c-4.226 10.205 0.62 21.905 10.825 26.132 10.204 4.227 21.904-0.619 26.131-10.824" clip-path="url(#n)"/>
  <path transform="matrix(1.3333 0 0 -1.3333 252.7 142.45)" d="m0 0c-4.228-10.205-15.927-15.051-26.132-10.824-10.204 4.227-15.051 15.927-10.823 26.132 4.226 10.204 15.926 15.05 26.131 10.823s15.051-15.926 10.824-26.131" clip-path="url(#l)"/>
  <path transform="matrix(1.3333 0 0 -1.3333 122.04 203.43)" d="m0 0c10.205 4.228 21.904-0.619 26.131-10.823 4.227-10.205-0.618-21.905-10.823-26.132s-21.905 0.619-26.132 10.824 0.619 21.904 10.824 26.131" clip-path="url(#k)"/>
  <path transform="matrix(1.3333 0 0 -1.3333 147.3 257.55)" d="m0 0c4.227 10.205 15.927 15.052 26.131 10.824 10.205-4.226 15.052-15.926 10.825-26.131s-15.927-15.05-26.132-10.824c-10.205 4.228-15.051 15.927-10.824 26.131" clip-path="url(#j)"/>
  <path transform="matrix(1.3333 0 0 -1.3333 203.43 277.96)" d="m0 0c-4.228 10.205 0.619 21.904 10.823 26.131 10.205 4.227 21.905-0.619 26.132-10.824 4.227-10.204-0.619-21.904-10.824-26.131s-21.904 0.619-26.131 10.824" clip-path="url(#i)"/>
 </g>
 <path transform="matrix(1.3333 0 0 1.3333 180.6 216.1)" d="m24.048-2.7788v-1.6875c-1.3916 1.0078-2.543 1.7402-3.457 2.1914-1.5879 0.77344-3.4453 1.1602-5.5781 1.1602-3.4307 0-6.252-1.1045-8.4609-3.3164-2.1797-2.1797-3.2695-4.9863-3.2695-8.4258 0-3.4277 1.1016-6.2461 3.3047-8.4492 2.209-2.209 5.0186-3.3164 8.4258-3.3164 1.9922 0 3.8965 0.37207 5.7188 1.1133 1.2012 0.50098 2.3086 1.1719 3.3164 2.0156v-1.8398c-0.98438-0.76465-2.0039-1.3506-3.0586-1.7578-1.7754-0.64746-3.7676-0.97266-5.9766-0.97266-3.8906 0-7.0723 1.2363-9.5391 3.7031-2.4463 2.4551-3.668 5.6221-3.668 9.5039 0 3.8906 1.2334 7.0723 3.7031 9.5391 2.4434 2.4551 5.6133 3.6797 9.5039 3.6797 0.33398 0 0.65918-0.008789 0.97266-0.023438 0.31055-0.008789 0.60059-0.023438 0.86719-0.046875 2.3027-0.21973 4.1279-0.82031 5.4727-1.8047z" fill="#231f20" aria-label="C"/>
 <path transform="matrix(1.3333 0 0 -1.3333 210.36 214.08)" d="m0 0c-1.344-0.984-3.168-1.584-5.472-1.8-0.264-0.024-0.552-0.042-0.864-0.054s-0.636-0.018-0.972-0.018c-3.888 0-7.056 1.224-9.504 3.672-2.472 2.471-3.708 5.652-3.708 9.54s1.224 7.056 3.672 9.504c2.472 2.471 5.652 3.708 9.54 3.708 2.208 0 4.2-0.324 5.976-0.972 1.056-0.409 2.076-0.997 3.06-1.764v-1.836c-1.008 0.84-2.112 1.512-3.312 2.016-1.824 0.743-3.732 1.116-5.724 1.116-3.408 0-6.216-1.104-8.424-3.312-2.208-2.209-3.312-5.029-3.312-8.46 0-3.433 1.092-6.24 3.276-8.424 2.208-2.208 5.028-3.312 8.46-3.312 2.136 0 3.996 0.383 5.58 1.152 0.912 0.455 2.064 1.188 3.456 2.196v-1.692z" clip-path="url(#h)" fill="none" stroke="#000" stroke-miterlimit="10" stroke-width=".5"/>
 <path transform="matrix(1.3333 0 0 1.3333 219.28 216.1)" d="m24.047-2.7788v-1.6875c-1.3916 1.0078-2.543 1.7402-3.457 2.1914-1.5879 0.77344-3.4453 1.1602-5.5781 1.1602-3.4307 0-6.252-1.1045-8.4609-3.3164-2.1797-2.1797-3.2695-4.9863-3.2695-8.4258 0-3.4277 1.1016-6.2461 3.3047-8.4492 2.209-2.209 5.0186-3.3164 8.4258-3.3164 1.9922 0 3.8965 0.37207 5.7188 1.1133 1.2012 0.50098 2.3086 1.1719 3.3164 2.0156v-1.8398c-0.98438-0.76465-2.0039-1.3506-3.0586-1.7578-1.7754-0.64746-3.7676-0.97266-5.9766-0.97266-3.8906 0-7.0723 1.2363-9.5391 3.7031-2.4463 2.4551-3.668 5.6221-3.668 9.5039 0 3.8906 1.2334 7.0723 3.7031 9.5391 2.4434 2.4551 5.6133 3.6797 9.5039 3.6797 0.33398 0 0.65918-0.008789 0.97266-0.023438 0.31055-0.008789 0.60059-0.023438 0.86719-0.046875 2.3027-0.21973 4.1279-0.82031 5.4727-1.8047z" fill="#231f20" aria-label="C"/>
 <path transform="matrix(1.3333 0 0 -1.3333 249.04 214.08)" d="m0 0c-1.344-0.984-3.168-1.584-5.472-1.8-0.264-0.024-0.552-0.042-0.864-0.054s-0.636-0.018-0.972-0.018c-3.888 0-7.056 1.224-9.504 3.672-2.472 2.471-3.708 5.652-3.708 9.54s1.224 7.056 3.672 9.504c2.472 2.471 5.652 3.708 9.54 3.708 2.208 0 4.2-0.324 5.976-0.972 1.056-0.409 2.076-0.997 3.06-1.764v-1.836c-1.008 0.84-2.112 1.512-3.312 2.016-1.824 0.743-3.732 1.116-5.724 1.116-3.408 0-6.216-1.104-8.424-3.312-2.208-2.209-3.312-5.029-3.312-8.46 0-3.433 1.092-6.24 3.276-8.424 2.208-2.208 5.028-3.312 8.46-3.312 2.136 0 3.996 0.383 5.58 1.152 0.912 0.455 2.064 1.188 3.456 2.196v-1.692z" clip-path="url(#g)" fill="none" stroke="#000" stroke-miterlimit="10" stroke-width=".5"/>
 <path transform="matrix(1.3333 0 0 1.3333 257.3 216.1)" d="m19.805-0.0014578v-25.699h-1.4766v10.828h-14.156v-10.828h-1.4414v25.699h1.4414v-13.395h14.156v13.395z" fill="#231f20" aria-label="H"/>
 <path transform="matrix(1.3333 0 0 -1.3333 281.73 216.1)" d="m0 0v13.392h-14.148v-13.392h-1.44v25.704h1.44v-10.836h14.148v10.836h1.476v-25.704z" clip-path="url(#f)" fill="none" stroke="#000" stroke-miterlimit="10" stroke-width=".5"/>
 <path transform="matrix(1.3333 0 0 1.3333 293.2 216.1)" d="m22.793-12.892c0-3.5215-1.0254-6.498-3.0703-8.9297-2.1562-2.584-4.9629-3.8789-8.4141-3.8789h-8.5781v25.699h8.5781c3.4746 0 6.2959-1.2949 8.4609-3.8906 2.0156-2.4434 3.0234-5.4434 3.0234-9zm-1.4766 0c0 3.5332-1.0488 6.3516-3.1406 8.4609-1.9395 1.9688-4.2275 2.9531-6.8672 2.9531h-7.1367v-22.793h7.1367c3.0469 0 5.502 1.1543 7.3711 3.457 1.7578 2.1416 2.6367 4.7812 2.6367 7.9219z" fill="#231f20" aria-label="D"/>
 <path transform="matrix(1.3333 0 0 -1.3333 319.56 210.92)" d="m0 0c-2.16-2.592-4.98-3.888-8.46-3.888h-8.568v25.704h8.568c3.456 0 6.264-1.296 8.424-3.888 2.039-2.425 3.06-5.4 3.06-8.928 0-3.552-1.008-6.552-3.024-9zm-1.08 16.92c-1.872 2.304-4.333 3.456-7.38 3.456h-7.128v-22.788h7.128c2.64 0 4.932 0.984 6.876 2.952 2.088 2.111 3.132 4.932 3.132 8.46 0 3.144-0.877 5.783-2.628 7.92z" clip-path="url(#e)" fill="none" stroke="#000" stroke-miterlimit="10" stroke-width=".5"/>
 <path transform="matrix(1.3333 0 0 1.3333 330.07 216.1)" d="m28.265-12.857c0-3.8818-1.2393-7.0605-3.7148-9.5391-2.4932-2.4434-5.6719-3.668-9.5391-3.668-3.8906 0-7.0723 1.2363-9.5391 3.7031-2.4463 2.4551-3.668 5.6221-3.668 9.5039 0 3.8906 1.2334 7.0723 3.7031 9.5391 2.4434 2.4551 5.6133 3.6797 9.5039 3.6797s7.0693-1.2363 9.5391-3.7148c2.4756-2.4434 3.7148-5.6133 3.7148-9.5039zm-1.4766 0c0 3.4863-1.0957 6.3164-3.2812 8.4961-2.2119 2.165-5.0449 3.2461-8.4961 3.2461-3.4307 0-6.252-1.1045-8.4609-3.3164-2.1797-2.1797-3.2695-4.9863-3.2695-8.4258 0-3.4277 1.1016-6.2461 3.3047-8.4492 2.209-2.209 5.0186-3.3164 8.4258-3.3164 3.4512 0 6.2842 1.1016 8.4961 3.3047 2.1855 2.1885 3.2812 5.0098 3.2812 8.4609z" fill="#231f20" aria-label="O"/>
 <path transform="matrix(1.3333 0 0 -1.3333 362.8 211.64)" d="m0 0c-2.473-2.472-5.652-3.708-9.54-3.708s-7.056 1.224-9.504 3.672c-2.473 2.472-3.708 5.652-3.708 9.54s1.224 7.056 3.672 9.504c2.472 2.471 5.652 3.708 9.54 3.708 3.864 0 7.043-1.224 9.54-3.672 2.471-2.472 3.708-5.652 3.708-9.54s-1.237-7.056-3.708-9.504zm-1.044 17.964c-2.208 2.208-5.04 3.312-8.496 3.312-3.408 0-6.216-1.104-8.424-3.312-2.209-2.209-3.312-5.028-3.312-8.46 0-3.433 1.091-6.24 3.276-8.424 2.208-2.208 5.027-3.312 8.46-3.312 3.456 0 6.288 1.08 8.496 3.24 2.183 2.183 3.276 5.015 3.276 8.496 0 3.456-1.093 6.276-3.276 8.46z" clip-path="url(#c)" fill="none" stroke="#000" stroke-miterlimit="10" stroke-width=".5"/>
</svg>
