<?xml version="1.0" encoding="UTF-8" standalone="no"?>
<!-- Created with Inkscape (http://www.inkscape.org/) -->

<svg
   xmlns:dc="http://purl.org/dc/elements/1.1/"
   xmlns:cc="http://creativecommons.org/ns#"
   xmlns:rdf="http://www.w3.org/1999/02/22-rdf-syntax-ns#"
   xmlns:svg="http://www.w3.org/2000/svg"
   xmlns="http://www.w3.org/2000/svg"
   xmlns:sodipodi="http://sodipodi.sourceforge.net/DTD/sodipodi-0.dtd"
   xmlns:inkscape="http://www.inkscape.org/namespaces/inkscape"
   id="svg4568"
   version="1.1"
   inkscape:version="0.91+devel+osxmenu r12896"
   width="3413.3333"
   height="2133.3333"
   viewBox="0 0 3413.3333 2133.3333"
   sodipodi:docname="DeathStar.svg">
  <metadata
     id="metadata4574">
    <rdf:RDF>
      <cc:Work
         rdf:about="">
        <dc:format>image/svg+xml</dc:format>
        <dc:type
           rdf:resource="http://purl.org/dc/dcmitype/StillImage" />
        <dc:title></dc:title>
      </cc:Work>
    </rdf:RDF>
  </metadata>
  <defs
     id="defs4572" />
  <sodipodi:namedview
     pagecolor="#ffffff"
     bordercolor="#666666"
     borderopacity="1"
     objecttolerance="10"
     gridtolerance="10"
     guidetolerance="10"
     inkscape:pageopacity="0"
     inkscape:pageshadow="2"
     inkscape:window-width="1440"
     inkscape:window-height="851"
     id="namedview4570"
     showgrid="false"
     inkscape:zoom="0.17"
     inkscape:cx="1935.2381"
     inkscape:cy="1409.5238"
     inkscape:window-x="0"
     inkscape:window-y="23"
     inkscape:window-maximized="0"
     inkscape:current-layer="svg4568" />
  <g
     id="g4578">
    <path
       style="fill:#7e8281;stroke-width:1.33333337"
       d="M 0,1066.6666 0,0 l 1706.6666,0 1706.6667,0 0,1066.6666 0,1066.6667 -1706.6667,0 -1706.6666,0 0,-1066.6667 z"
       id="path4582"
       inkscape:connector-curvature="0" />
    <path
       style="fill:#262d33;stroke-width:1.33333337"
       d="M 0,1066.6666 0,0 l 1706.6666,0 1706.6667,0 0,1066.6666 0,1066.6667 -1706.6667,0 L 0,2133.3333 0,1066.6666 Z M 2286.6722,750.07393 c 35.0028,-5.27667 65.6014,-20.79582 90.6832,-45.9933 23.7344,-23.84367 39.093,-53.12563 44.6854,-85.1952 2.5126,-14.4086 2.4818,-18.39957 -0.1499,-19.40945 -3.4265,-1.31487 -315.6875,-0.89726 -317.7764,0.42498 -1.5929,1.00831 -1.6359,2.97744 -0.2768,12.69191 12.3929,88.58901 95.0192,150.71921 182.8345,137.48106 z M 2423.8,593.66666 c 1.3773,-2.61862 -0.1683,-24.59531 -2.5296,-35.97007 -6.1988,-29.85924 -24.4274,-62.59146 -46.4012,-83.32042 -45.5732,-42.99155 -109.1947,-56.06639 -168.0274,-34.53132 -52.715,19.29574 -92.3077,67.11802 -102.1112,123.33563 -2.1062,12.07808 -2.7778,30.32783 -1.175,31.93062 0.4888,0.48889 72.4677,0.88889 159.953,0.88889 150.1334,0 159.1331,-0.13107 160.2914,-2.33333 z m -104.5952,-33.43599 c -19.3315,-6.68235 -29.6399,-26.58519 -23.9346,-46.21089 3.0366,-10.44549 14.204,-21.93432 24.0631,-24.75565 39.3587,-11.26308 66.5899,36.2458 36.356,63.42858 -10.6048,9.53468 -23.1876,12.13436 -36.4845,7.53796 z"
       id="path4580"
       inkscape:connector-curvature="0" />
  </g>
  <text
     xml:space="preserve"
     style="font-style:normal;font-weight:normal;font-size:411.22335815px;line-height:125%;font-family:sans-serif;letter-spacing:0px;word-spacing:0px;fill:#808282;fill-opacity:1;stroke:none;stroke-width:1.12151825px;stroke-linecap:butt;stroke-linejoin:miter;stroke-opacity:1"
     x="1002.3654"
     y="713.17212"
     id="text4584"
     sodipodi:linespacing="125%"
     transform="scale(0.95863941,1.0431451)"><tspan
       sodipodi:role="line"
       id="tspan4586"
       x="1002.3654"
       y="713.17212"
       style="stroke-width:1.12151825px">CCHD</tspan></text>
  <text
     xml:space="preserve"
     style="font-style:normal;font-weight:normal;font-size:266.66665649px;line-height:125%;font-family:sans-serif;letter-spacing:0px;word-spacing:0px;fill:#808282;fill-opacity:1;stroke:none;stroke-width:1px;stroke-linecap:butt;stroke-linejoin:miter;stroke-opacity:1"
     x="1005.8823"
     y="909.80383"
     id="text4588"
     sodipodi:linespacing="125%"><tspan
       sodipodi:role="line"
       id="tspan4590"
       x="1005.8823"
       y="909.80383"
       style="font-size:160px;fill:#808282;fill-opacity:1">THAT'S NO MOON</tspan></text>
</svg>
