<?xml version="1.0" encoding="UTF-8" standalone="no"?>
<!-- Created with Inkscape (http://www.inkscape.org/) -->

<svg
   xmlns:dc="http://purl.org/dc/elements/1.1/"
   xmlns:cc="http://creativecommons.org/ns#"
   xmlns:rdf="http://www.w3.org/1999/02/22-rdf-syntax-ns#"
   xmlns:svg="http://www.w3.org/2000/svg"
   xmlns="http://www.w3.org/2000/svg"
   xmlns:sodipodi="http://sodipodi.sourceforge.net/DTD/sodipodi-0.dtd"
   xmlns:inkscape="http://www.inkscape.org/namespaces/inkscape"
   version="1.1"
   id="svg2"
   xml:space="preserve"
   width="1222.6689"
   height="1493.5575"
   viewBox="0 0 1222.6689 1493.5575"
   sodipodi:docname="cchdo_logo.svg"
   inkscape:version="0.92.2 5c3e80d, 2017-08-06"><metadata
     id="metadata8"><rdf:RDF><cc:Work
         rdf:about=""><dc:format>image/svg+xml</dc:format><dc:type
           rdf:resource="http://purl.org/dc/dcmitype/StillImage" /><dc:title></dc:title></cc:Work></rdf:RDF></metadata><defs
     id="defs6"><clipPath
       clipPathUnits="userSpaceOnUse"
       id="clipPath18"><path
         d="M 0,2592 H 1728 V 0 H 0 Z"
         id="path16"
         inkscape:connector-curvature="0" /></clipPath></defs><sodipodi:namedview
     pagecolor="#ffffff"
     bordercolor="#666666"
     borderopacity="1"
     objecttolerance="10"
     gridtolerance="10"
     guidetolerance="10"
     inkscape:pageopacity="0"
     inkscape:pageshadow="2"
     inkscape:window-width="1487"
     inkscape:window-height="1122"
     id="namedview4"
     showgrid="false"
     fit-margin-top="0"
     fit-margin-left="0"
     fit-margin-right="0"
     fit-margin-bottom="0"
     inkscape:zoom="0.63"
     inkscape:cx="629.37673"
     inkscape:cy="767.65096"
     inkscape:window-x="0"
     inkscape:window-y="0"
     inkscape:window-maximized="0"
     inkscape:current-layer="g10" /><g
     id="g10"
     inkscape:groupmode="layer"
     inkscape:label="cchdo_logo"
     transform="matrix(1.3333333,0,0,-1.3333333,-533.99714,2472.5806)"><g
       id="g12"><g
         id="g14"
         clip-path="url(#clipPath18)"><g
           id="g20"
           transform="translate(1251.4453,773.5234)"><path
             d="m 0,0 c -3.066,5.646 -19.244,10.961 -45.67,15.67 -3.584,-0.795 -7.34,-1.574 -11.258,-2.342 -69.226,-13.535 -189.468,-22.492 -326.217,-22.492 -142.355,0 -266.826,9.705 -334.477,24.182 -2.63,0.562 -5.174,1.132 -7.632,1.711 -30.337,-5.01 -48.862,-10.756 -51.916,-16.891 -0.299,-0.598 -0.455,-1.201 -0.455,-1.807 0,-20.592 174.198,-37.287 389.08,-37.287 214.881,0 389.08,16.695 389.08,37.287 C 0.535,-1.309 0.352,-0.652 0,0"
             style="fill:#010101;fill-opacity:1;fill-rule:nonzero;stroke:none"
             id="path22"
             inkscape:connector-curvature="0" /></g><g
           id="g24"
           transform="translate(476.3716,846.4902)"><path
             d="m 0,0 c 5.048,2.738 13.264,5.375 24.266,7.873 0.193,0.043 0.402,0.086 0.598,0.129 v 127.4 c -0.198,-0.033 -0.403,-0.066 -0.598,-0.099 -16.639,-2.846 -26.935,-5.93 -29.652,-9.158 V -4.611 C -4.583,-3.047 -2.777,-1.51 0,0"
             style="fill:#010101;fill-opacity:1;fill-rule:nonzero;stroke:none"
             id="path26"
             inkscape:connector-curvature="0" /></g><g
           id="g28"
           transform="translate(715.5122,1007.0742)"><path
             d="m 0,0 v -128.229 c 10.447,0.415 21.129,0.782 32,1.104 V 0.797 C 21.063,0.564 10.376,0.297 0,0"
             style="fill:#010101;fill-opacity:1;fill-rule:nonzero;stroke:none"
             id="path30"
             inkscape:connector-curvature="0" /></g><g
           id="g32"
           transform="translate(567.7329,995.7715)"><path
             d="m 0,0 c -3.44,-0.373 -6.674,-0.752 -9.724,-1.139 v -130.429 c 3.172,0.384 6.408,0.763 9.724,1.136 7.104,0.797 14.537,1.567 22.276,2.303 V 2.084 C 14.168,1.418 6.707,0.723 0,0"
             style="fill:#010101;fill-opacity:1;fill-rule:nonzero;stroke:none"
             id="path34"
             inkscape:connector-curvature="0" /></g><g
           id="g36"
           transform="translate(1241.6016,844.9902)"><path
             d="m 0,0 c -5.047,2.738 -13.264,5.375 -24.266,7.873 -0.193,0.043 -0.402,0.086 -0.597,0.129 v 127.4 c 0.197,-0.033 0.402,-0.066 0.597,-0.099 16.639,-2.846 26.936,-5.93 29.653,-9.158 V -4.611 C 4.584,-3.047 2.777,-1.51 0,0"
             style="fill:#010101;fill-opacity:1;fill-rule:nonzero;stroke:none"
             id="path38"
             inkscape:connector-curvature="0" /></g><g
           id="g40"
           transform="translate(1002.4609,1005.5742)"><path
             d="m 0,0 v -128.229 c -10.447,0.415 -21.129,0.782 -32,1.104 V 0.797 C -21.063,0.564 -10.375,0.297 0,0"
             style="fill:#010101;fill-opacity:1;fill-rule:nonzero;stroke:none"
             id="path42"
             inkscape:connector-curvature="0" /></g><g
           id="g44"
           transform="translate(1150.2402,994.2715)"><path
             d="m 0,0 c 3.441,-0.373 6.674,-0.752 9.725,-1.139 v -130.429 c -3.172,0.384 -6.409,0.763 -9.725,1.136 -7.104,0.797 -14.537,1.567 -22.275,2.303 V 2.084 C -14.168,1.418 -6.707,0.723 0,0"
             style="fill:#010101;fill-opacity:1;fill-rule:nonzero;stroke:none"
             id="path46"
             inkscape:connector-curvature="0" /></g><g
           id="g48"
           transform="translate(1249.6973,815.0254)"><path
             d="m 0,0 h -0.061 -0.111 c 0.063,0.361 0.1,0.723 0.1,1.086 0,0.404 -0.041,0.807 -0.117,1.207 -1.202,6.307 -11.791,12.318 -30.061,17.824 -0.02,0.006 -0.039,0.012 -0.061,0.018 -8.437,2.539 -18.507,4.97 -30.05,7.273 -3.106,0.619 -6.321,1.229 -9.635,1.828 -4.729,0.858 -9.67,1.694 -14.807,2.508 -4.965,0.787 -10.113,1.557 -15.443,2.303 -5.342,0.75 -10.865,1.476 -16.557,2.183 -24.873,3.084 -53.008,5.75 -83.687,7.909 -9.83,0.691 -19.92,1.332 -30.25,1.916 -10.889,0.615 -22.055,1.166 -33.446,1.654 -10.476,0.451 -21.144,0.85 -32,1.187 -29.937,0.932 -61.234,1.428 -93.449,1.428 -39.138,0 -76.914,-0.734 -112.55,-2.092 -10.871,-0.414 -21.553,-0.882 -32,-1.412 -6.346,-0.32 -12.61,-0.66 -18.786,-1.021 -10.337,-0.604 -20.427,-1.266 -30.25,-1.977 -27.831,-2.019 -53.501,-4.459 -76.467,-7.252 -7.739,-0.941 -15.173,-1.922 -22.276,-2.941 -3.317,-0.475 -6.552,-0.959 -9.724,-1.451 -7.179,-1.112 -13.99,-2.264 -20.388,-3.453 -0.047,-0.01 -0.091,-0.018 -0.138,-0.028 -14.147,-2.634 -26.305,-5.453 -36.247,-8.42 -0.197,-0.056 -0.406,-0.115 -0.599,-0.173 -11.002,-3.317 -19.218,-6.819 -24.266,-10.458 -2.777,-2.003 -4.583,-4.048 -5.385,-6.126 -0.312,-0.807 -0.487,-1.618 -0.487,-2.434 v -2.623 -27.106 h 0.051 c 0.03,-0.246 0.08,-0.494 0.141,-0.742 3.063,6.135 21.639,11.883 52.061,16.889 9.276,1.527 19.649,2.986 31.022,4.365 40.19,7.041 120.788,12.428 219.432,14.455 27.757,0.571 56.941,0.873 87.059,0.873 33.108,0 65.088,-0.365 95.286,-1.051 94.384,-2.14 171.31,-7.376 210.57,-14.167 14.338,-1.727 27.111,-3.577 38.111,-5.532 26.5,-4.707 42.723,-10.021 45.797,-15.672 L 0.332,0 Z"
             style="fill:#010101;fill-opacity:1;fill-rule:nonzero;stroke:none"
             id="path50"
             inkscape:connector-curvature="0" /></g><g
           id="g52"
           transform="translate(1249.5254,1021.1641)"><path
             d="m 0,0 c 0.063,0.361 0.1,0.723 0.1,1.086 0,0.404 -0.041,0.807 -0.118,1.207 -1.755,9.225 -23.586,17.82 -60.171,25.115 -69.063,13.774 -190.719,22.916 -329.274,22.916 -134.093,0 -252.359,-8.562 -322.441,-21.599 -30.289,-5.633 -51.576,-12.104 -61.25,-19.079 -3.855,-2.779 -5.872,-5.64 -5.872,-8.56 v -14.621 -15.106 h 0.051 c 0.03,-0.248 0.08,-0.494 0.141,-0.742 0.08,0.16 0.193,0.319 0.294,0.479 2.717,4.291 13.013,8.386 29.652,12.166 0.195,0.045 0.4,0.09 0.598,0.133 6.308,1.417 13.494,2.789 21.517,4.111 4.639,0.764 9.553,1.51 14.731,2.238 5.171,0.729 10.607,1.438 16.291,2.127 1.359,0.238 2.783,0.473 4.235,0.707 3.05,0.492 6.283,0.977 9.724,1.451 6.707,0.924 14.167,1.813 22.276,2.662 21.247,2.227 47.075,4.182 76.467,5.784 9.71,0.527 19.806,1.017 30.25,1.464 6.143,0.264 12.411,0.514 18.786,0.749 10.376,0.38 21.062,0.72 32,1.019 8.419,0.231 16.977,0.439 25.694,0.617 27.757,0.571 56.941,0.875 87.059,0.875 32.367,0 63.647,-0.353 93.246,-1.008 0.676,-0.015 1.364,-0.027 2.039,-0.043 10.205,-0.232 20.194,-0.502 29.961,-0.804 11.475,-0.354 22.643,-0.756 33.446,-1.201 10.431,-0.432 20.525,-0.903 30.25,-1.413 32.511,-1.705 60.863,-3.837 83.687,-6.291 5.889,-0.632 11.43,-1.287 16.557,-1.96 5.633,-0.741 10.789,-1.504 15.443,-2.292 0.41,-0.068 0.824,-0.138 1.227,-0.207 4.703,-0.566 9.22,-1.148 13.58,-1.74 8.929,-1.213 17.14,-2.478 24.531,-3.793 5.506,-0.976 10.563,-1.982 15.154,-3.01 0.022,-0.005 0.041,-0.009 0.061,-0.013 16.674,-3.737 27.152,-7.787 30.189,-12.033 0.024,-0.032 0.039,-0.065 0.061,-0.096 0.121,-0.172 0.238,-0.346 0.332,-0.518 L 0.504,0 Z"
             style="fill:#010101;fill-opacity:1;fill-rule:nonzero;stroke:none"
             id="path54"
             inkscape:connector-curvature="0" /></g><g
           id="g56"
           transform="translate(897.1094,1684.5293)"><path
             d="M 0,0 H 0.18 V -0.284 C 0.209,-0.333 0.24,-0.378 0.27,-0.427 H 0.18 v -488.261 -15.508 l -0.282,-0.684 H 0.18 l -15.041,-34.645 c -15,5 -39,5 -56.333,0.736 l -14.184,33.909 h 0.393 l -0.393,0.949 v 15.472 488.414 l -0.19,0.001 C -69.768,21.386 -11.77,18.699 0,0"
             style="fill:#010101;fill-opacity:1;fill-rule:nonzero;stroke:none"
             id="path58"
             inkscape:connector-curvature="0" /></g><g
           id="g60"
           transform="translate(1005.4883,1676.5283)"><path
             d="m 0,0 h 0.178 v -0.284 c 0.029,-0.049 0.062,-0.094 0.09,-0.143 h -0.09 v -488.261 -15.508 l -0.28,-0.684 h 0.28 l -15.039,-34.646 c -15,5 -39,5 -56.334,0.736 l -14.184,33.91 h 0.393 l -0.393,0.949 v 15.472 488.414 l -0.189,0.001 C -69.77,21.386 -11.77,18.699 0,0"
             style="fill:#010101;fill-opacity:1;fill-rule:nonzero;stroke:none"
             id="path62"
             inkscape:connector-curvature="0" /></g><g
           id="g64"
           transform="translate(1106.8203,1652.5283)"><path
             d="m 0,0 h 0.178 v -0.284 c 0.029,-0.049 0.062,-0.094 0.09,-0.143 h -0.09 v -488.261 -15.508 l -0.28,-0.684 h 0.28 l -15.039,-34.646 c -15,5 -39,5 -56.334,0.736 l -14.184,33.91 h 0.393 l -0.393,0.949 v 15.472 488.414 l -0.189,0.001 C -69.77,21.386 -11.77,18.699 0,0"
             style="fill:#010101;fill-opacity:1;fill-rule:nonzero;stroke:none"
             id="path66"
             inkscape:connector-curvature="0" /></g><g
           id="g68"
           transform="translate(1202.1523,1621.5273)"><path
             d="m 0,0 h 0.178 v -0.284 c 0.029,-0.049 0.062,-0.094 0.09,-0.143 h -0.09 v -488.262 -15.508 l -0.28,-0.684 h 0.28 l -15.039,-34.644 c -15,5 -39,5 -56.334,0.736 l -14.184,33.908 h 0.393 l -0.393,0.949 v 15.473 488.414 l -0.189,0.001 C -69.77,21.386 -11.77,18.699 0,0"
             style="fill:#010101;fill-opacity:1;fill-rule:nonzero;stroke:none"
             id="path70"
             inkscape:connector-curvature="0" /></g><g
           id="g72"
           transform="translate(704.853,1676.5283)"><path
             d="m 0,0 h -0.179 v -0.284 c -0.029,-0.049 -0.061,-0.094 -0.09,-0.143 h 0.09 v -488.261 -15.508 l 0.281,-0.684 h -0.281 l 15.04,-34.646 c 15,5 39,5 56.333,0.736 l 14.185,33.91 h -0.394 l 0.394,0.949 v 15.472 488.414 l 0.189,0.001 C 69.769,21.386 11.77,18.699 0,0"
             style="fill:#010101;fill-opacity:1;fill-rule:nonzero;stroke:none"
             id="path74"
             inkscape:connector-curvature="0" /></g><g
           id="g76"
           transform="translate(603.521,1652.5283)"><path
             d="m 0,0 h -0.179 v -0.284 c -0.029,-0.049 -0.061,-0.094 -0.09,-0.143 h 0.09 v -488.261 -15.508 l 0.281,-0.684 h -0.281 l 15.04,-34.646 c 15,5 39,5 56.333,0.736 l 14.185,33.91 h -0.394 l 0.394,0.949 v 15.472 488.414 l 0.189,0.001 C 69.769,21.386 11.77,18.699 0,0"
             style="fill:#010101;fill-opacity:1;fill-rule:nonzero;stroke:none"
             id="path78"
             inkscape:connector-curvature="0" /></g><g
           id="g80"
           transform="translate(508.189,1621.5273)"><path
             d="m 0,0 h -0.179 v -0.284 c -0.029,-0.049 -0.061,-0.094 -0.09,-0.143 h 0.09 v -488.262 -15.508 l 0.281,-0.684 h -0.281 l 15.04,-34.644 c 15,5 39,5 56.333,0.736 l 14.185,33.908 h -0.394 l 0.394,0.949 v 15.473 488.414 l 0.189,0.001 C 69.769,21.386 11.77,18.699 0,0"
             style="fill:#010101;fill-opacity:1;fill-rule:nonzero;stroke:none"
             id="path82"
             inkscape:connector-curvature="0" /></g><g
           id="g84"
           transform="translate(710.644,1703.2329)"><path
             d="m 0,0 -222.022,147.015 c 0,0 -30.003,3.001 -30.003,-15.001 v -777.079 c 0,0 -0.61,-11.17 5.39,-20.17 l 16,9 c 0,0 -2.804,6.416 -2,37 1.578,60.014 0,736.001 0,736.001 0,0 4,16 18,4 14,-12 196,-132 196,-132 0,0 11.27,10.468 18.635,11.234"
             style="fill:#010101;fill-opacity:1;fill-rule:nonzero;stroke:none"
             id="path86"
             inkscape:connector-curvature="0" /></g><g
           id="g88"
           transform="translate(1003.375,1707.2329)"><path
             d="m 0,0 222.021,147.015 c 0,0 30.004,3.001 30.004,-15.001 v -777.079 c 0,0 0.61,-11.17 -5.39,-20.17 l -16,9 c 0,0 2.803,6.416 2,37 -1.578,60.014 0,736.001 0,736.001 0,0 -4,16 -18,4 -14,-12 -196,-132 -196,-132 0,0 -11.27,10.468 -18.635,11.234"
             style="fill:#010101;fill-opacity:1;fill-rule:nonzero;stroke:none"
             id="path90"
             inkscape:connector-curvature="0" /></g><g
           id="g92"
           transform="translate(514.4995,1651.5)"><path
             d="m 0,0 -66,42 c 0,0 -48,30 -48,-22 v -636 c 0,0 -1.166,-31.834 58.834,-31.834 L -55,-626.75 c 0,0 -14.534,0.369 -25.25,2.75 -15.75,3.5 -11,6.75 -12.25,22.166 -0.752,9.284 0.5,23.533 0.5,39.834 V 14 c 0,0 0.834,15.833 14,10 9.847,-4.363 66,-38 66,-38 z"
             style="fill:#010101;fill-opacity:1;fill-rule:nonzero;stroke:none"
             id="path94"
             inkscape:connector-curvature="0" /></g><g
           id="g96"
           transform="translate(1203.498,1651.5)"><path
             d="m 0,0 66,42 c 0,0 48,30 48,-22 v -636 c 0,0 1.166,-31.834 -58.834,-31.834 L 55,-626.75 c 0,0 14.534,0.369 25.25,2.75 15.75,3.5 11,6.75 12.25,22.166 0.753,9.284 -0.5,23.533 -0.5,39.834 V 14 C 92,14 91.166,29.833 78,24 68.153,19.637 12,-14 12,-14 Z"
             style="fill:#010101;fill-opacity:1;fill-rule:nonzero;stroke:none"
             id="path98"
             inkscape:connector-curvature="0" /></g></g></g></g></svg>