<svg xmlns="http://www.w3.org/2000/svg" width="1222.669" height="1493.557"><defs><clipPath id="a"><path d="M0 2592h1728V0H0z"/></clipPath></defs><g clip-path="url(#a)" transform="matrix(1.33333 0 0 -1.33333 -533.997 2472.58)"><path d="M1251.445 773.523c-3.066 5.646-19.244 10.961-45.67 15.67a466.423 466.423 0 0 0-11.258-2.342c-69.226-13.535-189.468-22.492-326.217-22.492-142.355 0-266.826 9.705-334.477 24.182-2.63.562-5.174 1.132-7.632 1.711-30.337-5.01-48.862-10.756-51.916-16.89-.299-.599-.455-1.202-.455-1.808 0-20.592 174.198-37.287 389.08-37.287 214.881 0 389.08 16.695 389.08 37.287 0 .66-.183 1.317-.535 1.97M476.372 846.49c5.048 2.738 13.264 5.375 24.266 7.873.193.043.402.086.598.13v127.4l-.598-.1c-16.64-2.846-26.935-5.93-29.652-9.158V841.88c.803 1.564 2.609 3.101 5.386 4.611M715.512 1007.074V878.845c10.447.415 21.13.782 32 1.104v127.922c-10.937-.233-21.624-.5-32-.797M567.733 995.771c-3.44-.373-6.674-.752-9.724-1.139V864.203c3.172.384 6.408.763 9.724 1.136 7.104.797 14.537 1.567 22.276 2.303v130.213c-8.108-.666-15.57-1.36-22.276-2.084M1241.602 844.99c-5.047 2.738-13.264 5.375-24.266 7.873-.193.043-.402.086-.597.13v127.4l.597-.1c16.639-2.846 26.936-5.93 29.653-9.158V840.38c-.803 1.564-2.61 3.101-5.387 4.611M1002.46 1005.574V877.345c-10.446.415-21.128.782-32 1.104v127.922c10.938-.233 21.626-.5 32-.797M1150.24 994.271a538.71 538.71 0 0 0 9.725-1.139V862.703c-3.172.384-6.409.763-9.725 1.136-7.104.797-14.537 1.567-22.275 2.303v130.213c8.107-.666 15.568-1.36 22.275-2.084" fill="#010101"/><path d="M1249.697 815.025h-.172c.063.361.1.723.1 1.086 0 .404-.04.807-.117 1.207-1.202 6.307-11.79 12.318-30.06 17.824l-.062.018c-8.437 2.54-18.507 4.97-30.05 7.273a548.63 548.63 0 0 1-9.635 1.828 673.9 673.9 0 0 1-14.807 2.508 860.715 860.715 0 0 1-15.443 2.303c-5.342.75-10.865 1.476-16.557 2.183-24.873 3.084-53.008 5.75-83.687 7.91-9.83.69-19.92 1.331-30.25 1.915a2464.71 2464.71 0 0 1-33.446 1.654c-10.476.451-21.144.85-32 1.187-29.937.932-61.234 1.428-93.449 1.428-39.138 0-76.914-.734-112.55-2.092a2541.042 2541.042 0 0 1-32-1.412c-6.346-.32-12.61-.66-18.786-1.02a2183.135 2183.135 0 0 1-30.25-1.978c-27.83-2.019-53.5-4.459-76.467-7.252a1047.628 1047.628 0 0 1-22.276-2.94 843.08 843.08 0 0 1-9.724-1.452 690.293 690.293 0 0 1-20.388-3.453l-.138-.028c-14.147-2.634-26.305-5.453-36.247-8.42-.197-.056-.406-.115-.599-.173-11.002-3.317-19.218-6.819-24.266-10.458-2.777-2.003-4.583-4.048-5.385-6.126-.312-.807-.487-1.618-.487-2.434V786.382h.051c.03-.246.08-.494.141-.742 3.063 6.135 21.64 11.883 52.061 16.89 9.276 1.526 19.65 2.985 31.022 4.364 40.19 7.041 120.788 12.428 219.432 14.455 27.757.571 56.941.873 87.06.873 33.107 0 65.087-.365 95.285-1.05 94.384-2.14 171.31-7.377 210.57-14.168 14.338-1.727 27.111-3.577 38.111-5.532 26.5-4.707 42.723-10.02 45.797-15.672v29.225zM1249.525 1021.164c.063.361.1.723.1 1.086 0 .404-.04.807-.118 1.207-1.755 9.225-23.586 17.82-60.17 25.115-69.064 13.774-190.72 22.916-329.275 22.916-134.093 0-252.359-8.562-322.44-21.599-30.29-5.633-51.577-12.104-61.25-19.079-3.856-2.779-5.873-5.64-5.873-8.56V992.523h.051c.03-.248.08-.494.141-.742.08.16.193.32.294.48 2.717 4.29 13.013 8.385 29.652 12.165.195.045.4.09.598.133 6.308 1.417 13.494 2.79 21.517 4.111 4.64.764 9.553 1.51 14.731 2.238a847.752 847.752 0 0 0 16.291 2.127c1.36.238 2.783.473 4.235.707 3.05.492 6.283.977 9.724 1.451 6.707.924 14.167 1.813 22.276 2.662 21.247 2.227 47.075 4.182 76.467 5.784 9.71.527 19.806 1.017 30.25 1.464 6.143.264 12.411.514 18.786.75 10.376.38 21.062.72 32 1.018 8.42.231 16.977.44 25.694.617 27.757.571 56.941.875 87.06.875 32.366 0 63.646-.353 93.245-1.008.676-.015 1.364-.027 2.04-.043 10.204-.232 20.193-.502 29.96-.804 11.475-.354 22.643-.756 33.446-1.2 10.431-.433 20.525-.904 30.25-1.414 32.511-1.705 60.863-3.837 83.687-6.29a710.356 710.356 0 0 0 16.557-1.96c5.633-.742 10.79-1.505 15.443-2.293.41-.068.824-.138 1.227-.207 4.703-.566 9.22-1.148 13.58-1.74 8.93-1.213 17.14-2.478 24.531-3.793 5.506-.976 10.563-1.982 15.154-3.01a2.31 2.31 0 0 1 .061-.013c16.674-3.737 27.152-7.787 30.19-12.033.023-.032.038-.065.06-.096.121-.172.238-.346.332-.518v29.223zM897.11 1684.53h.18v-.285c.028-.049.06-.094.09-.143h-.09v-503.769l-.283-.684h.282l-15.04-34.645c-15 5-39 5-56.334.736l-14.184 33.91h.393l-.393.948V1684.484l-.19.001c15.8 21.43 73.798 18.743 85.568.044M1005.488 1676.528h.178v-.284c.03-.049.062-.094.09-.143h-.09v-503.769l-.28-.684h.28l-15.039-34.646c-15 5-39 5-56.334.736l-14.184 33.91h.393l-.393.95v503.885l-.189.001c15.798 21.43 73.798 18.743 85.568.044M1106.82 1652.528h.178v-.284c.03-.049.062-.094.09-.143h-.09v-503.769l-.28-.684h.28l-15.039-34.646c-15 5-39 5-56.334.736l-14.184 33.91h.393l-.393.95v503.885l-.189.001c15.798 21.43 73.798 18.743 85.568.044M1202.152 1621.527h.178v-.284c.03-.049.062-.094.09-.143h-.09v-503.77l-.28-.684h.28l-15.039-34.644c-15 5-39 5-56.334.736l-14.184 33.908h.393l-.393.95V1621.481l-.189.001c15.798 21.43 73.798 18.743 85.568.044M704.853 1676.528h-.179v-.284c-.029-.049-.061-.094-.09-.143h.09v-503.769l.281-.684h-.281l15.04-34.646c15 5 39 5 56.333.736l14.185 33.91h-.394l.394.95v503.885l.189.001c-15.799 21.43-73.798 18.743-85.568.044M603.521 1652.528h-.179v-.284c-.029-.049-.061-.094-.09-.143h.09v-503.769l.281-.684h-.281l15.04-34.646c15 5 39 5 56.333.736l14.185 33.91h-.394l.394.95v503.885l.189.001c-15.799 21.43-73.798 18.743-85.568.044M508.189 1621.527h-.179v-.284c-.029-.049-.061-.094-.09-.143h.09v-503.77l.281-.684h-.281l15.04-34.644c15 5 39 5 56.333.736l14.185 33.908h-.394l.394.95V1621.481l.189.001c-15.799 21.43-73.798 18.743-85.568.044" fill="#010101"/><path d="M710.644 1703.233l-222.022 147.015s-30.003 3-30.003-15.001v-777.08s-.61-11.17 5.39-20.17l16 9s-2.804 6.417-2 37c1.578 60.015 0 736.002 0 736.002s4 16 18 4 196-132 196-132 11.27 10.468 18.635 11.234M1003.375 1707.233l222.021 147.015s30.004 3 30.004-15.001v-777.08s.61-11.17-5.39-20.17l-16 9s2.803 6.417 2 37c-1.578 60.015 0 736.002 0 736.002s-4 16-18 4-196-132-196-132-11.27 10.468-18.635 11.234" fill="#010101"/><path d="M514.5 1651.5l-66 42s-48 30-48-22v-636s-1.166-31.834 58.834-31.834l.166 21.084s-14.534.369-25.25 2.75c-15.75 3.5-11 6.75-12.25 22.166-.752 9.284.5 23.533.5 39.834v576s.834 15.833 14 10c9.847-4.363 66-38 66-38zM1203.498 1651.5l66 42s48 30 48-22v-636s1.166-31.834-58.834-31.834l-.166 21.084s14.534.369 25.25 2.75c15.75 3.5 11 6.75 12.25 22.166.753 9.284-.5 23.533-.5 39.834v576s-.834 15.833-14 10c-9.847-4.363-66-38-66-38z" fill="#010101"/></g></svg>