<?xml version="1.0" encoding="UTF-8"?>
<svg xmlns="http://www.w3.org/2000/svg" xmlns:xlink="http://www.w3.org/1999/xlink" width="354.14pt" height="354.14pt" viewBox="0 0 354.14 354.14" version="1.1">
<g id="surface1">
<path style="fill:none;stroke-width:20;stroke-linecap:butt;stroke-linejoin:miter;stroke:rgb(0%,0%,0%);stroke-opacity:1;stroke-miterlimit:4;" d="M 1770.703125 9.99375 C 2743.085938 9.99375 3531.40625 798.314063 3531.40625 1770.696875 C 3531.40625 2743.079688 2743.085938 3531.4 1770.703125 3531.4 C 798.320312 3531.4 10 2743.079688 10 1770.696875 C 10 798.314063 798.320312 9.99375 1770.703125 9.99375 Z M 1770.703125 9.99375 " transform="matrix(0.1,0,0,-0.1,0,354.14)"/>
<path style=" stroke:none;fill-rule:nonzero;fill:rgb(30.078125%,77.478027%,94.877625%);fill-opacity:1;" d="M 177.238281 322.804688 C 257.605469 322.804688 322.757812 257.652344 322.757812 177.289062 C 322.757812 96.921875 257.605469 31.769531 177.238281 31.769531 C 96.875 31.769531 31.722656 96.921875 31.722656 177.289062 C 31.722656 257.652344 96.875 322.804688 177.238281 322.804688 "/>
<path style="fill:none;stroke-width:20;stroke-linecap:butt;stroke-linejoin:miter;stroke:rgb(0%,0%,0%);stroke-opacity:1;stroke-miterlimit:4;" d="M 1772.382812 313.353125 C 2576.054688 313.353125 3227.578125 964.876563 3227.578125 1768.509375 C 3227.578125 2572.18125 2576.054688 3223.704688 1772.382812 3223.704688 C 968.75 3223.704688 317.226562 2572.18125 317.226562 1768.509375 C 317.226562 964.876563 968.75 313.353125 1772.382812 313.353125 Z M 1772.382812 313.353125 " transform="matrix(0.1,0,0,-0.1,0,354.14)"/>
<path style="fill:none;stroke-width:12;stroke-linecap:square;stroke-linejoin:miter;stroke:rgb(0%,0%,0%);stroke-opacity:1;stroke-miterlimit:2;" d="M 1842.304688 780.579688 C 1676.289062 759.603125 1252.1875 833.196875 1155.3125 825.579688 C 1058.4375 817.9625 975.9375 773.353125 1035.3125 681.595313 C 1094.6875 589.8375 1219.21875 547.025 1328.28125 499.603125 C 1491.5625 428.5875 1689.296875 420.579688 1818.28125 417.571875 C 1942.304688 424.603125 2124.296875 452.571875 2252.304688 523.5875 C 2321.289062 564.603125 2446.289062 617.571875 2456.289062 720.579688 C 2459.882812 757.415625 2426.171875 785.267188 2396.289062 799.603125 C 2245.9375 871.7125 2027.304688 786.595313 1842.304688 780.579688 " transform="matrix(0.1,0,0,-0.1,0,354.14)"/>
<path style=" stroke:none;fill-rule:nonzero;fill:rgb(100%,100%,100%);fill-opacity:1;" d="M 184.597656 125.417969 C 184.601562 125.46875 184.609375 125.523438 184.632812 125.585938 L 185.335938 125.585938 L 185.335938 125.285156 L 184.984375 124.542969 L 185.109375 123.542969 C 185.109375 123.542969 183.71875 124.421875 183.859375 124.792969 C 184.171875 125.605469 184.597656 125.417969 184.597656 125.417969 "/>
<path style="fill:none;stroke-width:2;stroke-linecap:butt;stroke-linejoin:miter;stroke:rgb(0%,0%,0%);stroke-opacity:1;stroke-miterlimit:4;" d="M 1845.976562 2287.220313 C 1846.015625 2286.7125 1846.09375 2286.165625 1846.328125 2285.540625 L 1853.359375 2285.540625 L 1853.359375 2288.548438 L 1849.84375 2295.970313 L 1851.09375 2305.970313 C 1851.09375 2305.970313 1837.1875 2297.18125 1838.59375 2293.470313 C 1841.71875 2285.345313 1845.976562 2287.220313 1845.976562 2287.220313 Z M 1845.976562 2287.220313 " transform="matrix(0.1,0,0,-0.1,0,354.14)"/>
<path style=" stroke:none;fill-rule:nonzero;fill:rgb(100%,100%,100%);fill-opacity:1;" d="M 161.535156 140.183594 C 161.734375 140.585938 161.335938 140.882812 161.035156 141.183594 L 160.632812 141.183594 L 160.632812 139.984375 C 160.933594 139.882812 161.132812 140.382812 161.535156 140.183594 "/>
<path style="fill:none;stroke-width:2;stroke-linecap:butt;stroke-linejoin:miter;stroke:rgb(0%,0%,0%);stroke-opacity:1;stroke-miterlimit:4;" d="M 1615.351562 2139.564063 C 1617.34375 2135.540625 1613.359375 2132.571875 1610.351562 2129.564063 L 1606.328125 2129.564063 L 1606.328125 2141.55625 C 1609.335938 2142.571875 1611.328125 2137.571875 1615.351562 2139.564063 Z M 1615.351562 2139.564063 " transform="matrix(0.1,0,0,-0.1,0,354.14)"/>
<path style=" stroke:none;fill-rule:nonzero;fill:rgb(100%,100%,100%);fill-opacity:1;" d="M 295.734375 149.984375 C 295.933594 151.785156 295.433594 153.585938 294.234375 154.382812 C 294.335938 152.285156 295.335938 149.382812 293.835938 147.382812 C 294.433594 144.984375 295.433594 148.984375 295.734375 149.984375 "/>
<path style="fill:none;stroke-width:2;stroke-linecap:butt;stroke-linejoin:miter;stroke:rgb(0%,0%,0%);stroke-opacity:1;stroke-miterlimit:4;" d="M 2957.34375 2041.55625 C 2959.335938 2023.548438 2954.335938 2005.540625 2942.34375 1997.571875 C 2943.359375 2018.548438 2953.359375 2047.571875 2938.359375 2067.571875 C 2944.335938 2091.55625 2954.335938 2051.55625 2957.34375 2041.55625 Z M 2957.34375 2041.55625 " transform="matrix(0.1,0,0,-0.1,0,354.14)"/>
<path style=" stroke:none;fill-rule:nonzero;fill:rgb(100%,100%,100%);fill-opacity:1;" d="M 272.234375 156.484375 C 272.433594 157.183594 271.835938 157.484375 271.433594 157.984375 C 270.535156 158.382812 270.433594 157.382812 270.535156 156.785156 C 270.433594 156.285156 270.535156 155.882812 271.035156 155.585938 C 271.835938 155.382812 272.234375 155.785156 272.234375 156.484375 "/>
<path style="fill:none;stroke-width:2;stroke-linecap:butt;stroke-linejoin:miter;stroke:rgb(0%,0%,0%);stroke-opacity:1;stroke-miterlimit:4;" d="M 2722.34375 1976.55625 C 2724.335938 1969.564063 2718.359375 1966.55625 2714.335938 1961.55625 C 2705.351562 1957.571875 2704.335938 1967.571875 2705.351562 1973.548438 C 2704.335938 1978.548438 2705.351562 1982.571875 2710.351562 1985.540625 C 2718.359375 1987.571875 2722.34375 1983.548438 2722.34375 1976.55625 Z M 2722.34375 1976.55625 " transform="matrix(0.1,0,0,-0.1,0,354.14)"/>
<path style=" stroke:none;fill-rule:nonzero;fill:rgb(100%,100%,100%);fill-opacity:1;" d="M 257.835938 160.085938 C 257.035156 160.984375 256.535156 159.585938 255.835938 159.382812 C 255.933594 158.585938 256.035156 157.683594 256.835938 157.183594 C 258.535156 157.683594 256.433594 159.285156 257.835938 160.085938 "/>
<path style="fill:none;stroke-width:2;stroke-linecap:butt;stroke-linejoin:miter;stroke:rgb(0%,0%,0%);stroke-opacity:1;stroke-miterlimit:4;" d="M 2578.359375 1940.540625 C 2570.351562 1931.55625 2565.351562 1945.540625 2558.359375 1947.571875 C 2559.335938 1955.540625 2560.351562 1964.564063 2568.359375 1969.564063 C 2585.351562 1964.564063 2564.335938 1948.548438 2578.359375 1940.540625 Z M 2578.359375 1940.540625 " transform="matrix(0.1,0,0,-0.1,0,354.14)"/>
<path style=" stroke:none;fill-rule:nonzero;fill:rgb(100%,100%,100%);fill-opacity:1;" d="M 269.535156 165.382812 C 269.035156 165.785156 268.734375 166.683594 267.835938 166.382812 C 267.933594 164.585938 268.535156 162.785156 269.335938 161.585938 C 271.035156 162.382812 268.835938 163.785156 269.535156 165.382812 "/>
<path style="fill:none;stroke-width:2;stroke-linecap:butt;stroke-linejoin:miter;stroke:rgb(0%,0%,0%);stroke-opacity:1;stroke-miterlimit:4;" d="M 2695.351562 1887.571875 C 2690.351562 1883.548438 2687.34375 1874.564063 2678.359375 1877.571875 C 2679.335938 1895.540625 2685.351562 1913.548438 2693.359375 1925.540625 C 2710.351562 1917.571875 2688.359375 1903.548438 2695.351562 1887.571875 Z M 2695.351562 1887.571875 " transform="matrix(0.1,0,0,-0.1,0,354.14)"/>
<path style=" stroke:none;fill-rule:nonzero;fill:rgb(100%,100%,100%);fill-opacity:1;" d="M 164.234375 164.683594 C 163.132812 164.984375 163.734375 163.785156 163.234375 163.484375 L 163.734375 162.484375 C 164.632812 162.882812 164.035156 163.984375 164.234375 164.683594 "/>
<path style="fill:none;stroke-width:2;stroke-linecap:butt;stroke-linejoin:miter;stroke:rgb(0%,0%,0%);stroke-opacity:1;stroke-miterlimit:4;" d="M 1642.34375 1894.564063 C 1631.328125 1891.55625 1637.34375 1903.548438 1632.34375 1906.55625 L 1637.34375 1916.55625 C 1646.328125 1912.571875 1640.351562 1901.55625 1642.34375 1894.564063 Z M 1642.34375 1894.564063 " transform="matrix(0.1,0,0,-0.1,0,354.14)"/>
<path style=" stroke:none;fill-rule:nonzero;fill:rgb(100%,100%,100%);fill-opacity:1;" d="M 172.632812 163.683594 C 172.933594 164.585938 172.132812 164.984375 171.835938 165.585938 C 171.234375 165.882812 171.234375 165.183594 170.933594 164.882812 C 170.933594 164.085938 171.734375 163.382812 172.632812 163.683594 "/>
<path style="fill:none;stroke-width:2;stroke-linecap:butt;stroke-linejoin:miter;stroke:rgb(0%,0%,0%);stroke-opacity:1;stroke-miterlimit:4;" d="M 1726.328125 1904.564063 C 1729.335938 1895.540625 1721.328125 1891.55625 1718.359375 1885.540625 C 1712.34375 1882.571875 1712.34375 1889.564063 1709.335938 1892.571875 C 1709.335938 1900.540625 1717.34375 1907.571875 1726.328125 1904.564063 Z M 1726.328125 1904.564063 " transform="matrix(0.1,0,0,-0.1,0,354.14)"/>
<path style=" stroke:none;fill-rule:nonzero;fill:rgb(100%,100%,100%);fill-opacity:1;" d="M 160.132812 166.382812 C 160.132812 166.585938 160.132812 166.984375 159.835938 167.085938 L 159.132812 167.085938 C 158.835938 166.382812 159.632812 166.285156 160.132812 166.382812 "/>
<path style="fill:none;stroke-width:2;stroke-linecap:butt;stroke-linejoin:miter;stroke:rgb(0%,0%,0%);stroke-opacity:1;stroke-miterlimit:4;" d="M 1601.328125 1877.571875 C 1601.328125 1875.540625 1601.328125 1871.55625 1598.359375 1870.540625 L 1591.328125 1870.540625 C 1588.359375 1877.571875 1596.328125 1878.548438 1601.328125 1877.571875 Z M 1601.328125 1877.571875 " transform="matrix(0.1,0,0,-0.1,0,354.14)"/>
<path style=" stroke:none;fill-rule:nonzero;fill:rgb(100%,100%,100%);fill-opacity:1;" d="M 171.632812 169.984375 C 171.132812 170.183594 170.632812 170.585938 169.933594 170.382812 C 169.535156 170.285156 169.734375 169.785156 169.734375 169.484375 C 170.234375 168.585938 171.734375 169.085938 171.632812 169.984375 "/>
<path style="fill:none;stroke-width:2;stroke-linecap:butt;stroke-linejoin:miter;stroke:rgb(0%,0%,0%);stroke-opacity:1;stroke-miterlimit:4;" d="M 1716.328125 1841.55625 C 1711.328125 1839.564063 1706.328125 1835.540625 1699.335938 1837.571875 C 1695.351562 1838.548438 1697.34375 1843.548438 1697.34375 1846.55625 C 1702.34375 1855.540625 1717.34375 1850.540625 1716.328125 1841.55625 Z M 1716.328125 1841.55625 " transform="matrix(0.1,0,0,-0.1,0,354.14)"/>
<path style=" stroke:none;fill-rule:nonzero;fill:rgb(100%,100%,100%);fill-opacity:1;" d="M 282.734375 173.585938 L 283.035156 173.585938 C 283.632812 173.085938 283.835938 171.984375 283.433594 171.585938 L 282.984375 170.980469 L 282.421875 171.542969 L 282.484375 172.480469 L 282.734375 173.585938 "/>
<path style="fill:none;stroke-width:2;stroke-linecap:butt;stroke-linejoin:miter;stroke:rgb(0%,0%,0%);stroke-opacity:1;stroke-miterlimit:4;" d="M 2827.34375 1805.540625 L 2830.351562 1805.540625 C 2836.328125 1810.540625 2838.359375 1821.55625 2834.335938 1825.540625 L 2829.84375 1831.595313 L 2824.21875 1825.970313 L 2824.84375 1816.595313 Z M 2827.34375 1805.540625 " transform="matrix(0.1,0,0,-0.1,0,354.14)"/>
<path style=" stroke:none;fill-rule:nonzero;fill:rgb(100%,100%,100%);fill-opacity:1;" d="M 276.71875 177.402344 C 276.191406 176.214844 277.035156 174.597656 277.035156 173.285156 L 277.734375 173.285156 C 277.285156 174.335938 278.238281 175.777344 277.902344 176.898438 L 277.796875 179.417969 C 277.898438 179.621094 277.15625 180.753906 277.234375 180.984375 L 277.035156 180.984375 L 276.421875 179.542969 L 276.71875 177.402344 "/>
<path style="fill:none;stroke-width:2;stroke-linecap:butt;stroke-linejoin:miter;stroke:rgb(0%,0%,0%);stroke-opacity:1;stroke-miterlimit:4;" d="M 2767.1875 1767.376563 C 2761.914062 1779.251563 2770.351562 1795.423438 2770.351562 1808.548438 L 2777.34375 1808.548438 C 2772.851562 1798.040625 2782.382812 1783.626563 2779.023438 1772.415625 L 2777.96875 1747.220313 C 2778.984375 1745.189063 2771.5625 1733.860938 2772.34375 1731.55625 L 2770.351562 1731.55625 L 2764.21875 1745.970313 Z M 2767.1875 1767.376563 " transform="matrix(0.1,0,0,-0.1,0,354.14)"/>
<path style=" stroke:none;fill-rule:nonzero;fill:rgb(100%,100%,100%);fill-opacity:1;" d="M 116.234375 281.082031 C 116.035156 281.382812 115.734375 281.285156 115.433594 281.285156 C 114.835938 279.683594 115.632812 278.082031 115.734375 276.484375 C 118.335938 277.082031 115.933594 279.484375 116.234375 281.082031 "/>
<path style="fill:none;stroke-width:2;stroke-linecap:butt;stroke-linejoin:miter;stroke:rgb(0%,0%,0%);stroke-opacity:1;stroke-miterlimit:4;" d="M 1162.34375 730.579688 C 1160.351562 727.571875 1157.34375 728.548438 1154.335938 728.548438 C 1148.359375 744.564063 1156.328125 760.579688 1157.34375 776.55625 C 1183.359375 770.579688 1159.335938 746.55625 1162.34375 730.579688 Z M 1162.34375 730.579688 " transform="matrix(0.1,0,0,-0.1,0,354.14)"/>
<path style=" stroke:none;fill-rule:nonzero;fill:rgb(100%,100%,100%);fill-opacity:1;" d="M 245.984375 115.917969 C 244.886719 115.21875 241.933594 112.382812 241.234375 110.683594 L 241.234375 108.285156 C 243.535156 107.683594 243.535156 110.585938 244.835938 111.585938 L 246.984375 115.667969 L 250.484375 121.917969 C 250.984375 123.667969 253.035156 124.882812 253.433594 125.785156 L 253.433594 126.484375 C 252.535156 127.285156 249.710938 123.066406 249.609375 122.167969 L 245.984375 115.917969 "/>
<path style="fill:none;stroke-width:2;stroke-linecap:butt;stroke-linejoin:miter;stroke:rgb(0%,0%,0%);stroke-opacity:1;stroke-miterlimit:4;" d="M 2459.84375 2382.220313 C 2448.867188 2389.2125 2419.335938 2417.571875 2412.34375 2434.564063 L 2412.34375 2458.548438 C 2435.351562 2464.564063 2435.351562 2435.540625 2448.359375 2425.540625 L 2469.84375 2384.720313 L 2504.84375 2322.220313 C 2509.84375 2304.720313 2530.351562 2292.571875 2534.335938 2283.548438 L 2534.335938 2276.55625 C 2525.351562 2268.548438 2497.109375 2310.735938 2496.09375 2319.720313 Z M 2459.84375 2382.220313 " transform="matrix(0.1,0,0,-0.1,0,354.14)"/>
<path style=" stroke:none;fill-rule:nonzero;fill:rgb(100%,100%,100%);fill-opacity:1;" d="M 157.433594 164.382812 C 157.433594 164.882812 157.632812 165.484375 157.234375 165.882812 C 156.433594 165.585938 155.433594 165.085938 155.035156 164.183594 C 154.132812 161.382812 157.632812 163.183594 157.433594 164.382812 "/>
<path style="fill:none;stroke-width:2;stroke-linecap:butt;stroke-linejoin:miter;stroke:rgb(0%,0%,0%);stroke-opacity:1;stroke-miterlimit:4;" d="M 1574.335938 1897.571875 C 1574.335938 1892.571875 1576.328125 1886.55625 1572.34375 1882.571875 C 1564.335938 1885.540625 1554.335938 1890.540625 1550.351562 1899.564063 C 1541.328125 1927.571875 1576.328125 1909.564063 1574.335938 1897.571875 Z M 1574.335938 1897.571875 " transform="matrix(0.1,0,0,-0.1,0,354.14)"/>
<path style=" stroke:none;fill-rule:nonzero;fill:rgb(100%,100%,100%);fill-opacity:1;" d="M 156.035156 111.585938 C 157.933594 110.683594 160.035156 109.382812 162.035156 109.484375 C 163.335938 110.585938 163.433594 112.085938 164.234375 113.285156 C 163.835938 114.382812 164.035156 116.085938 162.535156 116.183594 L 159.109375 116.542969 L 155.734375 116.167969 C 155.734375 116.167969 152.359375 116.167969 152.359375 115.042969 C 152.359375 113.917969 156.035156 111.585938 156.035156 111.585938 "/>
<path style="fill:none;stroke-width:2;stroke-linecap:butt;stroke-linejoin:miter;stroke:rgb(0%,0%,0%);stroke-opacity:1;stroke-miterlimit:4;" d="M 1560.351562 2425.540625 C 1579.335938 2434.564063 1600.351562 2447.571875 1620.351562 2446.55625 C 1633.359375 2435.540625 1634.335938 2420.540625 1642.34375 2408.548438 C 1638.359375 2397.571875 1640.351562 2380.540625 1625.351562 2379.564063 L 1591.09375 2375.970313 L 1557.34375 2379.720313 C 1557.34375 2379.720313 1523.59375 2379.720313 1523.59375 2390.970313 C 1523.59375 2402.220313 1560.351562 2425.540625 1560.351562 2425.540625 Z M 1560.351562 2425.540625 " transform="matrix(0.1,0,0,-0.1,0,354.14)"/>
<path style=" stroke:none;fill-rule:nonzero;fill:rgb(100%,100%,100%);fill-opacity:1;" d="M 140.933594 120.484375 C 140.933594 121.183594 141.035156 122.085938 140.234375 122.183594 C 138.632812 122.484375 137.632812 120.882812 137.035156 119.785156 L 137.035156 118.382812 C 138.433594 118.785156 140.035156 119.183594 140.933594 120.484375 "/>
<path style="fill:none;stroke-width:2;stroke-linecap:butt;stroke-linejoin:miter;stroke:rgb(0%,0%,0%);stroke-opacity:1;stroke-miterlimit:4;" d="M 1409.335938 2336.55625 C 1409.335938 2329.564063 1410.351562 2320.540625 1402.34375 2319.564063 C 1386.328125 2316.55625 1376.328125 2332.571875 1370.351562 2343.548438 L 1370.351562 2357.571875 C 1384.335938 2353.548438 1400.351562 2349.564063 1409.335938 2336.55625 Z M 1409.335938 2336.55625 " transform="matrix(0.1,0,0,-0.1,0,354.14)"/>
<path style=" stroke:none;fill-rule:nonzero;fill:rgb(100%,100%,100%);fill-opacity:1;" d="M 160.835938 128.683594 C 160.933594 129.183594 160.734375 129.882812 160.132812 129.585938 C 159.632812 129.683594 159.234375 129.585938 158.933594 129.183594 C 158.835938 128.585938 158.933594 128.382812 159.433594 128.183594 C 160.035156 127.984375 160.335938 128.484375 160.835938 128.683594 "/>
<path style="fill:none;stroke-width:2;stroke-linecap:butt;stroke-linejoin:miter;stroke:rgb(0%,0%,0%);stroke-opacity:1;stroke-miterlimit:4;" d="M 1608.359375 2254.564063 C 1609.335938 2249.564063 1607.34375 2242.571875 1601.328125 2245.540625 C 1596.328125 2244.564063 1592.34375 2245.540625 1589.335938 2249.564063 C 1588.359375 2255.540625 1589.335938 2257.571875 1594.335938 2259.564063 C 1600.351562 2261.55625 1603.359375 2256.55625 1608.359375 2254.564063 Z M 1608.359375 2254.564063 " transform="matrix(0.1,0,0,-0.1,0,354.14)"/>
<path style=" stroke:none;fill-rule:nonzero;fill:rgb(100%,100%,100%);fill-opacity:1;" d="M 152.933594 129.882812 C 152.835938 130.484375 152.632812 131.183594 151.933594 131.285156 C 150.632812 131.683594 149.835938 130.683594 148.835938 130.382812 L 148.835938 128.382812 C 150.535156 128.183594 151.835938 128.683594 152.933594 129.882812 "/>
<path style="fill:none;stroke-width:2;stroke-linecap:butt;stroke-linejoin:miter;stroke:rgb(0%,0%,0%);stroke-opacity:1;stroke-miterlimit:4;" d="M 1529.335938 2242.571875 C 1528.359375 2236.55625 1526.328125 2229.564063 1519.335938 2228.548438 C 1506.328125 2224.564063 1498.359375 2234.564063 1488.359375 2237.571875 L 1488.359375 2257.571875 C 1505.351562 2259.564063 1518.359375 2254.564063 1529.335938 2242.571875 Z M 1529.335938 2242.571875 " transform="matrix(0.1,0,0,-0.1,0,354.14)"/>
<path style=" stroke:none;fill-rule:nonzero;fill:rgb(100%,100%,100%);fill-opacity:1;" d="M 153.433594 143.285156 C 153.433594 144.882812 151.933594 146.285156 153.835938 147.382812 C 152.835938 148.683594 150.535156 147.785156 149.335938 149.085938 C 148.035156 146.984375 152.132812 145.882812 151.734375 143.585938 C 151.632812 142.785156 151.734375 142.085938 152.433594 141.585938 C 153.734375 141.382812 152.835938 142.785156 153.433594 143.285156 "/>
<path style="fill:none;stroke-width:2;stroke-linecap:butt;stroke-linejoin:miter;stroke:rgb(0%,0%,0%);stroke-opacity:1;stroke-miterlimit:4;" d="M 1534.335938 2108.548438 C 1534.335938 2092.571875 1519.335938 2078.548438 1538.359375 2067.571875 C 1528.359375 2054.564063 1505.351562 2063.548438 1493.359375 2050.540625 C 1480.351562 2071.55625 1521.328125 2082.571875 1517.34375 2105.540625 C 1516.328125 2113.548438 1517.34375 2120.540625 1524.335938 2125.540625 C 1537.34375 2127.571875 1528.359375 2113.548438 1534.335938 2108.548438 Z M 1534.335938 2108.548438 " transform="matrix(0.1,0,0,-0.1,0,354.14)"/>
<path style=" stroke:none;fill-rule:nonzero;fill:rgb(100%,100%,100%);fill-opacity:1;" d="M 148.335938 144.785156 C 147.835938 145.382812 147.132812 145.484375 146.433594 145.683594 C 146.335938 144.882812 146.835938 144.085938 147.632812 143.785156 C 148.132812 143.984375 148.535156 143.984375 148.335938 144.785156 "/>
<path style="fill:none;stroke-width:2;stroke-linecap:butt;stroke-linejoin:miter;stroke:rgb(0%,0%,0%);stroke-opacity:1;stroke-miterlimit:4;" d="M 1483.359375 2093.548438 C 1478.359375 2087.571875 1471.328125 2086.55625 1464.335938 2084.564063 C 1463.359375 2092.571875 1468.359375 2100.540625 1476.328125 2103.548438 C 1481.328125 2101.55625 1485.351562 2101.55625 1483.359375 2093.548438 Z M 1483.359375 2093.548438 " transform="matrix(0.1,0,0,-0.1,0,354.14)"/>
<path style=" stroke:none;fill-rule:nonzero;fill:rgb(100%,100%,100%);fill-opacity:1;" d="M 300.734375 147.183594 C 300.535156 147.785156 300.234375 148.785156 299.335938 148.785156 C 298.734375 148.085938 298.234375 146.882812 299.335938 146.183594 C 300.035156 145.882812 300.535156 146.683594 300.734375 147.183594 "/>
<path style="fill:none;stroke-width:2;stroke-linecap:butt;stroke-linejoin:miter;stroke:rgb(0%,0%,0%);stroke-opacity:1;stroke-miterlimit:4;" d="M 3007.34375 2069.564063 C 3005.351562 2063.548438 3002.34375 2053.548438 2993.359375 2053.548438 C 2987.34375 2060.540625 2982.34375 2072.571875 2993.359375 2079.564063 C 3000.351562 2082.571875 3005.351562 2074.564063 3007.34375 2069.564063 Z M 3007.34375 2069.564063 " transform="matrix(0.1,0,0,-0.1,0,354.14)"/>
<path style=" stroke:none;fill-rule:nonzero;fill:rgb(100%,100%,100%);fill-opacity:1;" d="M 293.035156 152.683594 C 293.234375 153.285156 292.734375 153.585938 292.632812 154.085938 C 291.835938 154.382812 291.335938 153.585938 291.132812 153.183594 C 291.234375 152.585938 290.835938 151.785156 291.632812 151.484375 C 292.234375 151.683594 292.933594 151.984375 293.035156 152.683594 "/>
<path style="fill:none;stroke-width:2;stroke-linecap:butt;stroke-linejoin:miter;stroke:rgb(0%,0%,0%);stroke-opacity:1;stroke-miterlimit:4;" d="M 2930.351562 2014.564063 C 2932.34375 2008.548438 2927.34375 2005.540625 2926.328125 2000.540625 C 2918.359375 1997.571875 2913.359375 2005.540625 2911.328125 2009.564063 C 2912.34375 2015.540625 2908.359375 2023.548438 2916.328125 2026.55625 C 2922.34375 2024.564063 2929.335938 2021.55625 2930.351562 2014.564063 Z M 2930.351562 2014.564063 " transform="matrix(0.1,0,0,-0.1,0,354.14)"/>
<path style=" stroke:none;fill-rule:nonzero;fill:rgb(100%,100%,100%);fill-opacity:1;" d="M 144.234375 110.882812 C 142.035156 112.484375 139.835938 114.285156 136.632812 113.585938 C 137.234375 112.183594 137.835938 110.683594 139.234375 109.984375 C 140.933594 109.785156 142.734375 109.484375 144.035156 108.285156 C 144.035156 108.285156 145.609375 107.292969 147.609375 106.167969 C 149.609375 105.042969 150.734375 106.542969 148.984375 107.667969 C 147.234375 108.792969 144.234375 110.882812 144.234375 110.882812 "/>
<path style="fill:none;stroke-width:2;stroke-linecap:butt;stroke-linejoin:miter;stroke:rgb(0%,0%,0%);stroke-opacity:1;stroke-miterlimit:4;" d="M 1442.34375 2432.571875 C 1420.351562 2416.55625 1398.359375 2398.548438 1366.328125 2405.540625 C 1372.34375 2419.564063 1378.359375 2434.564063 1392.34375 2441.55625 C 1409.335938 2443.548438 1427.34375 2446.55625 1440.351562 2458.548438 C 1440.351562 2458.548438 1456.09375 2468.470313 1476.09375 2479.720313 C 1496.09375 2490.970313 1507.34375 2475.970313 1489.84375 2464.720313 C 1472.34375 2453.470313 1442.34375 2432.571875 1442.34375 2432.571875 Z M 1442.34375 2432.571875 " transform="matrix(0.1,0,0,-0.1,0,354.14)"/>
<path style=" stroke:none;fill-rule:nonzero;fill:rgb(100%,100%,100%);fill-opacity:1;" d="M 121.234375 126.785156 C 121.035156 127.785156 120.734375 128.984375 119.535156 129.183594 L 118.835938 129.183594 C 118.335938 127.984375 119.835938 125.882812 121.234375 126.785156 "/>
<path style="fill:none;stroke-width:2;stroke-linecap:butt;stroke-linejoin:miter;stroke:rgb(0%,0%,0%);stroke-opacity:1;stroke-miterlimit:4;" d="M 1212.34375 2273.548438 C 1210.351562 2263.548438 1207.34375 2251.55625 1195.351562 2249.564063 L 1188.359375 2249.564063 C 1183.359375 2261.55625 1198.359375 2282.571875 1212.34375 2273.548438 Z M 1212.34375 2273.548438 " transform="matrix(0.1,0,0,-0.1,0,354.14)"/>
<path style=" stroke:none;fill-rule:nonzero;fill:rgb(100%,100%,100%);fill-opacity:1;" d="M 166.742188 139.550781 C 168.355469 138.179688 169.066406 134.652344 172.132812 135.382812 C 175.035156 137.285156 170.734375 138.785156 171.632812 140.683594 L 171.632812 142.085938 L 171.433594 145.183594 C 168.234375 146.882812 165.132812 150.085938 161.035156 148.382812 C 160.535156 147.882812 161.132812 147.085938 160.632812 146.683594 C 156.734375 147.285156 154.632812 153.382812 150.035156 152.882812 C 148.035156 153.382812 149.234375 155.285156 149.535156 156.285156 C 147.632812 159.085938 144.433594 156.085938 142.335938 155.984375 C 141.835938 158.183594 141.433594 160.382812 140.933594 162.484375 C 142.632812 164.585938 144.835938 162.585938 146.933594 162.484375 C 147.632812 160.484375 149.335938 159.285156 151.234375 158.683594 C 155.632812 155.984375 157.734375 161.085938 160.835938 162.785156 C 161.234375 161.085938 160.933594 160.085938 160.632812 158.382812 C 160.933594 156.484375 162.535156 158.285156 163.433594 158.183594 C 165.835938 159.585938 164.632812 163.484375 167.335938 164.882812 C 168.132812 161.683594 172.835938 163.484375 172.835938 159.882812 C 172.933594 158.285156 174.734375 157.785156 175.734375 156.785156 C 177.234375 155.683594 177.535156 157.484375 178.632812 158.183594 C 179.632812 157.984375 180.335938 156.785156 181.234375 155.984375 C 182.035156 155.683594 183.234375 154.785156 184.132812 155.785156 L 182.433594 157.683594 C 183.132812 158.382812 183.734375 159.285156 184.835938 158.882812 C 186.132812 159.285156 186.132812 160.683594 186.734375 161.585938 C 185.933594 163.585938 183.835938 163.585938 181.933594 163.484375 C 178.632812 160.085938 176.632812 165.585938 173.835938 166.085938 C 174.234375 168.585938 177.035156 166.382812 178.835938 167.085938 C 180.132812 168.183594 182.335938 169.484375 181.433594 171.382812 C 180.035156 172.984375 179.734375 174.683594 177.835938 175.984375 C 176.734375 176.382812 175.335938 176.183594 174.535156 175.183594 C 173.234375 174.683594 172.734375 176.085938 171.835938 176.683594 C 170.535156 176.484375 169.632812 175.183594 168.535156 174.484375 C 166.835938 174.382812 164.632812 174.585938 163.035156 175.183594 C 161.734375 173.085938 159.632812 175.183594 158.234375 173.585938 C 157.933594 170.984375 155.535156 172.785156 154.132812 172.585938 C 152.132812 171.785156 155.132812 169.183594 152.433594 168.785156 C 147.632812 168.683594 142.632812 166.882812 137.535156 167.585938 C 136.632812 168.382812 135.835938 169.484375 134.632812 169.683594 L 131.882812 171.371094 C 129.046875 172.25 126.757812 175.382812 124.132812 176.882812 C 124.335938 179.484375 124.933594 182.484375 123.632812 185.085938 C 122.433594 190.382812 125.234375 194.585938 127.035156 198.984375 C 128.335938 199.785156 129.535156 200.484375 131.335938 200.183594 C 136.035156 204.085938 140.933594 199.683594 145.933594 202.085938 C 146.035156 202.785156 145.734375 203.382812 145.234375 203.785156 C 149.234375 203.585938 148.933594 208.085938 150.535156 210.285156 L 151.035156 212.382812 C 152.335938 215.085938 153.035156 218.183594 154.632812 220.785156 C 154.335938 224.285156 156.535156 228.585938 152.632812 230.882812 C 151.734375 232.585938 154.335938 233.285156 154.132812 234.984375 C 158.234375 238.585938 157.734375 244.683594 163.433594 246.984375 L 165.132812 248.882812 L 167.535156 249.183594 C 167.535156 249.183594 167.859375 248.667969 168.796875 248.355469 C 169.734375 248.042969 175.546875 249.167969 176.632812 247.183594 C 177.410156 244.261719 180.132812 241.785156 182.933594 240.785156 C 183.433594 239.484375 181.933594 238.484375 182.433594 236.882812 C 180.734375 233.285156 186.734375 232.882812 187.035156 229.484375 C 190.632812 227.585938 188.933594 221.984375 189.433594 218.882812 C 188.335938 216.785156 189.234375 215.285156 190.632812 213.585938 L 192.234375 211.683594 C 195.035156 207.785156 199.734375 204.285156 199.734375 199.484375 C 197.234375 198.183594 194.835938 201.183594 192.734375 198.785156 C 189.035156 195.285156 186.132812 190.484375 181.933594 187.683594 C 181.035156 185.984375 178.433594 184.382812 180.035156 182.183594 C 180.433594 181.085938 181.132812 179.882812 180.035156 178.785156 L 180.261719 177.414062 C 181.15625 177.398438 182.050781 177.371094 182.945312 177.328125 L 183.152344 178.828125 C 183.363281 179.265625 183.84375 178.984375 184.132812 179.085938 L 188.632812 185.585938 C 189.632812 188.484375 190.433594 192.683594 194.234375 193.183594 C 195.933594 193.984375 197.933594 193.085938 198.535156 191.285156 C 202.535156 190.882812 204.234375 186.484375 207.835938 185.085938 C 207.933594 183.285156 210.234375 182.285156 209.535156 180.484375 C 208.132812 180.085938 207.835938 182.285156 206.433594 181.683594 C 204.734375 181.183594 206.632812 179.882812 205.734375 179.285156 L 205.234375 179.785156 C 202.933594 178.984375 201.835938 182.285156 199.234375 181.183594 C 197.835938 180.285156 196.632812 178.882812 196.132812 177.382812 L 195.132812 175.683594 C 194.933594 175.183594 194.535156 174.785156 194.632812 173.984375 C 196.320312 171.078125 198.007812 175.203125 200.191406 175.070312 L 206.070312 175.699219 C 209.941406 176.121094 214.570312 173.425781 217.734375 177.183594 C 217.933594 180.683594 221.234375 177.484375 223.234375 178.085938 C 223.933594 178.382812 224.835938 179.285156 224.234375 179.984375 C 222.132812 183.484375 226.734375 182.285156 227.835938 183.882812 C 229.234375 187.484375 231.835938 192.285156 236.234375 192.285156 L 236.234375 191.285156 C 234.132812 189.183594 234.335938 185.984375 233.335938 183.382812 C 226.234375 179.484375 237.234375 176.984375 235.433594 172.085938 C 235.132812 171.585938 234.132812 171.285156 234.535156 170.382812 C 237.132812 168.683594 239.835938 167.183594 242.632812 166.085938 C 243.433594 167.085938 243.433594 168.183594 242.632812 169.183594 C 245.035156 171.585938 248.234375 168.484375 250.335938 171.882812 C 251.335938 175.085938 252.535156 178.785156 255.632812 180.484375 C 256.835938 181.683594 257.433594 184.484375 259.234375 184.085938 C 261.035156 180.484375 256.433594 181.085938 254.933594 179.285156 C 253.035156 177.683594 252.734375 175.183594 253.234375 172.785156 C 253.734375 167.785156 257.734375 173.585938 259.734375 170.382812 C 261.835938 164.984375 255.234375 165.183594 253.234375 161.984375 C 253.632812 158.785156 254.035156 155.285156 256.632812 153.183594 C 256.933594 149.484375 256.335938 144.984375 253.933594 141.882812 L 252.542969 138.730469 C 251.457031 136.15625 247.59375 134.414062 247.035156 131.785156 C 245.734375 130.683594 245.835938 132.585938 244.835938 132.984375 C 241.132812 133.382812 242.933594 128.382812 241.433594 126.285156 C 243.835938 124.085938 246.433594 127.285156 248.933594 127.683594 C 248.535156 125.984375 246.734375 124.984375 245.335938 124.382812 C 244.011719 124.007812 242.648438 121.363281 241.445312 120.8125 L 238.71875 117.351562 L 234.300781 113.015625 L 234.035156 111.183594 L 232.132812 106.785156 C 231.132812 104.882812 229.535156 105.484375 227.535156 105.382812 C 224.535156 104.085938 220.433594 105.285156 217.933594 102.484375 C 217.933594 102.484375 217.8125 101.402344 214.734375 99.417969 C 213.707031 98.753906 210.296875 97.792969 209.484375 97.417969 C 208.566406 96.992188 207.109375 94.542969 206.359375 94.542969 C 204.359375 94.542969 203.382812 94.183594 203.382812 94.183594 L 199.933594 92.183594 C 197.535156 90.585938 194.632812 89.984375 192.234375 88.085938 C 191.132812 88.183594 190.132812 88.484375 189.132812 89.085938 C 188.933594 92.683594 193.734375 92.585938 195.132812 95.585938 C 197.734375 102.484375 195.535156 110.585938 194.234375 117.382812 C 192.734375 118.683594 193.632812 120.882812 192.035156 122.183594 C 189.234375 123.183594 191.335938 125.683594 191.335938 127.683594 C 190.734375 129.085938 189.132812 127.984375 188.234375 128.683594 C 187.535156 129.683594 184.433594 128.484375 185.835938 130.585938 C 185.535156 131.683594 184.132812 131.382812 183.433594 131.785156 C 183.234375 132.183594 183.632812 132.484375 183.835938 132.785156 C 183.933594 135.285156 181.035156 134.683594 179.835938 136.085938 C 178.433594 136.085938 176.933594 137.183594 175.734375 136.085938 C 175.734375 134.382812 176.933594 133.085938 177.835938 131.984375 L 177.132812 131.285156 C 174.035156 130.585938 170.335938 131.285156 167.835938 133.484375 C 166.835938 136.882812 163.132812 136.683594 160.835938 138.285156 L 163.234375 139.183594 L 164.234375 140.882812 C 163.734375 142.085938 164.035156 143.785156 163.933594 144.785156 C 165.234375 144.882812 165.632812 143.683594 166.132812 142.785156 C 166.511719 142.3125 166.542969 141.96875 166.382812 141.714844 L 166.742188 139.550781 "/>
<path style="fill:none;stroke-width:2;stroke-linecap:butt;stroke-linejoin:miter;stroke:rgb(0%,0%,0%);stroke-opacity:1;stroke-miterlimit:4;" d="M 1667.421875 2145.892188 C 1683.554688 2159.603125 1690.664062 2194.876563 1721.328125 2187.571875 C 1750.351562 2168.548438 1707.34375 2153.548438 1716.328125 2134.564063 L 1716.328125 2120.540625 L 1714.335938 2089.564063 C 1682.34375 2072.571875 1651.328125 2040.540625 1610.351562 2057.571875 C 1605.351562 2062.571875 1611.328125 2070.540625 1606.328125 2074.564063 C 1567.34375 2068.548438 1546.328125 2007.571875 1500.351562 2012.571875 C 1480.351562 2007.571875 1492.34375 1988.548438 1495.351562 1978.548438 C 1476.328125 1950.540625 1444.335938 1980.540625 1423.359375 1981.55625 C 1418.359375 1959.564063 1414.335938 1937.571875 1409.335938 1916.55625 C 1426.328125 1895.540625 1448.359375 1915.540625 1469.335938 1916.55625 C 1476.328125 1936.55625 1493.359375 1948.548438 1512.34375 1954.564063 C 1556.328125 1981.55625 1577.34375 1930.540625 1608.359375 1913.548438 C 1612.34375 1930.540625 1609.335938 1940.540625 1606.328125 1957.571875 C 1609.335938 1976.55625 1625.351562 1958.548438 1634.335938 1959.564063 C 1658.359375 1945.540625 1646.328125 1906.55625 1673.359375 1892.571875 C 1681.328125 1924.564063 1728.359375 1906.55625 1728.359375 1942.571875 C 1729.335938 1958.548438 1747.34375 1963.548438 1757.34375 1973.548438 C 1772.34375 1984.564063 1775.351562 1966.55625 1786.328125 1959.564063 C 1796.328125 1961.55625 1803.359375 1973.548438 1812.34375 1981.55625 C 1820.351562 1984.564063 1832.34375 1993.548438 1841.328125 1983.548438 L 1824.335938 1964.564063 C 1831.328125 1957.571875 1837.34375 1948.548438 1848.359375 1952.571875 C 1861.328125 1948.548438 1861.328125 1934.564063 1867.34375 1925.540625 C 1859.335938 1905.540625 1838.359375 1905.540625 1819.335938 1906.55625 C 1786.328125 1940.540625 1766.328125 1885.540625 1738.359375 1880.540625 C 1742.34375 1855.540625 1770.351562 1877.571875 1788.359375 1870.540625 C 1801.328125 1859.564063 1823.359375 1846.55625 1814.335938 1827.571875 C 1800.351562 1811.55625 1797.34375 1794.564063 1778.359375 1781.55625 C 1767.34375 1777.571875 1753.359375 1779.564063 1745.351562 1789.564063 C 1732.34375 1794.564063 1727.34375 1780.540625 1718.359375 1774.564063 C 1705.351562 1776.55625 1696.328125 1789.564063 1685.351562 1796.55625 C 1668.359375 1797.571875 1646.328125 1795.540625 1630.351562 1789.564063 C 1617.34375 1810.540625 1596.328125 1789.564063 1582.34375 1805.540625 C 1579.335938 1831.55625 1555.351562 1813.548438 1541.328125 1815.540625 C 1521.328125 1823.548438 1551.328125 1849.564063 1524.335938 1853.548438 C 1476.328125 1854.564063 1426.328125 1872.571875 1375.351562 1865.540625 C 1366.328125 1857.571875 1358.359375 1846.55625 1346.328125 1844.564063 L 1318.828125 1827.689063 C 1290.46875 1818.9 1267.578125 1787.571875 1241.328125 1772.571875 C 1243.359375 1746.55625 1249.335938 1716.55625 1236.328125 1690.540625 C 1224.335938 1637.571875 1252.34375 1595.540625 1270.351562 1551.55625 C 1283.359375 1543.548438 1295.351562 1536.55625 1313.359375 1539.564063 C 1360.351562 1500.540625 1409.335938 1544.564063 1459.335938 1520.540625 C 1460.351562 1513.548438 1457.34375 1507.571875 1452.34375 1503.548438 C 1492.34375 1505.540625 1489.335938 1460.540625 1505.351562 1438.548438 L 1510.351562 1417.571875 C 1523.359375 1390.540625 1530.351562 1359.564063 1546.328125 1333.548438 C 1543.359375 1298.548438 1565.351562 1255.540625 1526.328125 1232.571875 C 1517.34375 1215.540625 1543.359375 1208.548438 1541.328125 1191.55625 C 1582.34375 1155.540625 1577.34375 1094.564063 1634.335938 1071.55625 L 1651.328125 1052.571875 L 1675.351562 1049.564063 C 1675.351562 1049.564063 1678.59375 1054.720313 1687.96875 1057.845313 C 1697.34375 1060.970313 1755.46875 1049.720313 1766.328125 1069.564063 C 1774.101562 1098.782813 1801.328125 1123.548438 1829.335938 1133.548438 C 1834.335938 1146.55625 1819.335938 1156.55625 1824.335938 1172.571875 C 1807.34375 1208.548438 1867.34375 1212.571875 1870.351562 1246.55625 C 1906.328125 1265.540625 1889.335938 1321.55625 1894.335938 1352.571875 C 1883.359375 1373.548438 1892.34375 1388.548438 1906.328125 1405.540625 L 1922.34375 1424.564063 C 1950.351562 1463.548438 1997.34375 1498.548438 1997.34375 1546.55625 C 1972.34375 1559.564063 1948.359375 1529.564063 1927.34375 1553.548438 C 1890.351562 1588.548438 1861.328125 1636.55625 1819.335938 1664.564063 C 1810.351562 1681.55625 1784.335938 1697.571875 1800.351562 1719.564063 C 1804.335938 1730.540625 1811.328125 1742.571875 1800.351562 1753.548438 L 1802.617188 1767.259375 C 1811.5625 1767.415625 1820.507812 1767.689063 1829.453125 1768.11875 L 1831.523438 1753.11875 C 1833.632812 1748.74375 1838.4375 1751.55625 1841.328125 1750.540625 L 1886.328125 1685.540625 C 1896.328125 1656.55625 1904.335938 1614.564063 1942.34375 1609.564063 C 1959.335938 1601.55625 1979.335938 1610.540625 1985.351562 1628.548438 C 2025.351562 1632.571875 2042.34375 1676.55625 2078.359375 1690.540625 C 2079.335938 1708.548438 2102.34375 1718.548438 2095.351562 1736.55625 C 2081.328125 1740.540625 2078.359375 1718.548438 2064.335938 1724.564063 C 2047.34375 1729.564063 2066.328125 1742.571875 2057.34375 1748.548438 L 2052.34375 1743.548438 C 2029.335938 1751.55625 2018.359375 1718.548438 1992.34375 1729.564063 C 1978.359375 1738.548438 1966.328125 1752.571875 1961.328125 1767.571875 L 1951.328125 1784.564063 C 1949.335938 1789.564063 1945.351562 1793.548438 1946.328125 1801.55625 C 1963.203125 1830.61875 1980.078125 1789.36875 2001.914062 1790.696875 L 2060.703125 1784.407813 C 2099.414062 1780.189063 2145.703125 1807.142188 2177.34375 1769.564063 C 2179.335938 1734.564063 2212.34375 1766.55625 2232.34375 1760.540625 C 2239.335938 1757.571875 2248.359375 1748.548438 2242.34375 1741.55625 C 2221.328125 1706.55625 2267.34375 1718.548438 2278.359375 1702.571875 C 2292.34375 1666.55625 2318.359375 1618.548438 2362.34375 1618.548438 L 2362.34375 1628.548438 C 2341.328125 1649.564063 2343.359375 1681.55625 2333.359375 1707.571875 C 2262.34375 1746.55625 2372.34375 1771.55625 2354.335938 1820.540625 C 2351.328125 1825.540625 2341.328125 1828.548438 2345.351562 1837.571875 C 2371.328125 1854.564063 2398.359375 1869.564063 2426.328125 1880.540625 C 2434.335938 1870.540625 2434.335938 1859.564063 2426.328125 1849.564063 C 2450.351562 1825.540625 2482.34375 1856.55625 2503.359375 1822.571875 C 2513.359375 1790.540625 2525.351562 1753.548438 2556.328125 1736.55625 C 2568.359375 1724.564063 2574.335938 1696.55625 2592.34375 1700.540625 C 2610.351562 1736.55625 2564.335938 1730.540625 2549.335938 1748.548438 C 2530.351562 1764.564063 2527.34375 1789.564063 2532.34375 1813.548438 C 2537.34375 1863.548438 2577.34375 1805.540625 2597.34375 1837.571875 C 2618.359375 1891.55625 2552.34375 1889.564063 2532.34375 1921.55625 C 2536.328125 1953.548438 2540.351562 1988.548438 2566.328125 2009.564063 C 2569.335938 2046.55625 2563.359375 2091.55625 2539.335938 2122.571875 L 2525.429688 2154.095313 C 2514.570312 2179.8375 2475.9375 2197.259375 2470.351562 2223.548438 C 2457.34375 2234.564063 2458.359375 2215.540625 2448.359375 2211.55625 C 2411.328125 2207.571875 2429.335938 2257.571875 2414.335938 2278.548438 C 2438.359375 2300.540625 2464.335938 2268.548438 2489.335938 2264.564063 C 2485.351562 2281.55625 2467.34375 2291.55625 2453.359375 2297.571875 C 2440.117188 2301.321875 2426.484375 2327.767188 2414.453125 2333.275 L 2387.1875 2367.884375 L 2343.007812 2411.24375 L 2340.351562 2429.564063 L 2321.328125 2473.548438 C 2311.328125 2492.571875 2295.351562 2486.55625 2275.351562 2487.571875 C 2245.351562 2500.540625 2204.335938 2488.548438 2179.335938 2516.55625 C 2179.335938 2516.55625 2178.125 2527.376563 2147.34375 2547.220313 C 2137.070312 2553.860938 2102.96875 2563.470313 2094.84375 2567.220313 C 2085.664062 2571.478125 2071.09375 2595.970313 2063.59375 2595.970313 C 2043.59375 2595.970313 2033.828125 2599.564063 2033.828125 2599.564063 L 1999.335938 2619.564063 C 1975.351562 2635.540625 1946.328125 2641.55625 1922.34375 2660.540625 C 1911.328125 2659.564063 1901.328125 2656.55625 1891.328125 2650.540625 C 1889.335938 2614.564063 1937.34375 2615.540625 1951.328125 2585.540625 C 1977.34375 2516.55625 1955.351562 2435.540625 1942.34375 2367.571875 C 1927.34375 2354.564063 1936.328125 2332.571875 1920.351562 2319.564063 C 1892.34375 2309.564063 1913.359375 2284.564063 1913.359375 2264.564063 C 1907.34375 2250.540625 1891.328125 2261.55625 1882.34375 2254.564063 C 1875.351562 2244.564063 1844.335938 2256.55625 1858.359375 2235.540625 C 1855.351562 2224.564063 1841.328125 2227.571875 1834.335938 2223.548438 C 1832.34375 2219.564063 1836.328125 2216.55625 1838.359375 2213.548438 C 1839.335938 2188.548438 1810.351562 2194.564063 1798.359375 2180.540625 C 1784.335938 2180.540625 1769.335938 2169.564063 1757.34375 2180.540625 C 1757.34375 2197.571875 1769.335938 2210.540625 1778.359375 2221.55625 L 1771.328125 2228.548438 C 1740.351562 2235.540625 1703.359375 2228.548438 1678.359375 2206.55625 C 1668.359375 2172.571875 1631.328125 2174.564063 1608.359375 2158.548438 L 1632.34375 2149.564063 L 1642.34375 2132.571875 C 1637.34375 2120.540625 1640.351562 2103.548438 1639.335938 2093.548438 C 1652.34375 2092.571875 1656.328125 2104.564063 1661.328125 2113.548438 C 1665.117188 2118.275 1665.429688 2121.7125 1663.828125 2124.251563 Z M 1667.421875 2145.892188 " transform="matrix(0.1,0,0,-0.1,0,354.14)"/>
<path style=" stroke:none;fill-rule:nonzero;fill:rgb(100%,100%,100%);fill-opacity:1;" d="M 259.035156 145.183594 C 258.132812 145.085938 257.835938 143.785156 257.335938 143.085938 L 258.234375 141.183594 C 259.234375 141.984375 259.433594 143.882812 259.035156 145.183594 "/>
<path style="fill:none;stroke-width:2;stroke-linecap:butt;stroke-linejoin:miter;stroke:rgb(0%,0%,0%);stroke-opacity:1;stroke-miterlimit:4;" d="M 2590.351562 2089.564063 C 2581.328125 2090.540625 2578.359375 2103.548438 2573.359375 2110.540625 L 2582.34375 2129.564063 C 2592.34375 2121.55625 2594.335938 2102.571875 2590.351562 2089.564063 Z M 2590.351562 2089.564063 " transform="matrix(0.1,0,0,-0.1,0,354.14)"/>
<path style=" stroke:none;fill-rule:nonzero;fill:rgb(100%,100%,100%);fill-opacity:1;" d="M 84.234375 144.285156 C 85.132812 145.484375 83.835938 146.382812 83.535156 147.382812 C 82.535156 147.785156 82.335938 146.882812 82.132812 146.183594 C 82.632812 144.683594 81.035156 142.785156 82.835938 142.382812 L 84.234375 144.285156 "/>
<path style="fill:none;stroke-width:2;stroke-linecap:butt;stroke-linejoin:miter;stroke:rgb(0%,0%,0%);stroke-opacity:1;stroke-miterlimit:4;" d="M 842.34375 2098.548438 C 851.328125 2086.55625 838.359375 2077.571875 835.351562 2067.571875 C 825.351562 2063.548438 823.359375 2072.571875 821.328125 2079.564063 C 826.328125 2094.564063 810.351562 2113.548438 828.359375 2117.571875 Z M 842.34375 2098.548438 " transform="matrix(0.1,0,0,-0.1,0,354.14)"/>
<path style=" stroke:none;fill-rule:nonzero;fill:rgb(100%,100%,100%);fill-opacity:1;" d="M 267.835938 154.085938 C 268.035156 154.683594 267.632812 155.183594 267.132812 155.285156 C 265.535156 155.285156 265.234375 153.484375 264.734375 152.382812 C 264.933594 151.484375 264.335938 150.183594 265.234375 149.785156 C 266.535156 151.085938 265.433594 153.785156 267.835938 154.085938 "/>
<path style="fill:none;stroke-width:2;stroke-linecap:butt;stroke-linejoin:miter;stroke:rgb(0%,0%,0%);stroke-opacity:1;stroke-miterlimit:4;" d="M 2678.359375 2000.540625 C 2680.351562 1994.564063 2676.328125 1989.564063 2671.328125 1988.548438 C 2655.351562 1988.548438 2652.34375 2006.55625 2647.34375 2017.571875 C 2649.335938 2026.55625 2643.359375 2039.564063 2652.34375 2043.548438 C 2665.351562 2030.540625 2654.335938 2003.548438 2678.359375 2000.540625 Z M 2678.359375 2000.540625 " transform="matrix(0.1,0,0,-0.1,0,354.14)"/>
<path style=" stroke:none;fill-rule:nonzero;fill:rgb(100%,100%,100%);fill-opacity:1;" d="M 262.632812 152.882812 C 262.933594 153.683594 262.535156 154.785156 262.132812 155.585938 C 261.535156 155.382812 260.535156 155.984375 260.433594 155.085938 C 260.335938 154.085938 261.535156 152.882812 262.632812 152.882812 "/>
<path style="fill:none;stroke-width:2;stroke-linecap:butt;stroke-linejoin:miter;stroke:rgb(0%,0%,0%);stroke-opacity:1;stroke-miterlimit:4;" d="M 2626.328125 2012.571875 C 2629.335938 2004.564063 2625.351562 1993.548438 2621.328125 1985.540625 C 2615.351562 1987.571875 2605.351562 1981.55625 2604.335938 1990.540625 C 2603.359375 2000.540625 2615.351562 2012.571875 2626.328125 2012.571875 Z M 2626.328125 2012.571875 " transform="matrix(0.1,0,0,-0.1,0,354.14)"/>
<path style=" stroke:none;fill-rule:nonzero;fill:rgb(100%,100%,100%);fill-opacity:1;" d="M 285.046875 168.480469 L 285.835938 168.984375 C 287.632812 168.785156 287.335938 166.484375 288.734375 165.585938 C 291.632812 166.382812 289.132812 169.285156 290.933594 170.882812 C 291.835938 170.285156 291.035156 168.882812 291.632812 167.984375 C 292.632812 167.285156 292.835938 164.984375 294.734375 165.882812 C 300.035156 163.183594 291.835938 162.785156 294.035156 159.183594 L 292.632812 157.183594 C 290.835938 157.085938 291.835938 159.585938 290.234375 159.882812 C 289.734375 159.683594 289.433594 159.183594 289.035156 159.585938 C 289.035156 159.585938 288.867188 159.757812 288.664062 159.96875 C 288.464844 160.179688 288.980469 160.964844 288.484375 161.230469 L 287.859375 161.792969 C 287.363281 162.054688 286.15625 161.609375 285.828125 161.917969 C 285.503906 162.226562 285.261719 162.9375 285.289062 163.5 L 285.304688 163.710938 C 285.335938 164.269531 285.261719 165.152344 285.140625 165.667969 C 285.019531 166.183594 284.949219 167.027344 284.984375 167.542969 C 285.019531 168.058594 285.046875 168.480469 285.046875 168.480469 "/>
<path style="fill:none;stroke-width:2;stroke-linecap:butt;stroke-linejoin:miter;stroke:rgb(0%,0%,0%);stroke-opacity:1;stroke-miterlimit:4;" d="M 2850.46875 1856.595313 L 2858.359375 1851.55625 C 2876.328125 1853.548438 2873.359375 1876.55625 2887.34375 1885.540625 C 2916.328125 1877.571875 2891.328125 1848.548438 2909.335938 1832.571875 C 2918.359375 1838.548438 2910.351562 1852.571875 2916.328125 1861.55625 C 2926.328125 1868.548438 2928.359375 1891.55625 2947.34375 1882.571875 C 3000.351562 1909.564063 2918.359375 1913.548438 2940.351562 1949.564063 L 2926.328125 1969.564063 C 2908.359375 1970.540625 2918.359375 1945.540625 2902.34375 1942.571875 C 2897.34375 1944.564063 2894.335938 1949.564063 2890.351562 1945.540625 C 2890.351562 1945.540625 2888.671875 1943.821875 2886.640625 1941.7125 C 2884.648438 1939.603125 2889.804688 1931.751563 2884.84375 1929.095313 L 2878.59375 1923.470313 C 2873.632812 1920.853125 2861.5625 1925.30625 2858.28125 1922.220313 C 2855.039062 1919.134375 2852.617188 1912.025 2852.890625 1906.4 L 2853.046875 1904.290625 C 2853.359375 1898.704688 2852.617188 1889.876563 2851.40625 1884.720313 C 2850.195312 1879.564063 2849.492188 1871.126563 2849.84375 1865.970313 C 2850.195312 1860.814063 2850.46875 1856.595313 2850.46875 1856.595313 Z M 2850.46875 1856.595313 " transform="matrix(0.1,0,0,-0.1,0,354.14)"/>
<path style=" stroke:none;fill-rule:nonzero;fill:rgb(100%,100%,100%);fill-opacity:1;" d="M 276.535156 157.984375 C 277.335938 160.683594 275.234375 161.683594 273.632812 163.183594 L 273.132812 163.183594 C 273.234375 161.285156 274.835938 159.882812 275.035156 157.984375 C 275.535156 157.785156 276.132812 157.085938 276.535156 157.984375 "/>
<path style="fill:none;stroke-width:2;stroke-linecap:butt;stroke-linejoin:miter;stroke:rgb(0%,0%,0%);stroke-opacity:1;stroke-miterlimit:4;" d="M 2765.351562 1961.55625 C 2773.359375 1934.564063 2752.34375 1924.564063 2736.328125 1909.564063 L 2731.328125 1909.564063 C 2732.34375 1928.548438 2748.359375 1942.571875 2750.351562 1961.55625 C 2755.351562 1963.548438 2761.328125 1970.540625 2765.351562 1961.55625 Z M 2765.351562 1961.55625 " transform="matrix(0.1,0,0,-0.1,0,354.14)"/>
<path style=" stroke:none;fill-rule:nonzero;fill:rgb(100%,100%,100%);fill-opacity:1;" d="M 282.734375 166.382812 L 282.734375 166.785156 C 281.734375 167.285156 280.335938 167.085938 279.632812 166.085938 C 279.535156 165.585938 279.734375 165.183594 280.132812 164.882812 C 281.335938 164.683594 282.632812 165.183594 282.734375 166.382812 "/>
<path style="fill:none;stroke-width:2;stroke-linecap:butt;stroke-linejoin:miter;stroke:rgb(0%,0%,0%);stroke-opacity:1;stroke-miterlimit:4;" d="M 2827.34375 1877.571875 L 2827.34375 1873.548438 C 2817.34375 1868.548438 2803.359375 1870.540625 2796.328125 1880.540625 C 2795.351562 1885.540625 2797.34375 1889.564063 2801.328125 1892.571875 C 2813.359375 1894.564063 2826.328125 1889.564063 2827.34375 1877.571875 Z M 2827.34375 1877.571875 " transform="matrix(0.1,0,0,-0.1,0,354.14)"/>
<path style=" stroke:none;fill-rule:nonzero;fill:rgb(100%,100%,100%);fill-opacity:1;" d="M 269.035156 185.585938 C 267.835938 181.085938 271.335938 176.683594 269.835938 172.085938 C 269.132812 171.183594 269.933594 170.085938 270.734375 169.484375 C 272.433594 170.183594 271.234375 173.382812 273.632812 173.785156 C 272.835938 176.382812 271.933594 179.285156 273.132812 181.984375 L 273.296875 183.167969 L 272.671875 184.230469 L 271.296875 184.417969 L 269.921875 185.105469 L 269.035156 185.585938 "/>
<path style="fill:none;stroke-width:2;stroke-linecap:butt;stroke-linejoin:miter;stroke:rgb(0%,0%,0%);stroke-opacity:1;stroke-miterlimit:4;" d="M 2690.351562 1685.540625 C 2678.359375 1730.540625 2713.359375 1774.564063 2698.359375 1820.540625 C 2691.328125 1829.564063 2699.335938 1840.540625 2707.34375 1846.55625 C 2724.335938 1839.564063 2712.34375 1807.571875 2736.328125 1803.548438 C 2728.359375 1777.571875 2719.335938 1748.548438 2731.328125 1721.55625 L 2732.96875 1709.720313 L 2726.71875 1699.095313 L 2712.96875 1697.220313 L 2699.21875 1690.345313 Z M 2690.351562 1685.540625 " transform="matrix(0.1,0,0,-0.1,0,354.14)"/>
<path style=" stroke:none;fill-rule:nonzero;fill:rgb(100%,100%,100%);fill-opacity:1;" d="M 279.632812 185.984375 C 279.933594 187.984375 278.035156 189.285156 276.734375 190.382812 L 276.234375 190.382812 C 276.734375 188.585938 278.132812 186.882812 279.632812 185.984375 "/>
<path style="fill:none;stroke-width:2;stroke-linecap:butt;stroke-linejoin:miter;stroke:rgb(0%,0%,0%);stroke-opacity:1;stroke-miterlimit:4;" d="M 2796.328125 1681.55625 C 2799.335938 1661.55625 2780.351562 1648.548438 2767.34375 1637.571875 L 2762.34375 1637.571875 C 2767.34375 1655.540625 2781.328125 1672.571875 2796.328125 1681.55625 Z M 2796.328125 1681.55625 " transform="matrix(0.1,0,0,-0.1,0,354.14)"/>
<path style=" stroke:none;fill-rule:nonzero;fill:rgb(100%,100%,100%);fill-opacity:1;" d="M 272.632812 192.285156 C 272.035156 193.382812 270.234375 193.882812 269.035156 194.683594 C 268.234375 195.183594 268.035156 196.484375 266.933594 195.882812 C 266.535156 193.984375 270.335938 193.984375 269.835938 191.585938 C 270.835938 191.382812 271.835938 191.683594 272.632812 192.285156 "/>
<path style="fill:none;stroke-width:2;stroke-linecap:butt;stroke-linejoin:miter;stroke:rgb(0%,0%,0%);stroke-opacity:1;stroke-miterlimit:4;" d="M 2726.328125 1618.548438 C 2720.351562 1607.571875 2702.34375 1602.571875 2690.351562 1594.564063 C 2682.34375 1589.564063 2680.351562 1576.55625 2669.335938 1582.571875 C 2665.351562 1601.55625 2703.359375 1601.55625 2698.359375 1625.540625 C 2708.359375 1627.571875 2718.359375 1624.564063 2726.328125 1618.548438 Z M 2726.328125 1618.548438 " transform="matrix(0.1,0,0,-0.1,0,354.14)"/>
<path style=" stroke:none;fill-rule:nonzero;fill:rgb(100%,100%,100%);fill-opacity:1;" d="M 263.535156 191.984375 C 263.234375 192.683594 263.234375 193.484375 262.632812 193.984375 C 262.035156 194.085938 261.402344 193.542969 260.984375 192.875 L 260.234375 191.785156 C 258.535156 188.484375 254.433594 188.984375 252.734375 186.285156 C 255.433594 184.382812 257.835938 187.484375 260.433594 188.183594 L 262.132812 188.683594 C 262.394531 189.371094 263.464844 189.246094 263.441406 189.964844 L 263.535156 191.984375 "/>
<path style="fill:none;stroke-width:2;stroke-linecap:butt;stroke-linejoin:miter;stroke:rgb(0%,0%,0%);stroke-opacity:1;stroke-miterlimit:4;" d="M 2635.351562 1621.55625 C 2632.34375 1614.564063 2632.34375 1606.55625 2626.328125 1601.55625 C 2620.351562 1600.540625 2614.023438 1605.970313 2609.84375 1612.65 L 2602.34375 1623.548438 C 2585.351562 1656.55625 2544.335938 1651.55625 2527.34375 1678.548438 C 2554.335938 1697.571875 2578.359375 1666.55625 2604.335938 1659.564063 L 2621.328125 1654.564063 C 2623.945312 1647.689063 2634.648438 1648.939063 2634.414062 1641.751563 Z M 2635.351562 1621.55625 " transform="matrix(0.1,0,0,-0.1,0,354.14)"/>
<path style=" stroke:none;fill-rule:nonzero;fill:rgb(100%,100%,100%);fill-opacity:1;" d="M 168.714844 82.539062 L 161.703125 82.347656 C 157.234375 81.195312 152.195312 81.765625 148.132812 79.984375 C 141.933594 81.484375 137.933594 75.484375 132.234375 75.882812 C 127.234375 78.585938 121.734375 80.484375 116.632812 83.085938 C 113.933594 84.183594 112.035156 87.585938 108.734375 87.585938 C 107.535156 88.382812 105.167969 89.085938 103.800781 91.265625 L 97.433594 95.585938 L 95.335938 96.785156 C 93.835938 101.683594 88.335938 100.484375 85.933594 104.382812 C 85.734375 105.484375 83.238281 108.039062 83.9375 109.039062 C 84.003906 109.003906 81.402344 111.800781 81.46875 111.765625 L 79.121094 118.785156 C 77.121094 122.585938 75.734375 126.484375 74.433594 130.585938 C 71.632812 134.683594 71.234375 139.785156 69.132812 144.285156 C 68.132812 146.285156 70.035156 147.585938 69.835938 149.585938 C 68.234375 152.382812 69.535156 156.882812 65.835938 158.382812 L 64.335938 159.585938 C 64.035156 160.484375 64.335938 161.484375 63.835938 162.285156 C 60.035156 166.285156 62.535156 171.984375 61.433594 177.183594 C 61.632812 180.285156 59.933594 183.984375 61.933594 186.785156 C 62.933594 194.085938 64.933594 201.285156 64.835938 208.785156 C 66.734375 212.683594 66.132812 217.382812 67.234375 221.585938 L 67.933594 223.683594 C 70.132812 229.382812 70.835938 236.285156 74.933594 241.484375 C 80.535156 250.382812 85.734375 261.183594 95.535156 266.683594 C 90.734375 263.882812 92.632812 257.984375 87.132812 255.582031 C 82.734375 252.882812 86.835938 247.484375 82.132812 244.785156 C 82.632812 242.382812 81.835938 239.585938 81.835938 237.183594 C 82.433594 234.785156 84.335938 237.984375 85.035156 235.984375 C 85.285156 235.058594 85.46875 233.773438 85.039062 232.855469 L 84.734375 230.382812 C 85.335938 228.285156 84.535156 225.484375 85.433594 223.484375 C 87.132812 219.484375 90.132812 223.882812 92.433594 223.183594 C 93.433594 221.085938 91.535156 219.183594 92.234375 217.183594 C 89.933594 211.085938 97.132812 207.285156 95.335938 200.882812 C 90.535156 195.484375 83.234375 190.984375 83.035156 183.585938 L 83.535156 182.382812 L 83.535156 180.785156 C 81.335938 175.085938 77.933594 169.382812 79.433594 162.785156 C 76.035156 160.683594 78.132812 156.183594 75.132812 153.882812 C 71.933594 152.285156 76.632812 149.085938 72.535156 148.085938 C 71.035156 144.984375 71.933594 140.484375 74.433594 137.785156 C 76.035156 133.683594 76.035156 128.984375 78.535156 125.285156 C 79.433594 124.382812 78.535156 122.585938 79.734375 121.683594 C 80.035156 120.882812 79.21875 121.265625 80.945312 119.515625 L 81.21875 119.351562 L 83.882812 116.933594 L 86.46875 110.433594 L 87.132812 107.679688 C 87.976562 107.238281 88.886719 106.917969 89.535156 106.085938 C 91.335938 105.285156 92.835938 107.285156 93.632812 108.285156 L 94.550781 109.601562 L 96.632812 112.515625 L 96.550781 115.433594 L 98.71875 117.183594 L 99.632812 119.101562 L 100.835938 121.484375 C 103.632812 121.984375 105.433594 118.085938 107.835938 119.984375 C 108.734375 119.484375 110.234375 118.984375 110.234375 117.882812 L 111.050781 118.015625 L 114.316406 117.960938 L 114.609375 119.792969 L 116.234375 120.542969 C 116.664062 120.320312 118.839844 122.398438 119.359375 122.042969 C 121.113281 120.847656 118.609375 118.167969 121.734375 116.382812 L 122.570312 114.308594 C 122.570312 114.308594 124.234375 112.667969 125.195312 110.496094 C 126.160156 108.324219 126.445312 103.308594 126.445312 103.308594 L 128.234375 96.292969 L 129.632812 92.871094 L 130.632812 91.683594 L 131.535156 90.785156 C 131.535156 90.785156 138.734375 90.542969 141.109375 90.167969 C 143.484375 89.792969 148.109375 90.042969 148.109375 90.042969 C 159.984375 90.292969 160.8125 91.964844 169.734375 92.292969 C 172.683594 92.402344 177.984375 92.292969 180.035156 90.285156 C 181.734375 90.285156 182.035156 88.285156 181.433594 87.183594 C 181.835938 85.984375 183.132812 86.882812 183.632812 85.984375 C 182.933594 85.382812 182.535156 84.785156 182.433594 83.984375 C 183.035156 83.285156 183.734375 82.785156 184.632812 82.585938 C 184.632812 82.585938 184.234375 81.730469 184.132812 80.683594 C 184.421875 79.230469 186.433594 80.183594 187.035156 79.183594 C 185.035156 79.285156 182.945312 79.976562 181.433594 80.382812 C 173.671875 82.355469 168.714844 82.539062 168.714844 82.539062 "/>
<path style="fill:none;stroke-width:2;stroke-linecap:butt;stroke-linejoin:miter;stroke:rgb(0%,0%,0%);stroke-opacity:1;stroke-miterlimit:4;" d="M 1687.148438 2716.009375 L 1617.03125 2717.923438 C 1572.34375 2729.446875 1521.953125 2723.74375 1481.328125 2741.55625 C 1419.335938 2726.55625 1379.335938 2786.55625 1322.34375 2782.571875 C 1272.34375 2755.540625 1217.34375 2736.55625 1166.328125 2710.540625 C 1139.335938 2699.564063 1120.351562 2665.540625 1087.34375 2665.540625 C 1075.351562 2657.571875 1051.679688 2650.540625 1038.007812 2628.74375 L 974.335938 2585.540625 L 953.359375 2573.548438 C 938.359375 2524.564063 883.359375 2536.55625 859.335938 2497.571875 C 857.34375 2486.55625 832.382812 2461.009375 839.375 2451.009375 C 840.039062 2451.360938 814.023438 2423.392188 814.6875 2423.74375 L 791.210938 2353.548438 C 771.210938 2315.540625 757.34375 2276.55625 744.335938 2235.540625 C 716.328125 2194.564063 712.34375 2143.548438 691.328125 2098.548438 C 681.328125 2078.548438 700.351562 2065.540625 698.359375 2045.540625 C 682.34375 2017.571875 695.351562 1972.571875 658.359375 1957.571875 L 643.359375 1945.540625 C 640.351562 1936.55625 643.359375 1926.55625 638.359375 1918.548438 C 600.351562 1878.548438 625.351562 1821.55625 614.335938 1769.564063 C 616.328125 1738.548438 599.335938 1701.55625 619.335938 1673.548438 C 629.335938 1600.540625 649.335938 1528.548438 648.359375 1453.548438 C 667.34375 1414.564063 661.328125 1367.571875 672.34375 1325.540625 L 679.335938 1304.564063 C 701.328125 1247.571875 708.359375 1178.548438 749.335938 1126.55625 C 805.351562 1037.571875 857.34375 929.564063 955.351562 874.564063 C 907.34375 902.571875 926.328125 961.55625 871.328125 985.579688 C 827.34375 1012.571875 868.359375 1066.55625 821.328125 1093.548438 C 826.328125 1117.571875 818.359375 1145.540625 818.359375 1169.564063 C 824.335938 1193.548438 843.359375 1161.55625 850.351562 1181.55625 C 852.851562 1190.814063 854.6875 1203.665625 850.390625 1212.845313 L 847.34375 1237.571875 C 853.359375 1258.548438 845.351562 1286.55625 854.335938 1306.55625 C 871.328125 1346.55625 901.328125 1302.571875 924.335938 1309.564063 C 934.335938 1330.540625 915.351562 1349.564063 922.34375 1369.564063 C 899.335938 1430.540625 971.328125 1468.548438 953.359375 1532.571875 C 905.351562 1586.55625 832.34375 1631.55625 830.351562 1705.540625 L 835.351562 1717.571875 L 835.351562 1733.548438 C 813.359375 1790.540625 779.335938 1847.571875 794.335938 1913.548438 C 760.351562 1934.564063 781.328125 1979.564063 751.328125 2002.571875 C 719.335938 2018.548438 766.328125 2050.540625 725.351562 2060.540625 C 710.351562 2091.55625 719.335938 2136.55625 744.335938 2163.548438 C 760.351562 2204.564063 760.351562 2251.55625 785.351562 2288.548438 C 794.335938 2297.571875 785.351562 2315.540625 797.34375 2324.564063 C 800.351562 2332.571875 792.1875 2328.74375 809.453125 2346.24375 L 812.1875 2347.884375 L 838.828125 2372.064063 L 864.6875 2437.064063 L 871.328125 2464.603125 C 879.765625 2469.017188 888.867188 2472.220313 895.351562 2480.540625 C 913.359375 2488.548438 928.359375 2468.548438 936.328125 2458.548438 L 945.507812 2445.384375 L 966.328125 2416.24375 L 965.507812 2387.064063 L 987.1875 2369.564063 L 996.328125 2350.384375 L 1008.359375 2326.55625 C 1036.328125 2321.55625 1054.335938 2360.540625 1078.359375 2341.55625 C 1087.34375 2346.55625 1102.34375 2351.55625 1102.34375 2362.571875 L 1110.507812 2361.24375 L 1143.164062 2361.790625 L 1146.09375 2343.470313 L 1162.34375 2335.970313 C 1166.640625 2338.196875 1188.398438 2317.415625 1193.59375 2320.970313 C 1211.132812 2332.923438 1186.09375 2359.720313 1217.34375 2377.571875 L 1225.703125 2398.314063 C 1225.703125 2398.314063 1242.34375 2414.720313 1251.953125 2436.439063 C 1261.601562 2458.157813 1264.453125 2508.314063 1264.453125 2508.314063 L 1282.34375 2578.470313 L 1296.328125 2612.689063 L 1306.328125 2624.564063 L 1315.351562 2633.548438 C 1315.351562 2633.548438 1387.34375 2635.970313 1411.09375 2639.720313 C 1434.84375 2643.470313 1481.09375 2640.970313 1481.09375 2640.970313 C 1599.84375 2638.470313 1608.125 2621.751563 1697.34375 2618.470313 C 1726.835938 2617.376563 1779.84375 2618.470313 1800.351562 2638.548438 C 1817.34375 2638.548438 1820.351562 2658.548438 1814.335938 2669.564063 C 1818.359375 2681.55625 1831.328125 2672.571875 1836.328125 2681.55625 C 1829.335938 2687.571875 1825.351562 2693.548438 1824.335938 2701.55625 C 1830.351562 2708.548438 1837.34375 2713.548438 1846.328125 2715.540625 C 1846.328125 2715.540625 1842.34375 2724.095313 1841.328125 2734.564063 C 1844.21875 2749.095313 1864.335938 2739.564063 1870.351562 2749.564063 C 1850.351562 2748.548438 1829.453125 2741.634375 1814.335938 2737.571875 C 1736.71875 2717.845313 1687.148438 2716.009375 1687.148438 2716.009375 Z M 1687.148438 2716.009375 " transform="matrix(0.1,0,0,-0.1,0,354.14)"/>
<path style=" stroke:none;fill-rule:nonzero;fill:rgb(100%,100%,100%);fill-opacity:1;" d="M 201.433594 228.285156 C 202.234375 232.484375 197.835938 235.085938 196.335938 238.585938 C 196.535156 239.382812 196.035156 239.984375 195.433594 240.484375 L 194.933594 240.484375 C 194.535156 238.382812 197.734375 235.183594 194.234375 234.285156 C 194.035156 232.785156 195.234375 232.183594 196.335938 231.585938 C 197.632812 232.285156 198.535156 230.484375 199.734375 229.984375 C 200.035156 229.285156 200.234375 227.984375 201.433594 228.285156 "/>
<path style="fill:none;stroke-width:2;stroke-linecap:butt;stroke-linejoin:miter;stroke:rgb(0%,0%,0%);stroke-opacity:1;stroke-miterlimit:4;" d="M 2014.335938 1258.548438 C 2022.34375 1216.55625 1978.359375 1190.540625 1963.359375 1155.540625 C 1965.351562 1147.571875 1960.351562 1141.55625 1954.335938 1136.55625 L 1949.335938 1136.55625 C 1945.351562 1157.571875 1977.34375 1189.564063 1942.34375 1198.548438 C 1940.351562 1213.548438 1952.34375 1219.564063 1963.359375 1225.540625 C 1976.328125 1218.548438 1985.351562 1236.55625 1997.34375 1241.55625 C 2000.351562 1248.548438 2002.34375 1261.55625 2014.335938 1258.548438 Z M 2014.335938 1258.548438 " transform="matrix(0.1,0,0,-0.1,0,354.14)"/>
<path style=" stroke:none;fill-rule:nonzero;fill:rgb(100%,100%,100%);fill-opacity:1;" d="M 274.734375 230.605469 C 274.835938 231.304688 272.234375 233.882812 271.734375 234.285156 L 271.433594 234.285156 C 270.835938 233.484375 271.234375 232.792969 271.484375 231.792969 L 271.433594 231.183594 C 272.335938 224.085938 271.035156 215.984375 276.234375 210.785156 C 278.234375 209.785156 279.535156 207.585938 280.835938 205.984375 C 280.433594 200.285156 282.933594 195.785156 285.835938 191.585938 C 288.335938 191.285156 287.335938 188.285156 288.535156 186.785156 C 288.234375 184.484375 288.734375 182.382812 289.933594 180.785156 C 292.132812 181.285156 290.535156 184.683594 292.335938 185.984375 C 292.734375 186.785156 293.535156 186.785156 294.234375 186.785156 C 296.835938 183.585938 296.535156 178.484375 295.433594 174.785156 L 295.734375 172.585938 C 296.632812 172.484375 296.933594 173.585938 297.132812 174.285156 C 298.335938 183.382812 302.234375 191.984375 300.734375 201.585938 C 299.296875 205.109375 299.285156 209.421875 298.402344 213.1875 L 297.433594 218.882812 C 296.335938 224.382812 291.335938 228.183594 288.234375 232.785156 C 287.734375 232.984375 287.335938 233.484375 286.632812 233.285156 C 285.734375 230.984375 289.632812 226.882812 285.132812 226.785156 L 285.132812 226.382812 C 285.132812 226.382812 285.695312 225.808594 285.632812 224.183594 C 285.535156 221.597656 282.132812 222.183594 280.132812 222.785156 C 278.988281 224.476562 277.839844 226.734375 276.304688 228.484375 L 274.734375 230.605469 "/>
<path style="fill:none;stroke-width:2;stroke-linecap:butt;stroke-linejoin:miter;stroke:rgb(0%,0%,0%);stroke-opacity:1;stroke-miterlimit:4;" d="M 2747.34375 1235.345313 C 2748.359375 1228.353125 2722.34375 1202.571875 2717.34375 1198.548438 L 2714.335938 1198.548438 C 2708.359375 1206.55625 2712.34375 1213.470313 2714.84375 1223.470313 L 2714.335938 1229.564063 C 2723.359375 1300.540625 2710.351562 1381.55625 2762.34375 1433.548438 C 2782.34375 1443.548438 2795.351562 1465.540625 2808.359375 1481.55625 C 2804.335938 1538.548438 2829.335938 1583.548438 2858.359375 1625.540625 C 2883.359375 1628.548438 2873.359375 1658.548438 2885.351562 1673.548438 C 2882.34375 1696.55625 2887.34375 1717.571875 2899.335938 1733.548438 C 2921.328125 1728.548438 2905.351562 1694.564063 2923.359375 1681.55625 C 2927.34375 1673.548438 2935.351562 1673.548438 2942.34375 1673.548438 C 2968.359375 1705.540625 2965.351562 1756.55625 2954.335938 1793.548438 L 2957.34375 1815.540625 C 2966.328125 1816.55625 2969.335938 1805.540625 2971.328125 1798.548438 C 2983.359375 1707.571875 3022.34375 1621.55625 3007.34375 1525.540625 C 2992.96875 1490.30625 2992.851562 1447.18125 2984.023438 1409.525 L 2974.335938 1352.571875 C 2963.359375 1297.571875 2913.359375 1259.564063 2882.34375 1213.548438 C 2877.34375 1211.55625 2873.359375 1206.55625 2866.328125 1208.548438 C 2857.34375 1231.55625 2896.328125 1272.571875 2851.328125 1273.548438 L 2851.328125 1277.571875 C 2851.328125 1277.571875 2856.953125 1283.314063 2856.328125 1299.564063 C 2855.351562 1325.423438 2821.328125 1319.564063 2801.328125 1313.548438 C 2789.882812 1296.634375 2778.398438 1274.05625 2763.046875 1256.55625 Z M 2747.34375 1235.345313 " transform="matrix(0.1,0,0,-0.1,0,354.14)"/>
<path style=" stroke:none;fill-rule:nonzero;fill:rgb(100%,100%,100%);fill-opacity:1;" d="M 287.035156 238.585938 C 287.933594 241.285156 284.835938 242.085938 283.234375 243.585938 C 282.835938 241.683594 285.132812 240.382812 286.335938 238.585938 L 287.035156 238.585938 "/>
<path style="fill:none;stroke-width:2;stroke-linecap:butt;stroke-linejoin:miter;stroke:rgb(0%,0%,0%);stroke-opacity:1;stroke-miterlimit:4;" d="M 2870.351562 1155.540625 C 2879.335938 1128.548438 2848.359375 1120.540625 2832.34375 1105.540625 C 2828.359375 1124.564063 2851.328125 1137.571875 2863.359375 1155.540625 Z M 2870.351562 1155.540625 " transform="matrix(0.1,0,0,-0.1,0,354.14)"/>
<path style=" stroke:none;fill-rule:nonzero;fill:rgb(100%,100%,100%);fill-opacity:1;" d="M 284.234375 254.683594 C 282.035156 258.183594 279.433594 261.882812 276.234375 264.484375 C 275.234375 266.683594 272.933594 267.082031 271.234375 268.382812 C 271.335938 266.683594 273.535156 265.183594 274.335938 263.582031 C 276.433594 259.382812 281.234375 257.785156 283.734375 254.183594 L 284.234375 254.683594 "/>
<path style="fill:none;stroke-width:2;stroke-linecap:butt;stroke-linejoin:miter;stroke:rgb(0%,0%,0%);stroke-opacity:1;stroke-miterlimit:4;" d="M 2842.34375 994.564063 C 2820.351562 959.564063 2794.335938 922.571875 2762.34375 896.55625 C 2752.34375 874.564063 2729.335938 870.579688 2712.34375 857.571875 C 2713.359375 874.564063 2735.351562 889.564063 2743.359375 905.579688 C 2764.335938 947.571875 2812.34375 963.548438 2837.34375 999.564063 Z M 2842.34375 994.564063 " transform="matrix(0.1,0,0,-0.1,0,354.14)"/>
<path style=" stroke:none;fill-rule:nonzero;fill:rgb(100%,100%,100%);fill-opacity:1;" d="M 267.132812 271.683594 C 267.734375 274.382812 264.132812 275.582031 262.632812 277.484375 L 261.433594 277.484375 C 262.335938 275.082031 264.835938 273.484375 266.632812 271.683594 L 267.132812 271.683594 "/>
<path style="fill:none;stroke-width:2;stroke-linecap:butt;stroke-linejoin:miter;stroke:rgb(0%,0%,0%);stroke-opacity:1;stroke-miterlimit:4;" d="M 2671.328125 824.564063 C 2677.34375 797.571875 2641.328125 785.579688 2626.328125 766.55625 L 2614.335938 766.55625 C 2623.359375 790.579688 2648.359375 806.55625 2666.328125 824.564063 Z M 2671.328125 824.564063 " transform="matrix(0.1,0,0,-0.1,0,354.14)"/>
<path style=" stroke:none;fill-rule:nonzero;fill:rgb(100%,100%,100%);fill-opacity:1;" d="M 226.632812 279.382812 C 226.632812 279.882812 226.433594 281.382812 227.535156 281.582031 C 228.933594 281.285156 230.035156 280.484375 231.632812 280.785156 C 232.035156 281.582031 230.734375 282.285156 231.835938 282.785156 L 234.234375 282.785156 C 234.433594 283.785156 232.933594 283.582031 233.035156 284.683594 C 233.535156 285.785156 234.632812 285.285156 235.433594 285.382812 C 233.535156 287.484375 230.335938 287.183594 229.035156 290.183594 C 224.535156 291.882812 220.433594 294.484375 216.035156 296.183594 C 213.835938 298.082031 211.132812 299.183594 208.335938 298.785156 C 205.335938 295.183594 201.933594 299.484375 198.734375 299.785156 C 192.132812 300.882812 185.632812 303.785156 178.335938 301.984375 C 173.132812 304.285156 167.433594 302.582031 161.835938 302.382812 C 153.835938 303.183594 148.632812 297.484375 140.933594 297.582031 C 135.132812 297.582031 137.632812 290.082031 132.234375 289.484375 C 129.132812 289.183594 125.632812 289.484375 124.335938 285.882812 C 122.535156 284.183594 118.132812 284.582031 118.835938 280.785156 C 122.933594 279.785156 123.535156 285.683594 127.734375 285.183594 C 131.035156 287.683594 135.335938 287.683594 138.535156 290.382812 C 142.632812 291.183594 146.632812 291.882812 151.234375 291.582031 C 151.632812 291.082031 152.535156 290.785156 152.234375 289.984375 C 151.933594 289.183594 150.835938 288.785156 151.234375 287.785156 C 153.234375 287.582031 153.535156 285.285156 154.335938 283.984375 C 161.933594 284.582031 169.734375 284.082031 176.632812 282.285156 C 179.835938 282.484375 184.132812 285.683594 186.234375 281.285156 C 187.933594 280.285156 189.632812 282.183594 191.835938 281.582031 C 192.933594 280.984375 193.632812 279.382812 195.132812 279.882812 C 196.933594 284.285156 199.035156 278.582031 201.835938 280.082031 C 202.835938 280.683594 203.632812 281.683594 204.535156 282.484375 C 210.632812 284.683594 215.433594 277.183594 221.535156 281.582031 C 223.335938 281.082031 224.632812 279.582031 226.632812 279.382812 "/>
<path style="fill:none;stroke-width:2;stroke-linecap:butt;stroke-linejoin:miter;stroke:rgb(0%,0%,0%);stroke-opacity:1;stroke-miterlimit:4;" d="M 2266.328125 747.571875 C 2266.328125 742.571875 2264.335938 727.571875 2275.351562 725.579688 C 2289.335938 728.548438 2300.351562 736.55625 2316.328125 733.548438 C 2320.351562 725.579688 2307.34375 718.548438 2318.359375 713.548438 L 2342.34375 713.548438 C 2344.335938 703.548438 2329.335938 705.579688 2330.351562 694.564063 C 2335.351562 683.548438 2346.328125 688.548438 2354.335938 687.571875 C 2335.351562 666.55625 2303.359375 669.564063 2290.351562 639.564063 C 2245.351562 622.571875 2204.335938 596.55625 2160.351562 579.564063 C 2138.359375 560.579688 2111.328125 549.564063 2083.359375 553.548438 C 2053.359375 589.564063 2019.335938 546.55625 1987.34375 543.548438 C 1921.328125 532.571875 1856.328125 503.548438 1783.359375 521.55625 C 1731.328125 498.548438 1674.335938 515.579688 1618.359375 517.571875 C 1538.359375 509.564063 1486.328125 566.55625 1409.335938 565.579688 C 1351.328125 565.579688 1376.328125 640.579688 1322.34375 646.55625 C 1291.328125 649.564063 1256.328125 646.55625 1243.359375 682.571875 C 1225.351562 699.564063 1181.328125 695.579688 1188.359375 733.548438 C 1229.335938 743.548438 1235.351562 684.564063 1277.34375 689.564063 C 1310.351562 664.564063 1353.359375 664.564063 1385.351562 637.571875 C 1426.328125 629.564063 1466.328125 622.571875 1512.34375 625.579688 C 1516.328125 630.579688 1525.351562 633.548438 1522.34375 641.55625 C 1519.335938 649.564063 1508.359375 653.548438 1512.34375 663.548438 C 1532.34375 665.579688 1535.351562 688.548438 1543.359375 701.55625 C 1619.335938 695.579688 1697.34375 700.579688 1766.328125 718.548438 C 1798.359375 716.55625 1841.328125 684.564063 1862.34375 728.548438 C 1879.335938 738.548438 1896.328125 719.564063 1918.359375 725.579688 C 1929.335938 731.55625 1936.328125 747.571875 1951.328125 742.571875 C 1969.335938 698.548438 1990.351562 755.579688 2018.359375 740.579688 C 2028.359375 734.564063 2036.328125 724.564063 2045.351562 716.55625 C 2106.328125 694.564063 2154.335938 769.564063 2215.351562 725.579688 C 2233.359375 730.579688 2246.328125 745.579688 2266.328125 747.571875 Z M 2266.328125 747.571875 " transform="matrix(0.1,0,0,-0.1,0,354.14)"/>
<path style="fill:none;stroke-width:12;stroke-linecap:butt;stroke-linejoin:miter;stroke:rgb(0%,0%,0%);stroke-opacity:1;stroke-miterlimit:4;" d="M 1766.523438 2711.985938 C 2002.460938 2711.985938 2193.710938 2573.470313 2193.710938 2402.610938 C 2193.710938 2231.790625 2002.460938 2093.275 1766.523438 2093.275 C 1530.585938 2093.275 1339.296875 2231.790625 1339.296875 2402.610938 C 1339.296875 2573.470313 1530.585938 2711.985938 1766.523438 2711.985938 Z M 1766.523438 2711.985938 " transform="matrix(0.1,0,0,-0.1,0,354.14)"/>
<path style="fill:none;stroke-width:12;stroke-linecap:butt;stroke-linejoin:miter;stroke:rgb(0%,0%,0%);stroke-opacity:1;stroke-miterlimit:4;" d="M 1752.34375 1758.9 C 2213.164062 1758.9 2586.71875 2029.603125 2586.71875 2363.470313 C 2586.71875 2697.376563 2213.164062 2968.040625 1752.34375 2968.040625 C 1291.523438 2968.040625 917.96875 2697.376563 917.96875 2363.470313 C 917.96875 2029.603125 1291.523438 1758.9 1752.34375 1758.9 Z M 1752.34375 1758.9 " transform="matrix(0.1,0,0,-0.1,0,354.14)"/>
<path style="fill:none;stroke-width:12;stroke-linecap:square;stroke-linejoin:miter;stroke:rgb(0%,0%,0%);stroke-opacity:1;stroke-miterlimit:2;" d="M 1753.164062 1408.548438 C 2388.4375 1408.548438 2903.398438 1784.2125 2903.398438 2247.65 C 2903.398438 2711.048438 2388.4375 3086.751563 1753.164062 3086.751563 C 1117.929688 3086.751563 602.96875 2711.048438 602.96875 2247.65 C 602.96875 1784.2125 1117.929688 1408.548438 1753.164062 1408.548438 Z M 1753.164062 1408.548438 " transform="matrix(0.1,0,0,-0.1,0,354.14)"/>
<path style="fill:none;stroke-width:12;stroke-linecap:butt;stroke-linejoin:miter;stroke:rgb(0%,0%,0%);stroke-opacity:1;stroke-miterlimit:4;" d="M 325.195312 1626.946875 C 669.53125 1264.720313 1155.078125 1051.204688 1766.523438 1051.4 C 2394.179688 1051.204688 2878.28125 1261.048438 3217.617188 1617.610938 " transform="matrix(0.1,0,0,-0.1,0,354.14)"/>
<path style=" stroke:none;fill-rule:nonzero;fill:rgb(0%,0%,0%);fill-opacity:1;" d="M 74.324219 90.582031 L 84.84375 90.582031 L 92.308594 116.113281 L 92.40625 116.113281 L 101.324219 90.582031 L 111.3125 90.582031 L 120.230469 116.113281 L 120.328125 116.113281 L 127.792969 90.582031 L 138.3125 90.582031 L 126.921875 125.324219 L 114.558594 125.324219 L 106.367188 102.386719 L 106.269531 102.386719 L 98.078125 125.324219 L 85.714844 125.324219 L 74.324219 90.582031 "/>
<path style=" stroke:none;fill-rule:nonzero;fill:rgb(0%,0%,0%);fill-opacity:1;" d="M 141.515625 102.769531 C 141.515625 92.597656 147.285156 90.199219 156.980469 90.199219 L 174.238281 90.199219 C 183.933594 90.199219 189.703125 92.597656 189.703125 102.769531 L 189.703125 113.136719 C 189.703125 123.308594 183.933594 125.710938 174.238281 125.710938 L 156.980469 125.710938 C 147.285156 125.710938 141.515625 123.308594 141.515625 113.136719 Z M 152.570312 109.824219 C 152.570312 114.863281 153.636719 116.785156 158.726562 116.785156 L 172.492188 116.785156 C 177.582031 116.785156 178.648438 114.863281 178.648438 109.824219 L 178.648438 106.082031 C 178.648438 101.761719 177.582031 99.125 171.910156 99.125 L 159.308594 99.125 C 153.636719 99.125 152.570312 101.761719 152.570312 106.082031 L 152.570312 109.824219 "/>
<path style=" stroke:none;fill-rule:nonzero;fill:rgb(0%,0%,0%);fill-opacity:1;" d="M 195.414062 102.769531 C 195.414062 92.597656 201.183594 90.199219 210.882812 90.199219 L 223.53125 90.199219 C 238.851562 90.199219 240.839844 93.460938 240.742188 103.300781 L 229.980469 103.300781 L 229.980469 102.339844 C 229.980469 99.84375 228.140625 99.125 224.9375 99.125 L 213.207031 99.125 C 207.535156 99.125 206.46875 101.761719 206.46875 106.082031 L 206.46875 109.824219 C 206.46875 114.863281 207.535156 116.785156 212.625 116.785156 L 224.113281 116.785156 C 228.964844 116.785156 230.417969 116.304688 230.417969 111.984375 L 241.179688 111.984375 L 241.179688 115.246094 C 241.179688 121.101562 239.046875 125.710938 228.234375 125.710938 L 210.882812 125.710938 C 201.183594 125.710938 195.414062 123.308594 195.414062 113.136719 L 195.414062 102.769531 "/>
<path style=" stroke:none;fill-rule:nonzero;fill:rgb(0%,0%,0%);fill-opacity:1;" d="M 247.664062 90.582031 L 286.058594 90.582031 L 286.058594 98.644531 L 258.429688 98.644531 L 258.429688 104.210938 L 284.605469 104.210938 L 284.605469 111.410156 L 258.429688 111.410156 L 258.429688 116.976562 L 286.691406 116.976562 L 286.691406 125.324219 L 247.664062 125.324219 L 247.664062 90.582031 "/>
<path style=" stroke:none;fill-rule:nonzero;fill:rgb(0%,0%,0%);fill-opacity:1;" d="M 52.402344 89.773438 L 50.117188 93.71875 L 38.832031 90.921875 L 38.808594 90.960938 L 46.542969 99.898438 L 44.378906 103.640625 L 32.777344 101.390625 L 32.753906 101.425781 L 40.804688 109.820312 L 38.523438 113.761719 L 27.835938 101.882812 L 30.515625 97.246094 L 40.980469 99.199219 L 41 99.164062 L 34.089844 91.066406 L 36.773438 86.433594 L 52.402344 89.773438 "/>
<path style=" stroke:none;fill-rule:nonzero;fill:rgb(0%,0%,0%);fill-opacity:1;" d="M 33.253906 113.101562 C 37.421875 114.65625 37.535156 117.367188 36.066406 121.300781 L 33.453125 128.300781 C 31.984375 132.234375 30.128906 134.210938 25.960938 132.652344 L 21.710938 131.066406 C 17.539062 129.511719 17.429688 126.804688 18.898438 122.871094 L 21.511719 115.867188 C 22.980469 111.933594 24.835938 109.960938 29.007812 111.515625 Z M 28.691406 116.507812 C 26.625 115.738281 25.675781 115.875 24.90625 117.941406 L 22.820312 123.527344 C 22.050781 125.59375 22.675781 126.320312 24.742188 127.089844 L 26.273438 127.660156 C 28.046875 128.320312 29.289062 128.292969 30.148438 125.992188 L 32.054688 120.878906 C 32.914062 118.578125 31.992188 117.742188 30.222656 117.078125 L 28.691406 116.507812 "/>
<path style=" stroke:none;fill-rule:nonzero;fill:rgb(0%,0%,0%);fill-opacity:1;" d="M 30.289062 137.148438 L 27.398438 150.917969 C 26.660156 154.433594 24.714844 155.011719 22.039062 154.449219 L 21.09375 154.253906 C 19.101562 153.832031 18.027344 153.136719 17.972656 150.933594 L 17.929688 150.925781 C 17.398438 152.230469 16.566406 153.234375 14.121094 152.722656 L 11.59375 152.191406 L 12.550781 147.628906 L 14.339844 148.003906 C 15.902344 148.332031 16.511719 147.988281 16.808594 146.570312 L 18.316406 139.398438 L 14.449219 138.585938 L 15.410156 134.023438 Z M 22.015625 140.175781 L 20.429688 147.71875 C 20.171875 148.949219 20.570312 149.507812 21.636719 149.730469 L 22.132812 149.835938 C 23.445312 150.109375 23.832031 149.503906 24.132812 148.066406 L 25.632812 140.933594 L 22.015625 140.175781 "/>
<path style=" stroke:none;fill-rule:nonzero;fill:rgb(0%,0%,0%);fill-opacity:1;" d="M 26.167969 158.503906 L 25.808594 163.152344 L 14.546875 162.28125 L 13.738281 172.730469 L 9.84375 172.429688 L 11.011719 157.335938 L 26.167969 158.503906 "/>
<path style=" stroke:none;fill-rule:nonzero;fill:rgb(0%,0%,0%);fill-opacity:1;" d="M 24.867188 175.6875 L 25.664062 189.734375 C 25.925781 194.386719 24.488281 196.109375 20.738281 196.324219 L 16.125 196.585938 C 12.371094 196.796875 10.75 195.25 10.484375 190.59375 L 9.6875 176.550781 Z M 13.851562 180.980469 L 14.320312 189.242188 C 14.433594 191.234375 15.042969 191.976562 17.203125 191.855469 L 19.257812 191.738281 C 21.417969 191.613281 21.9375 190.808594 21.824219 188.816406 L 21.355469 180.554688 L 13.851562 180.980469 "/>
<path style=" stroke:none;fill-rule:nonzero;fill:rgb(0%,0%,0%);fill-opacity:1;" d="M 23.117188 210.371094 C 27.390625 209.125 29.097656 211.230469 30.269531 215.261719 L 32.363281 222.4375 C 33.535156 226.46875 33.226562 229.160156 28.957031 230.40625 L 24.601562 231.675781 C 20.328125 232.921875 18.621094 230.816406 17.445312 226.785156 L 15.355469 219.609375 C 14.179688 215.578125 14.488281 212.886719 18.761719 211.640625 Z M 21.492188 215.828125 C 19.375 216.445312 18.699219 217.125 19.316406 219.242188 L 20.984375 224.964844 C 21.601562 227.082031 22.535156 227.289062 24.652344 226.675781 L 26.226562 226.214844 C 28.039062 225.6875 29.019531 224.921875 28.332031 222.5625 L 26.804688 217.320312 C 26.117188 214.964844 24.878906 214.84375 23.066406 215.371094 L 21.492188 215.828125 "/>
<path style=" stroke:none;fill-rule:nonzero;fill:rgb(0%,0%,0%);fill-opacity:1;" d="M 30.117188 233.359375 C 34.15625 231.488281 36.160156 233.3125 37.925781 237.121094 L 40.230469 242.089844 C 43.023438 248.109375 42.089844 249.488281 38.167969 251.261719 L 36.207031 247.035156 L 36.589844 246.859375 C 37.578125 246.398438 37.53125 245.542969 36.945312 244.285156 L 34.808594 239.675781 C 33.773438 237.449219 32.53125 237.515625 30.820312 238.3125 L 29.335938 239 C 27.335938 239.929688 26.765625 240.699219 27.695312 242.699219 L 29.789062 247.214844 C 30.671875 249.117188 31.128906 249.601562 32.839844 248.804688 L 34.800781 253.03125 L 33.507812 253.632812 C 31.183594 254.710938 28.96875 254.722656 26.996094 250.476562 L 23.835938 243.65625 C 22.066406 239.847656 21.96875 237.140625 26.003906 235.269531 L 30.117188 233.359375 "/>
<path style=" stroke:none;fill-rule:nonzero;fill:rgb(0%,0%,0%);fill-opacity:1;" d="M 44.738281 251.453125 L 53.742188 265.4375 L 50.777344 267.347656 L 44.296875 257.28125 L 42.25 258.601562 L 48.386719 268.136719 L 45.738281 269.839844 L 39.601562 260.308594 L 37.550781 261.625 L 44.179688 271.917969 L 41.109375 273.894531 L 31.957031 259.683594 L 44.738281 251.453125 "/>
<path style=" stroke:none;fill-rule:nonzero;fill:rgb(0%,0%,0%);fill-opacity:1;" d="M 59.871094 273.066406 L 63.824219 277.671875 L 57.730469 293.910156 L 54.351562 289.972656 L 55.449219 287.125 L 49.296875 279.957031 L 46.367188 280.671875 L 42.976562 276.71875 Z M 52.917969 279.144531 L 56.800781 283.671875 L 59.164062 277.65625 Z M 52.917969 279.144531 "/>
<path style=" stroke:none;fill-rule:nonzero;fill:rgb(0%,0%,0%);fill-opacity:1;" d="M 70.425781 285.082031 L 75.890625 289.800781 L 75.296875 303.875 L 75.328125 303.902344 L 82.546875 295.550781 L 86.070312 298.59375 L 76.140625 310.09375 L 70.675781 305.375 L 71.269531 291.300781 L 71.234375 291.273438 L 64.019531 299.628906 L 60.492188 296.582031 L 70.425781 285.082031 "/>
<path style=" stroke:none;fill-rule:nonzero;fill:rgb(0%,0%,0%);fill-opacity:1;" d="M 94.617188 310.871094 C 96.726562 306.957031 99.425781 307.214844 103.121094 309.207031 L 107.941406 311.800781 C 113.78125 314.945312 113.863281 316.609375 111.785156 320.378906 L 107.683594 318.167969 L 107.882812 317.800781 C 108.402344 316.839844 107.847656 316.183594 106.628906 315.527344 L 102.15625 313.121094 C 99.996094 311.957031 99.039062 312.753906 98.144531 314.417969 L 97.371094 315.859375 C 96.324219 317.796875 96.332031 318.753906 98.273438 319.800781 L 102.652344 322.15625 C 104.5 323.152344 105.15625 323.265625 106.050781 321.605469 L 110.152344 323.8125 L 109.476562 325.070312 C 108.261719 327.324219 106.492188 328.660156 102.371094 326.441406 L 95.757812 322.878906 C 92.0625 320.890625 90.359375 318.78125 92.46875 314.863281 L 94.617188 310.871094 "/>
<path style=" stroke:none;fill-rule:nonzero;fill:rgb(0%,0%,0%);fill-opacity:1;" d="M 117.570312 316.5625 L 121.875 318.347656 L 116.054688 332.386719 L 111.75 330.601562 L 117.570312 316.5625 "/>
<path style=" stroke:none;fill-rule:nonzero;fill:rgb(0%,0%,0%);fill-opacity:1;" d="M 125.023438 319.835938 L 138.496094 323.886719 C 141.9375 324.917969 142.347656 326.90625 141.5625 329.519531 L 141.285156 330.445312 C 140.699219 332.398438 139.910156 333.410156 137.714844 333.277344 L 137.703125 333.316406 C 138.957031 333.957031 139.886719 334.871094 139.171875 337.265625 L 138.425781 339.738281 L 133.960938 338.398438 L 134.488281 336.648438 C 134.945312 335.121094 134.65625 334.484375 133.269531 334.066406 L 126.246094 331.957031 L 125.113281 335.738281 L 120.648438 334.398438 Z M 127.335938 328.339844 L 134.71875 330.554688 C 135.925781 330.917969 136.511719 330.570312 136.824219 329.523438 L 136.96875 329.039062 C 137.355469 327.753906 136.785156 327.320312 135.378906 326.894531 L 128.398438 324.800781 L 127.335938 328.339844 "/>
<path style=" stroke:none;fill-rule:nonzero;fill:rgb(0%,0%,0%);fill-opacity:1;" d="M 144.75 331.117188 C 145.394531 326.710938 148.019531 326.035156 152.175781 326.640625 L 157.597656 327.433594 C 164.164062 328.394531 164.8125 329.929688 164.148438 334.183594 L 159.535156 333.511719 L 159.59375 333.09375 C 159.753906 332.015625 159.007812 331.585938 157.636719 331.386719 L 152.605469 330.652344 C 150.175781 330.296875 149.550781 331.371094 149.277344 333.242188 L 149.039062 334.863281 C 148.722656 337.046875 149.058594 337.945312 151.238281 338.261719 L 156.164062 338.984375 C 158.242188 339.285156 158.898438 339.171875 159.171875 337.300781 L 163.785156 337.972656 L 163.578125 339.386719 C 163.207031 341.921875 162.003906 343.785156 157.367188 343.105469 L 149.925781 342.019531 C 145.769531 341.414062 143.449219 340.011719 144.09375 335.605469 L 144.75 331.117188 "/>
<path style=" stroke:none;fill-rule:nonzero;fill:rgb(0%,0%,0%);fill-opacity:1;" d="M 167.820312 328.871094 L 172.480469 328.855469 L 172.503906 337.632812 C 172.511719 339.5625 173.207031 340.316406 175.117188 340.3125 L 179.734375 340.296875 C 181.644531 340.292969 182.335938 339.535156 182.332031 337.605469 L 182.304688 328.828125 L 186.96875 328.8125 L 186.996094 338.597656 C 187.007812 342.378906 185.058594 344.1875 180.777344 344.199219 L 174.097656 344.21875 C 169.816406 344.234375 167.859375 342.433594 167.847656 338.652344 L 167.820312 328.871094 "/>
<path style=" stroke:none;fill-rule:nonzero;fill:rgb(0%,0%,0%);fill-opacity:1;" d="M 190.078125 328.425781 L 194.699219 327.800781 L 196.210938 339 L 206.597656 337.597656 L 207.117188 341.46875 L 192.113281 343.492188 L 190.078125 328.425781 "/>
<path style=" stroke:none;fill-rule:nonzero;fill:rgb(0%,0%,0%);fill-opacity:1;" d="M 213.523438 324.324219 L 219.378906 322.714844 L 231.46875 335.160156 L 226.464844 336.535156 L 224.355469 334.328125 L 215.246094 336.832031 L 214.640625 339.789062 L 209.621094 341.167969 Z M 216.054688 333.210938 L 221.808594 331.628906 L 217.375 326.925781 Z M 216.054688 333.210938 "/>
<path style=" stroke:none;fill-rule:nonzero;fill:rgb(0%,0%,0%);fill-opacity:1;" d="M 226.445312 320.683594 L 242.828125 313.828125 L 244.285156 317.316406 L 238.246094 319.84375 L 242.652344 330.375 L 238.355469 332.175781 L 233.945312 321.640625 L 227.902344 324.167969 L 226.445312 320.683594 "/>
<path style=" stroke:none;fill-rule:nonzero;fill:rgb(0%,0%,0%);fill-opacity:1;" d="M 244.882812 312.535156 L 249.003906 310.359375 L 256.097656 323.804688 L 251.972656 325.980469 L 244.882812 312.535156 "/>
<path style=" stroke:none;fill-rule:nonzero;fill:rgb(0%,0%,0%);fill-opacity:1;" d="M 254.941406 313.511719 C 252.464844 309.8125 253.957031 307.554688 257.445312 305.21875 L 263.65625 301.0625 C 267.144531 298.726562 269.804688 298.210938 272.277344 301.910156 L 274.800781 305.675781 C 277.273438 309.375 275.78125 311.632812 272.292969 313.96875 L 266.085938 318.125 C 262.597656 320.460938 259.9375 320.976562 257.464844 317.277344 Z M 260.632812 313.414062 C 261.859375 315.246094 262.710938 315.6875 264.539062 314.460938 L 269.496094 311.144531 C 271.324219 309.917969 271.242188 308.964844 270.015625 307.132812 L 269.105469 305.773438 C 268.054688 304.203125 267.03125 303.5 264.988281 304.867188 L 260.453125 307.902344 C 258.414062 309.269531 258.671875 310.484375 259.722656 312.054688 L 260.632812 313.414062 "/>
<path style=" stroke:none;fill-rule:nonzero;fill:rgb(0%,0%,0%);fill-opacity:1;" d="M 271.441406 295.785156 L 276.769531 290.910156 L 290.6875 293.144531 L 290.714844 293.117188 L 283.261719 284.96875 L 286.699219 281.820312 L 296.960938 293.035156 L 291.632812 297.910156 L 277.71875 295.675781 L 277.6875 295.703125 L 285.144531 303.851562 L 281.707031 306.996094 L 271.441406 295.785156 "/>
<path style=" stroke:none;fill-rule:nonzero;fill:rgb(0%,0%,0%);fill-opacity:1;" d="M 295.574219 271.5 L 305.269531 257.988281 L 308.132812 260.046875 L 301.160156 269.769531 L 303.136719 271.1875 L 309.746094 261.976562 L 312.304688 263.8125 L 305.695312 273.023438 L 307.675781 274.445312 L 314.808594 264.5 L 317.777344 266.628906 L 307.925781 280.359375 L 295.574219 271.5 "/>
<path style=" stroke:none;fill-rule:nonzero;fill:rgb(0%,0%,0%);fill-opacity:1;" d="M 316.472656 253.636719 L 306.539062 256.246094 L 309.34375 250.910156 L 316.242188 249.199219 L 313.738281 242.546875 L 316.539062 237.214844 L 320.027344 246.871094 L 330.242188 243.820312 L 327.328125 249.359375 L 320.109375 251.230469 L 322.664062 258.242188 L 319.753906 263.78125 L 316.472656 253.636719 "/>
<path style=" stroke:none;fill-rule:nonzero;fill:rgb(0%,0%,0%);fill-opacity:1;" d="M 317.289062 235.167969 L 321.527344 223.195312 C 323.003906 219.019531 325.460938 218.75 328.269531 219.746094 L 329.496094 220.179688 C 331.632812 220.9375 333.757812 222.734375 332.65625 225.84375 L 329.570312 234.570312 L 333.171875 235.84375 L 331.617188 240.238281 Z M 326.007812 233.308594 L 328.421875 226.480469 C 328.789062 225.453125 328.253906 224.816406 327.402344 224.515625 L 326.851562 224.320312 C 325.878906 223.976562 325.15625 224.257812 324.6875 225.582031 L 322.40625 232.035156 L 326.007812 233.308594 "/>
<path style=" stroke:none;fill-rule:nonzero;fill:rgb(0%,0%,0%);fill-opacity:1;" d="M 323.96875 215.585938 L 327.351562 199.308594 L 330.804688 200.027344 L 328.367188 211.742188 L 330.753906 212.238281 L 333.058594 201.140625 L 336.144531 201.777344 L 333.835938 212.878906 L 336.21875 213.375 L 338.710938 201.390625 L 342.289062 202.136719 L 338.847656 218.679688 L 323.96875 215.585938 "/>
<path style=" stroke:none;fill-rule:nonzero;fill:rgb(0%,0%,0%);fill-opacity:1;" d="M 327.835938 196.292969 L 328.765625 182.257812 C 329.003906 178.675781 330.847656 177.828125 333.570312 178.007812 L 334.535156 178.074219 C 336.566406 178.207031 337.730469 178.746094 338.089844 180.917969 L 338.132812 180.921875 C 338.476562 179.554688 339.160156 178.441406 341.652344 178.609375 L 344.230469 178.777344 L 343.921875 183.429688 L 342.097656 183.308594 C 340.507812 183.203125 339.953125 183.628906 339.855469 185.074219 L 339.371094 192.386719 L 343.3125 192.648438 L 343.003906 197.300781 Z M 335.601562 192.136719 L 336.109375 184.449219 C 336.195312 183.191406 335.722656 182.695312 334.632812 182.625 L 334.128906 182.59375 C 332.789062 182.503906 332.492188 183.15625 332.394531 184.621094 L 331.914062 191.894531 L 335.601562 192.136719 "/>
<path style=" stroke:none;fill-rule:nonzero;fill:rgb(0%,0%,0%);fill-opacity:1;" d="M 328.777344 174.195312 L 328.617188 169.539062 L 343.808594 169.019531 L 343.96875 173.675781 L 328.777344 174.195312 "/>
<path style=" stroke:none;fill-rule:nonzero;fill:rgb(0%,0%,0%);fill-opacity:1;" d="M 328.898438 166.023438 L 327.78125 158.949219 L 336.621094 152.21875 L 326.136719 148.542969 L 325.015625 141.46875 L 340.027344 139.09375 L 340.738281 143.574219 L 329.953125 145.28125 L 329.960938 145.320312 L 341.699219 149.648438 L 342.242188 153.09375 L 332.414062 160.832031 L 332.421875 160.875 L 343.203125 159.167969 L 343.914062 163.648438 L 328.898438 166.023438 "/>
<path style=" stroke:none;fill-rule:nonzero;fill:rgb(0%,0%,0%);fill-opacity:1;" d="M 323.980469 138.652344 L 318.808594 122.84375 L 322.160156 121.746094 L 325.882812 133.121094 L 328.199219 132.363281 L 324.671875 121.589844 L 327.664062 120.609375 L 331.191406 131.386719 L 333.507812 130.628906 L 329.699219 118.992188 L 333.171875 117.855469 L 338.429688 133.921875 L 323.980469 138.652344 "/>
<path style=" stroke:none;fill-rule:nonzero;fill:rgb(0%,0%,0%);fill-opacity:1;" d="M 317.789062 120 L 314.578125 113.535156 L 320.570312 100.78125 L 320.554688 100.746094 L 310.664062 105.65625 L 308.59375 101.484375 L 322.203125 94.722656 L 325.414062 101.191406 L 319.421875 113.941406 L 319.441406 113.980469 L 329.328125 109.066406 L 331.402344 113.238281 L 317.789062 120 "/>
<path style=" stroke:none;fill-rule:nonzero;fill:rgb(0%,0%,0%);fill-opacity:1;" d="M 307.488281 99.828125 L 297.460938 85.164062 L 300.578125 83.03125 L 304.277344 88.4375 L 313.710938 81.988281 L 316.339844 85.835938 L 306.910156 92.285156 L 310.609375 97.695312 L 307.488281 99.828125 "/>
</g>
</svg>
