<?xml version="1.0" encoding="UTF-8"?>
<svg xmlns="http://www.w3.org/2000/svg" xmlns:xlink="http://www.w3.org/1999/xlink" width="262.07pt" height="241.43pt" viewBox="0 0 262.07 241.43" version="1.1">
<defs>
<clipPath id="clip1">
  <path d="M 111 224 L 118 224 L 118 241.429688 L 111 241.429688 Z M 111 224 "/>
</clipPath>
<clipPath id="clip2">
  <path d="M 123 224 L 134 224 L 134 241.429688 L 123 241.429688 Z M 123 224 "/>
</clipPath>
<clipPath id="clip3">
  <path d="M 136 224 L 147 224 L 147 241.429688 L 136 241.429688 Z M 136 224 "/>
</clipPath>
<clipPath id="clip4">
  <path d="M 149 224 L 161 224 L 161 241.429688 L 149 241.429688 Z M 149 224 "/>
</clipPath>
<clipPath id="clip5">
  <path d="M 245 116 L 262.070312 116 L 262.070312 130 L 245 130 Z M 245 116 "/>
</clipPath>
<clipPath id="clip6">
  <path d="M 244 133 L 262.070312 133 L 262.070312 147 L 244 147 Z M 244 133 "/>
</clipPath>
</defs>
<g id="surface1">
<path style=" stroke:none;fill-rule:nonzero;fill:rgb(16.719055%,41.25824%,64.970398%);fill-opacity:1;" d="M 152.039062 193.703125 L 151.945312 196.128906 L 152.230469 196.808594 L 155.140625 196.226562 L 155.628906 196.417969 L 155.238281 193.703125 L 181.292969 193.703125 L 181 192.78125 L 152.132812 192.828125 L 152.039062 193.703125 "/>
<path style=" stroke:none;fill-rule:nonzero;fill:rgb(16.719055%,41.25824%,64.970398%);fill-opacity:1;" d="M 193.277344 196.90625 L 195.316406 196.613281 L 194.34375 189.820312 L 192.792969 189.820312 L 193.277344 196.90625 "/>
<path style=" stroke:none;fill-rule:nonzero;fill:rgb(16.719055%,41.25824%,64.970398%);fill-opacity:1;" d="M 186.96875 197.777344 L 186.386719 193.800781 C 186.386719 193.800781 182.894531 192.152344 184.054688 195.253906 L 184.640625 198.164062 L 186.96875 197.777344 "/>
<path style=" stroke:none;fill-rule:nonzero;fill:rgb(16.719055%,41.25824%,64.970398%);fill-opacity:1;" d="M 208.21875 194.574219 C 208.21875 194.574219 210.0625 192.25 209.964844 189.917969 C 209.84375 187.066406 206.277344 189.046875 205.210938 190.695312 C 204.144531 192.34375 202.785156 194.574219 202.207031 195.546875 L 204.53125 195.0625 C 204.53125 195.0625 205.984375 192.34375 206.765625 191.082031 C 207.539062 189.820312 208.800781 189.722656 208.316406 191.179688 C 207.832031 192.636719 206.859375 194.09375 206.375 194.867188 L 208.21875 194.574219 "/>
<path style=" stroke:none;fill-rule:nonzero;fill:rgb(16.719055%,41.25824%,64.970398%);fill-opacity:1;" d="M 137.40625 47.816406 L 135.347656 53.589844 C 135.347656 53.589844 136.480469 63.066406 136.671875 68.886719 L 137.40625 47.816406 "/>
<path style=" stroke:none;fill-rule:nonzero;fill:rgb(16.719055%,41.25824%,64.970398%);fill-opacity:1;" d="M 140.007812 50.257812 C 140.007812 50.257812 142.390625 64.515625 142.972656 76.0625 L 138.683594 74.230469 L 140.007812 50.257812 "/>
<path style=" stroke:none;fill-rule:nonzero;fill:rgb(16.719055%,41.25824%,64.970398%);fill-opacity:1;" d="M 146.398438 124.835938 L 138.054688 123.363281 C 138.054688 123.363281 138.589844 87.722656 138.492188 76.855469 L 143.203125 79.078125 C 143.203125 79.078125 146.007812 108.53125 146.398438 124.835938 "/>
<path style=" stroke:none;fill-rule:nonzero;fill:rgb(16.719055%,41.25824%,64.970398%);fill-opacity:1;" d="M 150.386719 149.070312 L 151.257812 149.070312 C 151.257812 149.070312 152.363281 174.839844 152.265625 177.070312 L 151.585938 177.070312 C 151.585938 177.070312 150.386719 150.039062 150.386719 149.070312 "/>
<path style=" stroke:none;fill-rule:nonzero;fill:rgb(16.719055%,41.25824%,64.970398%);fill-opacity:1;" d="M 141.238281 31.585938 C 149.53125 54.386719 168.726562 99.972656 168.726562 99.972656 L 206.910156 194.722656 L 207.734375 194.625 L 169.894531 99.972656 C 169.894531 99.972656 150.246094 54.199219 141.90625 31.253906 L 141.238281 31.585938 "/>
<path style=" stroke:none;fill-rule:nonzero;fill:rgb(16.719055%,41.25824%,64.970398%);fill-opacity:1;" d="M 135.929688 111.710938 C 135.929688 111.710938 135.214844 136.328125 133.660156 151.660156 C 132.109375 166.992188 128.742188 184.679688 126.125 193.121094 L 116.535156 193.121094 C 116.535156 193.121094 121.578125 179.226562 123.84375 171.191406 C 126.929688 160.230469 129.949219 147.949219 133.25 127.378906 L 136.03125 105.5 C 136.03125 105.5 135.929688 110.546875 135.929688 111.710938 "/>
<path style=" stroke:none;fill-rule:nonzero;fill:rgb(16.719055%,41.25824%,64.970398%);fill-opacity:1;" d="M 113.613281 193.023438 L 102.359375 193.023438 C 102.359375 193.023438 108.46875 184.96875 113.03125 176.527344 C 117.59375 168.085938 126.035156 150.425781 129.914062 137.035156 C 129.914062 137.035156 125.648438 163.042969 113.613281 193.023438 "/>
<path style=" stroke:none;fill-rule:nonzero;fill:rgb(16.719055%,41.25824%,64.970398%);fill-opacity:1;" d="M 68.398438 194.09375 L 96.828125 196.515625 L 114.777344 196.515625 C 114.777344 196.515625 141.464844 196.515625 145.828125 196.515625 C 150.191406 196.515625 151.945312 196.128906 151.945312 196.128906 L 151.988281 193.898438 L 150.921875 193.945312 L 151.015625 192.925781 L 146.554688 193.070312 L 148.789062 193.507812 L 146.75 193.847656 L 109.34375 194.1875 L 75.089844 193.410156 L 74.511719 191.957031 L 65.582031 191.859375 C 65.582031 191.859375 66.164062 193.605469 68.398438 194.09375 "/>
<path style=" stroke:none;fill-rule:nonzero;fill:rgb(16.719055%,41.25824%,64.970398%);fill-opacity:1;" d="M 88.191406 198.554688 L 88.191406 204.375 L 89.0625 204.375 L 89.0625 200.203125 L 90.011719 200.203125 L 90.011719 196.800781 L 92.65625 196.226562 L 94.402344 197.585938 L 98.671875 197.585938 L 98.671875 201.078125 L 100.996094 202.4375 L 100.996094 203.601562 L 102.164062 203.601562 L 102.164062 196.226562 L 105.074219 196.226562 L 105.074219 199.71875 L 108.371094 199.71875 L 108.371094 197.972656 L 110.507812 197.972656 L 111.675781 196.226562 L 114.96875 196.226562 L 114.96875 197.585938 L 122.539062 197.585938 L 123.125 198.75 L 126.617188 198.75 L 126.421875 201.078125 L 127.78125 201.078125 L 127.78125 199.71875 L 129.722656 199.71875 L 129.722656 202.242188 L 130.691406 202.242188 C 130.691406 202.242188 131.078125 200.691406 130.882812 199.914062 C 130.691406 199.136719 132.4375 200.882812 133.214844 199.914062 C 133.988281 198.941406 134.765625 198.941406 135.347656 199.136719 C 135.929688 199.332031 136.515625 198.75 136.515625 198.75 L 143.886719 198.554688 C 144.472656 196.808594 146.992188 197.777344 146.992188 197.777344 L 148.351562 200.300781 C 149.515625 199.523438 152.230469 196.808594 152.230469 196.808594 L 155.140625 196.226562 L 156.890625 197.195312 L 158.636719 197.972656 C 158.636719 196.808594 159.214844 196.03125 160.578125 196.03125 C 161.9375 196.03125 161.738281 197.972656 161.738281 197.972656 C 161.738281 197.972656 163.292969 198.359375 163.679688 197.777344 C 164.070312 197.195312 165.816406 197.585938 165.816406 197.003906 C 165.816406 196.417969 168.34375 195.0625 168.34375 195.0625 L 170.085938 195.0625 L 174.886719 199.28125 C 175.855469 199.28125 176.296875 199.136719 176.296875 199.136719 L 176.296875 196.226562 L 180.175781 196.226562 L 180.175781 198.554688 C 180.757812 198.554688 183.671875 198.359375 183.671875 198.359375 C 190.65625 197.195312 210.0625 194.285156 210.0625 194.285156 C 207.539062 206.703125 194.535156 215.824219 194.535156 215.824219 L 86.640625 215.824219 C 76.546875 209.421875 74.996094 204.957031 74.996094 204.957031 L 77.328125 204.957031 L 77.328125 202 L 78.488281 202.242188 L 78.488281 200.59375 L 81.789062 200.59375 L 81.789062 203.210938 L 83.34375 203.210938 L 83.34375 198.554688 L 85.792969 197.917969 Z M 86.835938 212.035156 C 87.472656 212.035156 87.992188 211.519531 87.992188 210.875 C 87.992188 210.238281 87.472656 209.71875 86.835938 209.71875 C 86.195312 209.71875 85.671875 210.238281 85.671875 210.875 C 85.671875 211.519531 86.195312 212.035156 86.835938 212.035156 Z M 89.546875 212.035156 C 90.1875 212.035156 90.710938 211.519531 90.710938 210.875 C 90.710938 210.238281 90.1875 209.71875 89.546875 209.71875 C 88.90625 209.71875 88.390625 210.238281 88.390625 210.875 C 88.390625 211.519531 88.90625 212.035156 89.546875 212.035156 Z M 106.53125 211.734375 C 107.171875 211.734375 107.6875 211.214844 107.6875 210.574219 C 107.6875 209.933594 107.171875 209.414062 106.53125 209.414062 C 105.886719 209.414062 105.371094 209.933594 105.371094 210.574219 C 105.371094 211.214844 105.886719 211.734375 106.53125 211.734375 Z M 110.3125 211.550781 C 110.953125 211.550781 111.476562 211.03125 111.476562 210.394531 C 111.476562 209.75 110.953125 209.234375 110.3125 209.234375 C 109.675781 209.234375 109.152344 209.75 109.152344 210.394531 C 109.152344 211.03125 109.675781 211.550781 110.3125 211.550781 Z M 114.101562 211.359375 C 114.742188 211.359375 115.257812 210.835938 115.257812 210.199219 C 115.257812 209.558594 114.742188 209.039062 114.101562 209.039062 C 113.457031 209.039062 112.941406 209.558594 112.941406 210.199219 C 112.941406 210.835938 113.457031 211.359375 114.101562 211.359375 Z M 148.546875 209.417969 C 149.1875 209.417969 149.703125 208.898438 149.703125 208.257812 C 149.703125 207.617188 149.1875 207.097656 148.546875 207.097656 C 147.90625 207.097656 147.382812 207.617188 147.382812 208.257812 C 147.382812 208.898438 147.90625 209.417969 148.546875 209.417969 Z M 153.105469 208.933594 C 153.746094 208.933594 154.269531 208.414062 154.269531 207.769531 C 154.269531 207.132812 153.746094 206.613281 153.105469 206.613281 C 152.464844 206.613281 151.945312 207.132812 151.945312 207.769531 C 151.945312 208.414062 152.464844 208.933594 153.105469 208.933594 Z M 157.664062 208.460938 C 158.304688 208.460938 158.828125 207.941406 158.828125 207.300781 C 158.828125 206.660156 158.304688 206.140625 157.664062 206.140625 C 157.023438 206.140625 156.507812 206.660156 156.507812 207.300781 C 156.507812 207.941406 157.023438 208.460938 157.664062 208.460938 Z M 162.222656 207.949219 C 162.867188 207.949219 163.386719 207.433594 163.386719 206.789062 C 163.386719 206.148438 162.867188 205.628906 162.222656 205.628906 C 161.582031 205.628906 161.070312 206.148438 161.070312 206.789062 C 161.070312 207.433594 161.582031 207.949219 162.222656 207.949219 Z M 192.539062 209.621094 C 192.558594 210.222656 193.230469 210.808594 193.726562 210.214844 C 194.21875 209.621094 195.007812 207.941406 195.308594 208.734375 C 195.601562 209.523438 195.601562 210.511719 196.292969 210.214844 C 196.984375 209.917969 197.183594 207.84375 196.199219 207.25 C 195.207031 206.65625 192.4375 206.359375 192.539062 209.621094 Z M 85.722656 207.972656 C 100.960938 207.585938 121.84375 206.488281 130.691406 205.929688 C 139.910156 205.347656 157.1875 203.40625 157.1875 203.40625 C 172.226562 202.210938 182.800781 198.410156 182.800781 198.410156 L 180.175781 198.554688 L 177.75 198.847656 L 176.296875 199.136719 C 176.296875 199.136719 167.6875 199.980469 156.273438 201.578125 C 147.390625 202.824219 136.230469 203.964844 126.136719 204.546875 C 126.136719 204.546875 94.980469 206.277344 86.640625 206.375 C 86.640625 206.375 80.46875 206.699219 79.789062 206.601562 C 79.789062 206.601562 81.359375 207.777344 85.722656 207.972656 "/>
<path style=" stroke:none;fill-rule:nonzero;fill:rgb(16.719055%,41.25824%,64.970398%);fill-opacity:1;" d="M 72.863281 191.957031 L 51.902344 190.5 L 51.417969 189.820312 L 48.023438 189.722656 C 48.023438 189.722656 48.796875 190.695312 52.386719 190.988281 C 55.976562 191.277344 65.582031 191.859375 65.582031 191.859375 L 72.863281 191.957031 "/>
<path style=" stroke:none;fill-rule:nonzero;fill:rgb(16.719055%,41.25824%,64.970398%);fill-opacity:1;" d="M 72.082031 190.597656 L 67.917969 190.4375 C 67.917969 190.4375 80.488281 166.707031 84.753906 157.390625 C 84.753906 157.390625 87.300781 150.796875 87.882812 149.632812 L 87.859375 160.988281 C 87.859375 160.988281 82.855469 170.707031 81.304688 173.714844 C 79.75 176.722656 72.957031 189.242188 72.082031 190.597656 "/>
<path style=" stroke:none;fill-rule:nonzero;fill:rgb(16.719055%,41.25824%,64.970398%);fill-opacity:1;" d="M 61.117188 191.566406 L 62.671875 191.664062 C 62.671875 191.664062 68.441406 198.652344 78.488281 201.953125 L 78.488281 202.242188 C 78.488281 202.242188 70.53125 201.804688 61.117188 191.566406 "/>
<path style=" stroke:none;fill-rule:nonzero;fill:rgb(16.719055%,41.25824%,64.970398%);fill-opacity:1;" d="M 83.34375 200.398438 L 83.34375 199.621094 C 78.925781 198.652344 73.734375 194.527344 73.734375 194.527344 L 72.425781 194.429688 C 72.425781 194.429688 77.328125 199.039062 83.34375 200.398438 "/>
<path style=" stroke:none;fill-rule:nonzero;fill:rgb(16.719055%,41.25824%,64.970398%);fill-opacity:1;" d="M 70.628906 196.082031 C 71.957031 200.953125 76.0625 204.957031 76.0625 204.957031 L 74.996094 204.957031 C 71.066406 201.707031 68.980469 194.09375 68.980469 194.09375 L 70.046875 194.238281 C 70.046875 194.238281 70.484375 195.546875 70.628906 196.082031 "/>
<path style=" stroke:none;fill-rule:nonzero;fill:rgb(16.719055%,41.25824%,64.970398%);fill-opacity:1;" d="M 77.328125 202.386719 C 66.457031 202.582031 54.230469 191.132812 54.230469 191.132812 L 55.785156 191.226562 C 55.785156 191.226562 66.75 201.464844 77.328125 202 L 77.328125 202.386719 "/>
<path style=" stroke:none;fill-rule:nonzero;fill:rgb(16.719055%,41.25824%,64.970398%);fill-opacity:1;" d="M 146.800781 77.023438 C 149.128906 81.683594 179.792969 146.351562 182.117188 151.59375 C 184.445312 156.832031 203.65625 195.304688 203.65625 195.304688 L 202.691406 195.351562 L 147.089844 79.546875 L 146.800781 77.023438 "/>
<path style=" stroke:none;fill-rule:nonzero;fill:rgb(16.719055%,41.25824%,64.970398%);fill-opacity:1;" d="M 141.40625 25.535156 C 140.199219 28.75 132.148438 50 132.148438 50 C 129.53125 56.210938 119.433594 80.664062 119.433594 80.664062 C 118.273438 83.183594 102.453125 116.855469 102.453125 116.855469 L 102.164062 115.109375 C 102.9375 113.265625 105.851562 106.570312 118.273438 79.789062 C 129.558594 55.453125 138.601562 29.515625 140.15625 24.980469 L 140.878906 22.636719 L 141.40625 25.535156 "/>
<path style=" stroke:none;fill-rule:nonzero;fill:rgb(16.719055%,41.25824%,64.970398%);fill-opacity:1;" d="M 141.074219 19.824219 L 141.558594 22.152344 L 156.066406 76.246094 L 157.375 99.289062 L 156.550781 97.546875 L 155.238281 78.335938 L 155.140625 76.390625 L 141.945312 27.003906 C 141.945312 27.003906 140.78125 23.316406 140.394531 24.285156 C 140.394531 24.285156 140.78125 18.46875 141.074219 19.824219 "/>
<path style=" stroke:none;fill-rule:nonzero;fill:rgb(16.719055%,41.25824%,64.970398%);fill-opacity:1;" d="M 147.765625 76.390625 L 155.140625 76.390625 L 155.191406 77.703125 L 147.136719 77.703125 L 146.800781 77.023438 L 146.699219 76.296875 L 147.765625 76.390625 "/>
<path style=" stroke:none;fill-rule:nonzero;fill:rgb(16.719055%,41.25824%,64.970398%);fill-opacity:1;" d="M 100.511719 121.027344 L 101.558594 133.144531 L 99.640625 137.425781 L 96.871094 137.328125 L 96.871094 130.679688 L 100.511719 121.027344 "/>
<path style=" stroke:none;fill-rule:nonzero;fill:rgb(16.719055%,41.25824%,64.970398%);fill-opacity:1;" d="M 96.609375 139.503906 L 98.570312 139.503906 C 98.570312 139.503906 97.484375 142.777344 96.609375 144.234375 L 96.609375 139.503906 "/>
<path style=" stroke:none;fill-rule:nonzero;fill:rgb(16.719055%,41.25824%,64.970398%);fill-opacity:1;" d="M 94.664062 133.824219 L 94.792969 137.265625 L 93.140625 137.136719 Z M 94.664062 133.824219 "/>
<path style=" stroke:none;fill-rule:nonzero;fill:rgb(16.719055%,41.25824%,64.970398%);fill-opacity:1;" d="M 94.402344 139.40625 L 92.460938 139.40625 L 90.15625 145.089844 L 90.230469 156.542969 C 90.230469 156.542969 93.726562 149.164062 94.402344 147.710938 L 94.402344 139.40625 "/>
<path style=" stroke:none;fill-rule:nonzero;fill:rgb(16.719055%,41.25824%,64.970398%);fill-opacity:1;" d="M 140.78125 23.800781 L 141.164062 25.390625 L 141.167969 28.121094 L 141.207031 35.105469 L 141.230469 39.121094 L 143.015625 48.933594 L 146.023438 70.863281 C 146.023438 70.863281 147.378906 81.242188 147.574219 84.542969 C 147.574219 84.542969 151.648438 119.28125 151.746094 138.785156 C 151.78125 145.773438 151.746094 147.128906 151.746094 147.128906 L 150.097656 147.128906 C 150.097656 147.128906 148.933594 118.796875 147.574219 103.65625 C 147.574219 103.65625 145.441406 76.488281 144.664062 70.667969 C 143.886719 64.847656 142.238281 48.886719 140.25 39.8125 L 140.25 25.691406 L 140.78125 23.800781 "/>
<path style=" stroke:none;fill-rule:nonzero;fill:rgb(16.719055%,41.25824%,64.970398%);fill-opacity:1;" d="M 134.984375 80.738281 C 134.683594 72.011719 133.5625 58.273438 133.5625 58.273438 C 133.5625 58.273438 132.578125 62.753906 128.75 72.609375 C 123.476562 86.175781 116.097656 106.605469 112.164062 116.386719 C 105.371094 133.269531 86.519531 170.277344 74.003906 191.957031 C 74.003906 191.957031 97.953125 192.734375 99.503906 192.734375 C 99.503906 192.734375 106.328125 184.480469 112.152344 173.222656 C 117.976562 161.96875 127.058594 144.183594 131.914062 118.566406 C 131.914062 118.566406 135.566406 97.621094 134.984375 80.738281 "/>
<path style=" stroke:none;fill-rule:nonzero;fill:rgb(16.719055%,41.25824%,64.970398%);fill-opacity:1;" d="M 138.007812 126.921875 L 146.59375 128.3125 C 146.59375 128.3125 149.398438 179.171875 150.121094 191.03125 C 150.132812 191.238281 148.28125 190.8125 148.292969 190.992188 C 148.304688 191.152344 148.40625 193.285156 148.789062 193.507812 C 149.0625 193.667969 151.011719 192.839844 151.015625 192.925781 C 151.015625 192.925781 146.214844 193.121094 140.589844 193.15625 C 136.121094 193.183594 131.648438 193.035156 129.242188 193.121094 C 129.242188 193.121094 135.03125 170.324219 136.191406 152.082031 C 137.359375 133.839844 138.203125 130.609375 138.007812 126.921875 "/>
<path style=" stroke:none;fill-rule:nonzero;fill:rgb(16.719055%,41.25824%,64.970398%);fill-opacity:1;" d="M 180.605469 194.160156 L 182.070312 198.589844 L 183.671875 198.359375 C 183.671875 198.359375 181.34375 192.355469 178.621094 185.175781 C 168.753906 182.988281 158.828125 181.320312 158.828125 181.320312 C 159.503906 173.367188 160.3125 150.953125 158.179688 133.101562 C 157.832031 130.191406 156.679688 124.296875 156.136719 121.050781 C 156.136719 121.050781 154.949219 110.65625 153.6875 106.289062 C 152.429688 101.925781 151.140625 93.476562 150.171875 90.761719 C 150.171875 90.761719 151.398438 98.710938 152.074219 106.472656 C 152.308594 109.097656 153.488281 121.1875 153.839844 135.09375 C 154.390625 156.757812 154.828125 181.730469 153.761719 190.75 L 178.753906 190.824219 L 180.605469 194.160156 "/>
<path style=" stroke:none;fill-rule:nonzero;fill:rgb(16.719055%,41.25824%,64.970398%);fill-opacity:1;" d="M 161.421875 179.113281 C 162.296875 172.222656 163.039062 149.492188 160.90625 131.636719 C 158.773438 113.785156 151.140625 86.351562 151.140625 86.351562 C 160.613281 106.148438 179.722656 146.347656 181.535156 150.425781 C 183.359375 154.535156 195.578125 179.183594 200.757812 189.621094 C 188.570312 183.292969 161.421875 179.113281 161.421875 179.113281 "/>
<path style=" stroke:none;fill-rule:nonzero;fill:rgb(16.719055%,41.25824%,64.970398%);fill-opacity:1;" d="M 172.804688 176.433594 C 168.921875 176.207031 164.652344 177.792969 164.652344 177.792969 C 169.828125 177.769531 172.804688 176.433594 172.804688 176.433594 "/>
<path style=" stroke:none;fill-rule:nonzero;fill:rgb(16.719055%,41.25824%,64.970398%);fill-opacity:1;" d="M 164.070312 175.65625 C 164.070312 175.65625 165.335938 173.761719 166.972656 172.714844 C 166.972656 172.714844 166.15625 174.128906 164.070312 175.65625 "/>
<path style=" stroke:none;fill-rule:nonzero;fill:rgb(16.719055%,41.25824%,64.970398%);fill-opacity:1;" d="M 163.09375 174.898438 C 163.09375 174.898438 163.511719 172.65625 164.597656 171.050781 C 164.597656 171.050781 164.40625 172.667969 163.09375 174.898438 "/>
<path style=" stroke:none;fill-rule:nonzero;fill:rgb(16.719055%,41.25824%,64.970398%);fill-opacity:1;" d="M 94.480469 129.882812 C 94.078125 130.78125 93.640625 131.730469 93.179688 132.730469 C 93.179688 132.730469 93.039062 123.144531 93.039062 121.980469 L 91.644531 121.558594 L 91.519531 135.902344 L 91.394531 136.734375 L 90.132812 137.230469 C 90.132812 137.230469 88.960938 138.722656 90.320312 138.722656 L 89.796875 140.898438 C 87.488281 145.859375 85.339844 149.363281 82.757812 154.527344 C 82.757812 154.527344 67.71875 185.84375 65.582031 190.113281 C 61.699219 190.113281 46.855469 189.820312 46.855469 189.820312 C 49.765625 188.074219 53.257812 184.195312 56.363281 179.34375 C 59.472656 174.492188 70.726562 154.308594 77.714844 137.230469 C 84.699219 120.152344 97.894531 89.882812 97.894531 89.882812 L 97.410156 81.824219 L 97.992188 81.632812 L 104.105469 131.019531 C 104.105469 131.019531 102.453125 125.683594 101.777344 119.378906 C 101.097656 113.070312 100.125 106.957031 100.125 106.957031 L 100.125 116.648438 C 100.125 116.648438 100.242188 117.628906 96.570312 125.789062 L 96.109375 102.242188 L 95.195312 128.269531 L 94.480469 129.882812 "/>
<path style=" stroke:none;fill-rule:nonzero;fill:rgb(16.719055%,41.25824%,64.970398%);fill-opacity:1;" d="M 50.882812 187.953125 C 50.882812 187.953125 52.550781 186.515625 54.222656 186.207031 C 54.222656 186.207031 52.707031 187.640625 50.882812 187.953125 "/>
<g clip-path="url(#clip1)" clip-rule="nonzero">
<path style=" stroke:none;fill-rule:nonzero;fill:rgb(16.719055%,41.25824%,64.970398%);fill-opacity:1;" d="M 115.175781 227.304688 L 112.632812 229.488281 L 111.371094 227.898438 L 115.433594 224.574219 L 117.546875 224.574219 L 117.546875 241.144531 L 115.175781 241.144531 L 115.175781 227.304688 "/>
</g>
<g clip-path="url(#clip2)" clip-rule="nonzero">
<path style=" stroke:none;fill-rule:nonzero;fill:rgb(16.719055%,41.25824%,64.970398%);fill-opacity:1;" d="M 124.148438 238.796875 C 124.996094 239.246094 126.023438 239.484375 127.089844 239.484375 C 130.175781 239.484375 131.671875 236.636719 131.722656 233.453125 L 131.671875 233.476562 C 130.554688 234.570312 129.417969 234.996094 128.039062 234.996094 C 124.835938 234.996094 123.050781 232.742188 123.050781 229.773438 C 123.050781 226.355469 125.355469 224.289062 128.371094 224.289062 C 133 224.289062 133.953125 228.464844 133.953125 232.242188 C 133.953125 236.730469 132.476562 241.429688 127.230469 241.429688 C 126.09375 241.429688 124.402344 241.167969 123.8125 240.910156 Z M 128.351562 233.050781 C 130.316406 233.050781 131.433594 231.578125 131.433594 229.726562 C 131.433594 228.15625 130.464844 226.234375 128.515625 226.234375 C 126.523438 226.234375 125.570312 227.945312 125.570312 229.726562 C 125.570312 231.269531 126.472656 233.050781 128.351562 233.050781 "/>
</g>
<g clip-path="url(#clip3)" clip-rule="nonzero">
<path style=" stroke:none;fill-rule:nonzero;fill:rgb(16.719055%,41.25824%,64.970398%);fill-opacity:1;" d="M 138.625 231.554688 L 139.957031 231.554688 C 141.667969 231.554688 144.0625 230.960938 144.0625 228.847656 C 144.0625 226.949219 142.546875 226.234375 140.808594 226.234375 C 139.316406 226.234375 138.125 226.636719 137.132812 227.136719 L 136.988281 225.023438 C 138.082031 224.621094 139.742188 224.289062 141.144531 224.289062 C 144.0625 224.289062 146.582031 225.664062 146.582031 228.800781 C 146.582031 230.890625 144.921875 232.21875 143.019531 232.574219 L 143.019531 232.625 C 145.230469 233.074219 146.722656 234.378906 146.722656 236.730469 C 146.722656 240.527344 143.472656 241.429688 140.191406 241.429688 C 138.863281 241.429688 137.441406 241.097656 136.398438 240.789062 L 136.539062 238.582031 C 137.390625 239.007812 138.742188 239.484375 140.171875 239.484375 C 141.976562 239.484375 144.207031 238.773438 144.207031 236.660156 C 144.207031 234.1875 142.214844 233.5 140.074219 233.5 L 138.625 233.5 L 138.625 231.554688 "/>
</g>
<g clip-path="url(#clip4)" clip-rule="nonzero">
<path style=" stroke:none;fill-rule:nonzero;fill:rgb(16.719055%,41.25824%,64.970398%);fill-opacity:1;" d="M 154.984375 224.289062 C 159.570312 224.289062 160.613281 229.226562 160.613281 232.859375 C 160.613281 236.492188 159.570312 241.429688 154.984375 241.429688 C 150.398438 241.429688 149.355469 236.492188 149.355469 232.859375 C 149.355469 229.226562 150.398438 224.289062 154.984375 224.289062 Z M 154.984375 239.484375 C 157.832031 239.484375 158.09375 234.925781 158.09375 232.859375 C 158.09375 230.769531 157.714844 226.234375 154.984375 226.234375 C 152.25 226.234375 151.875 230.769531 151.875 232.859375 C 151.875 234.925781 152.132812 239.484375 154.984375 239.484375 "/>
</g>
<path style=" stroke:none;fill-rule:nonzero;fill:rgb(16.719055%,41.25824%,64.970398%);fill-opacity:1;" d="M 23.101562 206.703125 L 21.808594 204.441406 L 32.132812 193.949219 L 32.109375 193.90625 L 18.050781 197.902344 L 16.371094 194.980469 L 26.886719 184.816406 L 26.867188 184.773438 L 12.59375 188.398438 L 11.34375 186.21875 L 28.238281 182.402344 L 29.765625 185.054688 L 19.007812 195.382812 L 19.035156 195.421875 L 33.386719 191.371094 L 34.96875 194.125 L 23.101562 206.703125 "/>
<path style=" stroke:none;fill-rule:nonzero;fill:rgb(16.719055%,41.25824%,64.970398%);fill-opacity:1;" d="M 7.128906 175.21875 C 5.453125 170.480469 7.910156 166.488281 12.535156 164.847656 C 17.269531 163.167969 21.578125 164.734375 23.265625 169.496094 C 24.957031 174.253906 22.601562 178.183594 17.863281 179.863281 C 13.238281 181.507812 8.8125 179.957031 7.128906 175.21875 Z M 21.300781 170.191406 C 20.023438 166.59375 16.484375 166.113281 13.371094 167.214844 C 10.203125 168.34375 7.855469 171.085938 9.101562 174.519531 C 10.300781 177.96875 13.851562 178.621094 17.019531 177.496094 C 20.128906 176.394531 22.574219 173.789062 21.300781 170.191406 "/>
<path style=" stroke:none;fill-rule:nonzero;fill:rgb(16.719055%,41.25824%,64.970398%);fill-opacity:1;" d="M 1.769531 155.246094 C 0.855469 150.300781 3.914062 146.746094 8.738281 145.851562 C 13.691406 144.9375 17.691406 147.164062 18.609375 152.132812 C 19.527344 157.101562 16.582031 160.613281 11.636719 161.527344 C 6.808594 162.417969 2.679688 160.1875 1.769531 155.246094 Z M 16.554688 152.511719 C 15.867188 148.757812 12.4375 147.726562 9.199219 148.324219 C 5.886719 148.933594 3.136719 151.277344 3.820312 154.863281 C 4.460938 158.460938 7.867188 159.664062 11.179688 159.054688 C 14.421875 158.453125 17.25 156.265625 16.554688 152.511719 "/>
<path style=" stroke:none;fill-rule:nonzero;fill:rgb(16.719055%,41.25824%,64.970398%);fill-opacity:1;" d="M 0.144531 141.992188 L 0 137.109375 C -0.152344 132.203125 2.765625 128.203125 7.863281 128.050781 C 13.40625 127.878906 16.378906 131.160156 16.542969 136.609375 L 16.691406 141.492188 Z M 14.53125 139.183594 L 14.453125 136.699219 C 14.332031 132.617188 12.296875 130.429688 8.035156 130.558594 C 4.167969 130.675781 1.976562 133.371094 2.078125 136.785156 L 2.164062 139.558594 L 14.53125 139.183594 "/>
<path style=" stroke:none;fill-rule:nonzero;fill:rgb(16.719055%,41.25824%,64.970398%);fill-opacity:1;" d="M 3.238281 115.703125 C 2.65625 116.867188 2.386719 117.507812 2.277344 118.734375 C 2.152344 120.058594 2.480469 121.660156 4.207031 121.816406 C 7.371094 122.105469 7.285156 114.953125 12.71875 115.449219 C 16.234375 115.769531 17.378906 118.613281 17.078125 121.921875 C 16.972656 123.074219 16.539062 124.179688 16.085938 125.234375 L 13.910156 124.796875 C 14.3125 124.023438 14.917969 122.648438 15.027344 121.445312 C 15.148438 120.101562 14.5625 118.140625 12.628906 117.964844 C 8.945312 117.628906 9.3125 124.808594 4.191406 124.339844 C 1.261719 124.070312 -0.0859375 121.617188 0.1875 118.640625 C 0.285156 117.554688 0.59375 116.273438 1.097656 115.175781 L 3.238281 115.703125 "/>
<path style=" stroke:none;fill-rule:nonzero;fill:rgb(16.719055%,41.25824%,64.970398%);fill-opacity:1;" d="M 3.050781 101.742188 L 3.695312 99.460938 L 10.363281 101.339844 L 12.511719 93.710938 L 5.84375 91.832031 L 6.488281 89.550781 L 22.425781 94.039062 L 21.785156 96.324219 L 14.519531 94.277344 L 12.371094 101.90625 L 19.632812 103.953125 L 18.992188 106.234375 L 3.050781 101.742188 "/>
<path style=" stroke:none;fill-rule:nonzero;fill:rgb(16.719055%,41.25824%,64.970398%);fill-opacity:1;" d="M 11.386719 76.8125 C 13.476562 72.238281 18.019531 71.078125 22.484375 73.121094 C 27.058594 75.207031 29.0625 79.328125 26.960938 83.925781 C 24.867188 88.519531 20.4375 89.703125 15.867188 87.617188 C 11.398438 85.578125 9.296875 81.382812 11.386719 76.8125 Z M 25.066406 83.058594 C 26.648438 79.585938 24.441406 76.777344 21.441406 75.40625 C 18.378906 74.007812 14.78125 74.347656 13.285156 77.675781 C 11.746094 80.988281 13.84375 83.929688 16.910156 85.328125 C 19.90625 86.699219 23.476562 86.53125 25.066406 83.058594 "/>
<path style=" stroke:none;fill-rule:nonzero;fill:rgb(16.719055%,41.25824%,64.970398%);fill-opacity:1;" d="M 17.664062 65.21875 L 18.917969 63.207031 L 31.183594 70.863281 L 34.847656 64.992188 L 36.617188 66.097656 L 31.695312 73.976562 L 17.664062 65.21875 "/>
<path style=" stroke:none;fill-rule:nonzero;fill:rgb(16.719055%,41.25824%,64.970398%);fill-opacity:1;" d="M 25.121094 53.816406 L 30.851562 46.53125 L 32.492188 47.816406 L 28.226562 53.242188 L 32.027344 56.230469 L 35.910156 51.289062 L 37.550781 52.578125 L 33.671875 57.519531 L 37.960938 60.890625 L 42.21875 55.464844 L 43.859375 56.753906 L 38.136719 64.042969 L 25.121094 53.816406 "/>
<path style=" stroke:none;fill-rule:nonzero;fill:rgb(16.719055%,41.25824%,64.970398%);fill-opacity:1;" d="M 45.132812 31.855469 C 48.9375 28.570312 53.546875 29.414062 56.75 33.132812 C 60.035156 36.9375 60.132812 41.519531 56.308594 44.816406 C 52.484375 48.113281 47.96875 47.34375 44.6875 43.535156 C 41.484375 39.820312 41.324219 35.136719 45.132812 31.855469 Z M 54.949219 43.234375 C 57.839844 40.742188 57 37.269531 54.851562 34.773438 C 52.652344 32.226562 49.242188 31.03125 46.492188 33.433594 C 43.714844 35.800781 44.394531 39.347656 46.589844 41.894531 C 48.742188 44.390625 52.054688 45.726562 54.949219 43.234375 "/>
<path style=" stroke:none;fill-rule:nonzero;fill:rgb(16.719055%,41.25824%,64.970398%);fill-opacity:1;" d="M 66.839844 19.902344 C 65.628906 19.949219 64.484375 20.320312 63.472656 20.976562 C 60.257812 23.042969 59.617188 26.726562 61.632812 29.859375 C 63.738281 33.128906 67.488281 33.785156 70.382812 31.925781 C 71.378906 31.28125 72.546875 30.160156 72.972656 29.296875 L 74.339844 31.152344 C 73.566406 32.269531 72.308594 33.164062 71.488281 33.691406 C 67.082031 36.527344 62.332031 35.585938 59.480469 31.160156 C 56.722656 26.875 57.996094 22.019531 62.238281 19.285156 C 63.316406 18.59375 64.476562 18.070312 65.753906 17.867188 L 66.839844 19.902344 "/>
<path style=" stroke:none;fill-rule:nonzero;fill:rgb(16.719055%,41.25824%,64.970398%);fill-opacity:1;" d="M 69.730469 15.300781 L 78.0625 11.246094 L 78.972656 13.121094 L 72.773438 16.140625 L 74.890625 20.488281 L 80.535156 17.738281 L 81.449219 19.613281 L 75.800781 22.363281 L 78.1875 27.265625 L 84.386719 24.246094 L 85.300781 26.121094 L 76.964844 30.175781 L 69.730469 15.300781 "/>
<path style=" stroke:none;fill-rule:nonzero;fill:rgb(16.719055%,41.25824%,64.970398%);fill-opacity:1;" d="M 88.28125 7.335938 L 90.644531 6.546875 L 102.511719 20.035156 L 100.058594 20.851562 L 97.144531 17.425781 L 89.453125 19.992188 L 89.171875 24.480469 L 86.8125 25.269531 Z M 90.09375 9.082031 L 89.554688 17.90625 L 95.808594 15.820312 Z M 90.09375 9.082031 "/>
<path style=" stroke:none;fill-rule:nonzero;fill:rgb(16.719055%,41.25824%,64.970398%);fill-opacity:1;" d="M 101.660156 3.359375 L 104.835938 2.800781 L 114.335938 14.660156 L 114.382812 14.652344 L 112.074219 1.527344 L 114.410156 1.117188 L 117.277344 17.417969 L 114.285156 17.945312 L 104.550781 5.835938 L 104.503906 5.847656 L 106.863281 19.25 L 104.527344 19.660156 L 101.660156 3.359375 "/>
<path style=" stroke:none;fill-rule:nonzero;fill:rgb(16.719055%,41.25824%,64.970398%);fill-opacity:1;" d="M 127.824219 0.00390625 C 132.84375 -0.113281 135.867188 3.46875 135.976562 8.371094 C 136.097656 13.398438 133.265625 16.996094 128.214844 17.113281 C 123.167969 17.226562 120.171875 13.765625 120.058594 8.738281 C 119.945312 3.835938 122.796875 0.117188 127.824219 0.00390625 Z M 128.167969 15.023438 C 131.984375 14.9375 133.542969 11.726562 133.472656 8.429688 C 133.390625 5.066406 131.519531 1.980469 127.867188 2.085938 C 124.21875 2.148438 122.492188 5.316406 122.566406 8.679688 C 122.648438 11.976562 124.351562 15.113281 128.167969 15.023438 "/>
<path style=" stroke:none;fill-rule:nonzero;fill:rgb(16.719055%,41.25824%,64.970398%);fill-opacity:1;" d="M 153.398438 5.003906 C 152.34375 4.101562 151.144531 3.570312 149.027344 3.296875 C 145.238281 2.8125 142.371094 5.242188 141.898438 8.910156 C 141.40625 12.769531 143.855469 15.6875 147.261719 16.125 C 148.882812 16.335938 149.332031 16.222656 149.933594 16.183594 L 150.574219 11.195312 L 147.117188 10.75 L 147.363281 8.824219 L 153.171875 9.566406 L 152.074219 18.105469 C 151.144531 18.296875 149.539062 18.523438 146.972656 18.191406 C 141.773438 17.527344 138.742188 13.742188 139.414062 8.519531 C 140.058594 3.460938 144.164062 0.566406 149.175781 1.210938 C 151.578125 1.519531 152.589844 2.007812 153.890625 2.652344 L 153.398438 5.003906 "/>
<path style=" stroke:none;fill-rule:nonzero;fill:rgb(16.719055%,41.25824%,64.970398%);fill-opacity:1;" d="M 160.019531 3.382812 L 163.929688 4.441406 C 167.089844 5.292969 169.996094 6.617188 168.964844 10.441406 C 168.441406 12.386719 166.628906 13.371094 164.6875 13.191406 L 164.675781 13.238281 C 165.3125 13.703125 165.5625 14.140625 165.800781 15.261719 L 167.105469 22.4375 L 164.496094 21.734375 L 163.539062 15.535156 C 163.253906 13.785156 162.496094 13.582031 161.28125 13.253906 L 159.90625 12.886719 L 157.996094 19.980469 L 155.703125 19.363281 Z M 160.453125 10.871094 L 162.402344 11.394531 C 164.574219 11.980469 166.113281 11.363281 166.523438 9.832031 C 166.914062 8.390625 166.066406 7.175781 163.957031 6.609375 L 161.761719 6.015625 L 160.453125 10.871094 "/>
<path style=" stroke:none;fill-rule:nonzero;fill:rgb(16.719055%,41.25824%,64.970398%);fill-opacity:1;" d="M 180.773438 10.074219 L 183.0625 11.039062 L 183.070312 29 L 180.6875 27.996094 L 180.761719 23.496094 L 173.296875 20.34375 L 170.121094 23.53125 L 167.832031 22.5625 Z M 180.976562 12.578125 L 174.753906 18.851562 L 180.820312 21.414062 Z M 180.976562 12.578125 "/>
<path style=" stroke:none;fill-rule:nonzero;fill:rgb(16.719055%,41.25824%,64.970398%);fill-opacity:1;" d="M 193.132812 15.84375 L 196.875 18.042969 C 199.800781 19.757812 201.632812 22.210938 199.722656 25.460938 C 197.863281 28.632812 194.726562 28.304688 192.152344 26.789062 L 190.144531 25.613281 L 186.796875 31.320312 L 184.746094 30.121094 Z M 191.203125 23.8125 L 193.226562 25.003906 C 194.496094 25.746094 196.460938 26.050781 197.5625 24.167969 C 198.625 22.367188 197.125 20.609375 195.859375 19.867188 L 194.121094 18.84375 L 191.203125 23.8125 "/>
<path style=" stroke:none;fill-rule:nonzero;fill:rgb(16.719055%,41.25824%,64.970398%);fill-opacity:1;" d="M 206.203125 23.851562 L 208.082031 25.300781 L 203.832031 30.769531 L 210.089844 35.625 L 214.332031 30.15625 L 216.207031 31.609375 L 206.0625 44.683594 L 204.191406 43.230469 L 208.808594 37.273438 L 202.554688 32.421875 L 197.933594 38.375 L 196.0625 36.921875 L 206.203125 23.851562 "/>
<path style=" stroke:none;fill-rule:nonzero;fill:rgb(16.719055%,41.25824%,64.970398%);fill-opacity:1;" d="M 220.492188 35.652344 L 222.207031 37.289062 L 210.777344 49.261719 L 209.066406 47.621094 L 220.492188 35.652344 "/>
<path style=" stroke:none;fill-rule:nonzero;fill:rgb(16.719055%,41.25824%,64.970398%);fill-opacity:1;" d="M 231.699219 51.640625 C 231.480469 50.449219 230.949219 49.371094 230.15625 48.460938 C 227.640625 45.585938 223.902344 45.484375 221.097656 47.933594 C 218.167969 50.488281 218.058594 54.300781 220.320312 56.890625 C 221.101562 57.78125 222.375 58.777344 223.296875 59.074219 L 221.660156 60.695312 C 220.441406 60.089844 219.371094 58.976562 218.734375 58.242188 C 215.289062 54.296875 215.53125 49.453125 219.496094 45.992188 C 223.339844 42.636719 228.324219 43.195312 231.648438 47 C 232.492188 47.964844 233.175781 49.035156 233.558594 50.273438 L 231.699219 51.640625 "/>
<path style=" stroke:none;fill-rule:nonzero;fill:rgb(16.719055%,41.25824%,64.970398%);fill-opacity:1;" d="M 240.679688 59.707031 L 241.957031 61.703125 L 228.023438 70.625 L 226.746094 68.628906 L 240.679688 59.707031 "/>
<path style=" stroke:none;fill-rule:nonzero;fill:rgb(16.719055%,41.25824%,64.970398%);fill-opacity:1;" d="M 245.050781 66.566406 L 246.503906 69.445312 L 237.898438 81.972656 L 237.917969 82.011719 L 249.816406 76.007812 L 250.886719 78.125 L 236.109375 85.585938 L 234.742188 82.875 L 243.519531 70.050781 L 243.496094 70.007812 L 231.339844 76.140625 L 230.273438 74.023438 L 245.050781 66.566406 "/>
<path style=" stroke:none;fill-rule:nonzero;fill:rgb(16.719055%,41.25824%,64.970398%);fill-opacity:1;" d="M 253.277344 91.648438 C 253.320312 90.347656 253.296875 89.652344 252.886719 88.488281 C 252.4375 87.238281 251.464844 85.921875 249.835938 86.503906 C 246.839844 87.570312 249.921875 94.027344 244.78125 95.855469 C 241.449219 97.042969 239.214844 94.941406 238.105469 91.8125 C 237.714844 90.71875 237.640625 89.535156 237.613281 88.386719 L 239.769531 87.871094 C 239.730469 88.742188 239.757812 90.242188 240.164062 91.382812 C 240.621094 92.65625 241.96875 94.1875 243.804688 93.535156 C 247.289062 92.296875 243.945312 85.933594 248.789062 84.207031 C 251.5625 83.21875 253.816406 84.882812 254.820312 87.699219 C 255.1875 88.726562 255.445312 90.019531 255.445312 91.226562 L 253.277344 91.648438 "/>
<path style=" stroke:none;fill-rule:nonzero;fill:rgb(16.719055%,41.25824%,64.970398%);fill-opacity:1;" d="M 256.082031 100.210938 L 254.894531 95.207031 L 256.921875 94.726562 L 259.847656 107.042969 L 257.820312 107.523438 L 256.628906 102.519531 L 242.5625 105.867188 L 242.007812 103.558594 L 256.082031 100.210938 "/>
<path style=" stroke:none;fill-rule:nonzero;fill:rgb(16.719055%,41.25824%,64.970398%);fill-opacity:1;" d="M 260.34375 110.742188 L 260.691406 113.089844 L 244.3125 115.515625 L 243.964844 113.167969 L 260.34375 110.742188 "/>
<g clip-path="url(#clip5)" clip-rule="nonzero">
<path style=" stroke:none;fill-rule:nonzero;fill:rgb(16.719055%,41.25824%,64.970398%);fill-opacity:1;" d="M 259.527344 122.027344 L 259.210938 116.890625 L 261.289062 116.761719 L 262.074219 129.402344 L 259.988281 129.53125 L 259.671875 124.394531 L 245.234375 125.285156 L 245.085938 122.921875 L 259.527344 122.027344 "/>
</g>
<g clip-path="url(#clip6)" clip-rule="nonzero">
<path style=" stroke:none;fill-rule:nonzero;fill:rgb(16.719055%,41.25824%,64.970398%);fill-opacity:1;" d="M 251.535156 145.875 C 246.898438 145.566406 244.570312 143.058594 244.839844 138.988281 C 245.113281 134.914062 247.753906 132.738281 252.394531 133.046875 L 262.070312 133.691406 L 261.914062 136.0625 L 252.539062 135.4375 C 249.371094 135.222656 247.128906 136.074219 246.921875 139.125 C 246.714844 142.179688 248.832031 143.320312 252.003906 143.53125 L 261.375 144.15625 L 261.21875 146.523438 L 251.535156 145.875 "/>
</g>
<path style=" stroke:none;fill-rule:nonzero;fill:rgb(16.719055%,41.25824%,64.970398%);fill-opacity:1;" d="M 257.601562 155.40625 L 258.605469 150.355469 L 260.652344 150.765625 L 258.183594 163.1875 L 256.136719 162.78125 L 257.140625 157.730469 L 242.949219 154.914062 L 243.40625 152.585938 L 257.601562 155.40625 "/>
<path style=" stroke:none;fill-rule:nonzero;fill:rgb(16.719055%,41.25824%,64.970398%);fill-opacity:1;" d="M 257.082031 166.746094 L 256.417969 169.023438 L 240.519531 164.410156 L 241.179688 162.132812 L 257.082031 166.746094 "/>
<path style=" stroke:none;fill-rule:nonzero;fill:rgb(16.719055%,41.25824%,64.970398%);fill-opacity:1;" d="M 252.324219 181.355469 C 250.402344 186.003906 245.90625 187.328125 241.371094 185.453125 C 236.722656 183.535156 234.570312 179.492188 236.496094 174.824219 C 238.429688 170.15625 242.804688 168.808594 247.449219 170.726562 C 251.988281 172.597656 254.238281 176.710938 252.324219 181.355469 Z M 238.429688 175.621094 C 236.972656 179.148438 239.28125 181.875 242.328125 183.132812 C 245.445312 184.417969 249.023438 183.945312 250.390625 180.558594 C 251.8125 177.191406 249.605469 174.335938 246.492188 173.050781 C 243.445312 171.792969 239.882812 172.09375 238.429688 175.621094 "/>
<path style=" stroke:none;fill-rule:nonzero;fill:rgb(16.719055%,41.25824%,64.970398%);fill-opacity:1;" d="M 246.425781 193.472656 L 244.757812 196.230469 L 229.582031 195.585938 L 229.5625 195.628906 L 240.953125 202.519531 L 239.730469 204.546875 L 225.574219 195.984375 L 227.140625 193.390625 L 242.65625 194.023438 L 242.6875 193.980469 L 231.046875 186.941406 L 232.269531 184.914062 L 246.425781 193.472656 "/>
</g>
</svg>
