<?xml version="1.0" encoding="UTF-8"?>
<svg xmlns="http://www.w3.org/2000/svg" xmlns:xlink="http://www.w3.org/1999/xlink" width="526.6pt" height="146.5pt" viewBox="0 0 526.6 146.5" version="1.1">
<defs>
<clipPath id="clip1">
  <path d="M 385 74 L 425 74 L 425 146.5 L 385 146.5 Z M 385 74 "/>
</clipPath>
<clipPath id="clip2">
  <path d="M 401 129 L 404 129 L 404 146.5 L 401 146.5 Z M 401 129 "/>
</clipPath>
<clipPath id="clip3">
  <path d="M 406 129 L 422 129 L 422 146.5 L 406 146.5 Z M 406 129 "/>
</clipPath>
<clipPath id="clip4">
  <path d="M 423 129 L 434 129 L 434 146.5 L 423 146.5 Z M 423 129 "/>
</clipPath>
<clipPath id="clip5">
  <path d="M 434 129 L 446 129 L 446 146.5 L 434 146.5 Z M 434 129 "/>
</clipPath>
<clipPath id="clip6">
  <path d="M 451 129 L 463 129 L 463 146.5 L 451 146.5 Z M 451 129 "/>
</clipPath>
<clipPath id="clip7">
  <path d="M 477 129 L 489 129 L 489 146.5 L 477 146.5 Z M 477 129 "/>
</clipPath>
<clipPath id="clip8">
  <path d="M 447 129 L 451 129 L 451 146.5 L 447 146.5 Z M 447 129 "/>
</clipPath>
<clipPath id="clip9">
  <path d="M 463 129 L 477 129 L 477 146.5 L 463 146.5 Z M 463 129 "/>
</clipPath>
<clipPath id="clip10">
  <path d="M 490 129 L 493 129 L 493 146.5 L 490 146.5 Z M 490 129 "/>
</clipPath>
<clipPath id="clip11">
  <path d="M 494 129 L 511 129 L 511 146.5 L 494 146.5 Z M 494 129 "/>
</clipPath>
<clipPath id="clip12">
  <path d="M 512 129 L 526.601562 129 L 526.601562 146.5 L 512 146.5 Z M 512 129 "/>
</clipPath>
</defs>
<g id="surface1">
<path style=" stroke:none;fill-rule:nonzero;fill:rgb(11.326599%,37.559509%,54.980469%);fill-opacity:1;" d="M 54.089844 59.464844 C 54.070312 59.480469 54.050781 59.5 54.03125 59.519531 C 54.027344 59.523438 54.027344 59.523438 54.023438 59.527344 L 48.882812 70.78125 C 50.710938 75.113281 51.710938 80.21875 51.710938 85.679688 C 51.710938 101.335938 43.5 114.050781 31.070312 114.050781 C 18.640625 114.050781 10.320312 101.335938 10.320312 85.679688 C 10.320312 70.023438 18.640625 57.308594 31.070312 57.308594 C 33.117188 57.308594 35.050781 57.65625 36.855469 58.300781 L 33.757812 49.90625 C 33.050781 49.867188 32.332031 49.847656 31.597656 49.847656 C 13.585938 49.847656 0 66.03125 0 86.3125 C 0 105.75 10.953125 121.617188 30.226562 121.617188 C 48.238281 121.617188 62.035156 105.4375 62.035156 85.050781 C 62.035156 74.734375 59.390625 65.765625 54.089844 59.464844 "/>
<path style=" stroke:none;fill-rule:nonzero;fill:rgb(11.326599%,37.559509%,54.980469%);fill-opacity:1;" d="M 96.171875 86.425781 C 93.226562 82.203125 89.542969 80.273438 85.859375 80.273438 C 77.480469 80.273438 72.875 88.539062 72.875 97.175781 C 72.875 105.628906 76.835938 114.542969 85.953125 114.542969 C 93.78125 114.542969 99.765625 108.292969 99.765625 108.292969 L 101.054688 115.277344 C 101.054688 115.277344 95.160156 121.617188 83.742188 121.617188 C 71.679688 121.617188 64.773438 110.039062 64.773438 98.648438 C 64.773438 85.691406 71.953125 73.839844 86.042969 73.839844 C 92.675781 73.839844 97.648438 76.136719 101.054688 80.273438 L 96.171875 86.425781 "/>
<path style=" stroke:none;fill-rule:nonzero;fill:rgb(11.326599%,37.559509%,54.980469%);fill-opacity:1;" d="M 110.945312 91.941406 L 129.917969 91.941406 C 129.640625 87.164062 127.894531 79.8125 121.539062 79.8125 C 115.273438 79.8125 112.234375 85.324219 110.945312 91.941406 Z M 138.300781 95.429688 L 136.179688 97.820312 L 110.484375 97.820312 C 110.671875 106.089844 114.539062 114.542969 123.472656 114.542969 C 131.300781 114.542969 137.929688 108.292969 137.929688 108.292969 L 139.21875 115.277344 C 139.21875 115.277344 132.679688 121.617188 121.261719 121.617188 C 109.195312 121.617188 102.289062 110.039062 102.289062 98.648438 C 102.289062 85.691406 108.550781 73.839844 122.640625 73.839844 C 137.007812 73.839844 138.113281 89.734375 138.300781 95.429688 "/>
<path style=" stroke:none;fill-rule:nonzero;fill:rgb(11.326599%,37.559509%,54.980469%);fill-opacity:1;" d="M 167.476562 109.304688 L 167.476562 99.105469 C 165.078125 99.199219 149.882812 99.472656 149.882812 108.847656 C 149.882812 111.789062 152.003906 115 156.882812 115 C 160.9375 115 165.632812 111.417969 167.476562 109.304688 Z M 143.34375 81.007812 C 143.34375 81.007812 149.238281 73.929688 161.394531 73.929688 C 168.578125 73.929688 175.210938 77.054688 175.210938 85.691406 L 175.210938 110.039062 C 175.210938 115.554688 179.355469 120.421875 179.355469 120.421875 L 170.789062 121.617188 C 170.789062 121.617188 168.210938 118.125 168.117188 114.082031 C 165.632812 117.851562 159.1875 121.617188 153.476562 121.617188 C 147.214844 121.617188 141.597656 117.023438 141.597656 110.222656 C 141.597656 100.023438 152.277344 93.226562 167.476562 93.226562 L 167.476562 89.917969 C 167.476562 82.566406 164.34375 80.085938 160.566406 80.085938 C 152.09375 80.085938 147.488281 86.980469 147.488281 86.980469 L 143.34375 81.007812 "/>
<path style=" stroke:none;fill-rule:nonzero;fill:rgb(11.326599%,37.559509%,54.980469%);fill-opacity:1;" d="M 213.1875 120.421875 L 213.1875 93.960938 C 213.1875 85.234375 212.175781 81.097656 206.46875 81.097656 C 196.796875 81.097656 192.378906 87.898438 192.378906 87.898438 L 192.378906 113.53125 L 193.296875 120.421875 L 184.640625 120.421875 L 184.640625 83.671875 L 183.445312 75.21875 L 192.378906 74.207031 L 192.378906 81.097656 C 196.246094 76.871094 202.78125 73.929688 208.859375 73.929688 C 214.9375 73.929688 220.925781 77.421875 220.925781 84.773438 L 220.925781 113.714844 L 221.847656 120.421875 L 213.1875 120.421875 "/>
<path style=" stroke:none;fill-rule:nonzero;fill:rgb(11.326599%,37.559509%,54.980469%);fill-opacity:1;" d="M 247.570312 115.460938 C 255.304688 115.460938 260.09375 107.375 260.09375 97.730469 C 260.09375 88.082031 255.304688 79.996094 247.570312 79.996094 C 239.832031 79.996094 235.136719 88.082031 235.136719 97.730469 C 235.136719 107.375 239.832031 115.460938 247.570312 115.460938 Z M 249.226562 73.839844 C 260.277344 73.839844 268.566406 81.191406 268.566406 96.808594 C 268.566406 110.039062 260.277344 121.617188 246.09375 121.617188 C 227.125 121.617188 226.664062 100.023438 226.664062 98.554688 C 226.664062 84.3125 235.226562 73.839844 249.226562 73.839844 "/>
<path style=" stroke:none;fill-rule:nonzero;fill:rgb(11.326599%,37.559509%,54.980469%);fill-opacity:1;" d="M 289.730469 103.882812 C 294.886719 103.882812 299.214844 98.464844 299.214844 91.753906 C 299.214844 85.046875 294.886719 79.535156 289.730469 79.535156 C 284.574219 79.535156 279.96875 85.046875 279.96875 91.753906 C 279.96875 98.464844 284.574219 103.882812 289.730469 103.882812 Z M 282.269531 108.292969 C 280.425781 110.589844 279.691406 112.246094 279.691406 113.441406 C 279.691406 120.972656 310.820312 109.488281 310.820312 127.496094 C 310.820312 137.332031 299.585938 142.75 288.992188 142.75 C 272.324219 142.75 269.839844 133.011719 269.839844 133.011719 L 275.546875 127.773438 C 277.847656 134.386719 284.203125 136.871094 290.003906 136.871094 C 296.820312 136.871094 302.53125 133.652344 302.53125 129.609375 C 302.53125 118.402344 273.246094 131.355469 273.246094 115.371094 C 273.246094 111.511719 276.5625 107.742188 278.402344 106.089844 C 274.628906 103.058594 271.957031 98.097656 271.957031 92.214844 C 271.957031 81.648438 279.691406 73.839844 291.019531 73.839844 C 297.003906 73.839844 299.765625 76.414062 299.765625 76.414062 L 301.425781 75.21875 L 313.488281 75.21875 L 311.648438 81.464844 L 304.28125 81.464844 C 306.214844 83.855469 307.320312 87.4375 307.320312 90.929688 C 307.320312 103.515625 298.480469 109.582031 289.179688 109.582031 C 286.875 109.582031 284.664062 109.214844 282.269531 108.292969 "/>
<path style=" stroke:none;fill-rule:nonzero;fill:rgb(11.326599%,37.559509%,54.980469%);fill-opacity:1;" d="M 342.132812 83.945312 C 340.660156 82.660156 338.726562 82.015625 337.4375 82.015625 C 331.542969 82.015625 325.09375 88.816406 325.09375 96.992188 L 325.09375 113.53125 L 326.015625 120.421875 L 317.359375 120.421875 L 317.359375 83.671875 L 316.164062 75.21875 L 325.09375 74.207031 L 325.09375 84.3125 C 326.84375 81.191406 331.082031 73.839844 339.460938 73.839844 C 341.582031 73.839844 343.609375 74.667969 345.265625 76.414062 L 342.132812 83.945312 "/>
<path style=" stroke:none;fill-rule:nonzero;fill:rgb(11.326599%,37.559509%,54.980469%);fill-opacity:1;" d="M 370.007812 109.304688 L 370.007812 99.105469 C 367.613281 99.199219 352.417969 99.472656 352.417969 108.847656 C 352.417969 111.789062 354.535156 115 359.417969 115 C 363.472656 115 368.164062 111.417969 370.007812 109.304688 Z M 345.878906 81.007812 C 345.878906 81.007812 351.773438 73.929688 363.929688 73.929688 C 371.113281 73.929688 377.742188 77.054688 377.742188 85.691406 L 377.742188 110.039062 C 377.742188 115.554688 381.886719 120.421875 381.886719 120.421875 L 373.324219 121.617188 C 373.324219 121.617188 370.746094 118.125 370.65625 114.082031 C 368.164062 117.851562 361.71875 121.617188 356.011719 121.617188 C 349.746094 121.617188 344.128906 117.023438 344.128906 110.222656 C 344.128906 100.023438 354.816406 93.226562 370.007812 93.226562 L 370.007812 89.917969 C 370.007812 82.566406 366.875 80.085938 363.101562 80.085938 C 354.632812 80.085938 350.023438 86.980469 350.023438 86.980469 L 345.878906 81.007812 "/>
<g clip-path="url(#clip1)" clip-rule="nonzero">
<path style=" stroke:none;fill-rule:nonzero;fill:rgb(11.326599%,37.559509%,54.980469%);fill-opacity:1;" d="M 403.566406 115.644531 C 410.382812 115.644531 416 107.285156 416 97.636719 C 416 87.253906 411.394531 80.546875 405.316406 80.546875 C 399.148438 80.546875 394.914062 86.519531 394.914062 86.519531 L 394.914062 115 C 394.726562 115 399.976562 115.644531 403.566406 115.644531 Z M 387.175781 83.671875 L 385.980469 75.21875 L 394.914062 74.207031 L 394.914062 79.628906 C 394.914062 79.628906 399.332031 74.023438 407.988281 74.023438 C 416.832031 74.023438 424.566406 82.109375 424.566406 96.808594 C 424.566406 110.039062 415.355469 121.617188 402.097656 121.617188 C 400.070312 121.617188 397.488281 121.34375 394.914062 121.066406 L 394.914062 135.582031 L 395.832031 146.179688 L 387.175781 146.179688 L 387.175781 83.671875 "/>
</g>
<path style=" stroke:none;fill-rule:nonzero;fill:rgb(11.326599%,37.559509%,54.980469%);fill-opacity:1;" d="M 459.257812 120.421875 L 459.257812 93.960938 C 459.257812 85.234375 458.246094 81.097656 452.535156 81.097656 C 442.863281 81.097656 438.441406 87.898438 438.441406 87.898438 L 438.441406 113.53125 L 439.367188 120.421875 L 430.707031 120.421875 L 430.707031 60.519531 L 428.234375 49.417969 L 437.164062 48.410156 L 438.441406 81.097656 C 442.3125 76.871094 448.851562 73.929688 454.925781 73.929688 C 461.007812 73.929688 466.992188 77.421875 466.992188 84.773438 L 466.992188 113.714844 L 467.917969 120.421875 L 459.257812 120.421875 "/>
<path style=" stroke:none;fill-rule:nonzero;fill:rgb(11.326599%,37.559509%,54.980469%);fill-opacity:1;" d="M 483.757812 113.53125 L 484.675781 120.421875 L 476.019531 120.421875 L 476.019531 83.671875 L 474.820312 75.21875 L 483.757812 74.207031 Z M 479.425781 56.75 C 481.910156 56.75 484.125 58.957031 484.125 61.53125 C 484.125 64.101562 481.910156 66.488281 479.425781 66.488281 C 476.753906 66.488281 474.636719 64.101562 474.636719 61.53125 C 474.636719 58.957031 476.753906 56.75 479.425781 56.75 "/>
<path style=" stroke:none;fill-rule:nonzero;fill:rgb(11.326599%,37.559509%,54.980469%);fill-opacity:1;" d="M 521.117188 86.425781 C 518.171875 82.203125 514.484375 80.273438 510.804688 80.273438 C 502.421875 80.273438 497.816406 88.539062 497.816406 97.175781 C 497.816406 105.628906 501.78125 114.542969 510.894531 114.542969 C 518.726562 114.542969 524.710938 108.292969 524.710938 108.292969 L 526 115.277344 C 526 115.277344 520.105469 121.617188 508.6875 121.617188 C 496.621094 121.617188 489.714844 110.039062 489.714844 98.648438 C 489.714844 85.691406 496.898438 73.839844 510.984375 73.839844 C 517.617188 73.839844 522.589844 76.136719 526 80.273438 L 521.117188 86.425781 "/>
<g clip-path="url(#clip2)" clip-rule="nonzero">
<path style=" stroke:none;fill-rule:nonzero;fill:rgb(11.326599%,37.559509%,54.980469%);fill-opacity:1;" d="M 403.734375 144.332031 L 403.988281 146.175781 L 401.398438 146.175781 L 401.398438 132.21875 L 401.058594 129.949219 L 403.734375 129.949219 L 403.734375 144.332031 "/>
</g>
<g clip-path="url(#clip3)" clip-rule="nonzero">
<path style=" stroke:none;fill-rule:nonzero;fill:rgb(11.326599%,37.559509%,54.980469%);fill-opacity:1;" d="M 421.285156 144.332031 L 421.441406 146.175781 L 420.222656 146.175781 L 410.484375 135.820312 L 409.367188 134.214844 L 409.367188 144.332031 L 409.625 146.175781 L 407.238281 146.175781 L 407.238281 132.21875 L 406.902344 129.949219 L 408.484375 129.949219 L 418.015625 140.210938 L 419.15625 141.8125 L 419.15625 132.21875 L 418.820312 129.949219 L 421.285156 129.949219 L 421.285156 144.332031 "/>
</g>
<g clip-path="url(#clip4)" clip-rule="nonzero">
<path style=" stroke:none;fill-rule:nonzero;fill:rgb(11.326599%,37.559509%,54.980469%);fill-opacity:1;" d="M 423.871094 142.550781 C 423.871094 142.550781 425.765625 144.722656 428.335938 144.722656 C 429.816406 144.722656 431.113281 143.761719 431.113281 142.039062 C 431.113281 138.777344 423.660156 138.65625 423.660156 134.289062 C 423.660156 131.75 425.738281 129.65625 428.675781 129.65625 C 430.726562 129.65625 432.179688 130.34375 432.960938 130.8125 L 432.285156 132.613281 C 432.230469 132.488281 430.570312 131.40625 428.597656 131.40625 C 427.375 131.40625 426.105469 132.195312 426.105469 133.625 C 426.105469 137.175781 433.429688 136.878906 433.429688 141.714844 C 433.429688 144.5 431.425781 146.5 428.257812 146.5 C 425.195312 146.5 423.609375 144.671875 423.609375 144.671875 C 423.636719 144.648438 423.871094 142.550781 423.871094 142.550781 "/>
</g>
<g clip-path="url(#clip5)" clip-rule="nonzero">
<path style=" stroke:none;fill-rule:nonzero;fill:rgb(11.326599%,37.559509%,54.980469%);fill-opacity:1;" d="M 434.621094 129.949219 L 445.765625 129.949219 L 445.765625 131.828125 L 441.472656 131.828125 L 441.472656 144.332031 L 441.738281 146.175781 L 439.140625 146.175781 L 439.140625 131.828125 L 434.621094 131.828125 L 434.621094 129.949219 "/>
</g>
<g clip-path="url(#clip6)" clip-rule="nonzero">
<path style=" stroke:none;fill-rule:nonzero;fill:rgb(11.326599%,37.559509%,54.980469%);fill-opacity:1;" d="M 451.121094 129.949219 L 462.265625 129.949219 L 462.265625 131.828125 L 457.976562 131.828125 L 457.976562 144.332031 L 458.238281 146.175781 L 455.640625 146.175781 L 455.640625 131.828125 L 451.121094 131.828125 L 451.121094 129.949219 "/>
</g>
<g clip-path="url(#clip7)" clip-rule="nonzero">
<path style=" stroke:none;fill-rule:nonzero;fill:rgb(11.326599%,37.559509%,54.980469%);fill-opacity:1;" d="M 477.824219 129.949219 L 488.96875 129.949219 L 488.96875 131.828125 L 484.679688 131.828125 L 484.679688 144.332031 L 484.941406 146.175781 L 482.34375 146.175781 L 482.34375 131.828125 L 477.824219 131.828125 L 477.824219 129.949219 "/>
</g>
<g clip-path="url(#clip8)" clip-rule="nonzero">
<path style=" stroke:none;fill-rule:nonzero;fill:rgb(11.326599%,37.559509%,54.980469%);fill-opacity:1;" d="M 449.929688 144.332031 L 450.1875 146.175781 L 447.589844 146.175781 L 447.589844 132.21875 L 447.253906 129.949219 L 449.929688 129.949219 L 449.929688 144.332031 "/>
</g>
<g clip-path="url(#clip9)" clip-rule="nonzero">
<path style=" stroke:none;fill-rule:nonzero;fill:rgb(11.326599%,37.559509%,54.980469%);fill-opacity:1;" d="M 474.757812 132.21875 L 474.421875 129.949219 L 476.941406 129.949219 L 476.941406 139.691406 C 476.941406 143.6875 474.1875 146.5 469.929688 146.5 C 463.800781 146.5 463.644531 140.726562 463.644531 140.332031 L 463.644531 132.21875 L 463.3125 129.949219 L 465.980469 129.949219 L 465.980469 140.136719 C 465.980469 142.75 467.855469 144.699219 470.398438 144.699219 C 472.96875 144.699219 474.757812 142.578125 474.757812 139.960938 L 474.757812 132.21875 "/>
</g>
<g clip-path="url(#clip10)" clip-rule="nonzero">
<path style=" stroke:none;fill-rule:nonzero;fill:rgb(11.326599%,37.559509%,54.980469%);fill-opacity:1;" d="M 492.707031 144.332031 L 492.96875 146.175781 L 490.371094 146.175781 L 490.371094 132.21875 L 490.035156 129.949219 L 492.707031 129.949219 L 492.707031 144.332031 "/>
</g>
<g clip-path="url(#clip11)" clip-rule="nonzero">
<path style=" stroke:none;fill-rule:nonzero;fill:rgb(11.326599%,37.559509%,54.980469%);fill-opacity:1;" d="M 502.554688 144.722656 C 505.621094 144.722656 507.648438 141.738281 507.648438 138.0625 C 507.648438 134.390625 505.621094 131.40625 502.554688 131.40625 C 499.492188 131.40625 497.441406 134.390625 497.441406 138.0625 C 497.441406 141.738281 499.492188 144.722656 502.554688 144.722656 Z M 510.195312 137.917969 C 510.195312 142.699219 506.789062 146.5 502.351562 146.5 C 497.597656 146.5 494.898438 142.773438 494.898438 138.210938 C 494.898438 133.453125 498.246094 129.65625 502.6875 129.65625 C 507.699219 129.65625 510.195312 133.179688 510.195312 137.917969 "/>
</g>
<g clip-path="url(#clip12)" clip-rule="nonzero">
<path style=" stroke:none;fill-rule:nonzero;fill:rgb(11.326599%,37.559509%,54.980469%);fill-opacity:1;" d="M 526.441406 144.332031 L 526.601562 146.175781 L 525.382812 146.175781 L 515.640625 135.820312 L 514.523438 134.214844 L 514.523438 144.332031 L 514.785156 146.175781 L 512.394531 146.175781 L 512.394531 132.21875 L 512.054688 129.949219 L 513.640625 129.949219 L 523.171875 140.210938 L 524.3125 141.8125 L 524.3125 132.21875 L 523.976562 129.949219 L 526.441406 129.949219 L 526.441406 144.332031 "/>
</g>
<path style=" stroke:none;fill-rule:nonzero;fill:rgb(11.326599%,37.559509%,54.980469%);fill-opacity:1;" d="M 119.335938 57.964844 C 126.820312 57.964844 131.457031 50.691406 131.457031 42.007812 C 131.457031 33.324219 126.820312 26.046875 119.335938 26.046875 C 111.851562 26.046875 107.304688 33.324219 107.304688 42.007812 C 107.304688 50.691406 111.851562 57.964844 119.335938 57.964844 Z M 120.941406 20.507812 C 131.636719 20.507812 139.65625 27.121094 139.65625 41.179688 C 139.65625 53.089844 131.636719 63.507812 117.910156 63.507812 C 99.550781 63.507812 99.101562 44.074219 99.101562 42.75 C 99.101562 29.933594 107.394531 20.507812 120.941406 20.507812 "/>
<path style=" stroke:none;fill-rule:nonzero;fill:rgb(11.326599%,37.559509%,54.980469%);fill-opacity:1;" d="M 162.796875 57.964844 C 170.28125 57.964844 174.917969 50.691406 174.917969 42.007812 C 174.917969 33.324219 170.28125 26.046875 162.796875 26.046875 C 155.308594 26.046875 150.761719 33.324219 150.761719 42.007812 C 150.761719 50.691406 155.308594 57.964844 162.796875 57.964844 Z M 164.398438 20.507812 C 175.09375 20.507812 183.117188 27.121094 183.117188 41.179688 C 183.117188 53.089844 175.09375 63.507812 161.371094 63.507812 C 143.007812 63.507812 142.5625 44.074219 142.5625 42.75 C 142.5625 29.933594 150.851562 20.507812 164.398438 20.507812 "/>
<path style=" stroke:none;fill-rule:nonzero;fill:rgb(11.326599%,37.559509%,54.980469%);fill-opacity:1;" d="M 214.722656 52.34375 L 214.722656 26.628906 C 214.902344 26.628906 209.820312 26.046875 206.34375 26.046875 C 199.75 26.046875 194.3125 33.570312 194.3125 42.253906 C 194.3125 51.765625 199.125 57.882812 204.917969 57.882812 C 208.039062 57.882812 211.691406 55.980469 214.722656 52.34375 Z M 222.210938 53.089844 C 222.210938 58.046875 226.222656 62.429688 226.222656 62.429688 L 217.933594 63.507812 C 217.933594 63.507812 215.792969 60.777344 215.347656 57.46875 C 211.070312 61.523438 206.34375 63.507812 202.066406 63.507812 C 193.511719 63.507812 186.023438 56.226562 186.023438 43 C 186.023438 31.09375 194.9375 20.671875 207.769531 20.671875 C 209.734375 20.671875 212.226562 20.921875 214.722656 21.171875 L 214.722656 8.519531 L 213.566406 0.910156 L 222.210938 0 L 222.210938 53.089844 "/>
<path style=" stroke:none;fill-rule:nonzero;fill:rgb(11.326599%,37.559509%,54.980469%);fill-opacity:1;" d="M 229.570312 52.015625 C 229.570312 52.015625 234.652344 57.550781 242.230469 57.550781 C 246.507812 57.550781 250.070312 56.148438 250.070312 52.015625 C 250.070312 44.570312 228.324219 44.980469 228.324219 32.660156 C 228.324219 25.222656 234.832031 20.507812 243.207031 20.507812 C 250.070312 20.507812 253.816406 22.078125 256.042969 23.316406 L 253.90625 29.933594 C 250.429688 26.628906 245.792969 25.800781 242.496094 25.800781 C 238.84375 25.800781 235.902344 27.949219 235.902344 30.679688 C 235.902344 39.527344 257.648438 37.625 257.648438 50.933594 C 257.648438 58.296875 251.585938 63.507812 242.140625 63.507812 C 233.046875 63.507812 228.769531 58.710938 228.769531 58.710938 L 229.570312 52.015625 "/>
<path style=" stroke:none;fill-rule:nonzero;fill:rgb(11.326599%,37.559509%,54.980469%);fill-opacity:1;" d="M 324.097656 56.226562 L 324.988281 62.429688 L 316.078125 62.429688 L 316.078125 37.625 L 284.703125 37.625 L 284.703125 56.226562 L 285.59375 62.429688 L 276.679688 62.429688 L 276.679688 15.628906 L 275.519531 8.019531 L 284.703125 8.019531 L 284.703125 31.011719 L 316.078125 31.011719 L 316.078125 15.628906 L 314.917969 8.019531 L 324.097656 8.019531 L 324.097656 56.226562 "/>
<path style=" stroke:none;fill-rule:nonzero;fill:rgb(11.326599%,37.559509%,54.980469%);fill-opacity:1;" d="M 349.296875 57.964844 C 356.785156 57.964844 361.417969 50.691406 361.417969 42.007812 C 361.417969 33.324219 356.785156 26.046875 349.296875 26.046875 C 341.8125 26.046875 337.265625 33.324219 337.265625 42.007812 C 337.265625 50.691406 341.8125 57.964844 349.296875 57.964844 Z M 350.902344 20.507812 C 361.597656 20.507812 369.617188 27.121094 369.617188 41.179688 C 369.617188 53.089844 361.597656 63.507812 347.871094 63.507812 C 329.515625 63.507812 329.066406 44.074219 329.066406 42.75 C 329.066406 29.933594 337.355469 20.507812 350.902344 20.507812 "/>
<path style=" stroke:none;fill-rule:nonzero;fill:rgb(11.326599%,37.559509%,54.980469%);fill-opacity:1;" d="M 381.976562 56.226562 L 382.867188 62.429688 L 374.488281 62.429688 L 374.488281 8.519531 L 373.332031 0.910156 L 381.976562 0 L 381.976562 56.226562 "/>
<path style=" stroke:none;fill-rule:nonzero;fill:rgb(11.326599%,37.559509%,54.980469%);fill-opacity:1;" d="M 396.203125 36.796875 L 414.558594 36.796875 C 414.296875 32.496094 412.601562 25.882812 406.453125 25.882812 C 400.390625 25.882812 397.449219 30.84375 396.203125 36.796875 Z M 422.671875 39.941406 L 420.621094 42.089844 L 395.757812 42.089844 C 395.929688 49.53125 399.675781 57.140625 408.324219 57.140625 C 415.898438 57.140625 422.316406 51.515625 422.316406 51.515625 L 423.5625 57.800781 C 423.5625 57.800781 417.238281 63.507812 406.183594 63.507812 C 394.507812 63.507812 387.824219 53.089844 387.824219 42.835938 C 387.824219 31.175781 393.882812 20.507812 407.519531 20.507812 C 421.425781 20.507812 422.492188 34.8125 422.671875 39.941406 "/>
<path style=" stroke:none;fill-rule:nonzero;fill:rgb(11.326599%,37.559509%,54.980469%);fill-opacity:1;" d="M 80.140625 65.554688 L 74.410156 64.441406 L 63.410156 36.484375 L 62.035156 31.753906 L 60.175781 36.570312 L 46.390625 67.191406 L 42.105469 61.320312 L 24.589844 17.449219 L 19.230469 8.015625 L 30.136719 8.015625 L 44.648438 45.746094 L 46.589844 52.949219 L 48.992188 45.746094 L 58.234375 23.191406 L 53.847656 11.785156 L 63.085938 11.796875 L 76.074219 45.746094 L 78.015625 52.949219 L 80.417969 45.746094 L 95.761719 8.015625 L 104.078125 8.015625 L 80.140625 65.554688 "/>
</g>
</svg>
