<?xml version="1.0" encoding="UTF-8"?>
<svg xmlns="http://www.w3.org/2000/svg" xmlns:xlink="http://www.w3.org/1999/xlink" width="179.71pt" height="165.56pt" viewBox="0 0 179.71 165.56" version="1.1">
<defs>
<clipPath id="clip1">
  <path d="M 76 153 L 81 153 L 81 165.558594 L 76 165.558594 Z M 76 153 "/>
</clipPath>
<clipPath id="clip2">
  <path d="M 84 153 L 92 153 L 92 165.558594 L 84 165.558594 Z M 84 153 "/>
</clipPath>
<clipPath id="clip3">
  <path d="M 93 153 L 101 153 L 101 165.558594 L 93 165.558594 Z M 93 153 "/>
</clipPath>
<clipPath id="clip4">
  <path d="M 102 153 L 111 153 L 111 165.558594 L 102 165.558594 Z M 102 153 "/>
</clipPath>
<clipPath id="clip5">
  <path d="M 168 80 L 179.710938 80 L 179.710938 89 L 168 89 Z M 168 80 "/>
</clipPath>
<clipPath id="clip6">
  <path d="M 167 91 L 179.710938 91 L 179.710938 101 L 167 101 Z M 167 91 "/>
</clipPath>
</defs>
<g id="surface1">
<path style=" stroke:none;fill-rule:nonzero;fill:rgb(0%,0%,0%);fill-opacity:1;" d="M 104.257812 132.828125 L 104.191406 134.492188 L 104.390625 134.957031 L 106.386719 134.558594 L 106.71875 134.695312 L 106.449219 132.828125 L 124.316406 132.828125 L 124.117188 132.199219 L 104.324219 132.230469 L 104.257812 132.828125 "/>
<path style=" stroke:none;fill-rule:nonzero;fill:rgb(0%,0%,0%);fill-opacity:1;" d="M 132.535156 135.027344 L 133.933594 134.824219 L 133.265625 130.167969 L 132.203125 130.167969 L 132.535156 135.027344 "/>
<path style=" stroke:none;fill-rule:nonzero;fill:rgb(0%,0%,0%);fill-opacity:1;" d="M 128.210938 135.625 L 127.808594 132.894531 C 127.808594 132.894531 125.414062 131.765625 126.210938 133.894531 L 126.613281 135.890625 L 128.210938 135.625 "/>
<path style=" stroke:none;fill-rule:nonzero;fill:rgb(0%,0%,0%);fill-opacity:1;" d="M 142.777344 133.429688 C 142.777344 133.429688 144.046875 131.832031 143.980469 130.234375 C 143.894531 128.277344 141.449219 129.636719 140.71875 130.769531 C 139.984375 131.898438 139.054688 133.429688 138.65625 134.09375 L 140.253906 133.761719 C 140.253906 133.761719 141.246094 131.898438 141.785156 131.03125 C 142.316406 130.167969 143.179688 130.101562 142.847656 131.101562 C 142.515625 132.101562 141.847656 133.09375 141.515625 133.628906 L 142.777344 133.429688 "/>
<path style=" stroke:none;fill-rule:nonzero;fill:rgb(0%,0%,0%);fill-opacity:1;" d="M 94.222656 32.789062 L 92.8125 36.753906 C 92.8125 36.753906 93.585938 43.25 93.71875 47.242188 L 94.222656 32.789062 "/>
<path style=" stroke:none;fill-rule:nonzero;fill:rgb(0%,0%,0%);fill-opacity:1;" d="M 96.007812 34.46875 C 96.007812 34.46875 97.640625 44.242188 98.039062 52.160156 L 95.101562 50.90625 L 96.007812 34.46875 "/>
<path style=" stroke:none;fill-rule:nonzero;fill:rgb(0%,0%,0%);fill-opacity:1;" d="M 100.390625 85.605469 L 94.667969 84.597656 C 94.667969 84.597656 95.035156 60.15625 94.96875 52.703125 L 98.199219 54.230469 C 98.199219 54.230469 100.121094 74.425781 100.390625 85.605469 "/>
<path style=" stroke:none;fill-rule:nonzero;fill:rgb(0%,0%,0%);fill-opacity:1;" d="M 103.125 102.222656 L 103.71875 102.222656 C 103.71875 102.222656 104.480469 119.894531 104.414062 121.425781 L 103.945312 121.425781 C 103.945312 121.425781 103.125 102.886719 103.125 102.222656 "/>
<path style=" stroke:none;fill-rule:nonzero;fill:rgb(0%,0%,0%);fill-opacity:1;" d="M 96.851562 21.664062 C 102.539062 37.296875 115.699219 68.554688 115.699219 68.554688 L 141.882812 133.527344 L 142.445312 133.460938 L 116.496094 68.554688 C 116.496094 68.554688 103.023438 37.171875 97.308594 21.433594 L 96.851562 21.664062 "/>
<path style=" stroke:none;fill-rule:nonzero;fill:rgb(0%,0%,0%);fill-opacity:1;" d="M 93.210938 76.605469 C 93.210938 76.605469 92.71875 93.488281 91.652344 104 C 90.589844 114.515625 88.28125 126.640625 86.488281 132.429688 L 79.910156 132.429688 C 79.910156 132.429688 83.367188 122.902344 84.921875 117.394531 C 87.039062 109.878906 89.109375 101.457031 91.371094 87.351562 L 93.277344 72.347656 C 93.277344 72.347656 93.210938 75.808594 93.210938 76.605469 "/>
<path style=" stroke:none;fill-rule:nonzero;fill:rgb(0%,0%,0%);fill-opacity:1;" d="M 77.90625 132.363281 L 70.191406 132.363281 C 70.191406 132.363281 74.382812 126.84375 77.507812 121.054688 C 80.636719 115.265625 86.421875 103.15625 89.085938 93.972656 C 89.085938 93.972656 86.15625 111.804688 77.90625 132.363281 "/>
<path style=" stroke:none;fill-rule:nonzero;fill:rgb(0%,0%,0%);fill-opacity:1;" d="M 46.902344 133.09375 L 66.398438 134.757812 L 78.707031 134.757812 C 78.707031 134.757812 97.003906 134.757812 100 134.757812 C 102.992188 134.757812 104.191406 134.492188 104.191406 134.492188 L 104.222656 132.964844 L 103.492188 132.996094 L 103.558594 132.296875 L 100.496094 132.398438 L 102.027344 132.695312 L 100.628906 132.933594 L 74.980469 133.160156 L 51.492188 132.632812 L 51.09375 131.628906 L 44.972656 131.566406 C 44.972656 131.566406 45.371094 132.761719 46.902344 133.09375 "/>
<path style=" stroke:none;fill-rule:nonzero;fill:rgb(0%,0%,0%);fill-opacity:1;" d="M 60.476562 136.15625 L 60.476562 140.148438 L 61.074219 140.148438 L 61.074219 137.289062 L 61.722656 137.289062 L 61.722656 134.953125 L 63.535156 134.558594 L 64.734375 135.492188 L 67.660156 135.492188 L 67.660156 137.886719 L 69.257812 138.820312 L 69.257812 139.617188 L 70.054688 139.617188 L 70.054688 134.558594 L 72.050781 134.558594 L 72.050781 136.957031 L 74.3125 136.957031 L 74.3125 135.757812 L 75.777344 135.757812 L 76.578125 134.558594 L 78.839844 134.558594 L 78.839844 135.492188 L 84.027344 135.492188 L 84.429688 136.289062 L 86.824219 136.289062 L 86.691406 137.886719 L 87.621094 137.886719 L 87.621094 136.957031 L 88.953125 136.957031 L 88.953125 138.683594 L 89.617188 138.683594 C 89.617188 138.683594 89.882812 137.621094 89.75 137.085938 C 89.617188 136.558594 90.816406 137.753906 91.347656 137.085938 C 91.878906 136.421875 92.414062 136.421875 92.8125 136.558594 C 93.210938 136.6875 93.609375 136.289062 93.609375 136.289062 L 98.667969 136.15625 C 99.066406 134.957031 100.796875 135.625 100.796875 135.625 L 101.726562 137.355469 C 102.527344 136.820312 104.390625 134.957031 104.390625 134.957031 L 106.386719 134.558594 L 107.582031 135.226562 L 108.78125 135.757812 C 108.78125 134.957031 109.179688 134.425781 110.109375 134.425781 C 111.039062 134.425781 110.910156 135.757812 110.910156 135.757812 C 110.910156 135.757812 111.972656 136.023438 112.238281 135.625 C 112.507812 135.226562 113.703125 135.492188 113.703125 135.09375 C 113.703125 134.695312 115.433594 133.761719 115.433594 133.761719 L 116.632812 133.761719 L 119.925781 136.65625 C 120.59375 136.65625 120.890625 136.558594 120.890625 136.558594 L 120.890625 134.558594 L 123.550781 134.558594 L 123.550781 136.15625 C 123.949219 136.15625 125.949219 136.023438 125.949219 136.023438 C 130.738281 135.226562 144.046875 133.230469 144.046875 133.230469 C 142.316406 141.746094 133.398438 148 133.398438 148 L 59.410156 148 C 52.492188 143.609375 51.425781 140.546875 51.425781 140.546875 L 53.023438 140.546875 L 53.023438 138.519531 L 53.820312 138.683594 L 53.820312 137.554688 L 56.085938 137.554688 L 56.085938 139.351562 L 57.148438 139.351562 L 57.148438 136.15625 L 58.832031 135.71875 Z M 59.542969 145.402344 C 59.984375 145.402344 60.339844 145.046875 60.339844 144.605469 C 60.339844 144.167969 59.984375 143.8125 59.542969 143.8125 C 59.105469 143.8125 58.746094 144.167969 58.746094 144.605469 C 58.746094 145.046875 59.105469 145.402344 59.542969 145.402344 Z M 61.40625 145.402344 C 61.84375 145.402344 62.203125 145.046875 62.203125 144.605469 C 62.203125 144.167969 61.84375 143.8125 61.40625 143.8125 C 60.96875 143.8125 60.609375 144.167969 60.609375 144.605469 C 60.609375 145.046875 60.96875 145.402344 61.40625 145.402344 Z M 73.050781 145.195312 C 73.488281 145.195312 73.84375 144.839844 73.84375 144.398438 C 73.84375 143.960938 73.488281 143.605469 73.050781 143.605469 C 72.609375 143.605469 72.253906 143.960938 72.253906 144.398438 C 72.253906 144.839844 72.609375 145.195312 73.050781 145.195312 Z M 75.644531 145.070312 C 76.085938 145.070312 76.441406 144.714844 76.441406 144.273438 C 76.441406 143.835938 76.085938 143.476562 75.644531 143.476562 C 75.207031 143.476562 74.851562 143.835938 74.851562 144.273438 C 74.851562 144.714844 75.207031 145.070312 75.644531 145.070312 Z M 78.242188 144.9375 C 78.679688 144.9375 79.035156 144.578125 79.035156 144.140625 C 79.035156 143.703125 78.679688 143.34375 78.242188 143.34375 C 77.800781 143.34375 77.445312 143.703125 77.445312 144.140625 C 77.445312 144.578125 77.800781 144.9375 78.242188 144.9375 Z M 101.859375 143.605469 C 102.300781 143.605469 102.65625 143.25 102.65625 142.808594 C 102.65625 142.371094 102.300781 142.015625 101.859375 142.015625 C 101.421875 142.015625 101.066406 142.371094 101.066406 142.808594 C 101.066406 143.25 101.421875 143.605469 101.859375 143.605469 Z M 104.988281 143.269531 C 105.425781 143.269531 105.78125 142.914062 105.78125 142.476562 C 105.78125 142.039062 105.425781 141.683594 104.988281 141.683594 C 104.550781 141.683594 104.191406 142.039062 104.191406 142.476562 C 104.191406 142.914062 104.550781 143.269531 104.988281 143.269531 Z M 108.117188 142.949219 C 108.554688 142.949219 108.910156 142.59375 108.910156 142.152344 C 108.910156 141.714844 108.554688 141.359375 108.117188 141.359375 C 107.675781 141.359375 107.320312 141.714844 107.320312 142.152344 C 107.320312 142.59375 107.675781 142.949219 108.117188 142.949219 Z M 111.242188 142.601562 C 111.683594 142.601562 112.039062 142.246094 112.039062 141.804688 C 112.039062 141.363281 111.683594 141.007812 111.242188 141.007812 C 110.804688 141.007812 110.449219 141.363281 110.449219 141.804688 C 110.449219 142.246094 110.804688 142.601562 111.242188 142.601562 Z M 132.027344 143.746094 C 132.039062 144.160156 132.503906 144.558594 132.839844 144.152344 C 133.179688 143.746094 133.722656 142.59375 133.925781 143.136719 C 134.128906 143.675781 134.128906 144.355469 134.601562 144.152344 C 135.078125 143.949219 135.214844 142.527344 134.539062 142.117188 C 133.859375 141.714844 131.960938 141.507812 132.027344 143.746094 Z M 58.785156 142.613281 C 69.230469 142.347656 83.550781 141.597656 89.617188 141.214844 C 95.9375 140.816406 107.785156 139.480469 107.785156 139.480469 C 118.101562 138.664062 125.351562 136.054688 125.351562 136.054688 L 123.550781 136.15625 L 121.886719 136.355469 L 120.890625 136.558594 C 120.890625 136.558594 114.988281 137.132812 107.160156 138.230469 C 101.070312 139.082031 93.414062 139.867188 86.496094 140.265625 C 86.496094 140.265625 65.132812 141.449219 59.410156 141.519531 C 59.410156 141.519531 55.179688 141.742188 54.714844 141.675781 C 54.714844 141.675781 55.789062 142.480469 58.785156 142.613281 "/>
<path style=" stroke:none;fill-rule:nonzero;fill:rgb(0%,0%,0%);fill-opacity:1;" d="M 49.960938 131.628906 L 35.589844 130.636719 L 35.257812 130.167969 L 32.929688 130.101562 C 32.929688 130.101562 33.460938 130.769531 35.921875 130.96875 C 38.386719 131.167969 44.972656 131.566406 44.972656 131.566406 L 49.960938 131.628906 "/>
<path style=" stroke:none;fill-rule:nonzero;fill:rgb(0%,0%,0%);fill-opacity:1;" d="M 49.429688 130.699219 L 46.574219 130.59375 C 46.574219 130.59375 55.191406 114.316406 58.117188 107.929688 C 58.117188 107.929688 59.863281 103.410156 60.261719 102.609375 L 60.246094 110.394531 C 60.246094 110.394531 56.816406 117.058594 55.75 119.121094 C 54.6875 121.183594 50.03125 129.769531 49.429688 130.699219 "/>
<path style=" stroke:none;fill-rule:nonzero;fill:rgb(0%,0%,0%);fill-opacity:1;" d="M 41.910156 131.367188 L 42.976562 131.433594 C 42.976562 131.433594 46.933594 136.222656 53.820312 138.484375 L 53.820312 138.683594 C 53.820312 138.683594 48.363281 138.386719 41.910156 131.367188 "/>
<path style=" stroke:none;fill-rule:nonzero;fill:rgb(0%,0%,0%);fill-opacity:1;" d="M 57.148438 137.417969 L 57.148438 136.890625 C 54.121094 136.222656 50.5625 133.394531 50.5625 133.394531 L 49.664062 133.328125 C 49.664062 133.328125 53.023438 136.488281 57.148438 137.417969 "/>
<path style=" stroke:none;fill-rule:nonzero;fill:rgb(0%,0%,0%);fill-opacity:1;" d="M 48.433594 134.460938 C 49.34375 137.804688 52.160156 140.546875 52.160156 140.546875 L 51.425781 140.546875 C 48.730469 138.320312 47.300781 133.09375 47.300781 133.09375 L 48.03125 133.195312 C 48.03125 133.195312 48.332031 134.09375 48.433594 134.460938 "/>
<path style=" stroke:none;fill-rule:nonzero;fill:rgb(0%,0%,0%);fill-opacity:1;" d="M 53.023438 138.785156 C 45.570312 138.917969 37.1875 131.070312 37.1875 131.070312 L 38.253906 131.132812 C 38.253906 131.132812 45.769531 138.152344 53.023438 138.519531 L 53.023438 138.785156 "/>
<path style=" stroke:none;fill-rule:nonzero;fill:rgb(0%,0%,0%);fill-opacity:1;" d="M 100.664062 52.820312 C 102.261719 56.015625 123.285156 100.359375 124.882812 103.953125 C 126.480469 107.546875 139.652344 133.925781 139.652344 133.925781 L 138.988281 133.960938 L 100.863281 54.550781 L 100.664062 52.820312 "/>
<path style=" stroke:none;fill-rule:nonzero;fill:rgb(0%,0%,0%);fill-opacity:1;" d="M 96.964844 17.511719 C 96.136719 19.71875 90.617188 34.289062 90.617188 34.289062 C 88.820312 38.546875 81.898438 55.316406 81.898438 55.316406 C 81.101562 57.046875 70.257812 80.132812 70.257812 80.132812 L 70.054688 78.9375 C 70.589844 77.671875 72.585938 73.082031 81.101562 54.71875 C 88.839844 38.027344 95.042969 20.242188 96.109375 17.132812 L 96.605469 15.527344 L 96.964844 17.511719 "/>
<path style=" stroke:none;fill-rule:nonzero;fill:rgb(0%,0%,0%);fill-opacity:1;" d="M 96.738281 13.597656 L 97.070312 15.195312 L 107.019531 52.289062 L 107.914062 68.089844 L 107.351562 66.890625 L 106.449219 53.71875 L 106.386719 52.386719 L 97.335938 18.519531 C 97.335938 18.519531 96.539062 15.992188 96.273438 16.65625 C 96.273438 16.65625 96.539062 12.667969 96.738281 13.597656 "/>
<path style=" stroke:none;fill-rule:nonzero;fill:rgb(0%,0%,0%);fill-opacity:1;" d="M 101.328125 52.386719 L 106.386719 52.386719 L 106.417969 53.285156 L 100.894531 53.285156 L 100.664062 52.820312 L 100.597656 52.320312 L 101.328125 52.386719 "/>
<path style=" stroke:none;fill-rule:nonzero;fill:rgb(0%,0%,0%);fill-opacity:1;" d="M 68.925781 82.996094 L 69.640625 91.304688 L 68.328125 94.238281 L 66.425781 94.171875 L 66.425781 89.613281 L 68.925781 82.996094 "/>
<path style=" stroke:none;fill-rule:nonzero;fill:rgb(0%,0%,0%);fill-opacity:1;" d="M 66.25 95.664062 L 67.589844 95.664062 C 67.589844 95.664062 66.847656 97.910156 66.25 98.90625 L 66.25 95.664062 "/>
<path style=" stroke:none;fill-rule:nonzero;fill:rgb(0%,0%,0%);fill-opacity:1;" d="M 64.914062 91.769531 L 65.003906 94.128906 L 63.867188 94.039062 Z M 64.914062 91.769531 "/>
<path style=" stroke:none;fill-rule:nonzero;fill:rgb(0%,0%,0%);fill-opacity:1;" d="M 64.734375 95.597656 L 63.402344 95.597656 L 61.820312 99.496094 L 61.871094 107.347656 C 61.871094 107.347656 64.269531 102.289062 64.734375 101.292969 L 64.734375 95.597656 "/>
<path style=" stroke:none;fill-rule:nonzero;fill:rgb(0%,0%,0%);fill-opacity:1;" d="M 96.539062 16.324219 L 96.800781 17.414062 L 96.804688 19.285156 L 96.828125 24.074219 L 96.84375 26.828125 L 98.070312 33.558594 L 100.132812 48.597656 C 100.132812 48.597656 101.0625 55.714844 101.195312 57.976562 C 101.195312 57.976562 103.988281 81.796875 104.054688 95.171875 C 104.078125 99.964844 104.054688 100.894531 104.054688 100.894531 L 102.925781 100.894531 C 102.925781 100.894531 102.125 81.464844 101.195312 71.082031 C 101.195312 71.082031 99.730469 52.453125 99.199219 48.460938 C 98.667969 44.46875 97.535156 33.523438 96.171875 27.304688 L 96.171875 17.621094 L 96.539062 16.324219 "/>
<path style=" stroke:none;fill-rule:nonzero;fill:rgb(0%,0%,0%);fill-opacity:1;" d="M 92.5625 55.367188 C 92.355469 49.382812 91.585938 39.960938 91.585938 39.960938 C 91.585938 39.960938 90.910156 43.035156 88.285156 49.792969 C 84.671875 59.097656 79.609375 73.105469 76.914062 79.8125 C 72.253906 91.390625 59.328125 116.769531 50.746094 131.628906 C 50.746094 131.628906 67.167969 132.164062 68.234375 132.164062 C 68.234375 132.164062 72.914062 126.503906 76.90625 118.789062 C 80.898438 111.070312 87.128906 98.875 90.457031 81.308594 C 90.457031 81.308594 92.960938 66.945312 92.5625 55.367188 "/>
<path style=" stroke:none;fill-rule:nonzero;fill:rgb(0%,0%,0%);fill-opacity:1;" d="M 94.636719 87.039062 L 100.523438 87.988281 C 100.523438 87.988281 102.445312 122.863281 102.941406 130.996094 C 102.949219 131.140625 101.679688 130.847656 101.6875 130.972656 C 101.695312 131.082031 101.765625 132.542969 102.027344 132.695312 C 102.214844 132.804688 103.554688 132.234375 103.558594 132.296875 C 103.558594 132.296875 100.261719 132.429688 96.40625 132.457031 C 93.34375 132.472656 90.273438 132.371094 88.625 132.429688 C 88.625 132.429688 92.59375 116.796875 93.390625 104.289062 C 94.191406 91.78125 94.769531 89.566406 94.636719 87.039062 "/>
<path style=" stroke:none;fill-rule:nonzero;fill:rgb(0%,0%,0%);fill-opacity:1;" d="M 123.847656 133.144531 L 124.851562 136.179688 L 125.949219 136.023438 C 125.949219 136.023438 124.347656 131.90625 122.488281 126.984375 C 115.722656 125.484375 108.910156 124.339844 108.910156 124.339844 C 109.375 118.882812 109.933594 103.511719 108.46875 91.273438 C 108.230469 89.277344 107.4375 85.238281 107.066406 83.011719 C 107.066406 83.011719 106.253906 75.882812 105.386719 72.890625 C 104.523438 69.894531 103.640625 64.101562 102.976562 62.238281 C 102.976562 62.238281 103.816406 67.691406 104.285156 73.015625 C 104.441406 74.8125 105.253906 83.105469 105.492188 92.640625 C 105.867188 107.496094 106.171875 124.617188 105.4375 130.804688 L 122.578125 130.855469 L 123.847656 133.144531 "/>
<path style=" stroke:none;fill-rule:nonzero;fill:rgb(0%,0%,0%);fill-opacity:1;" d="M 110.691406 122.828125 C 111.289062 118.101562 111.804688 102.511719 110.339844 90.269531 C 108.875 78.027344 103.644531 59.21875 103.644531 59.21875 C 110.136719 72.789062 123.238281 100.355469 124.484375 103.15625 C 125.734375 105.972656 134.113281 122.875 137.664062 130.03125 C 129.308594 125.691406 110.691406 122.828125 110.691406 122.828125 "/>
<path style=" stroke:none;fill-rule:nonzero;fill:rgb(0%,0%,0%);fill-opacity:1;" d="M 118.496094 120.988281 C 115.835938 120.832031 112.90625 121.917969 112.90625 121.917969 C 116.453125 121.902344 118.496094 120.988281 118.496094 120.988281 "/>
<path style=" stroke:none;fill-rule:nonzero;fill:rgb(0%,0%,0%);fill-opacity:1;" d="M 112.507812 120.453125 C 112.507812 120.453125 113.371094 119.15625 114.496094 118.4375 C 114.496094 118.4375 113.9375 119.40625 112.507812 120.453125 "/>
<path style=" stroke:none;fill-rule:nonzero;fill:rgb(0%,0%,0%);fill-opacity:1;" d="M 111.839844 119.933594 C 111.839844 119.933594 112.121094 118.398438 112.871094 117.296875 C 112.871094 117.296875 112.742188 118.40625 111.839844 119.933594 "/>
<path style=" stroke:none;fill-rule:nonzero;fill:rgb(0%,0%,0%);fill-opacity:1;" d="M 64.789062 89.066406 C 64.511719 89.683594 64.210938 90.332031 63.894531 91.019531 C 63.894531 91.019531 63.800781 84.445312 63.800781 83.648438 L 62.84375 83.359375 L 62.757812 93.195312 L 62.671875 93.765625 L 61.804688 94.105469 C 61.804688 94.105469 61.003906 95.128906 61.933594 95.128906 L 61.578125 96.621094 C 59.996094 100.023438 58.519531 102.425781 56.75 105.964844 C 56.75 105.964844 46.4375 127.441406 44.972656 130.367188 C 42.308594 130.367188 32.132812 130.167969 32.132812 130.167969 C 34.125 128.972656 36.523438 126.308594 38.652344 122.984375 C 40.78125 119.65625 48.5 105.816406 53.289062 94.105469 C 58.078125 82.394531 67.128906 61.636719 67.128906 61.636719 L 66.796875 56.113281 L 67.195312 55.980469 L 71.386719 89.847656 C 71.386719 89.847656 70.257812 86.1875 69.789062 81.863281 C 69.324219 77.539062 68.660156 73.347656 68.660156 73.347656 L 68.660156 79.992188 C 68.660156 79.992188 68.734375 80.664062 66.21875 86.261719 L 65.902344 70.113281 L 65.277344 87.960938 L 64.789062 89.066406 "/>
<path style=" stroke:none;fill-rule:nonzero;fill:rgb(0%,0%,0%);fill-opacity:1;" d="M 34.894531 128.886719 C 34.894531 128.886719 36.039062 127.902344 37.179688 127.691406 C 37.179688 127.691406 36.144531 128.671875 34.894531 128.886719 "/>
<g clip-path="url(#clip1)" clip-rule="nonzero">
<path style=" stroke:none;fill-rule:nonzero;fill:rgb(0%,0%,0%);fill-opacity:1;" d="M 78.976562 155.871094 L 77.234375 157.371094 L 76.371094 156.277344 L 79.15625 153.996094 L 80.605469 153.996094 L 80.605469 165.363281 L 78.976562 165.363281 L 78.976562 155.871094 "/>
</g>
<g clip-path="url(#clip2)" clip-rule="nonzero">
<path style=" stroke:none;fill-rule:nonzero;fill:rgb(0%,0%,0%);fill-opacity:1;" d="M 85.128906 163.75 C 85.714844 164.0625 86.414062 164.222656 87.148438 164.222656 C 89.265625 164.222656 90.292969 162.269531 90.324219 160.089844 L 90.292969 160.105469 C 89.523438 160.855469 88.746094 161.148438 87.800781 161.148438 C 85.601562 161.148438 84.378906 159.597656 84.378906 157.5625 C 84.378906 155.21875 85.960938 153.800781 88.027344 153.800781 C 91.203125 153.800781 91.855469 156.667969 91.855469 159.257812 C 91.855469 162.335938 90.84375 165.558594 87.246094 165.558594 C 86.464844 165.558594 85.308594 165.378906 84.902344 165.199219 Z M 88.011719 159.8125 C 89.363281 159.8125 90.128906 158.800781 90.128906 157.53125 C 90.128906 156.457031 89.460938 155.136719 88.125 155.136719 C 86.757812 155.136719 86.105469 156.308594 86.105469 157.53125 C 86.105469 158.589844 86.726562 159.8125 88.011719 159.8125 "/>
</g>
<g clip-path="url(#clip3)" clip-rule="nonzero">
<path style=" stroke:none;fill-rule:nonzero;fill:rgb(0%,0%,0%);fill-opacity:1;" d="M 95.0625 158.785156 L 95.972656 158.785156 C 97.144531 158.785156 98.789062 158.378906 98.789062 156.929688 C 98.789062 155.628906 97.746094 155.136719 96.558594 155.136719 C 95.53125 155.136719 94.71875 155.414062 94.035156 155.757812 L 93.9375 154.308594 C 94.683594 154.03125 95.824219 153.800781 96.785156 153.800781 C 98.789062 153.800781 100.515625 154.746094 100.515625 156.894531 C 100.515625 158.332031 99.375 159.242188 98.070312 159.484375 L 98.070312 159.519531 C 99.585938 159.824219 100.613281 160.722656 100.613281 162.335938 C 100.613281 164.9375 98.382812 165.558594 96.132812 165.558594 C 95.222656 165.558594 94.246094 165.332031 93.53125 165.117188 L 93.628906 163.605469 C 94.214844 163.898438 95.140625 164.222656 96.117188 164.222656 C 97.355469 164.222656 98.886719 163.734375 98.886719 162.285156 C 98.886719 160.59375 97.519531 160.121094 96.050781 160.121094 L 95.0625 160.121094 L 95.0625 158.785156 "/>
</g>
<g clip-path="url(#clip4)" clip-rule="nonzero">
<path style=" stroke:none;fill-rule:nonzero;fill:rgb(0%,0%,0%);fill-opacity:1;" d="M 106.277344 153.800781 C 109.417969 153.800781 110.136719 157.1875 110.136719 159.683594 C 110.136719 162.171875 109.417969 165.558594 106.277344 165.558594 C 103.132812 165.558594 102.417969 162.171875 102.417969 159.683594 C 102.417969 157.1875 103.132812 153.800781 106.277344 153.800781 Z M 106.277344 164.222656 C 108.230469 164.222656 108.410156 161.097656 108.410156 159.683594 C 108.410156 158.246094 108.148438 155.136719 106.277344 155.136719 C 104.40625 155.136719 104.144531 158.246094 104.144531 159.683594 C 104.144531 161.097656 104.324219 164.222656 106.277344 164.222656 "/>
</g>
<path style=" stroke:none;fill-rule:nonzero;fill:rgb(0%,0%,0%);fill-opacity:1;" d="M 15.84375 141.746094 L 14.953125 140.191406 L 22.03125 132.996094 L 22.015625 132.96875 L 12.378906 135.710938 L 11.226562 133.707031 L 18.441406 126.738281 L 18.421875 126.707031 L 8.636719 129.195312 L 7.78125 127.699219 L 19.363281 125.082031 L 20.40625 126.898438 L 13.035156 133.984375 L 13.050781 134.007812 L 22.894531 131.230469 L 23.976562 133.117188 L 15.84375 141.746094 "/>
<path style=" stroke:none;fill-rule:nonzero;fill:rgb(0%,0%,0%);fill-opacity:1;" d="M 4.890625 120.152344 C 3.738281 116.902344 5.421875 114.167969 8.59375 113.042969 C 11.84375 111.890625 14.796875 112.964844 15.953125 116.226562 C 17.113281 119.492188 15.496094 122.1875 12.25 123.339844 C 9.078125 124.464844 6.042969 123.402344 4.890625 120.152344 Z M 14.605469 116.707031 C 13.730469 114.238281 11.300781 113.910156 9.171875 114.667969 C 6.996094 115.4375 5.386719 117.324219 6.238281 119.675781 C 7.0625 122.042969 9.496094 122.488281 11.671875 121.71875 C 13.800781 120.960938 15.480469 119.175781 14.605469 116.707031 "/>
<path style=" stroke:none;fill-rule:nonzero;fill:rgb(0%,0%,0%);fill-opacity:1;" d="M 1.210938 106.457031 C 0.585938 103.066406 2.683594 100.628906 5.992188 100.015625 C 9.386719 99.390625 12.132812 100.917969 12.761719 104.324219 C 13.390625 107.730469 11.371094 110.140625 7.980469 110.765625 C 4.667969 111.378906 1.839844 109.847656 1.210938 106.457031 Z M 11.351562 104.585938 C 10.878906 102.007812 8.53125 101.300781 6.308594 101.714844 C 4.035156 102.132812 2.148438 103.738281 2.621094 106.199219 C 3.058594 108.664062 5.394531 109.488281 7.667969 109.070312 C 9.890625 108.660156 11.828125 107.160156 11.351562 104.585938 "/>
<path style=" stroke:none;fill-rule:nonzero;fill:rgb(0%,0%,0%);fill-opacity:1;" d="M 0.101562 97.371094 L 0 94.023438 C -0.101562 90.660156 1.894531 87.914062 5.390625 87.808594 C 9.191406 87.695312 11.230469 89.941406 11.34375 93.679688 L 11.445312 97.027344 Z M 9.964844 95.445312 L 9.914062 93.738281 C 9.828125 90.945312 8.433594 89.441406 5.507812 89.53125 C 2.859375 89.609375 1.355469 91.460938 1.425781 93.800781 L 1.480469 95.703125 L 9.964844 95.445312 "/>
<path style=" stroke:none;fill-rule:nonzero;fill:rgb(0%,0%,0%);fill-opacity:1;" d="M 2.222656 79.34375 C 1.824219 80.140625 1.636719 80.582031 1.558594 81.421875 C 1.476562 82.328125 1.703125 83.429688 2.882812 83.535156 C 5.054688 83.734375 4.996094 78.832031 8.71875 79.171875 C 11.132812 79.390625 11.917969 81.339844 11.710938 83.605469 C 11.636719 84.398438 11.339844 85.15625 11.03125 85.878906 L 9.539062 85.578125 C 9.816406 85.050781 10.230469 84.109375 10.304688 83.28125 C 10.386719 82.359375 9.988281 81.015625 8.660156 80.894531 C 6.132812 80.664062 6.386719 85.585938 2.875 85.265625 C 0.867188 85.082031 -0.0585938 83.398438 0.128906 81.359375 C 0.195312 80.613281 0.40625 79.734375 0.753906 78.980469 L 2.222656 79.34375 "/>
<path style=" stroke:none;fill-rule:nonzero;fill:rgb(0%,0%,0%);fill-opacity:1;" d="M 2.09375 69.773438 L 2.535156 68.207031 L 7.105469 69.496094 L 8.582031 64.265625 L 4.007812 62.976562 L 4.449219 61.410156 L 15.378906 64.488281 L 14.9375 66.054688 L 9.957031 64.652344 L 8.484375 69.882812 L 13.464844 71.285156 L 13.023438 72.851562 L 2.09375 69.773438 "/>
<path style=" stroke:none;fill-rule:nonzero;fill:rgb(0%,0%,0%);fill-opacity:1;" d="M 7.808594 52.675781 C 9.238281 49.539062 12.355469 48.746094 15.417969 50.144531 C 18.554688 51.574219 19.929688 54.402344 18.488281 57.554688 C 17.050781 60.703125 14.015625 61.515625 10.878906 60.085938 C 7.816406 58.6875 6.375 55.808594 7.808594 52.675781 Z M 17.1875 56.960938 C 18.273438 54.574219 16.757812 52.652344 14.703125 51.710938 C 12.601562 50.753906 10.136719 50.984375 9.109375 53.269531 C 8.054688 55.539062 9.492188 57.554688 11.59375 58.515625 C 13.648438 59.453125 16.097656 59.339844 17.1875 56.960938 "/>
<path style=" stroke:none;fill-rule:nonzero;fill:rgb(0%,0%,0%);fill-opacity:1;" d="M 12.113281 44.722656 L 12.972656 43.347656 L 21.382812 48.597656 L 23.898438 44.570312 L 25.109375 45.328125 L 21.734375 50.730469 L 12.113281 44.722656 "/>
<path style=" stroke:none;fill-rule:nonzero;fill:rgb(0%,0%,0%);fill-opacity:1;" d="M 17.226562 36.90625 L 21.15625 31.910156 L 22.28125 32.792969 L 19.355469 36.515625 L 21.964844 38.5625 L 24.625 35.175781 L 25.75 36.058594 L 23.089844 39.445312 L 26.03125 41.757812 L 28.953125 38.035156 L 30.078125 38.921875 L 26.152344 43.921875 L 17.226562 36.90625 "/>
<path style=" stroke:none;fill-rule:nonzero;fill:rgb(0%,0%,0%);fill-opacity:1;" d="M 30.949219 21.847656 C 33.558594 19.59375 36.71875 20.175781 38.917969 22.722656 C 41.167969 25.332031 41.234375 28.472656 38.613281 30.734375 C 35.992188 32.996094 32.894531 32.46875 30.644531 29.859375 C 28.445312 27.308594 28.339844 24.097656 30.949219 21.847656 Z M 37.679688 29.652344 C 39.660156 27.941406 39.085938 25.558594 37.613281 23.847656 C 36.105469 22.101562 33.765625 21.28125 31.882812 22.929688 C 29.976562 24.554688 30.441406 26.984375 31.949219 28.730469 C 33.425781 30.445312 35.695312 31.359375 37.679688 29.652344 "/>
<path style=" stroke:none;fill-rule:nonzero;fill:rgb(0%,0%,0%);fill-opacity:1;" d="M 45.835938 13.652344 C 45.003906 13.683594 44.21875 13.9375 43.523438 14.386719 C 41.324219 15.804688 40.882812 18.332031 42.261719 20.476562 C 43.707031 22.71875 46.277344 23.171875 48.261719 21.894531 C 48.945312 21.453125 49.746094 20.6875 50.039062 20.09375 L 50.976562 21.363281 C 50.445312 22.132812 49.582031 22.746094 49.023438 23.105469 C 46 25.050781 42.742188 24.40625 40.789062 21.371094 C 38.894531 18.429688 39.769531 15.101562 42.679688 13.226562 C 43.417969 12.753906 44.214844 12.394531 45.089844 12.253906 L 45.835938 13.652344 "/>
<path style=" stroke:none;fill-rule:nonzero;fill:rgb(0%,0%,0%);fill-opacity:1;" d="M 47.816406 10.496094 L 53.527344 7.714844 L 54.15625 9.003906 L 49.902344 11.070312 L 51.351562 14.050781 L 55.226562 12.167969 L 55.851562 13.453125 L 51.976562 15.339844 L 53.613281 18.699219 L 57.867188 16.632812 L 58.492188 17.917969 L 52.777344 20.695312 L 47.816406 10.496094 "/>
<path style=" stroke:none;fill-rule:nonzero;fill:rgb(0%,0%,0%);fill-opacity:1;" d="M 60.539062 5.03125 L 62.15625 4.492188 L 70.296875 13.742188 L 68.613281 14.304688 L 66.613281 11.953125 L 61.339844 13.710938 L 61.148438 16.792969 L 59.53125 17.332031 Z M 61.777344 6.230469 L 61.410156 12.28125 L 65.699219 10.851562 Z M 61.777344 6.230469 "/>
<path style=" stroke:none;fill-rule:nonzero;fill:rgb(0%,0%,0%);fill-opacity:1;" d="M 69.710938 2.308594 L 71.890625 1.925781 L 78.402344 10.058594 L 78.433594 10.050781 L 76.851562 1.050781 L 78.453125 0.769531 L 80.417969 11.949219 L 78.371094 12.308594 L 71.695312 4.007812 L 71.660156 4.011719 L 73.277344 13.203125 L 71.675781 13.484375 L 69.710938 2.308594 "/>
<path style=" stroke:none;fill-rule:nonzero;fill:rgb(0%,0%,0%);fill-opacity:1;" d="M 87.652344 0.00390625 C 91.09375 -0.0742188 93.167969 2.382812 93.246094 5.742188 C 93.324219 9.1875 91.382812 11.65625 87.921875 11.738281 C 84.460938 11.816406 82.40625 9.441406 82.324219 5.996094 C 82.25 2.632812 84.207031 0.0859375 87.652344 0.00390625 Z M 87.886719 10.304688 C 90.503906 10.246094 91.574219 8.042969 91.523438 5.785156 C 91.46875 3.476562 90.183594 1.359375 87.683594 1.433594 C 85.179688 1.476562 83.996094 3.648438 84.046875 5.957031 C 84.101562 8.214844 85.273438 10.367188 87.886719 10.304688 "/>
<path style=" stroke:none;fill-rule:nonzero;fill:rgb(0%,0%,0%);fill-opacity:1;" d="M 105.191406 3.433594 C 104.464844 2.816406 103.644531 2.449219 102.191406 2.265625 C 99.59375 1.929688 97.625 3.597656 97.304688 6.113281 C 96.964844 8.761719 98.644531 10.761719 100.980469 11.0625 C 102.09375 11.203125 102.398438 11.128906 102.8125 11.097656 L 103.253906 7.679688 L 100.882812 7.375 L 101.050781 6.054688 L 105.035156 6.5625 L 104.285156 12.417969 C 103.644531 12.550781 102.539062 12.703125 100.785156 12.476562 C 97.21875 12.023438 95.140625 9.429688 95.601562 5.847656 C 96.042969 2.378906 98.859375 0.394531 102.292969 0.835938 C 103.9375 1.046875 104.632812 1.378906 105.527344 1.824219 L 105.191406 3.433594 "/>
<path style=" stroke:none;fill-rule:nonzero;fill:rgb(0%,0%,0%);fill-opacity:1;" d="M 109.726562 2.324219 L 112.410156 3.046875 C 114.578125 3.632812 116.570312 4.539062 115.863281 7.164062 C 115.503906 8.496094 114.261719 9.171875 112.933594 9.046875 L 112.921875 9.078125 C 113.359375 9.398438 113.53125 9.699219 113.695312 10.46875 L 114.589844 15.390625 L 112.800781 14.90625 L 112.144531 10.65625 C 111.945312 9.457031 111.425781 9.316406 110.59375 9.09375 L 109.65625 8.839844 L 108.339844 13.703125 L 106.769531 13.28125 Z M 110.027344 7.457031 L 111.363281 7.816406 C 112.851562 8.21875 113.910156 7.796875 114.191406 6.746094 C 114.460938 5.757812 113.875 4.925781 112.429688 4.535156 L 110.921875 4.128906 L 110.027344 7.457031 "/>
<path style=" stroke:none;fill-rule:nonzero;fill:rgb(0%,0%,0%);fill-opacity:1;" d="M 123.960938 6.910156 L 125.53125 7.574219 L 125.535156 19.890625 L 123.90625 19.199219 L 123.953125 16.117188 L 118.832031 13.953125 L 116.65625 16.140625 L 115.085938 15.476562 Z M 124.097656 8.628906 L 119.828125 12.929688 L 123.992188 14.6875 Z M 124.097656 8.628906 "/>
<path style=" stroke:none;fill-rule:nonzero;fill:rgb(0%,0%,0%);fill-opacity:1;" d="M 132.433594 10.867188 L 135 12.375 C 137.007812 13.554688 138.265625 15.234375 136.953125 17.464844 C 135.679688 19.636719 133.527344 19.410156 131.761719 18.375 L 130.386719 17.566406 L 128.089844 21.480469 L 126.6875 20.65625 Z M 131.113281 16.332031 L 132.5 17.148438 C 133.371094 17.660156 134.71875 17.867188 135.476562 16.578125 C 136.203125 15.34375 135.171875 14.136719 134.304688 13.625 L 133.113281 12.925781 L 131.113281 16.332031 "/>
<path style=" stroke:none;fill-rule:nonzero;fill:rgb(0%,0%,0%);fill-opacity:1;" d="M 141.398438 16.355469 L 142.683594 17.351562 L 139.773438 21.105469 L 144.066406 24.433594 L 146.972656 20.683594 L 148.257812 21.679688 L 141.300781 30.644531 L 140.019531 29.648438 L 143.183594 25.5625 L 138.898438 22.234375 L 135.726562 26.316406 L 134.445312 25.320312 L 141.398438 16.355469 "/>
<path style=" stroke:none;fill-rule:nonzero;fill:rgb(0%,0%,0%);fill-opacity:1;" d="M 151.199219 24.449219 L 152.371094 25.574219 L 144.535156 33.78125 L 143.359375 32.660156 L 151.199219 24.449219 "/>
<path style=" stroke:none;fill-rule:nonzero;fill:rgb(0%,0%,0%);fill-opacity:1;" d="M 158.882812 35.414062 C 158.730469 34.597656 158.367188 33.859375 157.824219 33.234375 C 156.101562 31.261719 153.535156 31.191406 151.609375 32.871094 C 149.601562 34.625 149.527344 37.238281 151.078125 39.015625 C 151.613281 39.625 152.492188 40.308594 153.121094 40.511719 L 151.996094 41.621094 C 151.160156 41.207031 150.429688 40.445312 149.988281 39.941406 C 147.628906 37.234375 147.792969 33.914062 150.515625 31.539062 C 153.144531 29.242188 156.566406 29.621094 158.847656 32.234375 C 159.425781 32.894531 159.894531 33.628906 160.15625 34.476562 L 158.882812 35.414062 "/>
<path style=" stroke:none;fill-rule:nonzero;fill:rgb(0%,0%,0%);fill-opacity:1;" d="M 165.039062 40.945312 L 165.914062 42.316406 L 156.359375 48.433594 L 155.484375 47.0625 L 165.039062 40.945312 "/>
<path style=" stroke:none;fill-rule:nonzero;fill:rgb(0%,0%,0%);fill-opacity:1;" d="M 168.035156 45.648438 L 169.03125 47.625 L 163.128906 56.214844 L 163.144531 56.242188 L 171.304688 52.125 L 172.035156 53.578125 L 161.90625 58.691406 L 160.96875 56.832031 L 166.984375 48.039062 L 166.96875 48.011719 L 158.636719 52.214844 L 157.902344 50.765625 L 168.035156 45.648438 "/>
<path style=" stroke:none;fill-rule:nonzero;fill:rgb(0%,0%,0%);fill-opacity:1;" d="M 173.679688 62.847656 C 173.707031 61.957031 173.691406 61.480469 173.410156 60.683594 C 173.101562 59.824219 172.4375 58.921875 171.316406 59.320312 C 169.265625 60.050781 171.378906 64.480469 167.851562 65.734375 C 165.570312 66.546875 164.035156 65.105469 163.273438 62.960938 C 163.007812 62.210938 162.957031 61.398438 162.9375 60.613281 L 164.414062 60.257812 C 164.390625 60.855469 164.410156 61.886719 164.6875 62.667969 C 164.996094 63.539062 165.925781 64.589844 167.183594 64.144531 C 169.574219 63.292969 167.277344 58.929688 170.601562 57.746094 C 172.503906 57.070312 174.046875 58.210938 174.734375 60.140625 C 174.984375 60.847656 175.164062 61.734375 175.167969 62.5625 L 173.679688 62.847656 "/>
<path style=" stroke:none;fill-rule:nonzero;fill:rgb(0%,0%,0%);fill-opacity:1;" d="M 175.601562 68.722656 L 174.785156 65.289062 L 176.179688 64.957031 L 178.1875 73.40625 L 176.792969 73.734375 L 175.976562 70.304688 L 166.328125 72.597656 L 165.953125 71.015625 L 175.601562 68.722656 "/>
<path style=" stroke:none;fill-rule:nonzero;fill:rgb(0%,0%,0%);fill-opacity:1;" d="M 178.523438 75.941406 L 178.761719 77.550781 L 167.53125 79.214844 L 167.292969 77.605469 L 178.523438 75.941406 "/>
<g clip-path="url(#clip5)" clip-rule="nonzero">
<path style=" stroke:none;fill-rule:nonzero;fill:rgb(0%,0%,0%);fill-opacity:1;" d="M 177.964844 83.679688 L 177.746094 80.15625 L 179.171875 80.070312 L 179.710938 88.738281 L 178.285156 88.824219 L 178.0625 85.300781 L 168.164062 85.914062 L 168.0625 84.292969 L 177.964844 83.679688 "/>
</g>
<g clip-path="url(#clip6)" clip-rule="nonzero">
<path style=" stroke:none;fill-rule:nonzero;fill:rgb(0%,0%,0%);fill-opacity:1;" d="M 172.484375 100.035156 C 169.300781 99.824219 167.703125 98.101562 167.894531 95.308594 C 168.078125 92.519531 169.890625 91.023438 173.070312 91.238281 L 179.707031 91.679688 L 179.601562 93.304688 L 173.175781 92.875 C 171 92.730469 169.460938 93.3125 169.320312 95.40625 C 169.183594 97.5 170.628906 98.28125 172.800781 98.425781 L 179.230469 98.855469 L 179.121094 100.476562 L 172.484375 100.035156 "/>
</g>
<path style=" stroke:none;fill-rule:nonzero;fill:rgb(0%,0%,0%);fill-opacity:1;" d="M 176.640625 106.570312 L 177.328125 103.105469 L 178.738281 103.386719 L 177.042969 111.90625 L 175.636719 111.628906 L 176.328125 108.164062 L 166.59375 106.230469 L 166.914062 104.632812 L 176.640625 106.570312 "/>
<path style=" stroke:none;fill-rule:nonzero;fill:rgb(0%,0%,0%);fill-opacity:1;" d="M 176.285156 114.34375 L 175.832031 115.90625 L 164.929688 112.742188 L 165.382812 111.179688 L 176.285156 114.34375 "/>
<path style=" stroke:none;fill-rule:nonzero;fill:rgb(0%,0%,0%);fill-opacity:1;" d="M 173.023438 124.363281 C 171.707031 127.550781 168.625 128.457031 165.511719 127.171875 C 162.328125 125.855469 160.851562 123.085938 162.171875 119.882812 C 163.492188 116.683594 166.496094 115.757812 169.683594 117.074219 C 172.796875 118.359375 174.339844 121.175781 173.023438 124.363281 Z M 163.496094 120.429688 C 162.496094 122.847656 164.085938 124.71875 166.171875 125.582031 C 168.304688 126.460938 170.761719 126.136719 171.703125 123.816406 C 172.671875 121.507812 171.160156 119.550781 169.023438 118.667969 C 166.9375 117.804688 164.496094 118.011719 163.496094 120.429688 "/>
<path style=" stroke:none;fill-rule:nonzero;fill:rgb(0%,0%,0%);fill-opacity:1;" d="M 168.980469 132.675781 L 167.835938 134.566406 L 157.429688 134.121094 L 157.414062 134.148438 L 165.226562 138.875 L 164.390625 140.265625 L 154.683594 134.394531 L 155.757812 132.617188 L 166.398438 133.050781 L 166.414062 133.019531 L 158.429688 128.191406 L 159.273438 126.800781 L 168.980469 132.675781 "/>
</g>
</svg>
