<?xml version="1.0" encoding="UTF-8" standalone="no"?>
<!-- Created with Inkscape (http://www.inkscape.org/) -->

<svg
   xmlns:dc="http://purl.org/dc/elements/1.1/"
   xmlns:cc="http://creativecommons.org/ns#"
   xmlns:rdf="http://www.w3.org/1999/02/22-rdf-syntax-ns#"
   xmlns:svg="http://www.w3.org/2000/svg"
   xmlns="http://www.w3.org/2000/svg"
   xmlns:sodipodi="http://sodipodi.sourceforge.net/DTD/sodipodi-0.dtd"
   xmlns:inkscape="http://www.inkscape.org/namespaces/inkscape"
   id="svg4584"
   version="1.1"
   inkscape:version="0.91+devel+osxmenu r12896"
   width="296.95999"
   height="296.95999"
   viewBox="0 0 296.95999 296.95999"
   sodipodi:docname="sio_logo.svg">
  <metadata
     id="metadata4590">
    <rdf:RDF>
      <cc:Work
         rdf:about="">
        <dc:format>image/svg+xml</dc:format>
        <dc:type
           rdf:resource="http://purl.org/dc/dcmitype/StillImage" />
        <dc:title></dc:title>
      </cc:Work>
    </rdf:RDF>
  </metadata>
  <defs
     id="defs4588" />
  <sodipodi:namedview
     pagecolor="#ffffff"
     bordercolor="#666666"
     borderopacity="1"
     objecttolerance="10"
     gridtolerance="10"
     guidetolerance="10"
     inkscape:pageopacity="0"
     inkscape:pageshadow="2"
     inkscape:window-width="1440"
     inkscape:window-height="851"
     id="namedview4586"
     showgrid="false"
     inkscape:zoom="1.5894397"
     inkscape:cx="148.48"
     inkscape:cy="148.48"
     inkscape:window-x="0"
     inkscape:window-y="23"
     inkscape:window-maximized="0"
     inkscape:current-layer="svg4584" />
  <path
     style="fill:#000000;stroke-width:0.63999999"
     d="M 132.8,296.29456 C 82.391543,290.5694 38.816431,260.47945 16.057089,215.67999 9.0779639,201.94229 4.7420764,188.74722 1.826515,172.37319 0.56654061,165.29708 0.36407217,161.98917 0.36407217,148.47999 c 0,-17.52382 0.92450573,-24.81215 5.06034723,-39.89319 C 19.019386,59.013765 59.013765,19.019386 108.5868,5.4244194 123.35539,1.3742622 131.01625,0.38399882 147.84,0.35044453 164.74665,0.31672487 171.60193,1.1158597 185.89718,4.7868523 237.59103,18.061736 278.95593,59.423312 292.15888,111.04 c 3.77797,14.76993 4.4717,20.65741 4.44932,37.75999 -0.0172,13.09713 -0.23498,16.56999 -1.47864,23.5732 -5.68563,32.01666 -19.50634,58.89904 -41.68184,81.07453 -22.16238,22.16238 -49.17777,36.05486 -80.96773,41.6371 -8.75115,1.53667 -30.86524,2.21088 -39.67999,1.20974 z m 32.95999,-3.24685 c 26.13977,-2.84833 53.3149,-14.3712 74.59774,-31.63112 7.57799,-6.14558 18.62539,-17.60576 24.44275,-25.35602 26.52144,-35.33361 35.5944,-80.54545 24.77765,-123.47061 C 276.66565,61.348089 235.6119,20.294333 184.37003,7.3818551 169.86407,3.7264876 154.47538,2.3076785 139.50133,3.2450437 119.37699,4.5048128 101.98615,9.1219088 84.145962,17.941347 48.897624,35.366639 22.435473,65.812164 10.227987,102.98627 c -5.2226158,15.90386 -7.1895989,28.35037 -7.1895989,45.49372 0,17.14336 1.9669831,29.58987 7.1895989,45.49373 6.993916,21.2978 17.86591,39.27154 33.573169,55.50365 16.856119,17.41936 36.522598,29.8268 58.918844,37.17147 20.98473,6.88177 40.4634,8.85895 63.03999,6.39887 z m -18.83809,-5.36772 c -0.18944,-0.704 -0.34693,-1.856 -0.34999,-2.56 -0.005,-1.15264 0.13741,-1.11037 1.43127,0.42485 1.82314,2.16323 3.87815,2.79486 4.93806,1.51775 1.14222,-1.3763 0.45595,-2.61055 -2.48315,-4.46593 -3.62624,-2.28914 -4.36767,-3.90258 -2.77402,-6.03659 1.0252,-1.37283 1.78801,-1.68567 4.17117,-1.71068 2.7286,-0.0286 2.9409,0.0913 3.29508,1.86222 0.51047,2.55237 0.16242,2.70294 -1.77335,0.76717 -1.78262,-1.78262 -2.20222,-1.90714 -3.55024,-1.05358 -1.33597,0.84593 -0.43982,2.36321 2.48709,4.21089 3.45247,2.17945 4.39017,4.19834 2.96221,6.37769 -0.58605,0.89442 -1.5629,1.65827 -2.17079,1.69744 -5.21324,0.336 -5.84374,0.23085 -6.18334,-1.03123 z m -15.52263,-0.9291 c -3.81669,-2.3272 -4.01184,-8.68931 -0.35478,-11.56595 1.45318,-1.14307 2.36936,-1.31269 5.89796,-1.09194 4.41504,0.27619 4.25023,0.1168 3.95712,3.82699 -0.10697,1.35389 -0.21179,1.31562 -1.75306,-0.64 -3.08957,-3.92018 -7.1616,-2.20062 -7.77995,3.28537 -0.27911,2.47626 -0.0932,3.08612 1.39366,4.57304 1.71655,1.71655 3.37384,1.88641 6.27978,0.64363 1.78472,-0.76327 1.29509,0.65272 -0.51012,1.47523 -2.37381,1.08158 -4.81004,0.90857 -7.13061,-0.50637 z m 31.66461,0.45311 c 1.05837,-1.27526 -0.22114,-10.70489 -1.6015,-11.80267 -0.79085,-0.62894 -0.53235,-0.83822 1.51183,-1.224 6.97627,-1.31656 10.54536,-0.0363 11.82727,4.24226 1.51903,5.07005 -1.61476,8.29011 -9.02622,9.27472 -3.06682,0.40743 -3.4056,0.34617 -2.71138,-0.49031 z m 6.80749,-1.8583 c 1.80008,-0.82017 3.19977,-4.16531 2.53065,-6.04803 -0.87694,-2.46748 -2.96011,-4.09768 -5.23625,-4.09768 l -2.21111,0 0.44186,4 c 0.80454,7.28339 1.09684,7.68483 4.47485,6.14571 z m -55.75406,-0.55185 c -0.77148,-0.31076 -1.87454,-1.28514 -2.45125,-2.16531 -0.97288,-1.48481 -0.96977,-1.95442 0.0431,-6.50697 0.91914,-4.13138 0.95252,-4.99479 0.21124,-5.46432 -1.10272,-0.69849 0.22553,-0.77208 3.19962,-0.17726 1.98987,0.39798 2.80847,1.52 1.10894,1.52 -1.02436,0 -3.31232,8.36993 -2.7141,9.92886 0.54029,1.40797 3.43377,2.3679 4.85108,1.60938 1.72903,-0.92535 3.72116,-8.69133 2.66381,-10.38442 -0.74989,-1.20076 -0.67314,-1.24856 1.32718,-0.82671 2.42648,0.51173 3.94077,1.59289 2.23101,1.59289 -0.60946,0 -1.22334,0.36 -1.36419,0.8 -0.14085,0.44 -0.71915,2.46734 -1.28512,4.5052 -1.55072,5.58368 -3.80297,7.18725 -7.8213,5.56866 z M 132.8,266.52372 c -31.39933,-4.24075 -60.296732,-20.97024 -78.980152,-45.72373 -16.351219,-21.66357 -24.379849,-45.47958 -24.379849,-72.32 0,-40.60758 19.862465,-77.353381 53.862718,-99.646692 19.010023,-12.464502 42.394763,-19.406322 65.312053,-19.388048 45.33203,0.03615 86.97066,26.300238 106.74447,67.33042 20.04068,41.58392 14.6455,89.79127 -14.0952,125.94432 -4.84771,6.09795 -14.33914,15.48656 -20.14405,19.92583 C 195.7489,262.0482 163.73894,270.7023 132.8,266.52372 Z m 9.12686,-3.48405 c 4.22473,-1.60573 9.25746,-1.62192 12.73942,-0.041 2.318,1.05247 3.32121,1.13388 7.68,0.62321 6.89379,-0.80766 17.52323,-3.21639 17.11419,-3.87824 -0.66058,-1.06885 -5.48425,-0.51624 -9.22048,1.05632 -2.60749,1.09748 -4.9896,1.6 -7.58451,1.6 -2.47508,0 -5.25282,-0.55321 -8.0339,-1.6 -2.33794,-0.88 -5.25796,-1.6 -6.48891,-1.6 -1.23096,0 -4.01004,0.72 -6.17573,1.6 -2.63496,1.07068 -5.16666,1.6 -7.65268,1.6 -2.4025,0 -5.21688,-0.56529 -7.96585,-1.6 -4.24102,-1.59632 -8.83377,-2.10013 -9.48844,-1.04085 -0.36869,0.59654 10.04372,2.97294 16.92372,3.86246 2.28047,0.29484 4.29031,0.57245 4.46631,0.61691 0.176,0.0445 1.83509,-0.49502 3.68686,-1.19884 z m 8.29886,0.81325 c -1.32785,-0.13854 -3.34385,-0.13622 -4.48,0.005 -1.13615,0.14138 -0.0497,0.25474 2.41428,0.2519 2.46399,-0.003 3.39357,-0.11852 2.06572,-0.25707 z m -9.34708,-4.60004 c 4.98297,-2.18274 8.09129,-2.28182 13.45929,-0.42904 6.03973,2.08464 11.21657,2.17686 15.26206,0.27188 3.27698,-1.5431 10.29595,-1.91106 12.59234,-0.66016 0.85172,0.46396 1.94039,0.55571 2.80382,0.23631 1.26557,-0.46817 1.0763,-0.66633 -1.83098,-1.91701 -4.28566,-1.84364 -9.22515,-1.83711 -13.32382,0.0176 -4.30827,1.94956 -10.3047,1.96075 -14.76,0.0275 -4.37072,-1.89651 -9.26319,-1.90284 -13.4,-0.0174 -2.27622,1.03749 -4.33435,1.42269 -7.60135,1.42269 -3.26701,0 -5.32514,-0.3852 -7.60136,-1.42269 -4.0639,-1.85228 -9.28008,-1.87591 -13.19864,-0.0598 -2.44772,1.13443 -2.6914,1.40494 -1.62346,1.80221 0.6911,0.25709 2.5631,0.0694 4.16,-0.41698 3.40588,-1.03746 7.53256,-0.64099 11.22746,1.07867 3.53041,1.64309 10.16219,1.67477 13.83464,0.0661 z M 112.64,255.03999 c 2.34626,-0.98752 5.02816,-1.6 7.0061,-1.6 1.85811,0 4.99082,0.6723 7.45548,1.6 2.33795,0.88 5.47824,1.6 6.97842,1.6 1.50017,0 4.64046,-0.72 6.97841,-1.6 2.46466,-0.9277 5.59737,-1.6 7.45548,-1.6 1.97794,0 4.65985,0.61248 7.0061,1.6 2.15673,0.90775 5.0495,1.6 6.68611,1.6 1.58657,0 4.79754,-0.72 7.13548,-1.6 5.14391,-1.93616 9.76537,-2.04986 13.54722,-0.33329 5.21765,2.36827 6.75549,2.32991 12.69515,-0.3167 2.97503,-1.32563 5.30059,-2.5188 5.16789,-2.65149 -0.13269,-0.13269 -1.50814,0.33353 -3.05655,1.03605 -3.84603,1.74497 -10.15422,1.72646 -14.0153,-0.0412 -4.75568,-2.17713 -8.64192,-2.27291 -13.26536,-0.32694 -5.24943,2.20946 -10.05888,2.23184 -15.79305,0.0735 -2.33794,-0.88 -5.21794,-1.6 -6.4,-1.6 -1.18205,0 -4.06205,0.72 -6.4,1.6 -2.74897,1.03471 -5.56335,1.6 -7.96585,1.6 -2.48602,0 -5.01772,-0.52932 -7.65268,-1.6 -4.97011,-2.01954 -7.3334,-2.0107 -12.74844,0.0477 -3.56769,1.35617 -5.17182,1.60792 -9.06645,1.42292 l -4.73185,-0.22476 3.13185,1.44883 c 3.98291,1.84256 5.19342,1.82601 9.85184,-0.13468 z m -14.720003,-2.56 c -0.88,-0.50305 -1.888,-0.91464 -2.24,-0.91464 -0.352,0 0.08,0.41159 0.96,0.91464 0.88,0.50305 1.888,0.91464 2.24,0.91464 0.352,0 -0.08,-0.41159 -0.96,-0.91464 z m 15.118643,-1.7352 c 4.07835,-1.84909 9.6297,-1.82847 13.89442,0.0516 4.19555,1.84961 10.07513,1.83923 14.26558,-0.0251 4.25177,-1.89169 9.78559,-1.9022 13.92271,-0.0264 4.2004,1.90443 10.47154,1.91783 14.47864,0.0309 2.01124,-0.94707 4.13488,-1.35616 7.04,-1.35616 2.90512,0 5.02877,0.40909 7.04,1.35616 3.81101,1.79456 10.12594,1.84363 13.94935,0.10837 1.51215,-0.68629 4.17089,-1.43637 5.90832,-1.66685 1.73743,-0.23048 3.66822,-0.80548 4.29065,-1.2778 2.04779,-1.5539 -6.00178,-1.13075 -9.42832,0.49564 -2.14572,1.01845 -4.10379,1.36697 -7.68,1.36697 -3.57621,0 -5.53427,-0.34852 -7.68,-1.36697 -3.89755,-1.84995 -9.09609,-1.84087 -13.19864,0.023 -4.29595,1.95178 -10.28936,1.96043 -14.76,0.0213 -4.37097,-1.89589 -9.26379,-1.90202 -13.4,-0.0168 -2.27622,1.03749 -4.33435,1.42269 -7.60135,1.42269 -3.26701,0 -5.32514,-0.3852 -7.60136,-1.42269 -4.13621,-1.88525 -9.02903,-1.87912 -13.4,0.0168 -4.47064,1.93912 -10.46405,1.93046 -14.76,-0.0213 -3.699552,-1.68083 -11.981971,-2.14916 -9.661049,-0.5463 0.694323,0.47951 2.64238,1.07495 4.329017,1.32321 1.686637,0.24825 4.278637,1.0016 5.76,1.67411 3.845212,1.74564 10.241602,1.67208 14.292032,-0.16435 z m 0.24136,-4.26527 c 3.94511,-1.82382 8.55013,-1.74369 13.82158,0.24047 2.33795,0.88 5.47824,1.6 6.97842,1.6 1.50017,0 4.64046,-0.72 6.97841,-1.6 2.46466,-0.9277 5.59737,-1.6 7.45548,-1.6 1.97794,0 4.65985,0.61248 7.0061,1.6 2.15673,0.90775 5.0495,1.6 6.68611,1.6 1.58657,0 4.79754,-0.72 7.13548,-1.6 5.52982,-2.08142 9.44113,-2.06124 14.51634,0.0749 3.29632,1.3874 4.63871,1.61835 7.82072,1.34547 2.11275,-0.18118 5.13735,-0.92855 6.72135,-1.66083 3.08432,-1.42587 8.39401,-1.78636 11.10876,-0.75422 1.15818,0.44034 1.78715,0.37028 2.30781,-0.25708 0.56919,-0.68582 0.1198,-1.08998 -2.19481,-1.97394 -3.48183,-1.32972 -7.61443,-1.00691 -11.86176,0.92656 -4.01575,1.82806 -9.93225,1.78628 -14.28135,-0.10085 -2.11225,-0.91652 -4.59824,-1.44 -6.83865,-1.44 -2.2404,0 -4.7264,0.52348 -6.83864,1.44 -4.53846,1.96929 -9.66635,1.91525 -15.17977,-0.16 -2.33794,-0.88 -5.21794,-1.6 -6.4,-1.6 -1.18205,0 -4.06205,0.72 -6.4,1.6 -5.69972,2.14537 -10.39236,2.12406 -15.79124,-0.0717 -4.77256,-1.94103 -8.64561,-1.84699 -13.39034,0.32514 -4.01134,1.83637 -9.92303,1.7977 -14.28136,-0.0934 -3.82473,-1.65959 -9.252806,-1.90663 -12.430508,-0.56572 -3.223508,1.36024 -1.841709,2.02267 3.310694,1.58713 4.634316,-0.39174 5.297843,-0.26742 11.241174,2.1063 2.9861,1.19262 9.13142,0.72779 12.8,-0.96818 z m -0.24136,-4.05473 c 4.07835,-1.84909 9.6297,-1.82847 13.89442,0.0516 4.20152,1.85224 10.13398,1.84221 14.29387,-0.0241 4.21211,-1.88978 9.75341,-1.89986 13.89442,-0.0253 4.20158,1.90201 10.47404,1.91446 14.47864,0.0287 2.01124,-0.94707 4.13488,-1.35616 7.04,-1.35616 2.90512,0 5.02877,0.40909 7.04,1.35616 2.01124,0.94707 4.13488,1.35616 7.04,1.35616 2.90512,0 5.02877,-0.40909 7.04,-1.35616 3.91316,-1.84266 10.14304,-1.8488 14.08,-0.0138 2.50052,1.16545 3.00147,1.22151 3.80191,0.42546 1.10789,-1.10183 1.33076,-0.9428 -3.80191,-2.71292 -5.2486,-1.81012 -9.6819,-1.82309 -13.44,-0.0393 -2.14572,1.01845 -4.10379,1.36697 -7.68,1.36697 -3.57621,0 -5.53427,-0.34852 -7.68,-1.36697 -3.89755,-1.84995 -9.09609,-1.84087 -13.19864,0.023 -4.29595,1.95178 -10.28936,1.96043 -14.76,0.0213 -4.34468,-1.88449 -9.25363,-1.89907 -13.4,-0.0398 -4.36063,1.95534 -10.95602,1.96684 -15.20271,0.0265 -3.99382,-1.82479 -9.26431,-1.87644 -13.11648,-0.12854 -4.79604,2.17617 -8.69762,2.27844 -14.218995,0.37272 -5.772115,-1.99227 -10.11337,-2.10951 -13.933056,-0.37628 -1.534445,0.69627 -3.358445,1.26594 -4.053337,1.26594 -1.665651,0 -1.143424,1.53992 0.610035,1.79884 0.740608,0.10936 2.302048,-0.30346 3.469875,-0.91739 3.044909,-1.60071 9.606835,-1.45577 13.323315,0.29428 4.007103,1.8869 10.278243,1.87351 14.478643,-0.0309 z M 85.139856,238.1255 c 3.796999,-1.72237 9.010906,-1.70849 12.780141,0.0341 1.584,0.73228 4.608603,1.47965 6.721353,1.66083 3.18201,0.27288 4.5244,0.0419 7.82072,-1.34547 5.09476,-2.14435 9.08719,-2.16477 14.63951,-0.0749 2.33795,0.88 5.47824,1.6 6.97842,1.6 1.50017,0 4.64046,-0.72 6.97841,-1.6 2.46466,-0.9277 5.59737,-1.6 7.45548,-1.6 1.97794,0 4.65985,0.61248 7.0061,1.6 2.15673,0.90775 5.0495,1.6 6.68611,1.6 1.58657,0 4.79754,-0.72 7.13548,-1.6 5.33363,-2.00757 9.53049,-2.05588 13.89977,-0.16 2.31676,1.00527 4.57454,1.44 7.47864,1.44 2.90411,0 5.16189,-0.43473 7.47865,-1.44 4.21166,-1.82748 9.10991,-1.87068 12.98149,-0.11449 4.55643,2.06685 7.92375,2.29471 9.98228,0.67547 l 1.7302,-1.36101 -3.94559,0 c -2.81447,0 -5.08546,-0.47976 -7.92166,-1.6735 -4.62344,-1.94598 -8.50969,-1.8502 -13.26537,0.32694 -1.96738,0.90066 -4.19822,1.31845 -7.04,1.31845 -2.84178,0 -5.07261,-0.41779 -7.04,-1.31845 -4.75568,-2.17714 -8.64192,-2.27292 -13.26536,-0.32694 -5.24943,2.20945 -10.05888,2.23184 -15.79305,0.0735 -2.33794,-0.88 -5.21794,-1.6 -6.4,-1.6 -1.18205,0 -4.06205,0.72 -6.4,1.6 -2.63428,0.99154 -5.5783,1.6 -7.74158,1.6 -2.16329,0 -5.10731,-0.60846 -7.74159,-1.6 -2.33795,-0.88 -5.21795,-1.6 -6.4,-1.6 -1.18206,0 -4.06206,0.72 -6.4,1.6 -5.73417,2.15834 -10.54362,2.13595 -15.79305,-0.0735 -4.623437,-1.94598 -8.509683,-1.8502 -13.265363,0.32694 -1.850118,0.84697 -4.253177,1.32857 -6.72,1.34673 l -3.839999,0.0283 1.599999,1.29083 c 1.930068,1.5571 5.275955,1.33667 9.619859,-0.63378 z m -0.659859,-3.98978 c 2.011238,-0.94708 4.13488,-1.35616 7.04,-1.35616 2.90512,0 5.028761,0.40908 7.04,1.35616 4.045493,1.90498 9.222333,1.81276 15.262063,-0.27188 5.35455,-1.84814 8.24335,-1.75621 13.3301,0.42423 3.99407,1.71206 10.00072,1.64394 14.04648,-0.1593 4.18669,-1.86605 9.73602,-1.86605 13.92271,0 4.21342,1.87796 10.49887,1.88098 14.47864,0.007 2.01124,-0.94707 4.13488,-1.35616 7.04,-1.35616 2.90512,0 5.02877,0.40909 7.04,1.35616 2.01124,0.94707 4.13488,1.35617 7.04,1.35617 2.90512,0 5.02877,-0.4091 7.04,-1.35617 3.92923,-1.85023 10.15078,-1.85023 14.08,0 1.96213,0.92395 4.16138,1.36065 6.90056,1.37022 4.39455,0.0154 7.10866,-0.93602 10.05944,-3.52614 1.86363,-1.63586 1.87303,-1.67201 0.32,-1.23149 -0.88,0.24961 -2.36719,0.84393 -3.30487,1.3207 -3.53983,1.79983 -8.17988,1.80029 -13.39196,0.001 -5.90516,-2.03819 -10.13405,-2.12119 -14.02317,-0.27526 -2.14572,1.01846 -4.10379,1.36697 -7.68,1.36697 -3.57621,0 -5.53427,-0.34851 -7.68,-1.36697 -3.89755,-1.84995 -9.09609,-1.84087 -13.19864,0.023 -4.29595,1.95179 -10.28936,1.96044 -14.76,0.0213 -4.37097,-1.89589 -9.26379,-1.90202 -13.4,-0.0168 -4.30865,1.96384 -10.89406,1.96384 -15.20271,0 -3.99516,-1.82096 -9.26814,-1.87123 -13.11648,-0.12507 -4.79604,2.17617 -8.69762,2.27844 -14.218995,0.37272 -5.751315,-1.98509 -10.114752,-2.10897 -13.892518,-0.39443 -5.310976,2.41039 -10.325338,2.31534 -16.450649,-0.31183 l -2.56,-1.09799 1.6,1.74855 c 2.31175,2.5264 4.880192,3.45378 9.599999,3.46626 2.923309,0.008 5.016173,-0.39217 7.04,-1.34517 z m 0.64,-4.2962 c 3.806016,-1.75951 8.993984,-1.75951 12.8,0 1.584,0.73228 4.608603,1.47965 6.721353,1.66083 3.18201,0.27288 4.5244,0.0419 7.82072,-1.34547 5.09476,-2.14435 9.08719,-2.16478 14.63951,-0.0749 2.33795,0.88 5.51824,1.6 7.06733,1.6 1.54909,0 4.58845,-0.72 6.75414,-1.6 5.24519,-2.13131 9.58545,-2.10931 14.77487,0.0749 3.29632,1.3874 4.63871,1.61835 7.82072,1.34547 2.11275,-0.18118 5.13735,-0.92855 6.72135,-1.66083 3.88024,-1.79383 8.75131,-1.76367 13.00136,0.0805 2.31676,1.00527 4.57454,1.44 7.47864,1.44 2.90411,0 5.16189,-0.43473 7.47865,-1.44 4.25004,-1.84414 9.12112,-1.8743 13.00135,-0.0805 1.584,0.73228 4.60861,1.47965 6.72136,1.66083 3.18201,0.27288 4.5244,0.0419 7.82072,-1.34547 2.18864,-0.92119 4.51939,-1.67489 5.17945,-1.67489 0.66005,0 1.72136,-0.576 2.35847,-1.28 1.13051,-1.24919 1.11785,-1.28 -0.52619,-1.28 -0.92652,0 -3.59745,0.72 -5.93539,1.6 -5.3664,2.01991 -10.88741,2.12122 -14.95856,0.27449 -5.30265,-2.40535 -8.78455,-2.32806 -14.95793,0.33204 -3.00079,1.29303 -2.65084,0.54515 0.89459,-1.91183 2.29484,-1.59033 3.22643,-1.83262 6.90802,-1.79668 2.93246,0.0286 5.15084,0.46317 7.13546,1.39771 3.979,1.87367 10.26486,1.87094 14.47865,-0.006 1.71674,-0.7648 4.58503,-1.43794 6.37397,-1.49586 1.78893,-0.0579 3.58893,-0.31317 4,-0.56723 3.44665,-2.13015 -5.49348,-2.32646 -10.33397,-0.22692 -4.47064,1.93912 -10.46406,1.93047 -14.76,-0.0213 -3.63979,-1.65367 -8.94305,-1.87636 -12.20701,-0.5126 -2.04268,0.85361 -2.91164,0.76327 -2.91164,-0.30259 0,-0.92704 5.22271,-2.52282 8.25676,-2.52282 1.79759,0 4.96672,0.70296 7.50704,1.66517 5.20464,1.97137 9.56636,1.84834 14.59673,-0.41171 2.66585,-1.19773 3.89184,-1.36467 7.83305,-1.0666 5.34656,0.40436 6.57659,-0.36981 2.97712,-1.87377 -3.02098,-1.26225 -7.68311,-0.87263 -11.7307,0.98035 -4.20293,1.92409 -9.84043,1.80034 -14.89463,-0.32694 -4.50096,-1.89443 -8.61773,-1.86132 -12.73573,0.10242 -1.39643,0.66592 -2.80635,0.92336 -3.51147,0.64117 -0.9462,-0.37868 -0.48514,-0.79003 2.34183,-2.08931 4.76979,-2.19221 9.99466,-2.2955 14.63045,-0.28921 4.27775,1.85133 10.62681,1.65265 16.40955,-0.51347 3.95509,-1.48153 4.72713,-1.45988 12,0.33642 2.88354,0.7122 2.13967,-1.15646 -0.96912,-2.43452 -3.74424,-1.53929 -9.05179,-1.4237 -12.63088,0.27509 -2.14573,1.01845 -4.10379,1.36697 -7.68,1.36697 -3.57621,0 -5.53427,-0.34852 -7.68,-1.36697 -3.68128,-1.7473 -8.94786,-1.80832 -12.60924,-0.14609 -3.22023,1.46194 -6.68729,1.90915 -7.03517,0.90745 -0.14075,-0.40527 0.74242,-0.90996 2.00776,-1.14735 1.24247,-0.23308 3.487,-0.98116 4.98785,-1.66239 3.66194,-1.66214 8.93636,-1.62344 12.6488,0.0928 1.584,0.73228 4.60861,1.47965 6.72136,1.66083 3.18201,0.27288 4.5244,0.0419 7.82072,-1.34547 4.88565,-2.05634 9.07803,-2.15824 13.94081,-0.33884 2.91187,1.08947 3.75026,1.18718 4.5428,0.52944 0.82052,-0.68098 0.19331,-1.09541 -4.02689,-2.66078 -5.74561,-2.13118 -9.48038,-2.10798 -14.2788,0.0887 -4.20293,1.92409 -9.84043,1.80034 -14.89463,-0.32694 -4.64616,-1.95554 -8.45867,-1.84823 -13.43596,0.37819 -3.33523,1.49191 -8.80524,1.59532 -9.27271,0.17531 -0.18825,-0.57183 0.71015,-0.804 3.14997,-0.81405 2.11879,-0.009 4.50561,-0.5284 6.29333,-1.37022 3.92923,-1.85023 10.15078,-1.85023 14.08,0 3.998,1.88262 10.27394,1.87268 14.47865,-0.0229 4.19103,-1.88944 9.09336,-1.87724 13.78581,0.0343 3.69053,1.50339 6.32485,1.63186 6.75326,0.32934 0.13416,-0.40789 -0.82119,-0.91856 -2.18987,-1.17057 -1.33532,-0.24586 -3.68846,-1.00027 -5.2292,-1.67645 -3.68844,-1.61874 -9.14275,-1.58967 -12.79648,0.0682 -4.79604,2.17617 -8.69762,2.27844 -14.219,0.37272 -5.6989,-1.96699 -10.11216,-2.11043 -13.77362,-0.44767 -5.32182,2.4168 -12.04143,2.45855 -13.52434,0.0841 -0.69356,-1.11058 -0.59074,-1.14432 1.62391,-0.53283 3.11898,0.86119 8.07978,0.28752 11.65088,-1.34732 3.81187,-1.74506 9.00859,-1.7398 12.8,0.0129 1.584,0.73228 4.60861,1.47965 6.72136,1.66083 3.18201,0.27288 4.5244,0.0419 7.82072,-1.34547 5.09475,-2.14435 9.08718,-2.16477 14.63951,-0.0749 5.22816,1.96788 7.98013,2.06497 9.06989,0.32 0.75924,-1.21573 0.63916,-1.28 -2.39145,-1.28 -1.84331,0 -4.98594,-0.67568 -7.44162,-1.6 -2.33794,-0.88 -5.21794,-1.6 -6.4,-1.6 -1.18205,0 -4.06205,0.72 -6.39999,1.6 -5.73417,2.15834 -10.54362,2.13595 -15.79305,-0.0735 -4.62344,-1.94598 -8.50969,-1.8502 -13.26537,0.32694 -5.27015,2.41266 -14.95677,1.2917 -16.68119,-1.9304 -0.79832,-1.49168 -0.73125,-1.49011 2.69131,0.0629 3.86505,1.75381 10.16003,1.71321 13.98988,-0.0902 3.92923,-1.85023 10.15078,-1.85023 14.08,0 4.05363,1.90881 9.22122,1.81314 15.29471,-0.28315 5.44023,-1.87771 8.40646,-1.79242 13.32465,0.38313 2.55378,1.12966 11.06064,1.91157 11.06064,1.01664 0,-0.14722 0.14718,-0.65122 0.32707,-1.12 0.25353,-0.66066 -0.71803,-0.85624 -4.32,-0.86967 -3.4117,-0.0127 -5.47684,-0.39551 -7.76842,-1.44 -3.99516,-1.82095 -9.26814,-1.87123 -13.11648,-0.12507 -4.79604,2.17618 -8.69762,2.27845 -14.219,0.37273 -5.95979,-2.05705 -9.86807,-2.12048 -14.22452,-0.23089 -4.58462,1.98856 -10.35957,1.93862 -15.47865,-0.13386 -2.112,-0.85504 -4.26171,-1.93059 -4.77714,-2.39011 -1.56621,-1.3963 1.49131,-1.04746 5.2985,0.60452 2.31676,1.00527 4.57454,1.44 7.47864,1.44 2.90411,0 5.16189,-0.43473 7.47865,-1.44 4.25004,-1.84415 9.12112,-1.8743 13.00135,-0.0805 1.584,0.73228 4.60861,1.47965 6.72136,1.66083 3.18201,0.27288 4.5244,0.0419 7.82072,-1.34547 5.09475,-2.14435 9.08718,-2.16478 14.63951,-0.0749 6.36844,2.39708 13.13666,1.89727 13.90125,-1.02655 0.27996,-1.07057 0.11694,-1.18787 -1.05588,-0.75974 -2.96147,1.08105 -10.84876,0.56626 -14.3056,-0.93371 -4.26298,-1.84975 -6.85454,-1.81549 -12.10294,0.16 -5.73417,2.15834 -10.54362,2.13595 -15.79305,-0.0735 -4.62344,-1.94598 -8.50969,-1.8502 -13.26537,0.32693 -3.89682,1.78396 -10.17015,1.78726 -14.08,0.007 -1.584,-0.72107 -4.248,-1.47486 -5.92,-1.67509 -2.10313,-0.25186 -3.04,-0.65785 -3.04,-1.31736 0,-1.26984 5.23005,-0.61645 9.09065,1.13569 3.82341,1.73526 10.13835,1.6862 13.94935,-0.10837 3.92923,-1.85023 10.15078,-1.85023 14.08,0 3.97977,1.87404 10.26523,1.87102 14.47865,-0.007 2.07959,-0.9269 4.40297,-1.39123 6.96135,-1.39123 2.55839,0 4.88176,0.46433 6.96136,1.39123 3.74398,1.66873 9.98822,1.86507 13.44048,0.42263 1.27499,-0.53269 2.31816,-1.08514 2.31816,-1.22762 0,-0.14249 0.15969,-0.67522 0.35487,-1.18385 0.28593,-0.74512 -0.36684,-0.67998 -3.35999,0.33529 -4.41995,1.49923 -8.83307,1.25326 -13.34819,-0.744 -3.89681,-1.72374 -9.24914,-1.73756 -13.00452,-0.0336 -4.79604,2.17618 -8.69762,2.27845 -14.219,0.37273 -5.90516,-2.03819 -10.13405,-2.12119 -14.02317,-0.27525 -2.14572,1.01845 -4.10379,1.36697 -7.68,1.36697 -3.57621,0 -5.53427,-0.34852 -7.68,-1.36697 -1.98252,-0.941 -4.14311,-1.37136 -6.93333,-1.38103 -2.95205,-0.0102 -3.98164,-0.23142 -3.78944,-0.81406 0.4982,-1.51026 7.11056,-1.33419 10.85202,0.28898 4.58392,1.98865 10.48971,2.00084 15.0294,0.031 4.25004,-1.84415 9.12112,-1.8743 13.00135,-0.0805 1.584,0.73228 4.60861,1.47965 6.72136,1.66083 3.18201,0.27288 4.5244,0.0419 7.82072,-1.34547 5.09475,-2.14436 9.08718,-2.16478 14.63951,-0.0749 2.33794,0.88 5.44052,1.60006 6.89461,1.60013 3.58794,1.8e-4 10.48582,-2.5269 10.86603,-3.98083 0.37824,-1.4464 -0.0823,-1.42979 -3.51234,0.12665 -4.07927,1.85101 -10.13978,1.7286 -15.14683,-0.30595 -2.16569,-0.88 -4.94477,-1.6 -6.17573,-1.6 -1.23096,0 -4.15097,0.72 -6.48891,1.6 -5.73417,2.15834 -10.54362,2.13595 -15.79305,-0.0735 -4.62344,-1.94598 -8.50969,-1.8502 -13.26537,0.32693 -3.89682,1.78396 -10.17015,1.78726 -14.08,0.007 -3.69561,-1.68233 -8.2764,-2.22437 -10.94277,-1.29487 -2.59788,0.90563 -3.96163,-0.0737 -1.76594,-1.26813 2.39872,-1.30487 9.36381,-0.97721 12.70871,0.59787 3.92923,1.85023 10.15078,1.85023 14.08,0 3.92923,-1.85023 10.15078,-1.85023 14.08,0 4.04549,1.90498 9.22233,1.81276 15.26206,-0.27187 5.38142,-1.85741 8.24019,-1.75757 13.43516,0.46925 5.79375,2.4835 19.23017,0.0266 19.29298,-3.52771 0.0118,-0.67055 -1.63234,-0.29265 -6.7102,1.54227 -4.53528,1.63885 -8.81776,1.4429 -13.47331,-0.61646 -3.89681,-1.72375 -9.24914,-1.73757 -13.00452,-0.0336 -4.79604,2.17617 -8.69762,2.27844 -14.219,0.37272 -5.90516,-2.03819 -10.13405,-2.12119 -14.02317,-0.27525 -4.0164,1.90635 -11.34359,1.90635 -15.36,0 -3.58217,-1.70025 -9.25731,-1.84298 -12.46469,-0.31349 -1.676,0.79922 -2.45552,0.89419 -2.98594,0.36377 -1.06896,-1.06896 3.43131,-2.84519 8.11352,-3.20235 3.19071,-0.24339 4.58254,0.008 7.99864,1.44605 3.45614,1.45467 4.767,1.68658 7.97712,1.41129 2.11275,-0.18118 5.13735,-0.92855 6.72135,-1.66083 3.80602,-1.75951 8.99399,-1.75951 12.8,0 1.584,0.73228 4.60861,1.47965 6.72136,1.66083 3.18201,0.27288 4.5244,0.0419 7.82072,-1.34547 5.09475,-2.14435 9.08718,-2.16477 14.63951,-0.0749 2.33794,0.88 5.29652,1.61243 6.57461,1.62763 3.4989,0.0416 13.36557,-3.31092 13.73719,-4.66763 0.41456,-1.51349 -0.54184,-1.42265 -5.73719,0.54493 -3.68441,1.39536 -5.12156,1.61496 -8.8762,1.3563 -2.6122,-0.17995 -5.68072,-0.86822 -7.36,-1.65086 -3.79467,-1.76855 -6.74409,-1.71164 -11.90158,0.22963 -5.73417,2.15834 -10.54362,2.13595 -15.79305,-0.0735 -4.62344,-1.94598 -8.50969,-1.8502 -13.26537,0.32694 -4.01133,1.83638 -9.92302,1.7977 -14.28135,-0.0934 -4.41641,-1.91633 -9.29205,-1.9027 -13.76672,0.0385 -2.71084,1.176 -3.59813,1.32073 -4.3371,0.70744 -0.76788,-0.63728 -0.34322,-0.98257 2.44807,-1.99057 7.74556,-2.79706 10.76683,-2.88298 16.10665,-0.45801 3.70136,1.68089 10.07584,1.60641 13.83045,-0.16161 3.92923,-1.85022 10.15078,-1.85022 14.08,0 4.04549,1.90498 9.22233,1.81276 15.26206,-0.27187 5.36801,-1.85279 8.47633,-1.7537 13.4593,0.42904 3.67553,1.61003 9.90833,1.63003 13.62558,0.0437 1.52518,-0.65086 3.85306,-1.38391 5.17306,-1.629 1.46922,-0.27279 2.4,-0.80668 2.4,-1.37661 0,-1.3833 -3.15949,-1.1638 -6.79864,0.47232 -4.29718,1.93195 -10.90554,1.93195 -15.20271,0 -4.00267,-1.79955 -9.28955,-1.84216 -13.11648,-0.10571 -4.79604,2.17617 -8.69762,2.27844 -14.219,0.37272 -5.95979,-2.05704 -9.86807,-2.12048 -14.22452,-0.23089 -4.55906,1.97748 -10.44395,1.9575 -15.07625,-0.0512 -4.21169,-1.82628 -9.22338,-1.6441 -15.31829,0.55684 -3.75859,1.35726 -4.1088,1.38448 -5.09714,0.39614 -0.98834,-0.98829 -0.9429,-1.06121 0.66128,-1.06121 0.9474,0 3.6354,-0.72 5.97334,-1.6 5.33363,-2.00757 9.53049,-2.05588 13.89977,-0.16 2.31676,1.00527 4.57454,1.44 7.47864,1.44 2.90411,0 5.16189,-0.43473 7.47865,-1.44 4.25004,-1.84414 9.12112,-1.87429 13.00135,-0.0805 1.584,0.73228 4.60861,1.47965 6.72136,1.66083 3.18201,0.27288 4.5244,0.0419 7.82072,-1.34547 5.09475,-2.14435 9.08718,-2.16477 14.63951,-0.0749 2.33794,0.88 5.47823,1.6 6.97841,1.6 1.50018,0 4.64047,-0.72 6.97841,-1.6 2.33795,-0.88 5.10823,-1.6 6.1562,-1.6 1.47872,0 1.90539,-0.28662 1.90539,-1.28 0,-1.77073 -2.02884,-1.66582 -7.4438,0.38493 -3.68441,1.39536 -5.12156,1.61496 -8.8762,1.3563 -2.6122,-0.17995 -5.68072,-0.86822 -7.36,-1.65086 -3.79467,-1.76855 -6.74409,-1.71164 -11.90158,0.22963 -5.73417,2.15834 -10.54362,2.13595 -15.79305,-0.0735 -4.62344,-1.94598 -8.50969,-1.85019 -13.26537,0.32694 -3.90572,1.78802 -10.17427,1.78802 -14.08,0 -4.75568,-2.17713 -8.64192,-2.27292 -13.26536,-0.32694 -4.54924,1.91475 -9.77762,2.25221 -11.05464,0.7135 -0.69386,-0.83605 -0.27016,-0.96181 3.28164,-0.97405 2.79822,-0.01 4.98236,-0.43974 6.95836,-1.37022 2.01124,-0.94707 4.13488,-1.35616 7.04,-1.35616 2.90512,0 5.02877,0.40909 7.04,1.35616 2.01124,0.94707 4.13488,1.35617 7.04,1.35617 2.90512,0 5.02877,-0.4091 7.04,-1.35617 3.92923,-1.85023 10.15078,-1.85023 14.08,0 4.04549,1.90498 9.22233,1.81276 15.26206,-0.27187 5.36801,-1.85279 8.47633,-1.75371 13.4593,0.42903 3.72925,1.63357 9.90935,1.63141 13.72648,-0.005 1.58068,-0.67755 4.19656,-1.43026 5.81306,-1.67266 1.97273,-0.29584 2.9391,-0.75281 2.9391,-1.38985 0,-1.31135 -4.86875,-0.77608 -9.92,1.09062 -4.52995,1.67406 -8.78392,1.48936 -13.47331,-0.58498 -3.89681,-1.72375 -9.24914,-1.73757 -13.00452,-0.0336 -4.79604,2.17617 -8.69762,2.27844 -14.219,0.37272 -5.90516,-2.03819 -10.13405,-2.12119 -14.02317,-0.27525 -2.14572,1.01845 -4.10379,1.36697 -7.68,1.36697 -3.57621,0 -5.53427,-0.34852 -7.68,-1.36697 -3.90613,-1.85402 -9.0996,-1.84179 -13.19864,0.031 -4.14312,1.893 -11.65468,2.00795 -13.64274,0.20879 -2.01704,-1.82539 -1.57682,-2.31752 1.08005,-1.2074 3.08034,1.28704 9.01941,0.83432 12.96133,-0.98802 3.88024,-1.79383 8.75131,-1.76367 13.00136,0.0805 4.50894,1.95649 10.44835,1.95649 14.95729,0 4.25004,-1.84414 9.12112,-1.8743 13.00135,-0.0805 1.584,0.73228 4.60861,1.47965 6.72136,1.66083 3.18201,0.27288 4.5244,0.0419 7.82072,-1.34547 5.09475,-2.14435 9.08718,-2.16478 14.63951,-0.0749 2.33794,0.88 5.47823,1.6 6.97841,1.6 1.50018,0 4.64047,-0.72 6.97841,-1.6 2.33795,-0.88 5.39623,-1.6 6.7962,-1.6 2.11872,0 2.54539,-0.21456 2.54539,-1.28 0,-1.83029 -3.47532,-1.69857 -8.44306,0.32 -5.26863,2.14084 -9.99218,2.12473 -15.70233,-0.0536 -5.03332,-1.92008 -8.9424,-1.83194 -13.61461,0.30699 -4.01133,1.83637 -9.92302,1.7977 -14.28135,-0.0934 -2.11225,-0.91615 -4.59824,-1.43963 -6.83865,-1.43963 -2.2404,0 -4.7264,0.52348 -6.83864,1.44 -4.35833,1.89114 -10.27002,1.92982 -14.28136,0.0934 -4.80873,-2.20143 -8.63323,-2.27658 -13.41582,-0.26361 -3.50428,1.47493 -4.80642,1.69738 -8.63535,1.47522 -7.58465,-0.44008 -8.47835,-1.15794 -17.75937,-14.26504 -7.30451,-10.31579 -8.15889,-11.80198 -8.17333,-14.21749 -0.0123,-2.05278 0.2898,-2.8612 1.26388,-3.38251 2.3904,-1.27931 1.29347,-1.86287 -1.76,-0.93632 -3.58127,1.0867 -4,1.12441 -4,0.36015 0,-0.31689 1.44,-0.92162 3.2,-1.34383 1.76,-0.42222 3.2,-0.88096 3.2,-1.01942 0,-0.13847 -1.03148,-2.82887 -2.29216,-5.97868 -2.2078,-5.51612 -2.34755,-5.70169 -3.79672,-5.0414 -1.39394,0.63511 -1.51999,1.11466 -1.71452,6.5225 l -0.20995,5.837 27.16471,38.71999 c 14.9406,21.296 30.18305,43.01332 33.87213,48.26072 l 6.70742,9.54071 -1.48956,1.20617 c -0.81925,0.66338 -1.91745,1.12207 -2.44043,1.01928 -1.10022,-0.21623 0.19064,1.61923 -46.49223,-66.10688 -19.65301,-28.51199 -35.8125,-51.93715 -35.90996,-52.0559 -0.0975,-0.11876 -1.74864,0.11031 -3.66927,0.50903 -7.479563,1.55275 -12.427383,-1.30655 -18.785399,-10.855927 -3.340345,-5.017011 -4.577158,-6.397196 -5.732672,-6.397196 -1.20912,0 -1.540787,-0.430471 -1.849139,-2.4 -0.206662,-1.32 -0.742042,-4.039827 -1.189728,-6.044057 -0.447693,-2.004231 -0.618925,-3.523508 -0.380531,-3.376167 0.2384,0.147335 3.369062,4.596557 6.957024,9.887149 7.2363,10.670228 6.279526,10.159268 11.723007,6.260588 l 3.032028,-2.171577 -5.272028,-7.774355 c -4.394143,-6.479795 -5.543449,-7.778285 -6.902035,-7.797965 -1.493273,-0.02163 -1.689209,-0.359161 -2.33575,-4.023616 -0.388166,-2.199999 -0.916429,-4.522131 -1.173926,-5.160294 -0.336627,-0.834253 0.644121,-0.441369 3.490252,1.39817 2.177133,1.407149 4.272205,2.663046 4.655706,2.79088 0.499424,0.166476 0.493728,0.612768 -0.0201,1.572806 -0.62777,1.172998 -0.03475,2.308051 4.749056,9.089408 3.006525,4.261964 5.579245,7.74903 5.717155,7.74903 0.72365,0 7.64589,-5.308237 7.52259,-5.768608 -0.0798,-0.29776 -2.97154,-4.521632 -6.42621,-9.386387 -8.059935,-11.349721 -7.858777,-10.966079 -4.56756,-8.711289 1.55032,1.062118 4.03517,2.548512 5.52189,3.303097 2.38888,1.212487 2.66366,1.576071 2.36367,3.127584 -0.27413,1.41776 0.38825,2.742509 3.44207,6.884051 2.07984,2.820647 4.26102,6.055686 4.84707,7.188973 2.40336,4.64759 1.93509,10.527871 -1.2071,15.158152 l -1.60911,2.37116 7.42045,10.51663 c 4.08125,5.78415 7.46981,10.51692 7.53015,10.51728 0.0603,3.6e-4 0.0219,-6.54644 -0.0855,-14.54843 -0.15535,-11.58288 -0.38369,-14.757423 -1.12,-15.571036 -1.04067,-1.149958 -1.27404,-6.361177 -0.28483,-6.361177 0.352,0 0.64,1.096953 0.64,2.437677 0,1.340723 0.42284,2.996723 0.93964,3.68 0.5168,0.683276 0.96285,2.682326 0.99119,4.442326 0.0387,2.40112 1.15439,5.91617 4.46917,14.08 l 4.41761,10.88 0.0312,-5.92 c 0.0289,-5.48294 0.12572,-5.92 1.31122,-5.92 1.19873,0 1.28,0.42666 1.28,6.72 l 0,6.72 2.01486,0 2.01485,0 -0.39035,-5.06198 c -0.27796,-3.60454 -0.16707,-5.24119 0.38514,-5.68443 0.42652,-0.34236 2.69619,-1.05464 5.04369,-1.58287 6.54988,-1.47382 7.20343,-0.93719 7.43672,6.10629 0.14525,4.38549 0.38548,5.58299 1.12,5.58299 0.73106,0 0.93508,-0.97751 0.93508,-4.48 0,-4.31782 0.0563,-4.48 1.55549,-4.48 1.12584,0 1.61198,-0.39776 1.76,-1.44 0.17452,-1.22886 0.65028,-1.46861 3.24451,-1.63507 1.82857,-0.11733 3.04,0.074 3.04,0.48 0,1.04101 2.37569,0.79852 2.79145,-0.28493 0.20261,-0.528 0.95342,-0.96 1.66847,-0.96 1.25219,0 1.30008,-0.37434 1.30008,-10.16164 0,-8.251797 -0.18042,-10.311374 -0.96,-10.958363 -0.528,-0.438202 -0.96,-1.193466 -0.96,-1.678362 0,-0.484902 0.432,-0.881638 0.96,-0.881638 0.72534,0 0.96,-0.782221 0.96,-3.2 0,-3.128889 -0.0427,-3.2 -1.92,-3.2 -1.28,0 -1.92,-0.32 -1.92,-0.96 0,-0.670477 0.67556,-0.96 2.24,-0.96 l 2.24,0 0.11839,-3.36 0.11839,-3.36 0.23506,3.36 c 0.23493,3.358183 0.23625,3.36 2.44161,3.36 1.53471,0 2.20655,0.292295 2.20655,0.96 0,0.64 -0.64,0.96 -1.92,0.96 -1.87733,0 -1.92,0.07111 -1.92,3.2 0,2.417779 0.23467,3.2 0.96,3.2 0.528,0 0.96,0.396736 0.96,0.881638 0,0.484896 -0.432,1.24016 -0.96,1.678362 -0.528,0.438201 -0.96,1.625465 -0.96,2.638361 0,1.600391 0.23056,1.831911 1.76,1.767399 1.08282,-0.0457 1.32907,-0.186855 0.64,-0.366932 -2.17058,-0.567225 -1.08565,-1.478828 1.76,-1.478828 1.584,0 2.88,0.288 2.88,0.64 0,0.352 -0.43605,0.64 -0.96902,0.64 -0.99236,0 -4.73843,3.708263 -4.77222,4.724053 -0.0177,0.53189 5.67194,10.85444 7.40048,13.42649 0.6889,1.02508 0.78485,0.75826 0.69043,-1.92 -0.10297,-2.92049 -0.0119,-3.11054 1.49033,-3.11054 1.40621,0 1.62456,0.31007 1.80277,2.56 0.11152,1.408 0.47152,2.8336 0.8,3.168 0.32848,0.3344 0.60116,1.4864 0.60597,2.56 0.0155,3.47218 0.64709,4.74629 2.45643,4.95577 1.31296,0.15201 1.74046,0.59278 1.89734,1.95623 0.11138,0.968 -0.0326,1.75947 -0.32,1.75883 -0.28738,-6.4e-4 -0.4247,1.73194 -0.30515,3.85019 l 0.21736,3.85136 5.22264,-0.36328 c 8.11295,-0.56433 9.15315,-0.83677 12.26541,-3.21241 2.79597,-2.13422 3.27111,-2.26069 11.92299,-3.17374 11.991,-1.26544 12.97717,-1.25198 12.38248,0.16905 -0.25779,0.616 -1.59418,5.872 -2.96974,11.68 -1.37557,5.808 -2.65487,11.06399 -2.84289,11.67999 -0.28644,0.93841 0.0778,1.12 2.24665,1.12 1.42369,0 4.50138,0.72 6.83933,1.6 2.33794,0.88 5.47823,1.6 6.97841,1.6 1.50018,0 4.64047,-0.72 6.97841,-1.6 2.33795,-0.88 5.54023,-1.6 7.1162,-1.6 l 2.86539,0 0,-5.46522 c 0,-3.00587 -0.30396,-8.26187 -0.67546,-11.68 C 258.14439,85.84938 221.25257,45.274217 171.24447,34.829333 161.57493,32.809714 145.63089,32.094961 135.68,33.235018 84.578948,39.089574 43.615875,77.123537 34.2673,127.39609 c -1.227695,6.602 -2.313609,20.94264 -1.817386,24.0005 0.344534,2.12312 0.460154,2.2034 3.173109,2.2034 1.562866,0 4.506859,0.71187 6.616976,1.6 4.454518,1.87488 8.641568,2.02112 12.747137,0.4452 2.433928,-0.93426 2.956926,-1.47476 3.760305,-3.88611 0.513242,-1.54051 1.403949,-2.92403 1.979347,-3.0745 0.575398,-0.15047 1.61926,-1.61645 2.319694,-3.25774 0.700434,-1.64128 1.360498,-3.1827 1.466815,-3.42539 0.10631,-0.24268 -2.269689,-2.5153 -5.280002,-5.05025 -5.308551,-4.4703 -6.663665,-6.21494 -4.353297,-5.60464 0.616,0.16272 4.648,2.80321 8.96,5.86775 l 7.84,5.5719 0,2.84689 0,2.84689 16.319999,0 16.320003,0 0,-1.88222 c 0,-1.03523 -0.288,-2.06023 -0.64,-2.27777 -0.352,-0.21755 -0.64,-1.53055 -0.64,-2.91778 l 0,-2.52222 4.45748,0 c 3.80247,0 4.55815,0.18808 5.14252,1.28 0.62643,1.1705 1.34004,1.28 8.34251,1.28 l 7.65749,0 0.052,-2.4 0.052,-2.4 0.77767,1.75412 c 0.42771,0.96477 1.23696,2.11677 1.79834,2.56 0.56138,0.44323 3.79643,4.83788 7.189,9.76587 l 6.16832,8.96 -2.73865,1.28 c -3.97772,1.85913 -11.82144,1.78212 -16.29728,-0.16 -4.26298,-1.84975 -6.85454,-1.81549 -12.10295,0.16 -5.73417,2.15834 -10.54361,2.13595 -15.793046,-0.0735 -4.623436,-1.94598 -8.509683,-1.85019 -13.265362,0.32694 -3.905722,1.78802 -10.174279,1.78802 -14.08,0 -4.75568,-2.17713 -8.641925,-2.27292 -13.265362,-0.32694 -5.249405,2.20945 -10.058855,2.23184 -15.793024,0.0735 -3.673014,-1.38252 -8.701587,-2.15246 -8.701587,-1.33234 0,1.554 1.058968,2.29234 3.287757,2.29234 1.380947,0 4.301523,0.75371 6.49017,1.67489 3.296321,1.38741 4.638705,1.61835 7.820714,1.34547 2.112747,-0.18117 5.137358,-0.92855 6.721358,-1.66083 3.880239,-1.79382 8.751309,-1.76367 13.001356,0.0805 2.316756,1.00527 4.574541,1.44 7.478643,1.44 2.904103,0 5.161888,-0.43473 7.478643,-1.44 4.250048,-1.84414 9.12112,-1.87429 13.001357,-0.0805 1.584,0.73228 4.608603,1.47966 6.721353,1.66083 3.18201,0.27288 4.5244,0.0419 7.82072,-1.34547 5.09476,-2.14435 9.08719,-2.16477 14.63951,-0.0749 2.33795,0.88 5.51824,1.6 7.06733,1.6 1.54909,0 4.58845,-0.72 6.75414,-1.6 4.52966,-1.84056 5.36878,-1.94195 5.84307,-0.70597 0.22631,0.58976 -0.24046,1.00891 -1.37153,1.23161 -0.94302,0.18567 -3.44259,0.96579 -5.55459,1.7336 -4.53384,1.64828 -8.80868,1.45536 -13.47332,-0.60804 -3.89681,-1.72374 -9.24914,-1.73756 -13.00452,-0.0336 -4.79604,2.17618 -8.69762,2.27845 -14.218995,0.37273 -5.905159,-2.03819 -10.134054,-2.12119 -14.023168,-0.27525 -4.016403,1.90635 -11.343596,1.90635 -15.359999,0 -3.897555,-1.84996 -9.096092,-1.84087 -13.198644,0.023 -4.295951,1.95178 -10.289365,1.96043 -14.759999,0.0213 -3.766876,-1.63384 -8.521356,-1.94989 -8.521356,-0.56641 0,0.55207 1.080036,1.02104 2.937995,1.2757 1.615898,0.22148 4.244508,0.98063 5.841356,1.68699 3.995607,1.76745 10.390113,1.72262 14.260648,-0.1 2.011238,-0.94707 4.134877,-1.35616 7.04,-1.35616 2.90512,0 5.028761,0.40909 7.04,1.35616 3.929222,1.85023 10.150777,1.85023 14.079999,0 2.011238,-0.94707 4.13488,-1.35616 7.04,-1.35616 2.90512,0 5.028761,0.40909 7.04,1.35616 4.045493,1.90498 9.222333,1.81276 15.262063,-0.27187 5.35455,-1.84814 8.24335,-1.75621 13.3301,0.42422 3.51017,1.50464 10.32999,1.65669 12.97427,0.28928 2.45233,-1.26815 7.40321,-2.33627 8.63606,-1.86319 1.63298,0.62663 1.13425,1.52583 -0.8463,1.52583 -1.01409,0 -3.75666,0.72 -6.09461,1.6 -2.63428,0.99154 -5.5783,1.6 -7.74158,1.6 -2.16329,0 -5.10731,-0.60846 -7.74159,-1.6 -5.32866,-2.0057 -7.47134,-2.0057 -12.8,0 -5.73417,2.15834 -10.54362,2.13595 -15.79305,-0.0735 -4.623437,-1.94598 -8.509683,-1.85019 -13.265363,0.32694 -4.011334,1.83638 -9.923027,1.7977 -14.281356,-0.0934 -2.112243,-0.91652 -4.59824,-1.44 -6.838643,-1.44 -2.240402,0 -4.726401,0.52348 -6.838644,1.44 -4.538459,1.9693 -9.666356,1.91525 -15.179768,-0.16 -5.127253,-1.92989 -7.610867,-2.0955 -7.301067,-0.48684 0.149565,0.77664 1.082792,1.24233 3.086927,1.54042 1.579904,0.23499 4.168553,1.02374 5.752553,1.75279 3.858425,1.77585 8.015478,1.69815 13.181586,-0.24637 5.333631,-2.00757 9.53049,-2.05588 13.899769,-0.16 2.316756,1.00527 4.574541,1.44 7.478643,1.44 2.904103,0 5.161888,-0.43473 7.478643,-1.44 4.250048,-1.84414 9.12112,-1.87429 13.001357,-0.0805 1.584,0.73228 4.608603,1.47965 6.721353,1.66083 3.18201,0.27288 4.5244,0.0419 7.82072,-1.34547 5.09476,-2.14435 9.08719,-2.16477 14.63951,-0.0749 2.33795,0.88 5.47824,1.6 6.97842,1.6 1.50017,0 4.64046,-0.72 6.97841,-1.6 5.13139,-1.93145 9.95165,-2.12105 11.46313,-0.45089 0.99213,1.0963 0.84925,1.13696 -3.10943,0.88489 -3.32385,-0.21165 -4.81608,0.0279 -7.50073,1.20401 -4.62759,2.0273 -11.13261,2.07289 -15.43274,0.10815 -3.99382,-1.82479 -9.26431,-1.87644 -13.11648,-0.12854 -4.79604,2.17617 -8.69762,2.27844 -14.218995,0.37272 -5.905159,-2.03819 -10.134054,-2.12119 -14.023168,-0.27525 -4.016403,1.90635 -11.343596,1.90635 -15.359999,0 -3.897555,-1.84995 -9.096092,-1.84087 -13.198644,0.023 -4.295951,1.95178 -10.289365,1.96043 -14.759999,0.0213 -3.699646,-1.60471 -7.393683,-1.94109 -6.889563,-0.62738 0.510534,1.33043 8.589717,3.78905 13.497753,4.10757 3.796514,0.24639 5.14988,0.0454 8,-1.18807 4.397206,-1.90303 9.90548,-1.89789 13.990453,0.013 3.934182,1.84041 10.161094,1.83648 14.079999,-0.009 2.011238,-0.94708 4.13488,-1.35616 7.04,-1.35616 2.90512,0 5.028761,0.40908 7.04,1.35616 4.007103,1.8869 10.278243,1.87351 14.478643,-0.0309 4.07835,-1.84909 9.6297,-1.82846 13.89442,0.0516 4.04327,1.78247 10.10582,1.83294 14.10792,0.11744 4.27686,-1.83328 7.02476,-2.18091 10.55147,-1.33487 2.76981,0.66447 6.3556,2.92628 5.69171,3.59017 -0.13225,0.13225 -1.73838,-0.32871 -3.56918,-1.02435 -4.37635,-1.66289 -6.76376,-1.59561 -11.8934,0.33518 -5.58897,2.10369 -9.95134,2.08868 -15.56697,-0.0536 -5.03333,-1.92009 -8.9424,-1.83195 -13.61461,0.30698 -4.01134,1.83638 -9.92303,1.7977 -14.28136,-0.0934 -2.112243,-0.91652 -4.59824,-1.44 -6.838643,-1.44 -2.240403,0 -4.7264,0.52348 -6.838643,1.44 -4.35833,1.89114 -10.270022,1.92982 -14.281356,0.0934 -4.75568,-2.17714 -8.641925,-2.27292 -13.265362,-0.32694 -5.249431,2.20945 -10.058881,2.23184 -15.79305,0.0735 -5.131827,-1.93161 -5.501587,-1.95312 -5.501587,-0.32 0,0.85967 0.426667,1.28 1.299284,1.28 0.714607,0 3.089996,0.75371 5.278643,1.67489 3.296321,1.38741 4.638705,1.61835 7.820714,1.34547 2.112747,-0.18118 5.137358,-0.92855 6.721358,-1.66083 3.880239,-1.79382 8.751309,-1.76367 13.001356,0.0805 2.316756,1.00527 4.574541,1.44 7.478643,1.44 2.904103,0 5.161888,-0.43473 7.478643,-1.44 2.016154,-0.87483 4.607034,-1.44 6.601357,-1.44 1.994323,0 4.585203,0.56517 6.601356,1.44 2.316757,1.00527 4.574537,1.44 7.478647,1.44 2.9041,0 5.16188,-0.43473 7.47864,-1.44 4.38779,-1.90391 8.66942,-1.85506 14.02294,0.16 2.33795,0.88 5.47824,1.6 6.97842,1.6 1.50017,0 4.64046,-0.72 6.97841,-1.6 5.6539,-2.12812 9.7474,-2.06653 15.06234,0.22662 4.54414,1.96059 5.98224,3.51016 2.47262,2.66428 -1.16235,-0.28015 -3.18413,-0.97321 -4.49282,-1.54013 -3.42439,-1.48343 -8.66773,-1.31797 -12.4192,0.39192 -4.30865,1.96384 -10.89406,1.96384 -15.20271,0 -3.99516,-1.82096 -9.26814,-1.87124 -13.11648,-0.12507 -4.79604,2.17617 -8.69762,2.27844 -14.218995,0.37272 -5.905159,-2.03819 -10.134054,-2.12119 -14.023168,-0.27525 -4.016403,1.90635 -11.343596,1.90635 -15.359999,0 -3.897555,-1.84995 -9.096092,-1.84087 -13.198644,0.023 -4.295951,1.95178 -10.289365,1.96043 -14.759999,0.0213 -3.939077,-1.70856 -4.845726,-1.79005 -4.568284,-0.4106 0.120098,0.59713 1.918074,1.67134 4.284841,2.56 5.268902,1.97834 10.796252,2.03319 14.802086,0.14688 2.011238,-0.94708 4.134877,-1.35616 7.04,-1.35616 2.90512,0 5.028761,0.40908 7.04,1.35616 2.011238,0.94707 4.134879,1.35616 7.039999,1.35616 2.90512,0 5.028762,-0.40909 7.04,-1.35616 3.929222,-1.85023 10.150777,-1.85023 14.08,0 4.007103,1.8869 10.278243,1.87351 14.478643,-0.0309 4.07835,-1.84909 9.6297,-1.82846 13.89442,0.0516 4.02304,1.77356 10.07312,1.83276 13.94558,0.13646 4.74988,-2.08064 8.10843,-2.26406 12.42806,-0.67875 2.09731,0.76972 5.02531,1.54147 6.50666,1.715 1.48134,0.17353 3.02861,0.71946 3.43836,1.21319 1.2615,1.52001 -3.82586,1.106 -8.63014,-0.70233 -2.33794,-0.88 -5.21794,-1.6 -6.4,-1.6 -1.18205,0 -4.06205,0.72 -6.4,1.6 -2.74897,1.03472 -5.56335,1.6 -7.96585,1.6 -2.48602,0 -5.01772,-0.52932 -7.65268,-1.6 -2.16569,-0.88 -4.94477,-1.6 -6.17573,-1.6 -1.23095,0 -4.15097,0.72 -6.48891,1.6 -5.73417,2.15834 -10.54362,2.13595 -15.79305,-0.0735 -4.623437,-1.94598 -8.509683,-1.8502 -13.265363,0.32694 -1.967385,0.90066 -4.198221,1.31845 -7.04,1.31845 -2.841779,0 -5.072614,-0.41779 -7.039999,-1.31845 -4.75568,-2.17714 -8.641925,-2.27292 -13.265362,-0.32694 -4.9636,2.08913 -10.23915,2.2285 -14.894637,0.39348 -3.912258,-1.54206 -3.98819,-1.54739 -3.726928,-0.26163 0.30306,1.49146 6.740925,4.04593 10.272317,4.07593 1.725815,0.0147 4.85135,-0.66159 7.276197,-1.5743 5.333631,-2.00757 9.53049,-2.05588 13.899769,-0.16 2.316756,1.00527 4.574541,1.44 7.478643,1.44 2.904103,0 5.161888,-0.43473 7.478643,-1.44 4.36928,-1.89588 8.566138,-1.84757 13.899769,0.16 2.337941,0.88 5.548911,1.6 7.135481,1.6 1.63661,0 4.52938,-0.69225 6.68611,-1.6 2.34626,-0.98752 5.02816,-1.6 7.0061,-1.6 1.85811,0 4.99082,0.6723 7.45548,1.6 2.33795,0.88 5.47824,1.6 6.97842,1.6 1.50017,0 4.64046,-0.72 6.97841,-1.6 2.46466,-0.9277 5.59737,-1.6 7.45548,-1.6 1.97794,0 4.65985,0.61248 7.0061,1.6 2.33382,0.98229 5.02971,1.6 6.98295,1.6 3.51531,0 4.89344,1.00554 2.27785,1.66201 -2.35618,0.59136 -6.56535,-0.0945 -9.92065,-1.6165 -3.9128,-1.7749 -9.15631,-1.73623 -13.17879,0.0972 -2.27622,1.03748 -4.33435,1.42268 -7.60135,1.42268 -3.26701,0 -5.32514,-0.3852 -7.60136,-1.42268 -3.99516,-1.82096 -9.26814,-1.87124 -13.11648,-0.12507 -4.79604,2.17617 -8.69762,2.27844 -14.218995,0.37272 -5.905159,-2.03819 -10.134054,-2.12119 -14.023168,-0.27525 -2.145728,1.01845 -4.103789,1.36697 -7.68,1.36697 -3.576211,0 -5.534271,-0.34852 -7.679999,-1.36697 -3.812045,-1.80936 -9.082581,-1.83509 -13.086688,-0.0639 -5.465344,2.41758 -9.534265,2.32011 -15.947765,-0.38204 -2.015317,-0.8491 -0.07087,2.06007 2.141643,3.20421 2.837292,1.46722 9.916772,1.24744 13.45281,-0.41765 2.011238,-0.94707 4.134877,-1.35616 7.04,-1.35616 2.90512,0 5.028761,0.40909 7.04,1.35616 2.011238,0.94707 4.134879,1.35617 7.039999,1.35617 2.90512,0 5.028762,-0.4091 7.04,-1.35617 2.011238,-0.94707 4.13488,-1.35616 7.04,-1.35616 2.90512,0 5.028761,0.40909 7.04,1.35616 4.007103,1.88691 10.278243,1.87351 14.478643,-0.0309 4.13712,-1.87574 9.67094,-1.86523 13.92271,0.0264 4.04198,1.79834 10.0223,1.8678 13.91729,0.16163 5.01682,-2.19757 8.08332,-2.28457 13.58557,-0.38545 3.70044,1.27722 5.95506,1.66237 9.07014,1.54945 4.28466,-0.15534 5.76177,0.33432 4.12711,1.36811 -1.874,1.18516 -8.63016,0.67482 -13.03988,-0.985 -2.33794,-0.88 -5.21794,-1.6 -6.4,-1.6 -1.18205,0 -4.06205,0.72 -6.4,1.6 -5.67975,2.13785 -10.66228,2.13785 -15.74158,0 -2.09079,-0.88 -4.81154,-1.6 -6.04611,-1.6 -1.23457,0 -4.15754,0.72 -6.49548,1.6 -5.51342,2.07525 -10.64131,2.1293 -15.17977,0.16 -2.112243,-0.91652 -4.59824,-1.44 -6.838643,-1.44 -2.240403,0 -4.7264,0.52348 -6.838643,1.44 -4.35833,1.89114 -10.270022,1.92981 -14.281356,0.0934 -4.75568,-2.17714 -8.641925,-2.27292 -13.265362,-0.32694 -4.230172,1.78045 -10.106284,2.24571 -13.252973,1.04934 -1.83284,-0.69684 -2.07119,-0.20789 -0.767666,1.57478 1.490713,2.03868 7.502342,2.07143 12.802199,0.0697 5.483027,-2.07084 9.630547,-2.13592 14.045158,-0.22037 2.316756,1.00527 4.574541,1.44 7.478643,1.44 2.904103,0 5.161888,-0.43473 7.478643,-1.44 4.250048,-1.84414 9.12112,-1.87429 13.001357,-0.0805 1.584,0.73228 4.608603,1.47965 6.721353,1.66083 3.18201,0.27288 4.5244,0.0419 7.82072,-1.34547 5.09476,-2.14435 9.08719,-2.16477 14.63951,-0.0749 2.33795,0.88 5.47824,1.6 6.97842,1.6 1.50017,0 4.64046,-0.72 6.97841,-1.6 2.46466,-0.9277 5.59737,-1.6 7.45548,-1.6 1.97794,0 4.65985,0.61248 7.0061,1.6 4.24512,1.78675 8.55663,2.03054 12.29675,0.69532 1.30721,-0.46667 2.53121,-0.69403 2.72,-0.50524 0.86702,0.86702 0.0811,1.45038 -3.26423,2.42289 -4.18802,1.21749 -8.28366,0.88546 -12.76321,-1.03469 -3.96027,-1.69758 -8.88114,-1.63451 -12.82795,0.1644 -2.27622,1.03749 -4.33435,1.42269 -7.60135,1.42269 -3.26701,0 -5.32514,-0.3852 -7.60136,-1.42269 -3.99516,-1.82095 -9.26814,-1.87123 -13.11648,-0.12506 -4.79604,2.17617 -8.69762,2.27844 -14.218995,0.37272 -5.905159,-2.03819 -10.134054,-2.12119 -14.023168,-0.27525 -2.145728,1.01845 -4.103789,1.36697 -7.68,1.36697 -3.576211,0 -5.534271,-0.34852 -7.679999,-1.36697 -3.889114,-1.84594 -8.118012,-1.76294 -14.023168,0.27525 -3.87106,1.33611 -5.518907,1.59047 -8.235337,1.27121 -3.257567,-0.38287 -3.367834,-0.34662 -2.706199,0.88967 0.986839,1.84392 7.521066,1.78978 11.524704,-0.0955 2.011238,-0.94707 4.134877,-1.35616 7.04,-1.35616 2.90512,0 5.028761,0.40909 7.04,1.35616 2.011238,0.94707 4.134879,1.35616 7.039999,1.35616 2.90512,0 5.028762,-0.40909 7.04,-1.35616 2.011238,-0.94707 4.13488,-1.35616 7.04,-1.35616 2.90512,0 5.028761,0.40909 7.04,1.35616 4.045493,1.90498 9.222333,1.81276 15.262063,-0.27187 5.35455,-1.84814 8.24335,-1.75622 13.3301,0.42422 3.99108,1.71078 9.99962,1.6437 14.04648,-0.15682 4.25177,-1.89169 9.78559,-1.9022 13.92271,-0.0264 4.03056,1.82742 10.44807,1.90953 14.25184,0.18234 1.92899,-0.8759 2.84529,-1.01265 3.35694,-0.50101 0.51164,0.51164 -0.21257,1.09935 -2.6532,2.1531 -4.65169,2.00838 -9.94625,1.97439 -15.45535,-0.0992 -2.33794,-0.88 -5.21794,-1.6 -6.4,-1.6 -1.18205,0 -4.06205,0.72 -6.4,1.6 -2.63428,0.99154 -5.5783,1.6 -7.74158,1.6 -2.16329,0 -5.10731,-0.60846 -7.74159,-1.6 -2.33795,-0.88 -5.21795,-1.6 -6.4,-1.6 -1.18206,0 -4.06206,0.72 -6.4,1.6 -5.73417,2.15833 -10.54362,2.13595 -15.79305,-0.0735 -4.623437,-1.94597 -8.509683,-1.85019 -13.265363,0.32694 -1.967385,0.90067 -4.198221,1.31846 -7.04,1.31846 -2.841779,0 -5.072614,-0.41779 -7.039999,-1.31846 -4.75568,-2.17713 -8.641925,-2.27291 -13.265362,-0.32694 -2.521083,1.06109 -5.16236,1.67348 -7.21787,1.67348 -3.043481,0 -3.199895,0.0783 -2.556768,1.28 0.931456,1.74044 3.476117,1.64686 8.701587,-0.32 5.333631,-2.00757 9.53049,-2.05588 13.899769,-0.16 2.316756,1.00527 4.574541,1.44 7.478643,1.44 2.904103,0 5.161888,-0.43473 7.478643,-1.44 4.250048,-1.84414 9.12112,-1.87429 13.001357,-0.0805 1.584,0.73228 4.608603,1.47965 6.721353,1.66083 3.18201,0.27288 4.5244,0.0419 7.82072,-1.34547 5.09476,-2.14435 9.08719,-2.16477 14.63951,-0.0749 2.33795,0.88 5.51824,1.6 7.06733,1.6 1.54909,0 4.58845,-0.72 6.75414,-1.6 5.23843,-2.12856 9.58649,-2.10887 14.75573,0.0668 4.82392,2.03036 9.19606,1.91731 14.73491,-0.38103 3.47034,-1.44 3.75921,-1.46717 4.77715,-0.44924 1.01792,1.01793 1.01033,1.08344 -0.12559,1.08344 -0.66496,0 -3.38675,0.75165 -6.04842,1.67034 -5.52138,1.90572 -9.42296,1.80345 -14.219,-0.37272 -3.82693,-1.73645 -9.11382,-1.69384 -13.11648,0.1057 -4.29718,1.93196 -10.90553,1.93196 -15.20271,0 -4.00266,-1.79954 -9.28955,-1.84215 -13.11648,-0.1057 -4.79604,2.17617 -8.69762,2.27844 -14.218995,0.37272 -5.905159,-2.03819 -10.134054,-2.12119 -14.023168,-0.27525 -2.145728,1.01845 -4.103789,1.36697 -7.68,1.36697 -3.576211,0 -5.534271,-0.34852 -7.679999,-1.36697 -3.712992,-1.76235 -9.083055,-1.83143 -12.878644,-0.16567 -1.540746,0.67619 -3.861451,1.42451 -5.157122,1.66293 -1.656289,0.30479 -2.253554,0.69987 -2.011527,1.33058 0.493972,1.28727 3.274336,1.08226 6.607293,-0.4872 2.011238,-0.94707 4.134877,-1.35616 7.04,-1.35616 2.90512,0 5.028761,0.40909 7.04,1.35616 2.011238,0.94707 4.134879,1.35616 7.039999,1.35616 2.90512,0 5.028762,-0.40909 7.04,-1.35616 2.011238,-0.94707 4.13488,-1.35616 7.04,-1.35616 2.90512,0 5.028761,0.40909 7.04,1.35616 4.045493,1.90498 9.222333,1.81276 15.262063,-0.27187 5.35455,-1.84814 8.24335,-1.75622 13.3301,0.42422 3.99108,1.71078 9.99962,1.6437 14.04648,-0.15682 4.25177,-1.89169 9.78559,-1.9022 13.92271,-0.0264 4.01921,1.82228 10.44877,1.90928 14.2291,0.19253 4.01845,-1.8249 7.53835,-2.25985 8.53824,-1.05506 0.72424,0.87267 0.53502,0.99773 -1.50962,0.99773 -1.2857,0 -4.04829,0.72 -6.13908,1.6 -2.60749,1.09748 -4.9896,1.6 -7.58451,1.6 -2.47508,0 -5.25282,-0.5532 -8.0339,-1.6 -2.33794,-0.88 -5.21794,-1.6 -6.4,-1.6 -1.18205,0 -4.06205,0.72 -6.4,1.6 -2.74897,1.03471 -5.56335,1.6 -7.96585,1.6 -2.48602,0 -5.01772,-0.52932 -7.65268,-1.6 -2.16569,-0.88 -4.94477,-1.6 -6.17573,-1.6 -1.23095,0 -4.15097,0.72 -6.48891,1.6 -5.73417,2.15833 -10.54362,2.13595 -15.79305,-0.0735 -4.623437,-1.94597 -8.509683,-1.85019 -13.265363,0.32694 -1.967385,0.90067 -4.198221,1.31846 -7.04,1.31846 -2.841779,0 -5.072614,-0.41779 -7.039999,-1.31846 -4.863853,-2.22665 -8.582124,-2.25775 -13.872955,-0.11599 -3.466319,1.40319 -4.460863,2.07298 -4.054455,2.73056 0.442677,0.71627 1.18468,0.62404 4.169904,-0.51834 4.696851,-1.79739 9.09892,-1.78075 13.318862,0.0504 2.316756,1.00527 4.574541,1.44 7.478643,1.44 2.904103,0 5.161888,-0.43473 7.478643,-1.44 4.250048,-1.84414 9.12112,-1.87429 13.001357,-0.0805 1.584,0.73228 4.608603,1.47965 6.721353,1.66083 3.18201,0.27288 4.5244,0.0419 7.82072,-1.34547 5.09476,-2.14435 9.08719,-2.16477 14.63951,-0.0749 2.33795,0.88 5.47824,1.6 6.97842,1.6 1.50017,0 4.64046,-0.72 6.97841,-1.6 2.46466,-0.9277 5.59737,-1.6 7.45548,-1.6 1.97794,0 4.65985,0.61248 7.0061,1.6 2.15673,0.90775 5.0495,1.6 6.68611,1.6 1.58657,0 4.79754,-0.72 7.13548,-1.6 5.28092,-1.98773 10.43756,-2.15522 12.03427,-0.39088 1.0643,1.17604 0.98263,1.20016 -2.98562,0.88162 -3.34793,-0.26874 -4.98878,-0.0138 -9.14633,1.42123 -5.76156,1.98862 -9.58641,1.91068 -14.44607,-0.29435 -3.84834,-1.74617 -9.12132,-1.69589 -13.11648,0.12507 -4.30865,1.96384 -10.89406,1.96384 -15.20271,0 -4.13621,-1.88525 -9.02903,-1.87913 -13.4,0.0168 -4.47064,1.93912 -10.46405,1.93047 -14.76,-0.0213 -4.102554,-1.86392 -9.301088,-1.873 -13.198643,-0.023 -2.145728,1.01845 -4.103789,1.36697 -7.68,1.36697 -3.576211,0 -5.534271,-0.34852 -7.679999,-1.36697 -1.719168,-0.81599 -4.169818,-1.37391 -6.08,-1.38419 -3.585765,-0.0193 -9.425914,1.80977 -9.065219,2.83913 0.274771,0.78414 1.59298,0.7185 5.51994,-0.27487 3.27428,-0.82827 6.738783,-0.39263 10.514827,1.32218 3.701357,1.68089 10.07584,1.6064 13.830451,-0.16161 2.011238,-0.94707 4.13488,-1.35616 7.04,-1.35616 2.90512,0 5.028761,0.40909 7.04,1.35616 4.007103,1.88691 10.278243,1.87351 14.478643,-0.0309 4.13712,-1.87574 9.67094,-1.86523 13.92271,0.0264 4.19338,1.86571 10.07138,1.87506 14.26558,0.0227 4.12059,-1.81984 9.6644,-1.8211 14.15676,-0.003 4.5109,1.8254 10.32096,1.81926 14.2163,-0.015 5.34522,-2.517 13.24253,-1.6444 16.04661,1.77306 1.0352,1.26164 0.62398,1.19921 -4.20661,-0.63863 -3.70329,-1.40894 -6.88296,-1.24717 -11.2,0.56985 -2.60749,1.09747 -4.9896,1.6 -7.58451,1.6 -2.47508,0 -5.25282,-0.55321 -8.0339,-1.6 -2.33794,-0.88 -5.21794,-1.6 -6.4,-1.6 -1.18205,0 -4.06205,0.72 -6.4,1.6 -2.80916,1.05737 -5.55471,1.6 -8.09548,1.6 -2.66061,0 -5.01542,-0.49277 -7.6461,-1.6 -2.09079,-0.88 -4.81154,-1.6 -6.04611,-1.6 -1.23457,0 -4.15754,0.72 -6.49548,1.6 -2.78108,1.04679 -5.55882,1.6 -8.0339,1.6 -2.59491,0 -4.97702,-0.50253 -7.584513,-1.6 -2.090784,-0.88 -4.970784,-1.6 -6.4,-1.6 -1.429216,0 -4.309216,0.72 -6.4,1.6 -4.847936,2.04046 -10.571398,2.14734 -14.70014,0.27449 -3.831411,-1.73797 -7.453272,-2.16256 -10.787876,-1.26465 -4.326322,1.16496 -3.071245,2.31098 2.244825,2.04977 3.624043,-0.17806 5.149291,0.0677 7.944184,1.28 4.654943,2.01914 10.529343,2.04263 15.09765,0.0604 4.250048,-1.84415 9.12112,-1.8743 13.001357,-0.0805 1.584,0.73229 4.608603,1.47966 6.721353,1.66084 3.18201,0.27287 4.5244,0.0419 7.82072,-1.34548 5.09476,-2.14435 9.08719,-2.16477 14.63951,-0.0749 2.33795,0.88 5.47824,1.6 6.97842,1.6 1.50017,0 4.64046,-0.72 6.97841,-1.6 2.46466,-0.9277 5.59737,-1.6 7.45548,-1.6 1.97794,0 4.65985,0.61247 7.0061,1.6 2.15673,0.90775 5.0495,1.6 6.68611,1.6 1.58657,0 4.79754,-0.72 7.13548,-1.6 5.21163,-1.96165 9.48699,-2.0417 13.89977,-0.26026 1.82525,0.73686 3.96664,1.59468 4.75864,1.90628 0.792,0.3116 1.44,0.8662 1.44,1.23245 0,0.82421 -2.4965,0.31428 -6.51864,-1.3315 -4.08321,-1.67075 -8.15559,-1.5409 -13.90452,0.44336 -5.52138,1.90573 -9.42296,1.80345 -14.219,-0.37272 -3.84834,-1.74616 -9.12132,-1.69588 -13.11648,0.12507 -4.30865,1.96385 -10.89406,1.96385 -15.20271,0 -4.13621,-1.88525 -9.02903,-1.87912 -13.4,0.0168 -4.47064,1.93911 -10.46405,1.93046 -14.76,-0.0213 -4.102554,-1.86392 -9.301088,-1.873 -13.198643,-0.023 -2.145728,1.01845 -4.103789,1.36697 -7.68,1.36697 -3.576211,0 -5.534271,-0.34852 -7.679999,-1.36697 -4.236621,-2.01089 -12.851678,-1.80473 -9.561363,0.22879 0.37325,0.23068 2.02925,0.50116 3.68,0.60106 1.650752,0.0999 4.524025,0.79216 6.385055,1.53835 4.517645,1.81137 10.335021,1.8001 14.216307,-0.0276 2.011238,-0.94708 4.13488,-1.35616 7.04,-1.35616 2.90512,0 5.028761,0.40908 7.04,1.35616 4.007103,1.8869 10.278243,1.87351 14.478643,-0.0309 4.07835,-1.84909 9.6297,-1.82846 13.89442,0.0517 4.22679,1.86338 10.08865,1.84217 14.26558,-0.0517 4.13712,-1.87574 9.67094,-1.86522 13.92271,0.0264 4.21478,1.87522 10.50171,1.87716 14.47864,0.004 2.01124,-0.94708 4.13488,-1.35616 7.04,-1.35616 2.90512,0 5.02877,0.40908 7.04,1.35616 1.584,0.74588 3.92474,1.36249 5.20164,1.37022 1.2769,0.008 2.68016,0.44605 3.11836,0.97405 1.2595,1.5176 -4.77282,1.23732 -8.32,-0.38656 -4.75568,-2.17714 -8.64192,-2.27292 -13.26536,-0.32694 -5.24943,2.20945 -10.05888,2.23184 -15.79305,0.0735 -2.33794,-0.88 -5.25796,-1.6 -6.48891,-1.6 -1.23096,0 -4.01004,0.72 -6.17573,1.6 -2.7711,1.126 -5.14306,1.6 -8.00657,1.6 -2.89983,0 -5.1612,-0.45972 -7.87037,-1.6 -2.09079,-0.88 -4.81154,-1.6 -6.04611,-1.6 -1.23457,0 -4.15754,0.72 -6.49548,1.6 -5.51342,2.07525 -10.64131,2.12929 -15.17977,0.16 -2.112243,-0.91661 -4.59824,-1.44009 -6.838643,-1.44009 -2.240403,0 -4.7264,0.52348 -6.838643,1.44 -4.333683,1.88044 -10.263481,1.92805 -14.261497,0.11449 -1.573075,-0.71357 -4.165075,-1.46319 -5.76,-1.66582 -2.790201,-0.35449 -2.857878,-0.32428 -1.789698,0.79876 0.610589,0.64195 2.338588,1.5142 3.840002,1.93833 1.501408,0.42414 3.881837,1.23587 5.289837,1.80387 3.307635,1.33431 9.251634,0.95824 13.119999,-0.8301 z M 55.667047,159.6105 c 1.62068,-0.64846 2.572951,-1.44075 2.572951,-2.14066 0,-1.03923 -0.238272,-1.03049 -3.68,0.13517 -4.30947,1.45954 -8.670419,1.19625 -13.042163,-0.7874 -3.6637,-1.66238 -8.879489,-1.76678 -8.873891,-0.17762 0.0032,0.90007 0.600146,1.13204 3.04,1.18128 1.66983,0.0337 4.332055,0.65744 5.916055,1.38608 3.634367,1.6718 10.410996,1.86601 14.067048,0.40315 z m 198.763843,-0.26375 c 1.65936,-0.71129 4.34724,-1.35929 5.97306,-1.44 2.73027,-0.13555 3.88155,-0.69752 3.90624,-1.90676 0.0218,-1.06467 -6.35558,-0.42161 -9.34884,0.94269 -2.27623,1.03748 -4.33436,1.42268 -7.60136,1.42268 -3.267,0 -5.32513,-0.3852 -7.60135,-1.42268 -3.96296,-1.80628 -9.36124,-1.98097 -9.35345,-0.30269 0.004,0.91019 0.63366,1.13958 3.36,1.2245 1.84514,0.0575 4.6508,0.68514 6.2348,1.39479 3.95284,1.77095 10.41217,1.8101 14.4309,0.0875 z M 67.718635,146.08 c -0.240135,-2.90143 -1.203879,-2.82158 -2.245133,0.18602 -0.741075,2.14054 -0.713261,2.21397 0.83863,2.21397 1.463469,0 1.587603,-0.21182 1.406503,-2.39999 z M 184.31999,116.75166 c 0,-0.39784 -4.76946,-8.74376 -6.17993,-10.81407 -0.74768,-1.09743 -0.86007,-0.44927 -0.86007,4.96 l 0,6.22241 3.52,0 c 1.936,0 3.52,-0.16576 3.52,-0.36834 z M 131.68231,115.311 c 0.63369,-0.40234 0.58741,-1.14009 -0.22016,-3.5102 -0.56237,-1.65044 -1.1394,-3.0008 -1.28231,-3.0008 -0.14292,0 -0.25984,1.584 -0.25984,3.52 0,3.51733 0.25409,3.94858 1.76231,2.991 z m -23.71287,-8.93969 c 0.54225,-0.34467 -0.17834,-1.85167 -2.44043,-5.10374 l -3.20986,-4.614664 -3.799576,2.679539 c -2.089766,1.473745 -3.799577,2.866205 -3.799577,3.094345 0,0.64696 2.050048,2.34405 4.161427,3.44495 1.990886,1.03807 7.743346,1.35429 9.088016,0.49957 z m 6.63431,-7.973803 c 0.76923,-2.85671 0.40377,-6.020845 -0.90162,-7.806073 -0.79056,-1.081139 -1.06176,-1.004762 -4.47186,1.259424 -1.99665,1.325696 -3.63027,2.677977 -3.63027,3.005068 0,0.327085 1.34866,2.484692 2.99704,4.794675 l 2.99704,4.199979 1.1546,-1.42587 c 0.63503,-0.78424 1.46982,-2.596477 1.85507,-4.027203 z M 11.170908,173.14908 c -0.961137,-0.96113 -1.5709083,-2.30715 -1.5709083,-3.46765 0,-1.04321 -0.1598279,-2.31325 -0.3551738,-2.82231 -0.2537075,-0.66115 0.3862138,-1.11376 2.2400001,-1.5843 2.99699,-0.76071 3.194799,-0.42457 0.984116,1.67235 -1.729118,1.64013 -2.024788,3.24098 -0.820942,4.44482 1.414386,1.41439 2.398846,0.79113 4.094178,-2.592 2.258711,-4.50738 3.322467,-5.6 5.452082,-5.6 2.50755,0 4.405739,2.23537 4.405739,5.18834 0,1.31284 0.167164,2.8226 0.371475,3.35502 0.269819,0.70314 -0.289535,1.15056 -2.044013,1.635 -1.328519,0.36682 -2.521137,0.5613 -2.650263,0.43218 -0.129126,-0.12913 0.50268,-0.97223 1.404013,-1.87356 2.06956,-2.06956 2.247829,-5.25742 0.328076,-5.86672 -1.698152,-0.53898 -3.037167,0.61364 -4.258275,3.66549 -1.012477,2.53043 -3.526444,4.98425 -5.106413,4.98425 -0.49653,0 -1.609691,-0.70691 -2.473691,-1.57091 z m 1.499666,-14.35829 c -1.826931,-1.63236 -2.110732,-2.33916 -2.420226,-6.02747 l -0.3506075,-4.17828 2.2501295,-0.28169 c 2.938226,-0.36784 3.116979,-0.11772 1.067833,1.49414 -1.237042,0.97305 -1.697703,1.92076 -1.697703,3.49267 0,2.79628 1.888798,4.14983 5.790842,4.14983 4.837091,0 7.268479,-3.9175 4.703878,-7.57898 -1.395409,-1.99222 -0.450422,-2.71831 1.08037,-0.83012 1.736446,2.14188 1.672695,7.0471 -0.116549,8.96763 -2.951946,3.16855 -7.276455,3.50092 -10.307967,0.79227 z m 272.321216,-0.93073 c -0.28149,-0.47297 -1.77901,-1.76897 -3.32783,-2.88 -2.1267,-1.52558 -3.49749,-2.02007 -5.59999,-2.02007 -2.04798,0 -2.78398,0.2538 -2.78398,0.96 0,0.528 -0.288,0.96 -0.64,0.96 -0.352,0 -0.64,-1.44 -0.64,-3.2 0,-3.09447 0.75447,-4.21262 1.51144,-2.24 0.68727,1.79101 4.62135,1.15049 8.4184,-1.37061 1.93059,-1.28183 3.51016,-2.57783 3.51016,-2.88 0,-0.30216 0.288,-0.54938 0.64,-0.54938 0.71343,0 0.8649,3.14924 0.23094,4.80131 -0.29411,0.76642 -0.54254,0.85006 -0.88397,0.2976 -0.34427,-0.55703 -1.12772,-0.32478 -2.84824,0.84433 l -2.37334,1.61273 2.42732,1.64941 c 1.80213,1.22457 2.55615,1.4466 2.92751,0.86201 0.29197,-0.45963 0.50426,0.21166 0.50998,1.6126 0.0104,2.55247 -0.25243,2.92786 -1.0784,1.54007 z M 22.689907,146.25566 c -0.383645,-0.54052 -2.687387,-1.02091 -6.209908,-1.29494 -4.951852,-0.38521 -5.599999,-0.3135 -5.599999,0.6196 0,0.58037 -0.224413,0.91652 -0.498696,0.747 -0.274283,-0.16951 -0.339875,-2.20091 -0.14576,-4.51422 0.26213,-3.12387 0.704786,-4.55788 1.720468,-5.57356 1.711731,-1.71173 4.41198,-1.21676 5.418961,0.99332 l 0.691444,1.51755 2.801605,-1.97475 c 2.63248,-1.85554 4.030025,-3.93095 3.203564,-4.75741 -0.383827,-0.38383 -8.866696,-2.00672 -10.791586,-2.06458 -0.616,-0.0185 -1.12,0.39833 -1.12,0.92633 0,0.528 -0.291404,0.96 -0.647564,0.96 -0.399391,0 -0.490667,-1.04242 -0.238169,-2.72 0.410821,-2.7295 1.525733,-4.86909 1.525733,-2.928 0,1.09801 1.240501,1.45271 7.586489,2.16923 3.15239,0.35593 4.200274,0.25904 4.661647,-0.43105 0.375585,-0.56176 0.438867,0.88069 0.171527,3.90982 -0.480745,5.44715 -0.621207,5.70234 -4.480825,8.14065 -1.549102,0.97863 -2.817065,1.99535 -2.817694,2.25935 -0.0024,1.01207 4.665582,0.46967 5.507946,-0.64 0.745848,-0.98254 0.852699,-0.75151 0.870555,1.88222 0.02142,3.15959 -0.589088,4.21144 -1.609738,2.77344 z m -6.049908,-5.08332 c 0,-1.83871 -0.813221,-2.93234 -2.180472,-2.93234 -1.702634,0 -2.939527,1.13105 -2.939527,2.688 0,0.91733 0.521481,1.152 2.56,1.152 1.783274,0 2.559999,-0.2754 2.559999,-0.90766 z M 272.05052,139.68 c 0.0278,-1.672 0.19579,-2.68 0.37333,-2.24 0.19162,0.47488 1.5019,0.8 3.22412,0.8 2.69644,0 2.87406,-0.10169 2.51541,-1.44 -0.21225,-0.792 -0.38985,-2.12569 -0.39465,-2.96374 -0.008,-1.39153 -0.209,-1.49125 -2.31684,-1.14919 -1.26946,0.20601 -2.66452,0.86198 -3.10013,1.45771 -0.68145,0.93194 -0.85094,0.65336 -1.21399,-1.99539 -0.46876,-3.42002 -0.16195,-4.23627 1.02883,-2.73708 0.67244,0.8466 1.57392,0.91162 5.91339,0.42648 3.25317,-0.36369 5.38078,-0.92227 5.83523,-1.53198 0.58215,-0.78105 0.78922,-0.51185 1.11295,1.4468 0.63571,3.8462 0.51987,4.52282 -0.53568,3.129 -0.72527,-0.95771 -1.37608,-1.10935 -3.25116,-0.75759 -2.21196,0.41497 -2.32226,0.55038 -1.95285,2.39739 0.21532,1.07667 0.39151,2.28919 0.39151,2.6945 0,0.47375 0.9142,0.64973 2.56,0.49277 1.84485,-0.17593 2.56274,-0.53823 2.5698,-1.29691 0.009,-0.91355 0.0918,-0.92582 0.6302,-0.0928 0.34122,0.528 0.62481,2.09504 0.6302,3.48232 0.008,2.15436 -0.1069,2.36801 -0.7902,1.46454 -0.67284,-0.88965 -1.59642,-0.99553 -5.81048,-0.66613 -2.86037,0.22359 -5.38116,0.76233 -5.87429,1.25546 -1.37344,1.37344 -1.59843,1.05647 -1.5447,-2.17619 z M 24.959999,125.78466 c 0,-0.92516 -1.536698,-1.48649 -7.945888,-2.90251 -2.448269,-0.54091 -3.256613,-0.51588 -3.645201,0.11287 -1.050165,1.6992 -1.158552,-0.0424 -0.229175,-3.68261 0.929488,-3.64061 2.697951,-6.03241 4.460264,-6.03241 0.450009,0 1.498103,0.55116 2.329099,1.2248 1.160048,0.94037 1.510901,1.85834 1.510901,3.95311 0,2.48904 0.168391,2.774 1.92,3.24925 1.490158,0.4043 2.11629,0.27152 2.79678,-0.59312 0.769609,-0.97787 0.829142,-0.80113 0.487044,1.44596 -0.214355,1.408 -0.392906,2.92 -0.39678,3.36 -0.0039,0.44 -0.295044,0.8 -0.647044,0.8 -0.352,0 -0.64,-0.42091 -0.64,-0.93534 z m -5.12,-6.72215 c 0,-2.19985 -1.575034,-3.32269 -3.59139,-2.56029 -0.743266,0.28103 -1.502828,1.09006 -1.687916,1.79785 -0.274014,1.04782 0.0959,1.40211 1.991391,1.90725 1.280353,0.34121 2.543915,0.65015 2.807915,0.68653 0.264,0.0363 0.48,-0.78772 0.48,-1.83134 z M 276.88139,125.28 c -0.49947,-0.792 -1.10987,-2.11433 -1.35646,-2.93851 -0.3444,-1.15113 -0.76786,-1.41279 -1.82664,-1.12875 -0.75806,0.20338 -1.71827,0.37371 -2.13379,0.37852 -0.41552,0.005 -0.86884,0.65674 -1.0074,1.44874 -0.31281,1.78819 -0.63705,1.02009 -1.95866,-4.64 -0.53424,-2.288 -1.19337,-4.736 -1.46473,-5.44 -0.41732,-1.0827 -0.34486,-1.1595 0.47007,-0.49823 0.76699,0.62237 1.24061,0.58764 2.32275,-0.17032 1.25462,-0.87877 1.29591,-1.13614 0.5361,-3.34178 -0.63635,-1.84727 -1.209,-2.43564 -2.52292,-2.59218 -1.27456,-0.15186 -1.69972,0.0803 -1.69972,0.928 0,1.60819 -1.0873,0.32765 -1.64805,-1.94095 -0.37068,-1.49965 -0.28732,-1.74529 0.43471,-1.28096 0.49134,0.31598 3.91734,0.86311 7.61334,1.21585 4.00019,0.38176 6.72,0.92176 6.72,1.3342 0,0.38107 -2.232,2.66283 -4.96,5.07056 -7.30569,6.44802 -6.72084,8.25842 2.05531,6.36223 3.7513,-0.81052 5.14469,-1.38118 5.14469,-2.107 0,-0.6772 0.20888,-0.78655 0.65338,-0.34205 0.35936,0.35936 0.82769,2.52005 1.04074,4.80155 0.31746,3.39965 0.19131,4.34422 -0.69909,5.23462 -1.58401,1.584 -4.60982,1.39678 -5.71363,-0.35354 z m 4.5906,-1.888 c 0.4224,-0.4224 0.768,-1.4664 0.768,-2.32 0,-1.39691 -0.19987,-1.51203 -2,-1.152 -1.1,0.22 -2.4154,0.4 -2.92313,0.4 -0.6638,0 -0.79688,0.40452 -0.47374,1.44 0.73836,2.36595 3.07211,3.18876 4.62887,1.632 z m -6.301,-15.51706 c 0.72103,-0.86878 0.53175,-0.99494 -1.49264,-0.99494 -2.33502,0 -2.63841,0.34126 -1.93438,2.17593 0.42653,1.11154 1.96416,0.58165 3.42702,-1.18099 z m -247.813552,6.77254 c -0.352678,-1.34864 -8.788161,-4.24656 -10.816904,-3.71603 -1.432823,0.37469 -1.444832,0.15223 -0.190513,-3.52899 1.817327,-5.33356 4.694138,-6.9983 7.406483,-4.28596 1.114389,1.11439 1.289282,1.84695 0.979875,4.10432 -0.362464,2.64447 -0.299381,2.77475 1.677236,3.4638 1.737332,0.60564 2.178124,0.54605 2.860125,-0.38665 1.032787,-1.41241 1.057504,-0.24506 0.06496,3.06777 -0.808219,2.6976 -1.494842,3.1418 -1.981257,1.28174 z m -3.982882,-6.53335 c 0.453122,-1.42766 -1.186034,-3.79413 -2.628034,-3.79413 -1.055337,0 -2.826523,1.77532 -2.826523,2.83313 0,0.45194 0.936,1.12196 2.08,1.48895 2.927355,0.93907 2.907982,0.9421 3.374557,-0.52795 z m 5.905443,-4.8753 C 27.617222,102.8043 27.9239,101.76 29.714284,101.76 c 1.99139,0 3.689042,-1.69443 3.439774,-3.433239 -0.283116,-1.974918 -2.174721,-2.028479 -5.024956,-0.142284 -2.848689,1.885173 -5.17999,2.113203 -6.643388,0.649804 -1.303615,-1.303615 -1.271452,-2.893318 0.114285,-5.64855 0.94157,-1.872108 1.374901,-2.169017 2.72,-1.86368 2.17997,0.494861 3.163695,1.477946 1.478902,1.477946 -1.943001,0 -4.340107,2.131949 -3.845713,3.420313 0.57645,1.502208 2.334478,1.314644 5.064291,-0.540313 2.615531,-1.777299 5.703212,-2.085075 6.865699,-0.684365 1.125541,1.356192 1.022902,4.681158 -0.18573,6.016688 -0.581597,0.64265 -1.057449,1.50579 -1.057449,1.91807 0,0.74813 -1.241393,0.86209 -3.36,0.30844 z M 263.22147,101.6 c -0.52514,-1.15604 -0.28375,-2.178448 1.2241,-5.184765 1.03303,-2.059622 1.78737,-3.83143 1.67633,-3.937357 -0.11105,-0.105926 -1.20991,0.293581 -2.44191,0.887808 -1.46729,0.707706 -2.17513,1.45881 -2.05194,2.177357 0.34424,2.008007 -0.87763,1.131411 -1.8163,-1.303046 -0.50896,-1.32 -1.01526,-2.593338 -1.12512,-2.829638 -0.10985,-0.236308 0.39052,-0.27529 1.11194,-0.08663 1.91427,0.500589 10.90791,-3.903539 10.97049,-5.372185 0.0571,-1.339507 3.78596,6.047564 3.78893,7.506047 0.006,3.079949 -3.91971,4.929267 -6.01544,2.833543 -0.89182,-0.891827 -1.1266,-0.695847 -2.39238,1.996979 -0.77193,1.642214 -1.40351,3.383207 -1.40351,3.868867 0,1.34442 -0.79302,1.05481 -1.52519,-0.55698 z m 8.99537,-8.26529 c 0.43152,-0.688582 0.45463,-1.52727 0.0654,-2.371731 -0.58518,-1.269484 -0.6707,-1.275558 -3.02289,-0.214713 -2.36257,1.065523 -2.39566,1.127168 -1.37821,2.568147 1.17966,1.670707 3.29464,1.679635 4.33573,0.0183 z M 38.298161,88.291619 c -0.290805,-2.021721 -10.435389,-8.250393 -11.577385,-7.108396 -1.68247,1.682464 -1.728745,0.531142 -0.09901,-2.463226 1.748696,-3.212928 2.969835,-4.237984 2.385154,-2.002156 -0.249733,0.954976 0.830322,1.854412 5.32708,4.436223 4.211438,2.417997 5.850159,3.064244 6.468624,2.550964 1.545411,-1.28258 1.3719,-0.160423 -0.460261,2.976671 -1.609912,2.756551 -1.851866,2.947098 -2.044206,1.60992 z m 217.736909,-1.53543 c -1.68794,-1.74151 -2.20066,-2.876518 -2.44415,-5.41063 -0.27905,-2.904077 -0.12855,-3.3864 1.59417,-5.10912 3.84174,-3.841741 9.46104,-2.955014 11.82083,1.865331 0.59726,1.220026 1.38508,2.561594 1.7507,2.981267 0.48153,0.552704 0.15047,1.129255 -1.20099,2.091584 -1.04263,0.742419 -2.03138,1.060595 -2.24115,0.721184 -0.20645,-0.334048 -0.0827,-0.788262 0.27507,-1.009357 1.11011,-0.686086 0.71531,-4.10158 -0.62956,-5.446451 -2.16977,-2.169766 -6.25749,-1.326227 -8.8,1.815956 -1.19552,1.477503 -0.97757,4.864959 0.3928,6.105132 1.11986,1.013453 1.31688,1.009734 3.22167,-0.0608 1.36765,-0.768653 1.93705,-1.505299 1.74712,-2.260281 -0.4895,-1.945805 0.50254,-1.207949 2.07352,1.54222 1.29126,2.260506 1.34954,2.588832 0.39445,2.22233 -0.6594,-0.253037 -2.02247,0.102048 -3.31169,0.862707 -1.20507,0.711008 -2.26207,1.292742 -2.3489,1.292742 -0.0868,0 -1.11908,-0.991712 -2.29389,-2.203808 z M 42.263015,81.447338 c -0.03269,-2.034745 -7.434437,-7.407628 -9.496566,-6.893497 -1.312346,0.327193 -1.398259,0.2267 -0.785332,-0.91856 1.092291,-2.040967 2.796029,-2.595283 7.976807,-2.595283 2.663141,0 4.835925,-0.216 4.82841,-0.48 -0.02977,-1.045818 -5.216593,-4.120455 -6.420138,-3.805722 -1.642505,0.429523 -1.567936,-0.114009 0.333965,-2.434278 1.470144,-1.793536 1.575321,-1.827415 1.596821,-0.514343 0.01649,1.007386 1.378672,2.367386 4.807702,4.8 2.631576,1.866887 4.791576,3.585773 4.8,3.819738 0.01337,0.37136 -3.49995,0.78007 -11.504685,1.338374 l -2.24,0.156231 3.658869,2.476582 c 2.114907,1.43152 4.072885,2.317709 4.64,2.100083 1.40304,-0.538394 1.209674,0.256762 -0.599032,2.463334 -1.489645,1.817325 -1.575036,1.843386 -1.596821,0.487341 z M 248.56839,74.892753 c -0.74339,-0.300359 -1.96739,-1.328941 -2.72,-2.285741 -4.36015,-5.54304 2.52962,-14.126578 8.755,-10.90731 5.54163,2.865685 5.24303,9.878356 -0.54813,12.873083 -2.03412,1.051884 -3.46839,1.135526 -5.48687,0.319968 z m 6.3116,-4.33321 c 1.89185,-1.8048 2.38987,-5.033676 0.992,-6.431545 -1.4468,-1.446797 -4.81005,-0.888645 -7.17911,1.191417 -2.63578,2.314247 -3.26784,3.898874 -2.28651,5.732506 1.56005,2.914969 5.1187,2.708185 8.47362,-0.492378 z m -204.757986,-1.830617 -1.802006,-1.466138 2.432233,0.07352 c 3.01536,0.09114 4.955148,-1.504563 3.875822,-3.188314 -0.730292,-1.139262 -1.586393,-1.195262 -6.700386,-0.438291 -2.628979,0.389139 -3.067077,0.27318 -4,-1.058754 -1.542282,-2.201916 -1.301396,-3.334394 1.191842,-5.603189 2.163501,-1.968742 2.29383,-2.002316 3.84,-0.989227 2.21333,1.450229 2.003116,2.02017 -0.713497,1.934468 -2.658234,-0.08386 -4.318296,1.550717 -2.957207,2.911806 0.613382,0.613383 1.469218,0.603405 4.005796,-0.0467 4.005803,-1.026657 6.242046,-0.518475 7.048125,1.601672 0.727713,1.914033 -0.01187,3.612068 -2.647164,6.077758 L 51.924009,70.19507 50.122004,68.728926 Z M 239.60296,64.159998 c 0.75066,-2.553728 1.18364,-11.68 0.55415,-11.68 -0.3565,0 -1.70385,1.168512 -2.99413,2.596691 -1.6572,1.834329 -2.2301,2.961715 -1.95134,3.84 0.53226,1.677 -0.44296,1.568574 -2.14009,-0.23794 -1.68978,-1.798687 -1.7495,-2.358751 -0.25153,-2.358751 1.75329,0 8.60063,-7.208754 8.09614,-8.523454 -0.55904,-1.456817 0.54739,-1.361694 1.92986,0.165915 1.14565,1.265935 1.14136,2.043441 -0.0584,10.597539 l -0.35908,2.56 2.59423,-2.499102 c 1.42683,-1.374507 2.68042,-3.053076 2.78576,-3.730155 0.16857,-1.083535 0.4216,-0.98586 2.11152,0.81511 1.76114,1.876863 1.79977,2.009481 0.46679,1.602833 -1.19975,-0.366005 -2.21331,0.290494 -5.81123,3.763993 -4.51838,4.362124 -5.53237,4.991679 -4.97259,3.087321 z M 61.087279,58.983088 c 0.365463,-1.151473 -0.271263,-2.146853 -3.452656,-5.397464 -3.614456,-3.693096 -3.96529,-3.901238 -4.779996,-2.835881 -0.483581,0.63236 -0.732112,1.71236 -0.55229,2.4 0.441862,1.689679 -0.585824,1.584301 -1.683011,-0.172576 -0.83973,-1.34462 -0.646815,-1.641957 3.509589,-5.40929 4.104002,-3.719835 4.474172,-3.917672 5.534622,-2.957977 1.575431,1.425745 1.419982,2.205644 -0.351029,1.761149 -0.936062,-0.234937 -1.789274,-0.0097 -2.301561,0.607559 -0.686806,0.827551 -0.294116,1.578702 2.511901,4.804848 2.213058,2.544408 3.887527,3.889635 5.004196,4.020247 1.645984,0.192524 1.624755,0.238514 -1.104821,2.393759 -2.452301,1.936313 -2.729792,2.029679 -2.334944,0.785626 z M 228.31999,54.090472 c -1.749,-1.539401 -2.40928,-2.727292 -1.04845,-1.886251 0.79847,0.493477 1.82374,-0.802359 1.83865,-2.323866 0.005,-0.549802 -0.84967,-1.635073 -1.90012,-2.411713 -1.62823,-1.203798 -2.10133,-1.292542 -3.20759,-0.601673 -0.71371,0.445718 -1.15927,1.170989 -0.99015,1.611713 0.45322,1.181074 -0.58154,0.975424 -2.30144,-0.457391 -1.24995,-1.041314 -1.32018,-1.262385 -0.40665,-1.28 0.60733,-0.01171 3.86188,-1.494739 7.23233,-3.295618 3.37046,-1.800878 6.24318,-3.159248 6.38383,-3.018599 0.14065,0.14065 -0.44413,2.982096 -1.29951,6.314325 -0.85538,3.33223 -1.56101,6.706599 -1.56807,7.498599 -0.0162,1.816305 -0.53136,1.788118 -2.73283,-0.149526 z m 2.09584,-8.372138 c 1.13139,-2.975774 0.49811,-3.073875 -3.14704,-0.487504 -0.39223,0.278301 1.2989,2.129168 1.94541,2.129168 0.31761,0 0.85834,-0.738748 1.20163,-1.641664 z M 68.476817,52.80383 c 0.65943,-0.794565 0.175225,-1.721455 -2.864922,-5.484187 -2.313434,-2.863292 -3.988147,-4.401511 -4.555184,-4.183918 -1.650269,0.633267 -0.920176,-0.81269 1.243697,-2.463156 2.371135,-1.808552 3.569523,-2.15455 2.342771,-0.676402 -0.659403,0.794531 -0.177396,1.718775 2.851321,5.467357 2.99696,3.709276 3.892019,4.443832 5.035187,4.132267 1.021101,-0.278296 0.710477,0.221783 -1.169689,1.883121 -2.58176,2.281269 -4.352026,3.094765 -2.883181,1.324918 z m 7.5731,-6.27119 c 0.513536,-0.618774 -0.07177,-1.987529 -2.321638,-5.429229 -1.654553,-2.531029 -3.203712,-4.606718 -3.442566,-4.612642 -1.062195,-0.02634 -2.459802,2.136619 -2.104314,3.256668 0.581824,1.833163 -0.666521,1.452708 -1.542636,-0.470143 -0.421677,-0.925487 -0.683904,-1.737627 -0.582727,-1.804754 0.101178,-0.06713 2.165325,-1.486384 4.586995,-3.153905 4.561178,-3.140749 5.585056,-3.303115 6.777619,-1.074788 0.790093,1.476298 0.503303,1.620192 -1.302726,0.653634 -0.861255,-0.46093 -1.631418,-0.451926 -2.531142,0.02959 -1.235924,0.661444 -1.145504,0.903676 2.040819,5.467298 2.572966,3.68514 3.598649,4.691206 4.493216,4.407281 1.840767,-0.584237 1.356467,0.178144 -1.229383,1.935274 -2.571654,1.747481 -3.952281,2.134101 -2.841517,0.795714 z M 213.91999,43.779594 c -2.552,-1.607096 -4.64,-3.177915 -4.64,-3.490708 0,-0.312793 0.4,-0.415224 0.88887,-0.227623 1.26123,0.483977 6.97301,-8.762603 6.37518,-10.320524 -0.49759,-1.29671 -0.79395,-1.430645 5.36983,2.426804 3.48449,2.180675 3.91017,2.655902 3.33749,3.725962 -0.80952,1.512603 -1.78026,1.602182 -1.66026,0.153208 0.0489,-0.590308 -0.89236,-1.744098 -2.09166,-2.56398 l -2.18055,-1.490694 -1.21394,1.996159 c -0.66766,1.097887 -1.12641,2.059177 -1.01945,2.1362 2.68964,1.936675 3.37099,2.186261 4.16635,1.526175 1.40562,-1.166567 1.58826,-0.204743 0.36812,1.938695 -1.27632,2.242154 -2.09998,2.582884 -2.09998,0.86872 0,-0.628106 -0.79932,-1.614182 -1.77627,-2.191278 -1.74638,-1.031617 -1.79483,-1.016917 -2.88,0.873876 -1.48476,2.587059 -1.41775,2.904154 0.86299,4.083569 1.30735,0.676059 2.64839,0.871109 4,0.581787 l 2.03328,-0.435239 -1.55156,1.674648 c -0.85336,0.921056 -1.57336,1.670505 -1.6,1.665442 -0.0266,-0.0051 -2.13644,-1.324102 -4.68844,-2.931199 z M 85.31642,39.569179 c -0.771968,-0.380753 -2.437082,-2.659044 -3.700256,-5.062869 -1.623488,-3.089507 -2.572135,-4.26489 -3.236423,-4.009978 -1.965811,0.754352 -0.834803,-0.869304 1.321972,-1.897797 2.423692,-1.155779 4.5043,-1.492844 2.882342,-0.466949 -0.792666,0.501366 -0.651251,1.187626 0.923827,4.48307 2.321722,4.857592 3.588429,6.0706 5.768089,5.52354 2.987597,-0.749838 3.266151,-2.857712 0.976928,-7.392632 -1.1728,-2.323311 -2.54295,-4.144929 -3.258361,-4.332014 -1.801427,-0.471084 -1.524474,-1.07822 1.052409,-2.307048 2.274132,-1.084458 2.284468,-1.082766 1.844973,0.301962 -0.301177,0.948933 0.221562,2.764118 1.640967,5.698183 1.441868,2.98048 1.959711,4.796651 1.68254,5.90097 -0.710937,2.83261 -5.238246,4.873915 -7.899007,3.561562 z m 117.81197,-1.796424 c -5.38697,-2.17658 -5.29759,-10.542014 0.1402,-13.122415 2.83369,-1.344674 4.18224,-1.221801 6.91051,0.629659 1.29676,0.88 2.63294,1.6 2.96932,1.6 0.81158,0 0.77161,0.868526 -0.13116,2.849886 -0.98266,2.156721 -1.81727,2.069142 -1.81727,-0.190694 0,-3.238943 -3.88526,-5.123653 -6.42937,-3.118838 -5.10127,4.019915 -3.78537,10.699646 2.10782,10.699646 1.48843,0 2.31922,0.25544 2.08155,0.64 -0.47441,0.767614 -3.94456,0.775205 -5.8316,0.01275 z M 100.37997,33.080526 c 0.51715,-0.623138 0.19029,-2.148753 -1.268364,-5.92 -1.080787,-2.79429 -2.054374,-5.175861 -2.163526,-5.29238 -0.561856,-0.599787 -2.868083,1.389853 -2.868083,2.474371 0,0.691615 -0.254413,1.257482 -0.565357,1.257482 -0.740858,0 -1.446509,-2.728738 -0.853683,-3.301166 0.417875,-0.403492 10.089323,-4.378834 10.653093,-4.378834 0.1324,0 0.54192,0.864 0.91005,1.92 0.73083,2.09646 0.42247,2.384693 -1.13371,1.059732 -0.55992,-0.476722 -1.62622,-0.690728 -2.39166,-0.48 -1.379105,0.379673 -1.378081,0.38819 0.65284,5.440271 1.31796,3.278542 2.48023,5.219948 3.30126,5.514304 1.09152,0.39133 0.92367,0.599247 -1.21099,1.499998 -3.0334,1.279987 -4.007463,1.345591 -3.06187,0.206222 z m 87.40575,-1.319723 c -3.0026,-1.353731 -4.74573,-3.966166 -4.74573,-7.112468 0,-3.077178 2.00597,-6.56798 4.49922,-7.829577 3.80944,-1.927599 8.9255,0.01661 10.60197,4.028969 2.74097,6.560057 -4.07607,13.744163 -10.35546,10.913076 z m 5.21746,-2.135423 c 2.74923,-2.749223 3.7321,-8.800828 1.71681,-10.570489 -2.12316,-1.864394 -3.7323,-1.917504 -5.78425,-0.190908 -3.42818,2.884628 -4.09382,9.407208 -1.15994,11.366216 1.26337,0.843575 4.10814,0.51443 5.22738,-0.604819 z M 108.8,30.079999 c 0,-0.352 0.3074,-0.64 0.68313,-0.64 0.37571,0 0.53657,-0.504 0.35745,-1.12 -2.56277,-8.81336 -3.16337,-10.346856 -4.13166,-10.54928 -0.60505,-0.126488 0.25034,-0.681205 1.97108,-1.278245 2.95671,-1.025882 3.75852,-0.827005 2.34892,0.582607 -0.98446,0.984452 2.11748,10.6915 3.50611,10.971845 1.74226,0.351741 1.13855,1.156434 -1.44929,1.931769 -3.01644,0.90375 -3.28574,0.912053 -3.28574,0.101304 z m 9.61921,-2.738759 c -0.86944,-0.439939 -2.26222,-1.803693 -3.09509,-3.030565 -2.09576,-3.087238 -1.62707,-6.650184 1.20804,-9.183575 1.79612,-1.604964 2.41523,-1.791868 4.9784,-1.502962 7.1116,0.801581 8.84906,10.893034 2.34348,13.611241 -2.68555,1.122094 -3.39903,1.135991 -5.43483,0.105861 z m 5.18989,-1.685012 c 1.20759,-0.978103 1.49876,-1.805257 1.45047,-4.120377 -0.0616,-2.949916 -1.51099,-5.959462 -3.17829,-6.59927 -2.87189,-1.102044 -6.02046,2.392355 -5.09648,5.656238 1.00145,3.53749 1.90484,5.158541 3.15698,5.664888 1.90307,0.769579 1.99272,0.754876 3.66732,-0.601479 z m 43.43089,0.762422 c -1.96695,-0.352868 -3.27693,-1.458651 -1.728,-1.458651 0.5984,0 1.088,-0.112185 1.088,-0.2493 0,-0.137116 0.44759,-2.608818 0.99465,-5.492672 0.76696,-4.043048 0.82228,-5.451079 0.24164,-6.150699 -0.92105,-1.109798 -0.64452,-1.112661 5.48371,-0.05676 4.18011,0.720234 4.49356,0.888966 4.68251,2.52067 0.22704,1.960527 -0.8408,2.408108 -1.32526,0.555487 -0.20277,-0.775353 -1.14841,-1.350181 -2.70005,-1.641269 -1.31339,-0.246395 -2.49377,-0.342219 -2.62304,-0.212942 -0.12928,0.129278 -0.31585,1.227848 -0.4146,2.441269 -0.1634,2.00766 -0.013,2.225233 1.671,2.417469 1.03795,0.118486 2.07654,-0.15441 2.3652,-0.621466 0.83896,-1.357466 1.21206,-0.330643 0.80078,2.203824 -0.36815,2.268663 -1.49654,3.357557 -1.49654,1.444162 0,-1.068894 -0.34893,-1.315104 -2.63689,-1.860621 -1.56945,-0.374203 -1.69987,-0.228537 -2.03546,2.273525 -0.27491,2.049557 -0.10763,2.864128 0.71689,3.490981 0.9842,0.748253 0.96684,0.811967 -0.20454,0.750834 -0.704,-0.03674 -2,-0.195969 -2.88,-0.353839 z m -36.8252,-1.681079 c 1.04507,-0.764176 1.1288,-1.438615 0.7349,-5.92 -0.28477,-3.239714 -0.77975,-5.312969 -1.37712,-5.768127 C 128.18449,11.991831 128.4348,11.52 130.38393,11.52 c 1.28921,0 2.83285,1.080806 5.92,4.144989 l 4.17607,4.144989 -0.21416,-3.344989 c -0.15742,-2.45872 -0.56703,-3.62125 -1.54595,-4.387663 -1.29536,-1.014141 -1.25754,-1.049755 1.38199,-1.301474 2.77526,-0.264663 4.05191,0.302596 2.24312,0.996692 -0.86696,0.332682 -0.94637,1.302636 -0.56875,6.947062 l 0.43889,6.560393 -5.27576,-5.12 c -2.90167,-2.816 -5.09208,-4.592445 -4.86758,-3.947656 0.22451,0.64479 0.4082,2.433571 0.4082,3.975069 0,2.059049 0.37165,3.148975 1.40067,4.107656 l 1.40068,1.304931 -3.123,0 c -2.7758,0 -2.99188,-0.09588 -1.94356,-0.862428 z m 25.6252,0.389836 c -1.9387,-0.442073 -4.61683,-3.251581 -5.01971,-5.265967 -0.94452,-4.722641 2.26567,-8.98144 6.77003,-8.98144 3.32069,0 6.88968,3.292826 6.88968,6.356556 0,5.381769 -3.9246,8.96608 -8.64,7.890851 z m 3.86246,-2.264377 c 3.38835,-2.914541 2.01456,-10.721708 -1.88165,-10.69323 -2.75196,0.02011 -4.22081,2.324465 -4.22081,6.621673 0,2.344298 0.31158,3.120711 1.68632,4.202075 2.11064,1.660235 2.34222,1.65339 4.41614,-0.130518 z"
     id="path4594"
     inkscape:connector-curvature="0" />
</svg>
