<?xml version="1.0" encoding="UTF-8" standalone="no"?>
<!-- Created with Inkscape (http://www.inkscape.org/) -->

<svg
   xmlns:dc="http://purl.org/dc/elements/1.1/"
   xmlns:cc="http://creativecommons.org/ns#"
   xmlns:rdf="http://www.w3.org/1999/02/22-rdf-syntax-ns#"
   xmlns:svg="http://www.w3.org/2000/svg"
   xmlns="http://www.w3.org/2000/svg"
   xmlns:sodipodi="http://sodipodi.sourceforge.net/DTD/sodipodi-0.dtd"
   xmlns:inkscape="http://www.inkscape.org/namespaces/inkscape"
   version="1.1"
   id="svg64"
   width="477.45035"
   height="193.91992"
   viewBox="0 0 477.45035 193.91993"
   sodipodi:docname="RBR-RGB-red.svg"
   inkscape:version="0.92.2 5c3e80d, 2017-08-06">
  <metadata
     id="metadata70">
    <rdf:RDF>
      <cc:Work
         rdf:about="">
        <dc:format>image/svg+xml</dc:format>
        <dc:type
           rdf:resource="http://purl.org/dc/dcmitype/StillImage" />
        <dc:title></dc:title>
      </cc:Work>
    </rdf:RDF>
  </metadata>
  <defs
     id="defs68" />
  <sodipodi:namedview
     pagecolor="#ffffff"
     bordercolor="#666666"
     borderopacity="1"
     objecttolerance="10"
     gridtolerance="10"
     guidetolerance="10"
     inkscape:pageopacity="0"
     inkscape:pageshadow="2"
     inkscape:window-width="1014"
     inkscape:window-height="903"
     id="namedview66"
     showgrid="false"
     fit-margin-top="0"
     fit-margin-left="0"
     fit-margin-right="0"
     fit-margin-bottom="0"
     inkscape:zoom="0.14142136"
     inkscape:cx="532.10126"
     inkscape:cy="36.455873"
     inkscape:window-x="0"
     inkscape:window-y="0"
     inkscape:window-maximized="0"
     inkscape:current-layer="svg64" />
  <path
     style="fill:#b9163f;stroke-width:0.32000002"
     d="M 0,97.28 V 0.64 l 31.600002,0.001 c 19.293424,6.7e-4 33.033171,0.13069 35.28,0.33387 23.891611,2.16046 39.659778,10.85248 47.284528,26.06504 3.10508,6.1951 4.87716,14.71247 4.87419,23.42739 -0.004,11.33759 -3.85744,20.57134 -11.99812,28.74935 -7.511337,7.54578 -17.778099,12.74617 -29.708671,15.04823 -2.31656,0.447 -4.556755,0.88421 -4.978211,0.97159 -1.191994,0.24713 -0.410894,0.65435 2.046284,1.06682 8.258995,1.38639 14.061117,5.17315 18.65791,12.17711 1.09718,1.67173 4.20974,7.43152 6.916791,12.79952 5.242067,10.39485 35.705297,72.24453 35.705297,72.49267 0,0.081 -5.292,0.14662 -11.76,0.14576 l -11.76,-0.002 -16.319997,-34.14206 c -9.523523,-19.92353 -17.319482,-35.81992 -18.72,-38.17106 -6.570292,-11.02999 -12.519681,-15.9014 -21.681028,-17.75261 -1.452566,-0.29351 -5.484567,-0.70409 -8.96,-0.91238 l -6.318973,-0.37872 v -8.16001 -8.16 l 6.24,-0.20406 C 74.421174,85.1195 92.311648,75.39639 96.661203,58.71991 c 0.87014,-3.33619 1.15829,-9.60405 0.63327,-13.77513 -0.9837,-7.81518 -3.38351,-13.11547 -7.905613,-17.46059 -5.356176,-5.14655 -12.464611,-7.85731 -24.748858,-9.43785 -5.605917,-0.72127 -42.81421,-1.06476 -43.236011,-0.39912 -0.150804,0.23798 -0.276394,39.99669 -0.279089,88.3527 l -0.0049,87.92 H 10.56 0 Z m 169.6,0 V 0.64 l 29.84,0.003 c 17.32824,0.002 31.4501,0.13892 33.68,0.32675 13.15286,1.10791 23.32816,3.59302 32.00001,7.81536 5.09377,2.48016 9.03914,5.23132 12.64079,8.81459 5.44894,5.42113 8.78541,11.78521 10.62149,20.25971 0.6074,2.80346 0.70842,4.26914 0.721,10.46029 0.0127,6.26447 -0.0802,7.6683 -0.71478,10.80411 -3.50513,17.31948 -14.36484,27.59627 -34.0685,32.23979 -2.068,0.48736 -3.76,1.00711 -3.76,1.15501 0,0.29025 0.22279,0.35383 3.82168,1.09064 8.22104,1.68309 16.01785,4.89532 22.73288,9.36578 3.40584,2.2674 9.31841,8.09211 11.43718,11.26722 3.46031,5.18551 5.73004,10.96505 6.69243,17.0413 0.72678,4.58876 0.45474,14.76065 -0.51553,19.27616 -5.19495,24.17649 -25.40155,38.24593 -60.64865,42.22842 -8.07162,0.91199 -15.84071,1.13158 -40.03549,1.13158 H 169.6 Z m 53.28,79.66938 c 29.3083,-1.95836 46.07218,-11.38774 50.41187,-28.35578 1.98028,-7.74278 1.13379,-17.99813 -2.05531,-24.90052 -5.39347,-11.67345 -17.6169,-18.42835 -37.63656,-20.79869 -5.471,-0.64777 -13.37922,-1.13438 -18.43535,-1.13438 -3.17744,0 -4.29555,-0.10757 -4.57124,-0.43976 -0.25667,-0.30927 -0.33951,-2.75431 -0.27918,-8.24 l 0.0858,-7.80025 2.72,-0.0735 c 5.5825,-0.15094 14.6578,-0.7637 17.75637,-1.1989 22.13106,-3.10837 34.4197,-13.00867 36.65456,-29.53059 0.53684,-3.96878 0.24411,-10.32664 -0.62972,-13.67697 -3.22518,-12.36554 -13.50975,-19.74905 -31.53405,-22.63896 -3.81737,-0.61206 -5.81624,-0.67908 -23.81348,-0.79853 -16.06839,-0.10665 -19.69526,-0.0532 -19.91509,0.29355 -0.40707,0.64205 -0.35486,158.24351 0.0527,159.00499 0.31925,0.59651 0.80369,0.61878 13.36,0.61401 7.16581,-0.003 15.18874,-0.14928 17.82874,-0.32568 z m 118.77764,16.1216 c -0.11971,-0.1197 -0.21763,-43.60964 -0.21763,-96.64431 V 0 l 31.92,2.6e-4 c 18.68608,1.6e-4 33.37939,0.13276 35.44,0.31984 26.18006,2.37684 42.91536,13.00554 48.93731,31.08048 1.87808,5.63711 2.44349,9.0199 2.64675,15.83547 0.12096,4.05605 0.0517,7.00986 -0.2056,8.7697 -2.20086,15.05179 -13.17923,27.6811 -29.7718,34.24892 -3.47636,1.37604 -11.65569,3.59157 -14.72666,3.98899 -2.20989,0.286 -3.04938,0.68065 -1.91549,0.90048 8.03939,1.55866 12.31043,3.40689 16.14208,6.98524 4.82746,4.50831 5.48243,5.72229 30.09952,55.79063 8.04765,16.368 15.26483,31.02175 16.03815,32.5639 l 1.40608,2.8039 -11.88836,-0.0839 -11.88832,-0.0839 -16.23302,-33.92 c -8.92816,-18.656 -17.02595,-35.30931 -17.99511,-37.00735 -4.85286,-8.5027 -9.48579,-13.58189 -14.96553,-16.40712 -4.68701,-2.41653 -8.72768,-3.25304 -17.36,-3.59393 l -5.36,-0.21166 v -8.2194 -8.21939 l 6.16,-0.20019 c 27.64534,-0.89841 45.74618,-10.5849 50.16045,-26.84291 2.02816,-7.46976 1.05216,-18.41433 -2.23306,-25.04128 -4.59885,-9.27673 -13.26166,-14.02305 -29.24659,-16.02405 -6.90903,-0.86487 -42.20592,-1.55687 -43.32023,-0.8493 -0.31734,0.2015 -0.416,18.36896 -0.48,88.39511 l -0.0806,88.14147 -10.42237,0.0843 c -5.73229,0.0464 -10.52029,-0.0136 -10.64,-0.13333 z"
     id="path74"
     inkscape:connector-curvature="0" />
</svg>
