<?xml version="1.0" encoding="UTF-8" standalone="no"?>
<svg
   xmlns:dc="http://purl.org/dc/elements/1.1/"
   xmlns:cc="http://creativecommons.org/ns#"
   xmlns:rdf="http://www.w3.org/1999/02/22-rdf-syntax-ns#"
   xmlns:svg="http://www.w3.org/2000/svg"
   xmlns="http://www.w3.org/2000/svg"
   xmlns:sodipodi="http://sodipodi.sourceforge.net/DTD/sodipodi-0.dtd"
   xmlns:inkscape="http://www.inkscape.org/namespaces/inkscape"
   version="1.1"
   id="svg10"
   width="2515.2063"
   height="535.85852"
   viewBox="0 0 2515.2064 535.85852"
   sodipodi:docname="noaa_logo_pos.svg"
   inkscape:version="1.0.1 (c497b03c, 2020-09-10)">
  <metadata
     id="metadata16">
    <rdf:RDF>
      <cc:Work
         rdf:about="">
        <dc:format>image/svg+xml</dc:format>
        <dc:type
           rdf:resource="http://purl.org/dc/dcmitype/StillImage" />
        <dc:title></dc:title>
      </cc:Work>
    </rdf:RDF>
  </metadata>
  <defs
     id="defs14">
    <clipPath
       id="clipPath4668"
       clipPathUnits="userSpaceOnUse">
      <path
         id="path4670"
         d="M 0,792 H 612 V 0 H 0 Z" />
    </clipPath>
    <clipPath
       id="clipPath4692"
       clipPathUnits="userSpaceOnUse">
      <path
         id="path4694"
         d="M 0,792 H 612 V 0 H 0 Z" />
    </clipPath>
    <clipPath
       id="clipPath4716"
       clipPathUnits="userSpaceOnUse">
      <path
         id="path4718"
         d="M 0,792 H 612 V 0 H 0 Z" />
    </clipPath>
    <clipPath
       id="clipPath4740"
       clipPathUnits="userSpaceOnUse">
      <path
         id="path4742"
         d="M 0,792 H 612 V 0 H 0 Z" />
    </clipPath>
    <clipPath
       id="clipPath4764"
       clipPathUnits="userSpaceOnUse">
      <path
         id="path4766"
         d="M 0,792 H 612 V 0 H 0 Z" />
    </clipPath>
    <clipPath
       id="clipPath4788"
       clipPathUnits="userSpaceOnUse">
      <path
         id="path4790"
         d="M 0,792 H 612 V 0 H 0 Z" />
    </clipPath>
    <clipPath
       id="clipPath4828"
       clipPathUnits="userSpaceOnUse">
      <path
         id="path4830"
         d="M 0,792 H 612 V 0 H 0 Z" />
    </clipPath>
    <clipPath
       id="clipPath4852"
       clipPathUnits="userSpaceOnUse">
      <path
         id="path4854"
         d="M 0,792 H 612 V 0 H 0 Z" />
    </clipPath>
    <clipPath
       id="clipPath4868"
       clipPathUnits="userSpaceOnUse">
      <path
         id="path4870"
         d="M 0,792 H 612 V 0 H 0 Z" />
    </clipPath>
    <clipPath
       id="clipPath4884"
       clipPathUnits="userSpaceOnUse">
      <path
         id="path4886"
         d="M 0,792 H 612 V 0 H 0 Z" />
    </clipPath>
    <clipPath
       id="clipPath4900"
       clipPathUnits="userSpaceOnUse">
      <path
         id="path4902"
         d="M 0,792 H 612 V 0 H 0 Z" />
    </clipPath>
    <clipPath
       id="clipPath4924"
       clipPathUnits="userSpaceOnUse">
      <path
         id="path4926"
         d="M 0,792 H 612 V 0 H 0 Z" />
    </clipPath>
    <clipPath
       id="clipPath4940"
       clipPathUnits="userSpaceOnUse">
      <path
         id="path4942"
         d="M 0,792 H 612 V 0 H 0 Z" />
    </clipPath>
    <clipPath
       id="clipPath4996"
       clipPathUnits="userSpaceOnUse">
      <path
         id="path4998"
         d="M 0,792 H 612 V 0 H 0 Z" />
    </clipPath>
    <clipPath
       id="clipPath5036"
       clipPathUnits="userSpaceOnUse">
      <path
         id="path5038"
         d="M 0,792 H 612 V 0 H 0 Z" />
    </clipPath>
    <clipPath
       id="clipPath5052"
       clipPathUnits="userSpaceOnUse">
      <path
         id="path5054"
         d="M 0,792 H 612 V 0 H 0 Z" />
    </clipPath>
    <clipPath
       id="clipPath5100"
       clipPathUnits="userSpaceOnUse">
      <path
         id="path5102"
         d="M 0,792 H 612 V 0 H 0 Z" />
    </clipPath>
    <clipPath
       id="clipPath5132"
       clipPathUnits="userSpaceOnUse">
      <path
         id="path5134"
         d="M 0,792 H 612 V 0 H 0 Z" />
    </clipPath>
    <clipPath
       id="clipPath5164"
       clipPathUnits="userSpaceOnUse">
      <path
         id="path5166"
         d="M 0,792 H 612 V 0 H 0 Z" />
    </clipPath>
    <clipPath
       id="clipPath5180"
       clipPathUnits="userSpaceOnUse">
      <path
         id="path5182"
         d="M 0,792 H 612 V 0 H 0 Z" />
    </clipPath>
    <clipPath
       id="clipPath5196"
       clipPathUnits="userSpaceOnUse">
      <path
         id="path5198"
         d="M 0,792 H 612 V 0 H 0 Z" />
    </clipPath>
    <clipPath
       id="clipPath5212"
       clipPathUnits="userSpaceOnUse">
      <path
         id="path5214"
         d="M 0,792 H 612 V 0 H 0 Z" />
    </clipPath>
    <clipPath
       id="clipPath5244"
       clipPathUnits="userSpaceOnUse">
      <path
         id="path5246"
         d="M 0,792 H 612 V 0 H 0 Z" />
    </clipPath>
    <clipPath
       id="clipPath5268"
       clipPathUnits="userSpaceOnUse">
      <path
         id="path5270"
         d="M 0,792 H 612 V 0 H 0 Z" />
    </clipPath>
    <clipPath
       id="clipPath5292"
       clipPathUnits="userSpaceOnUse">
      <path
         id="path5294"
         d="M 0,792 H 612 V 0 H 0 Z" />
    </clipPath>
    <clipPath
       id="clipPath5308"
       clipPathUnits="userSpaceOnUse">
      <path
         id="path5310"
         d="M 0,792 H 612 V 0 H 0 Z" />
    </clipPath>
    <clipPath
       id="clipPath5348"
       clipPathUnits="userSpaceOnUse">
      <path
         id="path5350"
         d="M 0,792 H 612 V 0 H 0 Z" />
    </clipPath>
    <clipPath
       id="clipPath5372"
       clipPathUnits="userSpaceOnUse">
      <path
         id="path5374"
         d="M 0,792 H 612 V 0 H 0 Z" />
    </clipPath>
    <clipPath
       id="clipPath5412"
       clipPathUnits="userSpaceOnUse">
      <path
         id="path5414"
         d="M 0,792 H 612 V 0 H 0 Z" />
    </clipPath>
    <clipPath
       id="clipPath5432"
       clipPathUnits="userSpaceOnUse">
      <path
         id="path5434"
         d="M 0,792 H 612 V 0 H 0 Z" />
    </clipPath>
    <clipPath
       id="clipPath5432-4"
       clipPathUnits="userSpaceOnUse">
      <path
         id="path5434-8"
         d="M 0,792 H 612 V 0 H 0 Z" />
    </clipPath>
  </defs>
  <sodipodi:namedview
     pagecolor="#ffffff"
     bordercolor="#666666"
     borderopacity="1"
     objecttolerance="10"
     gridtolerance="10"
     guidetolerance="10"
     inkscape:pageopacity="0"
     inkscape:pageshadow="2"
     inkscape:window-width="1835"
     inkscape:window-height="991"
     id="namedview12"
     showgrid="false"
     inkscape:zoom="0.4"
     inkscape:cx="1136.9468"
     inkscape:cy="577.50541"
     inkscape:window-x="55"
     inkscape:window-y="113"
     inkscape:window-maximized="0"
     inkscape:current-layer="g4658"
     inkscape:document-rotation="0" />
  <g
     inkscape:groupmode="layer"
     inkscape:label="Image"
     id="g18"
     transform="translate(352.34981,570.65989)"
     style="display:inline">
    <g
       id="g4658"
       transform="matrix(1.3332893,0,0,-1.3332893,-509.05385,513.86037)">
      <g
         id="g5428"
         transform="translate(11.365102,216.54989)">
        <g
           id="g5430"
           clip-path="url(#clipPath5432-4)">
          <g
             id="g5436"
             transform="translate(486.5,484.75)">
            <path
               id="path5438"
               d="M 0,0 C 0.11,0.045 24.75,-48.75 20.378,-100.62 18,-187.75 -59,-286.58 -173.752,-289.79 l -16,0.333 c -118.25,5.877 -190.92,106.21 -190.58,196.88 0.291,16.855 0.224,35.697 7.333,59.001 l 7.25,-2.167 c 30.305,-11.454 63,-100 169.29,-105.04 4.615,-0.219 13.478,-0.423 13.458,-0.46 -6.88,-6.864 -46,-23 -63.75,-27.25 4.642,1.111 -0.363,0.114 0,0 42.75,-26.5 85.5,24.5 141,32 l 17,1 c -3.25,10.25 -17.882,9.385 -19.25,9.25 -38.399,-3.78 -28.807,0.624 -30,0.25 59,18.5 93,65.75 135.46,123.21 l 2.54,2.79 z"
               fill="#007ec5" />
          </g>
          <g
             id="g5440"
             transform="translate(307.3,596.86)">
            <path
               id="path5442"
               d="M 0,0 C -0.498,0.008 -0.738,0.011 0,0"
               fill="#263f78" />
          </g>
          <g
             id="g5444"
             transform="translate(308.83,596.83)">
            <path
               id="path5446"
               d="M 0,0 C 0,0 -0.485,0.007 -0.979,0.015 -0.711,0.011 -0.402,0.006 0,0"
               fill="#263f78" />
          </g>
          <g
             id="g5448"
             transform="translate(307.85,596.85)">
            <path
               id="path5450"
               d="M 0,0 C -0.224,0.003 -0.409,0.006 -0.553,0.009 -0.385,0.006 -0.194,0.003 0,0"
               fill="#263f78" />
          </g>
          <g
             id="g5452"
             transform="translate(371.89,507.29)">
            <path
               id="path5454"
               d="m 0,0 0.041,-9.667 c 0,-2.166 -3.75,-1.583 -5.25,-1.583 -1.75,0 -5.416,-0.583 -5.416,1.5 l -0.084,6.417 c 0,0 -0.07,4.261 0.209,4.708 0.625,1 3.12,1.25 4.75,1.25 2,0 2.849,0.051 4.5,-0.5 C -0.5,1.875 0,0 0,0 m -86.511,-13.789 c 0,0 0.322,-15.468 -0.208,-16.333 -0.792,-1.292 -1.625,-2.225 -5.417,-2.167 -2.708,0.042 -4.226,1.142 -4.75,1.875 -0.625,0.875 -0.5,14.5 -0.5,14.5 0,0 -0.058,16.362 0,16.792 0.125,0.917 0.75,1.583 5,1.583 2.875,0 5.369,0.154 5.667,-1.333 0.208,-1.042 0.208,-14.917 0.208,-14.917 m 43.25,13.75 0.041,-9.666 c 0,-2.167 -3.75,-1.584 -5.25,-1.584 -1.75,0 -5.416,-0.583 -5.416,1.5 l -0.084,6.417 c 0,0 -0.07,4.262 0.209,4.708 0.625,1 3.12,1.25 4.75,1.25 2,0 2.848,0.051 4.5,-0.5 0.75,-0.25 1.25,-2.125 1.25,-2.125 m 43.281,-41.19 -0.076,18.104 c 0,0 0.181,1.5 -0.944,2.375 -1.272,0.99 -4.249,0.926 -4.249,0.926 0,0 -4.317,-0.337 -4.876,-1.176 -0.5,-0.75 -0.625,-1.75 -0.625,-1.75 l 0.083,-18.542 -11.562,0.021 0.02,42.771 c 0.061,5.067 6.69,9.471 8.75,9.583 l 9,0.167 6.212,-0.048 C 8.272,11.464 10.858,5.001 11.375,2.5 l 0.083,-43.667 z m -43.261,-0.038 -0.075,18.103 c 0,0 0.18,1.5 -0.945,2.375 -1.272,0.99 -4.248,0.926 -4.248,0.926 0,0 -4.317,-0.336 -4.877,-1.176 -0.5,-0.75 -0.625,-1.75 -0.625,-1.75 l 0.084,-18.541 -11.563,0.02 0.021,42.771 c 0.06,5.067 6.69,9.471 8.749,9.584 l 9,0.166 6.211,-0.047 c 6.521,0.262 9.107,-6.202 9.623,-8.703 l 0.084,-43.666 z m -31.811,9.789 c -0.101,-2.836 -2.375,-9.915 -9.334,-9.894 l -13.416,0.062 c -9.959,0.021 -10.709,8.646 -10.896,12.771 v 28.08 c -0.021,7.481 1.479,11.92 15.396,12.004 h 2.166 c 12.917,0 15.917,-4 16.084,-11.25 z m -43,-9.894 -5.73,-0.021 -5.687,0.021 -0.021,21.573 c 0,0 0.44,20.056 -0.271,21.135 -1.041,1.584 -3.791,1.209 -5.125,1.209 -2.456,0 -5,0.416 -5.5,-1.334 -0.565,-1.979 -0.416,-19.416 -0.416,-19.416 l -0.084,-23.167 h -5.666 l -5.584,0.083 v 27.417 25.333 l 24.917,0.084 c 3.167,-0.25 5.35,-2.387 6.994,-4.352 1.589,-1.898 2.221,-4.062 2.173,-4.065 l -0.084,-21.917 z m 146.91,107.08 c -4.123,2.193 -38.75,23 -91.916,23.834 -115.25,-0.415 -166,-85 -166,-85 25.5,-12.5 51.96,-50.144 52.333,-50.667 28.537,-40.04 68.307,-102.1 119.84,-103.29 16.498,-0.38 27.472,9.49 39.998,21.62 45.744,44.303 52.149,126.21 110.75,137.75 0,0 -21.75,32.75 -65,55.75"
               fill="#263f78" />
          </g>
        </g>
      </g>
      <g
         aria-label="National Oceanic and
"
         transform="scale(1,-1)"
         id="text307"
         style="font-style:normal;font-weight:normal;font-size:100.00300000000000011px;line-height:1.15;font-family:sans-serif;letter-spacing:7.50025000000000031px;fill:#084895;fill-opacity:1;stroke:none;stroke-width:0.750025">
        <path
           d="m 682.25938,-688.966 h 11.30034 v -66.702 h -11.70035 v 47.30141 L 647.75835,-755.668 h -12.00036 v 66.702 h 11.70035 v -48.60146 z"
           style="font-style:normal;font-variant:normal;font-weight:600;font-stretch:normal;font-size:100.00300000000000011px;font-family:'Proxima Nova';-inkscape-font-specification:'Proxima Nova, Semi-Bold';font-variant-ligatures:normal;font-variant-caps:normal;font-variant-numeric:normal;font-variant-east-asian:normal;letter-spacing:5.25016999999999978px;fill:#084895;fill-opacity:1;stroke-width:0.750025"
           id="path1142" />
        <path
           d="m 742.2815,-688.966 h 10.50032 v -32.00096 c 0,-13.00039 -9.40028,-17.50053 -20.1006,-17.50053 -7.70023,0 -14.70044,2.50008 -20.30061,7.80024 l 4.30013,7.30022 c 4.20012,-4.10013 8.90026,-6.10019 14.30042,-6.10019 6.70021,0 11.30034,3.4001 11.30034,9.00027 v 7.20022 c -3.5001,-4.10012 -9.10027,-6.20019 -15.60046,-6.20019 -7.90024,0 -16.80051,4.60014 -16.80051,15.70047 0,10.70032 8.90027,16.00048 16.80051,16.00048 6.40019,0 12.00036,-2.30007 15.60046,-6.40019 z m 0,-11.00033 c -2.40007,3.3001 -6.9002,5.00015 -11.50034,5.00015 -5.90018,0 -10.30031,-3.40011 -10.30031,-8.60026 0,-5.30016 4.40013,-8.70026 10.30031,-8.70026 4.60014,0 9.10027,1.70005 11.50034,5.00015 z"
           style="font-style:normal;font-variant:normal;font-weight:600;font-stretch:normal;font-size:100.00300000000000011px;font-family:'Proxima Nova';-inkscape-font-specification:'Proxima Nova, Semi-Bold';font-variant-ligatures:normal;font-variant-caps:normal;font-variant-numeric:normal;font-variant-east-asian:normal;letter-spacing:5.25016999999999978px;fill:#084895;fill-opacity:1;stroke-width:0.750025"
           id="path1144" />
        <path
           d="m 786.04846,-687.76597 c 4.90014,0 8.00024,-1.30004 9.90029,-3.10009 l -2.50007,-7.90024 c -0.80003,0.90003 -2.70008,1.70005 -4.70014,1.70005 -3.00009,0 -4.60014,-2.40007 -4.60014,-5.70017 v -25.30076 h 9.80029 v -9.20027 h -9.80029 v -13.2004 h -10.50032 v 13.2004 h -8.00024 v 9.20027 h 8.00024 v 27.90084 c 0,8.00024 4.30013,12.40037 12.40038,12.40037 z"
           style="font-style:normal;font-variant:normal;font-weight:600;font-stretch:normal;font-size:100.00300000000000011px;font-family:'Proxima Nova';-inkscape-font-specification:'Proxima Nova, Semi-Bold';font-variant-ligatures:normal;font-variant-caps:normal;font-variant-numeric:normal;font-variant-east-asian:normal;letter-spacing:5.25016999999999978px;fill:#084895;fill-opacity:1;stroke-width:0.750025"
           id="path1146" />
        <path
           d="m 813.83524,-745.26769 c 3.60011,0 6.5002,-2.90009 6.5002,-6.5002 0,-3.6001 -2.90009,-6.50019 -6.5002,-6.50019 -3.5001,0 -6.50019,2.90009 -6.50019,6.50019 0,3.60011 3.00009,6.5002 6.50019,6.5002 z m -5.20015,56.30169 h 10.50031 v -48.30145 h -10.50031 z"
           style="font-style:normal;font-variant:normal;font-weight:600;font-stretch:normal;font-size:100.00300000000000011px;font-family:'Proxima Nova';-inkscape-font-specification:'Proxima Nova, Semi-Bold';font-variant-ligatures:normal;font-variant-caps:normal;font-variant-numeric:normal;font-variant-east-asian:normal;letter-spacing:5.25016999999999978px;fill:#084895;fill-opacity:1;stroke-width:0.750025"
           id="path1148" />
        <path
           d="m 859.71006,-687.76597 c 15.50047,0 24.90075,-11.50034 24.90075,-25.40076 0,-13.80041 -9.40028,-25.30076 -24.90075,-25.30076 -15.30045,0 -24.80074,11.50035 -24.80074,25.30076 0,13.90042 9.50029,25.40076 24.80074,25.40076 z m 0,-9.30028 c -8.90026,0 -13.90041,-7.50022 -13.90041,-16.10048 0,-8.50025 5.00015,-16.00048 13.90041,-16.00048 9.00027,0 14.00042,7.50023 14.00042,16.00048 0,8.60026 -5.00015,16.10048 -14.00042,16.10048 z"
           style="font-style:normal;font-variant:normal;font-weight:600;font-stretch:normal;font-size:100.00300000000000011px;font-family:'Proxima Nova';-inkscape-font-specification:'Proxima Nova, Semi-Bold';font-variant-ligatures:normal;font-variant-caps:normal;font-variant-numeric:normal;font-variant-east-asian:normal;letter-spacing:5.25016999999999978px;fill:#084895;fill-opacity:1;stroke-width:0.750025"
           id="path1150" />
        <path
           d="m 932.98883,-688.966 h 10.50031 v -34.00102 c 0,-9.9003 -5.20015,-15.50047 -15.60047,-15.50047 -7.60022,0 -13.80041,4.00012 -17.0005,7.80024 v -6.6002 h -10.50032 v 48.30145 h 10.50032 v -33.70101 c 2.40007,-3.3001 7.00021,-6.5002 12.40037,-6.5002 5.90017,0 9.70029,2.50008 9.70029,10.0003 z"
           style="font-style:normal;font-variant:normal;font-weight:600;font-stretch:normal;font-size:100.00300000000000011px;font-family:'Proxima Nova';-inkscape-font-specification:'Proxima Nova, Semi-Bold';font-variant-ligatures:normal;font-variant-caps:normal;font-variant-numeric:normal;font-variant-east-asian:normal;letter-spacing:5.25016999999999978px;fill:#084895;fill-opacity:1;stroke-width:0.750025"
           id="path1152" />
        <path
           d="m 991.78125,-688.966 h 10.50035 v -32.00096 c 0,-13.00039 -9.40032,-17.50053 -20.10064,-17.50053 -7.70023,0 -14.70044,2.50008 -20.3006,7.80024 l 4.30012,7.30022 c 4.20013,-4.10013 8.90027,-6.10019 14.30043,-6.10019 6.7002,0 11.30034,3.4001 11.30034,9.00027 v 7.20022 c -3.5001,-4.10012 -9.10027,-6.20019 -15.60047,-6.20019 -7.90023,0 -16.8005,4.60014 -16.8005,15.70047 0,10.70032 8.90027,16.00048 16.8005,16.00048 6.4002,0 12.00036,-2.30007 15.60047,-6.40019 z m 0,-11.00033 c -2.40007,3.3001 -6.9002,5.00015 -11.50034,5.00015 -5.90018,0 -10.30031,-3.40011 -10.30031,-8.60026 0,-5.30016 4.40013,-8.70026 10.30031,-8.70026 4.60014,0 9.10027,1.70005 11.50034,5.00015 z"
           style="font-style:normal;font-variant:normal;font-weight:600;font-stretch:normal;font-size:100.00300000000000011px;font-family:'Proxima Nova';-inkscape-font-specification:'Proxima Nova, Semi-Bold';font-variant-ligatures:normal;font-variant-caps:normal;font-variant-numeric:normal;font-variant-east-asian:normal;letter-spacing:5.25016999999999978px;fill:#084895;fill-opacity:1;stroke-width:0.750025"
           id="path1154" />
        <path
           d="m 1021.0478,-688.966 h 10.5003 v -66.702 h -10.5003 z"
           style="font-style:normal;font-variant:normal;font-weight:600;font-stretch:normal;font-size:100.00300000000000011px;font-family:'Proxima Nova';-inkscape-font-specification:'Proxima Nova, Semi-Bold';font-variant-ligatures:normal;font-variant-caps:normal;font-variant-numeric:normal;font-variant-east-asian:normal;letter-spacing:5.25016999999999978px;fill:#084895;fill-opacity:1;stroke-width:0.750025"
           id="path1156" />
        <path
           d="m 1078.6542,-722.267 c 0,19.90059 14.1004,34.50103 34.101,34.50103 20.0006,0 34.101,-14.60044 34.101,-34.50103 0,-19.9006 -14.1004,-34.50104 -34.101,-34.50104 -20.0006,0 -34.101,14.60044 -34.101,34.50104 z m 56.2017,0 c 0,13.70041 -8.7003,24.10072 -22.1007,24.10072 -13.5004,0 -22.1006,-10.40031 -22.1006,-24.10072 0,-13.80042 8.6002,-24.10072 22.1006,-24.10072 13.4004,0 22.1007,10.3003 22.1007,24.10072 z"
           style="font-style:normal;font-variant:normal;font-weight:600;font-stretch:normal;font-size:100.00300000000000011px;font-family:'Proxima Nova';-inkscape-font-specification:'Proxima Nova, Semi-Bold';font-variant-ligatures:normal;font-variant-caps:normal;font-variant-numeric:normal;font-variant-east-asian:normal;letter-spacing:5.25016999999999978px;fill:#084895;fill-opacity:1;stroke-width:0.750025"
           id="path1158" />
        <path
           d="m 1160.1691,-713.16673 c 0,14.70044 10.3003,25.40076 25.0008,25.40076 9.4003,0 15.1004,-4.00012 18.5005,-8.60026 l -6.9002,-6.40019 c -2.7001,3.70011 -6.4002,5.70017 -11.1003,5.70017 -8.8003,0 -14.6004,-6.7002 -14.6004,-16.10048 0,-9.40028 5.8001,-16.00048 14.6004,-16.00048 4.7001,0 8.4002,1.90006 11.1003,5.70017 l 6.9002,-6.40019 c -3.4001,-4.60014 -9.1002,-8.60026 -18.5005,-8.60026 -14.7005,0 -25.0008,10.70032 -25.0008,25.30076 z"
           style="font-style:normal;font-variant:normal;font-weight:600;font-stretch:normal;font-size:100.00300000000000011px;font-family:'Proxima Nova';-inkscape-font-specification:'Proxima Nova, Semi-Bold';font-variant-ligatures:normal;font-variant-caps:normal;font-variant-numeric:normal;font-variant-east-asian:normal;letter-spacing:5.25016999999999978px;fill:#084895;fill-opacity:1;stroke-width:0.750025"
           id="path1160" />
        <path
           d="m 1215.0302,-713.16673 c 0,15.30046 10.8003,25.40076 25.3008,25.40076 7.7002,0 14.8004,-2.40007 19.6006,-7.00021 l -4.8002,-6.9002 c -3.4001,3.4001 -9.0003,5.30015 -13.7004,5.30015 -9.1003,0 -14.6004,-6.00018 -15.4005,-13.30039 h 37.3012 v -2.50008 c 0,-15.20045 -9.3003,-26.30079 -23.8007,-26.30079 -14.3005,0 -24.5008,11.30034 -24.5008,25.30076 z m 24.5008,-16.7005 c 9.5002,0 13.4004,7.10021 13.6004,12.80038 h -27.2009 c 0.5001,-5.90017 4.6002,-12.80038 13.6005,-12.80038 z"
           style="font-style:normal;font-variant:normal;font-weight:600;font-stretch:normal;font-size:100.00300000000000011px;font-family:'Proxima Nova';-inkscape-font-specification:'Proxima Nova, Semi-Bold';font-variant-ligatures:normal;font-variant-caps:normal;font-variant-numeric:normal;font-variant-east-asian:normal;letter-spacing:5.25016999999999978px;fill:#084895;fill-opacity:1;stroke-width:0.750025"
           id="path1162" />
        <path
           d="m 1308.4471,-688.966 h 10.5003 v -32.00096 c 0,-13.00039 -9.4003,-17.50053 -20.1006,-17.50053 -7.7002,0 -14.7004,2.50008 -20.3006,7.80024 l 4.3001,7.30022 c 4.2001,-4.10013 8.9003,-6.10019 14.3004,-6.10019 6.7002,0 11.3004,3.4001 11.3004,9.00027 v 7.20022 c -3.5001,-4.10012 -9.1003,-6.20019 -15.6005,-6.20019 -7.9002,0 -16.8005,4.60014 -16.8005,15.70047 0,10.70032 8.9003,16.00048 16.8005,16.00048 6.4002,0 12.0004,-2.30007 15.6005,-6.40019 z m 0,-11.00033 c -2.4001,3.3001 -6.9002,5.00015 -11.5004,5.00015 -5.9001,0 -10.3003,-3.40011 -10.3003,-8.60026 0,-5.30016 4.4002,-8.70026 10.3003,-8.70026 4.6002,0 9.1003,1.70005 11.5004,5.00015 z"
           style="font-style:normal;font-variant:normal;font-weight:600;font-stretch:normal;font-size:100.00300000000000011px;font-family:'Proxima Nova';-inkscape-font-specification:'Proxima Nova, Semi-Bold';font-variant-ligatures:normal;font-variant-caps:normal;font-variant-numeric:normal;font-variant-east-asian:normal;letter-spacing:5.25016999999999978px;fill:#084895;fill-opacity:1;stroke-width:0.750025"
           id="path1164" />
        <path
           d="m 1370.3146,-688.966 h 10.5003 v -34.00102 c 0,-9.9003 -5.2002,-15.50047 -15.6005,-15.50047 -7.6002,0 -13.8004,4.00012 -17.0005,7.80024 v -6.6002 h -10.5003 v 48.30145 h 10.5003 v -33.70101 c 2.4001,-3.3001 7.0002,-6.5002 12.4004,-6.5002 5.9002,0 9.7003,2.50008 9.7003,10.0003 z"
           style="font-style:normal;font-variant:normal;font-weight:600;font-stretch:normal;font-size:100.00300000000000011px;font-family:'Proxima Nova';-inkscape-font-specification:'Proxima Nova, Semi-Bold';font-variant-ligatures:normal;font-variant-caps:normal;font-variant-numeric:normal;font-variant-east-asian:normal;letter-spacing:5.25016999999999978px;fill:#084895;fill-opacity:1;stroke-width:0.750025"
           id="path1166" />
        <path
           d="m 1404.8062,-745.26769 c 3.6001,0 6.5002,-2.90009 6.5002,-6.5002 0,-3.6001 -2.9001,-6.50019 -6.5002,-6.50019 -3.5001,0 -6.5002,2.90009 -6.5002,6.50019 0,3.60011 3.0001,6.5002 6.5002,6.5002 z m -5.2001,56.30169 h 10.5003 v -48.30145 h -10.5003 z"
           style="font-style:normal;font-variant:normal;font-weight:600;font-stretch:normal;font-size:100.00300000000000011px;font-family:'Proxima Nova';-inkscape-font-specification:'Proxima Nova, Semi-Bold';font-variant-ligatures:normal;font-variant-caps:normal;font-variant-numeric:normal;font-variant-east-asian:normal;letter-spacing:5.25016999999999978px;fill:#084895;fill-opacity:1;stroke-width:0.750025"
           id="path1168" />
        <path
           d="m 1425.8803,-713.16673 c 0,14.70044 10.3003,25.40076 25.0008,25.40076 9.4002,0 15.1004,-4.00012 18.5005,-8.60026 l -6.9002,-6.40019 c -2.7001,3.70011 -6.4002,5.70017 -11.1003,5.70017 -8.8003,0 -14.6005,-6.7002 -14.6005,-16.10048 0,-9.40028 5.8002,-16.00048 14.6005,-16.00048 4.7001,0 8.4002,1.90006 11.1003,5.70017 l 6.9002,-6.40019 c -3.4001,-4.60014 -9.1003,-8.60026 -18.5005,-8.60026 -14.7005,0 -25.0008,10.70032 -25.0008,25.30076 z"
           style="font-style:normal;font-variant:normal;font-weight:600;font-stretch:normal;font-size:100.00300000000000011px;font-family:'Proxima Nova';-inkscape-font-specification:'Proxima Nova, Semi-Bold';font-variant-ligatures:normal;font-variant-caps:normal;font-variant-numeric:normal;font-variant-east-asian:normal;letter-spacing:5.25016999999999978px;fill:#084895;fill-opacity:1;stroke-width:0.750025"
           id="path1170" />
        <path
           d="m 1544.2745,-688.966 h 10.5004 v -32.00096 c 0,-13.00039 -9.4003,-17.50053 -20.1006,-17.50053 -7.7003,0 -14.7005,2.50008 -20.3007,7.80024 l 4.3002,7.30022 c 4.2001,-4.10013 8.9002,-6.10019 14.3004,-6.10019 6.7002,0 11.3003,3.4001 11.3003,9.00027 v 7.20022 c -3.5001,-4.10012 -9.1002,-6.20019 -15.6004,-6.20019 -7.9003,0 -16.8005,4.60014 -16.8005,15.70047 0,10.70032 8.9002,16.00048 16.8005,16.00048 6.4002,0 12.0003,-2.30007 15.6004,-6.40019 z m 0,-11.00033 c -2.4,3.3001 -6.9002,5.00015 -11.5003,5.00015 -5.9002,0 -10.3003,-3.40011 -10.3003,-8.60026 0,-5.30016 4.4001,-8.70026 10.3003,-8.70026 4.6001,0 9.1003,1.70005 11.5003,5.00015 z"
           style="font-style:normal;font-variant:normal;font-weight:600;font-stretch:normal;font-size:100.00300000000000011px;font-family:'Proxima Nova';-inkscape-font-specification:'Proxima Nova, Semi-Bold';font-variant-ligatures:normal;font-variant-caps:normal;font-variant-numeric:normal;font-variant-east-asian:normal;letter-spacing:5.25016999999999978px;fill:#084895;fill-opacity:1;stroke-width:0.750025"
           id="path1172" />
        <path
           d="m 1606.142,-688.966 h 10.5003 v -34.00102 c 0,-9.9003 -5.2001,-15.50047 -15.6004,-15.50047 -7.6003,0 -13.8004,4.00012 -17.0005,7.80024 v -6.6002 h -10.5004 v 48.30145 h 10.5004 v -33.70101 c 2.4,-3.3001 7.0002,-6.5002 12.4003,-6.5002 5.9002,0 9.7003,2.50008 9.7003,10.0003 z"
           style="font-style:normal;font-variant:normal;font-weight:600;font-stretch:normal;font-size:100.00300000000000011px;font-family:'Proxima Nova';-inkscape-font-specification:'Proxima Nova, Semi-Bold';font-variant-ligatures:normal;font-variant-caps:normal;font-variant-numeric:normal;font-variant-east-asian:normal;letter-spacing:5.25016999999999978px;fill:#084895;fill-opacity:1;stroke-width:0.750025"
           id="path1174" />
        <path
           d="m 1669.4345,-688.966 h 10.5003 v -66.702 h -10.5003 v 25.10075 c -3.9001,-5.10015 -9.5003,-7.90024 -15.5004,-7.90024 -12.5004,0 -21.5007,9.8003 -21.5007,25.40076 0,15.90048 9.1003,25.30076 21.5007,25.30076 6.2001,0 11.8003,-3.00009 15.5004,-7.80023 z m 0,-14.50044 c -2.4,3.60011 -7.5002,6.40019 -12.5004,6.40019 -8.3002,0 -13.6004,-6.7002 -13.6004,-16.00048 0,-9.40028 5.3002,-16.10048 13.6004,-16.10048 5.0002,0 10.1004,2.90009 12.5004,6.5002 z"
           style="font-style:normal;font-variant:normal;font-weight:600;font-stretch:normal;font-size:100.00300000000000011px;font-family:'Proxima Nova';-inkscape-font-specification:'Proxima Nova, Semi-Bold';font-variant-ligatures:normal;font-variant-caps:normal;font-variant-numeric:normal;font-variant-east-asian:normal;letter-spacing:5.25016999999999978px;fill:#084895;fill-opacity:1;stroke-width:0.750025"
           id="path1176" />
      </g>
      <g
         aria-label="Atmospheric Administration"
         transform="scale(1,-1)"
         id="text313"
         style="font-style:normal;font-weight:normal;font-size:30.00100000000000122px;line-height:1.25;font-family:sans-serif;letter-spacing:6.15019999999999989px;fill:#084895;fill-opacity:1;stroke:none;stroke-width:0.750025">
        <path
           d="m 682.41645,-571.96204 h 12.67242 L 669.15,-637.99724 h -14.45448 l -25.93886,66.0352 h 12.67242 l 4.85116,-12.67242 h 31.28505 z m -20.49369,-56.23387 12.37542,33.36411 h -24.75083 z"
           style="font-style:normal;font-variant:normal;font-weight:600;font-stretch:normal;font-size:99.00329999999999586px;font-family:'Proxima Nova';-inkscape-font-specification:'Proxima Nova Semi-Bold';font-variant-ligatures:normal;font-variant-caps:normal;font-variant-numeric:normal;font-variant-east-asian:normal;fill:#084895;fill-opacity:1;stroke-width:0.750025"
           id="path1179" />
        <path
           d="m 720.86647,-570.774 c 4.85117,0 7.92027,-1.28704 9.80133,-3.0691 l -2.47508,-7.82126 c -0.79203,0.89103 -2.67309,1.68306 -4.65316,1.68306 -2.9701,0 -4.55415,-2.37608 -4.55415,-5.64319 v -25.04784 h 9.70233 v -9.1083 h -9.70233 v -13.06844 h -10.39535 v 13.06844 h -7.92026 v 9.1083 h 7.92026 v 27.62192 c 0,7.92027 4.25715,12.27641 12.27641,12.27641 z"
           style="font-style:normal;font-variant:normal;font-weight:600;font-stretch:normal;font-size:99.00329999999999586px;font-family:'Proxima Nova';-inkscape-font-specification:'Proxima Nova Semi-Bold';font-variant-ligatures:normal;font-variant-caps:normal;font-variant-numeric:normal;font-variant-east-asian:normal;fill:#084895;fill-opacity:1;stroke-width:0.750025"
           id="path1181" />
        <path
           d="m 802.78978,-571.96204 h 10.39535 v -34.55215 c 0,-9.70232 -4.95017,-14.45448 -13.76146,-14.45448 -7.12824,0 -13.46445,4.45515 -16.23654,8.81129 -1.58406,-5.24717 -5.9402,-8.81129 -13.06844,-8.81129 -7.22724,0 -13.56345,4.75216 -15.54352,7.72226 v -6.53422 h -10.39534 v 47.81859 h 10.39534 v -33.36411 c 2.17808,-3.16811 6.43522,-6.43521 10.98937,-6.43521 5.64319,0 7.92026,3.46511 7.92026,8.61328 v 31.18604 h 10.39535 v -33.46311 c 2.07907,-3.06911 6.43522,-6.33621 11.08837,-6.33621 5.54419,0 7.82126,3.46511 7.82126,8.61328 z"
           style="font-style:normal;font-variant:normal;font-weight:600;font-stretch:normal;font-size:99.00329999999999586px;font-family:'Proxima Nova';-inkscape-font-specification:'Proxima Nova Semi-Bold';font-variant-ligatures:normal;font-variant-caps:normal;font-variant-numeric:normal;font-variant-east-asian:normal;fill:#084895;fill-opacity:1;stroke-width:0.750025"
           id="path1183" />
        <path
           d="m 854.47995,-570.774 c 15.34552,0 24.65183,-11.38538 24.65183,-25.14684 0,-13.66245 -9.30631,-25.04783 -24.65183,-25.04783 -15.1475,0 -24.55282,11.38538 -24.55282,25.04783 0,13.76146 9.40532,25.14684 24.55282,25.14684 z m 0,-9.2073 c -8.81129,0 -13.76146,-7.42525 -13.76146,-15.93954 0,-8.41528 4.95017,-15.84052 13.76146,-15.84052 8.9103,0 13.86047,7.42524 13.86047,15.84052 0,8.51429 -4.95017,15.93954 -13.86047,15.93954 z"
           style="font-style:normal;font-variant:normal;font-weight:600;font-stretch:normal;font-size:99.00329999999999586px;font-family:'Proxima Nova';-inkscape-font-specification:'Proxima Nova Semi-Bold';font-variant-ligatures:normal;font-variant-caps:normal;font-variant-numeric:normal;font-variant-east-asian:normal;fill:#084895;fill-opacity:1;stroke-width:0.750025"
           id="path1185" />
        <path
           d="m 891.54549,-578.19924 c 4.95017,4.85116 12.37541,7.42524 20.49368,7.42524 12.87043,0 19.89967,-6.43521 19.89967,-14.85049 0,-11.28638 -10.19734,-13.66246 -18.51362,-15.44452 -5.64319,-1.28704 -10.39535,-2.57408 -10.39535,-6.23721 0,-3.36611 3.46512,-5.34617 8.9103,-5.34617 5.9402,0 11.28638,2.47508 14.15747,5.74219 l 4.35615,-7.32625 c -4.35615,-3.86113 -10.49435,-6.73222 -18.61262,-6.73222 -12.0784,0 -18.81063,6.73222 -18.81063,14.55348 0,10.69236 9.80133,12.87043 18.0186,14.65249 5.8412,1.28705 10.89037,2.7721 10.89037,6.93023 0,3.56412 -3.16811,5.8412 -9.40532,5.8412 -6.23721,0 -12.87043,-3.26711 -16.23654,-6.73223 z"
           style="font-style:normal;font-variant:normal;font-weight:600;font-stretch:normal;font-size:99.00329999999999586px;font-family:'Proxima Nova';-inkscape-font-specification:'Proxima Nova Semi-Bold';font-variant-ligatures:normal;font-variant-caps:normal;font-variant-numeric:normal;font-variant-east-asian:normal;fill:#084895;fill-opacity:1;stroke-width:0.750025"
           id="path1187" />
        <path
           d="m 959.04371,-553.74543 v -24.84983 c 3.86113,5.14817 9.30631,7.82126 15.34551,7.82126 12.37541,0 21.18671,-9.40531 21.18671,-25.14684 0,-15.74152 -8.8113,-25.04783 -21.18671,-25.04783 -6.23721,0 -11.78139,2.9701 -15.34551,7.72226 v -6.53422 h -10.39535 v 66.0352 z m 25.74086,-42.17541 c 0,9.30631 -5.24718,15.93954 -13.46445,15.93954 -4.85116,0 -9.99933,-2.9701 -12.27641,-6.43522 v -18.90963 c 2.27708,-3.56412 7.42525,-6.43521 12.27641,-6.43521 8.21727,0 13.46445,6.63322 13.46445,15.84052 z"
           style="font-style:normal;font-variant:normal;font-weight:600;font-stretch:normal;font-size:99.00329999999999586px;font-family:'Proxima Nova';-inkscape-font-specification:'Proxima Nova Semi-Bold';font-variant-ligatures:normal;font-variant-caps:normal;font-variant-numeric:normal;font-variant-east-asian:normal;fill:#084895;fill-opacity:1;stroke-width:0.750025"
           id="path1189" />
        <path
           d="m 1044.6023,-571.96204 h 10.3953 v -33.85913 c 0,-9.80132 -5.1481,-15.1475 -15.4445,-15.1475 -7.5242,0 -13.7615,3.96013 -16.9296,7.72226 v -24.75083 h -10.3953 v 66.0352 h 10.3953 v -33.36411 c 2.4751,-3.26711 7.0293,-6.43521 12.2765,-6.43521 5.8411,0 9.7023,2.27707 9.7023,9.70232 z"
           style="font-style:normal;font-variant:normal;font-weight:600;font-stretch:normal;font-size:99.00329999999999586px;font-family:'Proxima Nova';-inkscape-font-specification:'Proxima Nova Semi-Bold';font-variant-ligatures:normal;font-variant-caps:normal;font-variant-numeric:normal;font-variant-east-asian:normal;fill:#084895;fill-opacity:1;stroke-width:0.750025"
           id="path1191" />
        <path
           d="m 1071.6777,-595.92084 c 0,15.14751 10.6924,25.14684 25.0479,25.14684 7.6232,0 14.6525,-2.37608 19.4046,-6.93023 l -4.7521,-6.83123 c -3.3661,3.36612 -8.9103,5.24718 -13.5635,5.24718 -9.0093,0 -14.4545,-5.9402 -15.2465,-13.16744 h 36.9282 v -2.47508 c 0,-15.0485 -9.2073,-26.03787 -23.5627,-26.03787 -14.1575,0 -24.2559,11.18737 -24.2559,25.04783 z m 24.2559,-16.53355 c 9.4053,0 13.2664,7.02924 13.4644,12.67243 h -26.9289 c 0.495,-5.8412 4.5542,-12.67243 13.4645,-12.67243 z"
           style="font-style:normal;font-variant:normal;font-weight:600;font-stretch:normal;font-size:99.00329999999999586px;font-family:'Proxima Nova';-inkscape-font-specification:'Proxima Nova Semi-Bold';font-variant-ligatures:normal;font-variant-caps:normal;font-variant-numeric:normal;font-variant-east-asian:normal;fill:#084895;fill-opacity:1;stroke-width:0.750025"
           id="path1193" />
        <path
           d="m 1135.9073,-571.96204 h 10.3954 v -32.57208 c 2.079,-3.36612 7.9202,-6.33621 12.2764,-6.33621 1.287,0 2.376,0.099 3.2671,0.29701 v -10.29635 c -6.2372,0 -11.9794,3.56412 -15.5435,8.11827 v -7.02923 h -10.3954 z"
           style="font-style:normal;font-variant:normal;font-weight:600;font-stretch:normal;font-size:99.00329999999999586px;font-family:'Proxima Nova';-inkscape-font-specification:'Proxima Nova Semi-Bold';font-variant-ligatures:normal;font-variant-caps:normal;font-variant-numeric:normal;font-variant-east-asian:normal;fill:#084895;fill-opacity:1;stroke-width:0.750025"
           id="path1195" />
        <path
           d="m 1181.6248,-627.7009 c 3.5641,0 6.4352,-2.87109 6.4352,-6.43521 0,-3.56412 -2.8711,-6.43522 -6.4352,-6.43522 -3.4651,0 -6.4352,2.8711 -6.4352,6.43522 0,3.56412 2.9701,6.43521 6.4352,6.43521 z m -5.1482,55.73886 h 10.3954 v -47.81859 h -10.3954 z"
           style="font-style:normal;font-variant:normal;font-weight:600;font-stretch:normal;font-size:99.00329999999999586px;font-family:'Proxima Nova';-inkscape-font-specification:'Proxima Nova Semi-Bold';font-variant-ligatures:normal;font-variant-caps:normal;font-variant-numeric:normal;font-variant-east-asian:normal;fill:#084895;fill-opacity:1;stroke-width:0.750025"
           id="path1197" />
        <path
           d="m 1203.4407,-595.92084 c 0,14.55349 10.1974,25.14684 24.7508,25.14684 9.3064,0 14.9495,-3.96013 18.3157,-8.51428 l -6.8313,-6.33621 c -2.6731,3.66312 -6.3362,5.64319 -10.9893,5.64319 -8.7123,0 -14.4545,-6.63323 -14.4545,-15.93954 0,-9.30631 5.7422,-15.84052 14.4545,-15.84052 4.6531,0 8.3162,1.88106 10.9893,5.64318 l 6.8313,-6.33621 c -3.3662,-4.55415 -9.0093,-8.51428 -18.3157,-8.51428 -14.5534,0 -24.7508,10.59335 -24.7508,25.04783 z"
           style="font-style:normal;font-variant:normal;font-weight:600;font-stretch:normal;font-size:99.00329999999999586px;font-family:'Proxima Nova';-inkscape-font-specification:'Proxima Nova Semi-Bold';font-variant-ligatures:normal;font-variant-caps:normal;font-variant-numeric:normal;font-variant-east-asian:normal;fill:#084895;fill-opacity:1;stroke-width:0.750025"
           id="path1199" />
        <path
           d="m 1340.377,-571.96204 h 12.6724 l -25.9388,-66.0352 h -14.4545 l -25.9389,66.0352 h 12.6725 l 4.8511,-12.67242 h 31.2851 z m -20.4937,-56.23387 12.3754,33.36411 h -24.7508 z"
           style="font-style:normal;font-variant:normal;font-weight:600;font-stretch:normal;font-size:99.00329999999999586px;font-family:'Proxima Nova';-inkscape-font-specification:'Proxima Nova Semi-Bold';font-variant-ligatures:normal;font-variant-caps:normal;font-variant-numeric:normal;font-variant-east-asian:normal;fill:#084895;fill-opacity:1;stroke-width:0.750025"
           id="path1201" />
        <path
           d="m 1399.873,-571.96204 h 10.3953 v -66.0352 h -10.3953 v 24.84983 c -3.8612,-5.04917 -9.4054,-7.82126 -15.3455,-7.82126 -12.3755,0 -21.2858,9.70232 -21.2858,25.14684 0,15.74152 9.0093,25.04783 21.2858,25.04783 6.1382,0 11.6823,-2.9701 15.3455,-7.72225 z m 0,-14.35548 c -2.3761,3.56412 -7.4253,6.33622 -12.3755,6.33622 -8.2172,0 -13.4644,-6.63323 -13.4644,-15.84053 0,-9.30631 5.2472,-15.93953 13.4644,-15.93953 4.9502,0 9.9994,2.87109 12.3755,6.43521 z"
           style="font-style:normal;font-variant:normal;font-weight:600;font-stretch:normal;font-size:99.00329999999999586px;font-family:'Proxima Nova';-inkscape-font-specification:'Proxima Nova Semi-Bold';font-variant-ligatures:normal;font-variant-caps:normal;font-variant-numeric:normal;font-variant-east-asian:normal;fill:#084895;fill-opacity:1;stroke-width:0.750025"
           id="path1203" />
        <path
           d="m 1488.4016,-571.96204 h 10.3954 v -34.55215 c 0,-9.70232 -4.9502,-14.45448 -13.7615,-14.45448 -7.1282,0 -13.4644,4.45515 -16.2365,8.81129 -1.5841,-5.24717 -5.9402,-8.81129 -13.0685,-8.81129 -7.2272,0 -13.5634,4.75216 -15.5435,7.72226 v -6.53422 h -10.3953 v 47.81859 h 10.3953 v -33.36411 c 2.1781,-3.16811 6.4352,-6.43521 10.9894,-6.43521 5.6432,0 7.9203,3.46511 7.9203,8.61328 v 31.18604 h 10.3953 v -33.46311 c 2.0791,-3.06911 6.4352,-6.33621 11.0884,-6.33621 5.5442,0 7.8212,3.46511 7.8212,8.61328 z"
           style="font-style:normal;font-variant:normal;font-weight:600;font-stretch:normal;font-size:99.00329999999999586px;font-family:'Proxima Nova';-inkscape-font-specification:'Proxima Nova Semi-Bold';font-variant-ligatures:normal;font-variant-caps:normal;font-variant-numeric:normal;font-variant-east-asian:normal;fill:#084895;fill-opacity:1;stroke-width:0.750025"
           id="path1205" />
        <path
           d="m 1523.6573,-627.7009 c 3.5641,0 6.4352,-2.87109 6.4352,-6.43521 0,-3.56412 -2.8711,-6.43522 -6.4352,-6.43522 -3.4652,0 -6.4353,2.8711 -6.4353,6.43522 0,3.56412 2.9701,6.43521 6.4353,6.43521 z m -5.1482,55.73886 h 10.3953 v -47.81859 h -10.3953 z"
           style="font-style:normal;font-variant:normal;font-weight:600;font-stretch:normal;font-size:99.00329999999999586px;font-family:'Proxima Nova';-inkscape-font-specification:'Proxima Nova Semi-Bold';font-variant-ligatures:normal;font-variant-caps:normal;font-variant-numeric:normal;font-variant-east-asian:normal;fill:#084895;fill-opacity:1;stroke-width:0.750025"
           id="path1207" />
        <path
           d="m 1580.7184,-571.96204 h 10.3953 v -33.66112 c 0,-9.80133 -5.1482,-15.34551 -15.4445,-15.34551 -7.5243,0 -13.6625,3.96013 -16.8306,7.72226 v -6.53422 h -10.3953 v 47.81859 h 10.3953 v -33.36411 c 2.3761,-3.26711 6.9303,-6.43521 12.2764,-6.43521 5.8412,0 9.6034,2.47508 9.6034,9.90033 z"
           style="font-style:normal;font-variant:normal;font-weight:600;font-stretch:normal;font-size:99.00329999999999586px;font-family:'Proxima Nova';-inkscape-font-specification:'Proxima Nova Semi-Bold';font-variant-ligatures:normal;font-variant-caps:normal;font-variant-numeric:normal;font-variant-east-asian:normal;fill:#084895;fill-opacity:1;stroke-width:0.750025"
           id="path1209" />
        <path
           d="m 1615.8178,-627.7009 c 3.5641,0 6.4352,-2.87109 6.4352,-6.43521 0,-3.56412 -2.8711,-6.43522 -6.4352,-6.43522 -3.4651,0 -6.4352,2.8711 -6.4352,6.43522 0,3.56412 2.9701,6.43521 6.4352,6.43521 z m -5.1482,55.73886 h 10.3953 v -47.81859 h -10.3953 z"
           style="font-style:normal;font-variant:normal;font-weight:600;font-stretch:normal;font-size:99.00329999999999586px;font-family:'Proxima Nova';-inkscape-font-specification:'Proxima Nova Semi-Bold';font-variant-ligatures:normal;font-variant-caps:normal;font-variant-numeric:normal;font-variant-east-asian:normal;fill:#084895;fill-opacity:1;stroke-width:0.750025"
           id="path1211" />
        <path
           d="m 1636.4457,-578.19924 c 4.9501,4.85116 12.3754,7.42524 20.4937,7.42524 12.8704,0 19.8996,-6.43521 19.8996,-14.85049 0,-11.28638 -10.1973,-13.66246 -18.5136,-15.44452 -5.6432,-1.28704 -10.3953,-2.57408 -10.3953,-6.23721 0,-3.36611 3.4651,-5.34617 8.9102,-5.34617 5.9402,0 11.2864,2.47508 14.1575,5.74219 l 4.3562,-7.32625 c -4.3562,-3.86113 -10.4944,-6.73222 -18.6127,-6.73222 -12.0784,0 -18.8106,6.73222 -18.8106,14.55348 0,10.69236 9.8013,12.87043 18.0186,14.65249 5.8412,1.28705 10.8904,2.7721 10.8904,6.93023 0,3.56412 -3.1681,5.8412 -9.4053,5.8412 -6.2372,0 -12.8705,-3.26711 -16.2366,-6.73223 z"
           style="font-style:normal;font-variant:normal;font-weight:600;font-stretch:normal;font-size:99.00329999999999586px;font-family:'Proxima Nova';-inkscape-font-specification:'Proxima Nova Semi-Bold';font-variant-ligatures:normal;font-variant-caps:normal;font-variant-numeric:normal;font-variant-east-asian:normal;fill:#084895;fill-opacity:1;stroke-width:0.750025"
           id="path1213" />
        <path
           d="m 1707.904,-570.774 c 4.8512,0 7.9203,-1.28704 9.8014,-3.0691 l -2.4751,-7.82126 c -0.792,0.89103 -2.6731,1.68306 -4.6532,1.68306 -2.9701,0 -4.5541,-2.37608 -4.5541,-5.64319 v -25.04784 h 9.7023 v -9.1083 h -9.7023 v -13.06844 h -10.3954 v 13.06844 h -7.9202 v 9.1083 h 7.9202 v 27.62192 c 0,7.92027 4.2572,12.27641 12.2764,12.27641 z"
           style="font-style:normal;font-variant:normal;font-weight:600;font-stretch:normal;font-size:99.00329999999999586px;font-family:'Proxima Nova';-inkscape-font-specification:'Proxima Nova Semi-Bold';font-variant-ligatures:normal;font-variant-caps:normal;font-variant-numeric:normal;font-variant-east-asian:normal;fill:#084895;fill-opacity:1;stroke-width:0.750025"
           id="path1215" />
        <path
           d="m 1731.2174,-571.96204 h 10.3953 v -32.57208 c 2.0791,-3.36612 7.9203,-6.33621 12.2764,-6.33621 1.2871,0 2.3761,0.099 3.2672,0.29701 v -10.29635 c -6.2372,0 -11.9794,3.56412 -15.5436,8.11827 v -7.02923 h -10.3953 z"
           style="font-style:normal;font-variant:normal;font-weight:600;font-stretch:normal;font-size:99.00329999999999586px;font-family:'Proxima Nova';-inkscape-font-specification:'Proxima Nova Semi-Bold';font-variant-ligatures:normal;font-variant-caps:normal;font-variant-numeric:normal;font-variant-east-asian:normal;fill:#084895;fill-opacity:1;stroke-width:0.750025"
           id="path1217" />
        <path
           d="m 1800.9926,-571.96204 h 10.3953 v -31.68105 c 0,-12.87043 -9.3063,-17.32558 -19.8996,-17.32558 -7.6233,0 -14.5535,2.47508 -20.0977,7.72226 l 4.2571,7.22724 c 4.1582,-4.05914 8.8113,-6.0392 14.1575,-6.0392 6.6332,0 11.1874,3.36611 11.1874,8.91029 v 7.12824 c -3.4651,-4.05913 -9.0093,-6.1382 -15.4445,-6.1382 -7.8213,0 -16.6326,4.55415 -16.6326,15.54351 0,10.59336 8.8113,15.84053 16.6326,15.84053 6.3362,0 11.8804,-2.27707 15.4445,-6.33621 z m 0,-10.89036 c -2.3761,3.26711 -6.8312,4.95017 -11.3854,4.95017 -5.8412,0 -10.1973,-3.36612 -10.1973,-8.51429 0,-5.24717 4.3561,-8.61329 10.1973,-8.61329 4.5542,0 9.0093,1.68306 11.3854,4.95017 z"
           style="font-style:normal;font-variant:normal;font-weight:600;font-stretch:normal;font-size:99.00329999999999586px;font-family:'Proxima Nova';-inkscape-font-specification:'Proxima Nova Semi-Bold';font-variant-ligatures:normal;font-variant-caps:normal;font-variant-numeric:normal;font-variant-east-asian:normal;fill:#084895;fill-opacity:1;stroke-width:0.750025"
           id="path1219" />
        <path
           d="m 1845.2745,-570.774 c 4.8512,0 7.9203,-1.28704 9.8014,-3.0691 l -2.4751,-7.82126 c -0.792,0.89103 -2.6731,1.68306 -4.6532,1.68306 -2.9701,0 -4.5541,-2.37608 -4.5541,-5.64319 v -25.04784 h 9.7023 v -9.1083 h -9.7023 v -13.06844 h -10.3954 v 13.06844 h -7.9202 v 9.1083 h 7.9202 v 27.62192 c 0,7.92027 4.2572,12.27641 12.2764,12.27641 z"
           style="font-style:normal;font-variant:normal;font-weight:600;font-stretch:normal;font-size:99.00329999999999586px;font-family:'Proxima Nova';-inkscape-font-specification:'Proxima Nova Semi-Bold';font-variant-ligatures:normal;font-variant-caps:normal;font-variant-numeric:normal;font-variant-east-asian:normal;fill:#084895;fill-opacity:1;stroke-width:0.750025"
           id="path1221" />
        <path
           d="m 1873.736,-627.7009 c 3.5642,0 6.4353,-2.87109 6.4353,-6.43521 0,-3.56412 -2.8711,-6.43522 -6.4353,-6.43522 -3.4651,0 -6.4352,2.8711 -6.4352,6.43522 0,3.56412 2.9701,6.43521 6.4352,6.43521 z m -5.1481,55.73886 h 10.3953 v -47.81859 h -10.3953 z"
           style="font-style:normal;font-variant:normal;font-weight:600;font-stretch:normal;font-size:99.00329999999999586px;font-family:'Proxima Nova';-inkscape-font-specification:'Proxima Nova Semi-Bold';font-variant-ligatures:normal;font-variant-caps:normal;font-variant-numeric:normal;font-variant-east-asian:normal;fill:#084895;fill-opacity:1;stroke-width:0.750025"
           id="path1223" />
        <path
           d="m 1920.1048,-570.774 c 15.3455,0 24.6518,-11.38538 24.6518,-25.14684 0,-13.66245 -9.3063,-25.04783 -24.6518,-25.04783 -15.1475,0 -24.5528,11.38538 -24.5528,25.04783 0,13.76146 9.4053,25.14684 24.5528,25.14684 z m 0,-9.2073 c -8.8113,0 -13.7615,-7.42525 -13.7615,-15.93954 0,-8.41528 4.9502,-15.84052 13.7615,-15.84052 8.9103,0 13.8605,7.42524 13.8605,15.84052 0,8.51429 -4.9502,15.93954 -13.8605,15.93954 z"
           style="font-style:normal;font-variant:normal;font-weight:600;font-stretch:normal;font-size:99.00329999999999586px;font-family:'Proxima Nova';-inkscape-font-specification:'Proxima Nova Semi-Bold';font-variant-ligatures:normal;font-variant-caps:normal;font-variant-numeric:normal;font-variant-east-asian:normal;fill:#084895;fill-opacity:1;stroke-width:0.750025"
           id="path1225" />
        <path
           d="m 1993.6036,-571.96204 h 10.3953 v -33.66112 c 0,-9.80133 -5.1482,-15.34551 -15.4445,-15.34551 -7.5243,0 -13.6625,3.96013 -16.8306,7.72226 v -6.53422 h -10.3953 v 47.81859 h 10.3953 v -33.36411 c 2.3761,-3.26711 6.9303,-6.43521 12.2764,-6.43521 5.8412,0 9.6034,2.47508 9.6034,9.90033 z"
           style="font-style:normal;font-variant:normal;font-weight:600;font-stretch:normal;font-size:99.00329999999999586px;font-family:'Proxima Nova';-inkscape-font-specification:'Proxima Nova Semi-Bold';font-variant-ligatures:normal;font-variant-caps:normal;font-variant-numeric:normal;font-variant-east-asian:normal;fill:#084895;fill-opacity:1;stroke-width:0.750025"
           id="path1227" />
      </g>
      <g
         aria-label="U.S. Department of Commerce"
         transform="scale(1,-1)"
         id="text1140"
         style="font-style:normal;font-weight:normal;font-size:30.001px;line-height:1.25;font-family:sans-serif;fill:#000000;fill-opacity:1;stroke:none;stroke-width:0.750025">
        <path
           d="m 636.41599,-488.75835 c 0,10.00433 5.55118,16.53154 16.59255,16.53154 11.04136,0 16.59254,-6.46621 16.59254,-16.59254 v -24.82782 h -5.06317 v 24.76682 c 0,7.44224 -4.02613,12.13939 -11.52937,12.13939 -7.50325,0 -11.52938,-4.69715 -11.52938,-12.13939 v -24.76682 h -5.06317 z"
           style="font-style:normal;font-variant:normal;font-weight:normal;font-stretch:normal;font-size:61.002px;font-family:'Proxima Nova';-inkscape-font-specification:'Proxima Nova, Normal';font-variant-ligatures:normal;font-variant-caps:normal;font-variant-numeric:normal;font-variant-east-asian:normal;stroke-width:0.750025"
           id="path1230" />
        <path
           d="m 676.18453,-475.70392 c 0,1.83006 1.52505,3.35511 3.35511,3.35511 1.83006,0 3.35511,-1.52505 3.35511,-3.35511 0,-1.83006 -1.52505,-3.35511 -3.35511,-3.35511 -1.83006,0 -3.35511,1.52505 -3.35511,3.35511 z"
           style="font-style:normal;font-variant:normal;font-weight:normal;font-stretch:normal;font-size:61.002px;font-family:'Proxima Nova';-inkscape-font-specification:'Proxima Nova, Normal';font-variant-ligatures:normal;font-variant-caps:normal;font-variant-numeric:normal;font-variant-east-asian:normal;stroke-width:0.750025"
           id="path1232" />
        <path
           d="m 688.90154,-478.69302 c 3.35511,3.78212 8.54028,6.46621 15.61651,6.46621 10.98036,0 15.00649,-6.0392 15.00649,-11.95639 0,-8.54028 -7.56424,-10.61435 -14.21346,-12.38341 -5.18517,-1.40304 -9.88232,-2.62308 -9.88232,-6.71022 0,-3.84312 3.47711,-6.46621 8.35727,-6.46621 4.45315,0 8.72329,1.52505 11.77339,4.88016 l 3.05009,-3.72112 c -3.41611,-3.59912 -8.23526,-5.67319 -14.45747,-5.67319 -7.99126,0 -13.96946,4.57515 -13.96946,11.28537 0,7.99127 7.25924,9.82133 13.78646,11.52938 5.36817,1.46405 10.30933,2.80609 10.30933,7.68625 0,3.11111 -2.31807,7.01523 -9.57731,7.01523 -5.73419,0 -10.12633,-2.80609 -12.81042,-5.79519 z"
           style="font-style:normal;font-variant:normal;font-weight:normal;font-stretch:normal;font-size:61.002px;font-family:'Proxima Nova';-inkscape-font-specification:'Proxima Nova, Normal';font-variant-ligatures:normal;font-variant-caps:normal;font-variant-numeric:normal;font-variant-east-asian:normal;stroke-width:0.750025"
           id="path1234" />
        <path
           d="m 725.98694,-475.70392 c 0,1.83006 1.52505,3.35511 3.35511,3.35511 1.83006,0 3.35511,-1.52505 3.35511,-3.35511 0,-1.83006 -1.52505,-3.35511 -3.35511,-3.35511 -1.83006,0 -3.35511,1.52505 -3.35511,3.35511 z"
           style="font-style:normal;font-variant:normal;font-weight:normal;font-stretch:normal;font-size:61.002px;font-family:'Proxima Nova';-inkscape-font-specification:'Proxima Nova, Normal';font-variant-ligatures:normal;font-variant-caps:normal;font-variant-numeric:normal;font-variant-east-asian:normal;stroke-width:0.750025"
           id="path1236" />
        <path
           d="m 756.87111,-472.95883 h 13.90845 c 12.62742,0 20.86269,-8.72329 20.86269,-20.31367 0,-11.52938 -8.23527,-20.37467 -20.86269,-20.37467 h -13.90845 z m 5.06317,-4.51415 v -31.66004 h 8.84528 c 10.06533,0 15.61652,7.07623 15.61652,15.86052 0,8.72329 -5.73419,15.79952 -15.61652,15.79952 z"
           style="font-style:normal;font-variant:normal;font-weight:normal;font-stretch:normal;font-size:61.002px;font-family:'Proxima Nova';-inkscape-font-specification:'Proxima Nova, Normal';font-variant-ligatures:normal;font-variant-caps:normal;font-variant-numeric:normal;font-variant-east-asian:normal;stroke-width:0.750025"
           id="path1238" />
        <path
           d="m 797.63379,-487.72132 c 0,9.21131 6.2832,15.49451 15.00649,15.49451 4.81916,0 8.78429,-1.58605 11.71238,-4.51415 l -2.19607,-2.98909 c -2.31808,2.37907 -5.73419,3.72112 -9.0893,3.72112 -6.34421,0 -10.24833,-4.63615 -10.61435,-10.18734 h 23.85179 v -1.15903 c 0,-8.84529 -5.24618,-15.79952 -14.15247,-15.79952 -8.41827,0 -14.51847,6.89322 -14.51847,15.4335 z m 14.45747,-11.65138 c 6.71022,0 9.63832,5.42918 9.69932,9.82132 h -19.33764 c 0.24401,-4.51414 3.35511,-9.82132 9.63832,-9.82132 z"
           style="font-style:normal;font-variant:normal;font-weight:normal;font-stretch:normal;font-size:61.002px;font-family:'Proxima Nova';-inkscape-font-specification:'Proxima Nova, Normal';font-variant-ligatures:normal;font-variant-caps:normal;font-variant-numeric:normal;font-variant-east-asian:normal;stroke-width:0.750025"
           id="path1240" />
        <path
           d="m 838.23062,-461.73446 v -15.67752 c 2.37908,3.29411 5.9172,5.18517 9.94333,5.18517 7.74725,0 13.11543,-5.97819 13.11543,-15.49451 0,-9.57731 -5.36818,-15.4335 -13.11543,-15.4335 -4.14814,0 -7.80826,2.13507 -9.94333,5.12417 v -4.39215 h -4.57515 v 40.68834 z m 18.2396,-25.98686 c 0,6.52722 -3.53812,11.40738 -9.45531,11.40738 -3.59912,0 -7.19824,-2.19607 -8.78429,-4.75816 v -13.29843 c 1.58605,-2.56209 5.18517,-4.69716 8.78429,-4.69716 5.91719,0 9.45531,4.81916 9.45531,11.34637 z"
           style="font-style:normal;font-variant:normal;font-weight:normal;font-stretch:normal;font-size:61.002px;font-family:'Proxima Nova';-inkscape-font-specification:'Proxima Nova, Normal';font-variant-ligatures:normal;font-variant-caps:normal;font-variant-numeric:normal;font-variant-east-asian:normal;stroke-width:0.750025"
           id="path1242" />
        <path
           d="m 887.10656,-472.95883 h 4.57515 v -20.25267 c 0,-7.13723 -5.18517,-9.94332 -11.40737,-9.94332 -4.81916,0 -8.60128,1.58605 -11.77339,4.88016 l 2.13507,3.1721 c 2.62309,-2.80609 5.49018,-4.08713 9.0283,-4.08713 4.27014,0 7.44224,2.25707 7.44224,6.2222 v 5.30718 c -2.37907,-2.74509 -5.73418,-4.02614 -9.76032,-4.02614 -5.00216,0 -10.30933,3.11111 -10.30933,9.69932 0,6.40521 5.30717,9.76032 10.30933,9.76032 3.96513,0 7.32024,-1.40304 9.76032,-4.08713 z m 0,-6.22221 c -1.76905,2.44008 -4.88016,3.66012 -8.11326,3.66012 -4.27014,0 -7.25924,-2.68408 -7.25924,-6.40521 0,-3.78212 2.9891,-6.46621 7.25924,-6.46621 3.2331,0 6.34421,1.22004 8.11326,3.66012 z"
           style="font-style:normal;font-variant:normal;font-weight:normal;font-stretch:normal;font-size:61.002px;font-family:'Proxima Nova';-inkscape-font-specification:'Proxima Nova, Normal';font-variant-ligatures:normal;font-variant-caps:normal;font-variant-numeric:normal;font-variant-east-asian:normal;stroke-width:0.750025"
           id="path1244" />
        <path
           d="m 900.85298,-472.95883 h 4.57515 v -20.86269 c 1.34205,-2.37907 5.18517,-4.69715 7.99126,-4.69715 0.73203,0 1.28105,0.061 1.83006,0.18301 v -4.69716 c -4.02613,0 -7.44224,2.25708 -9.82132,5.36818 v -4.75816 h -4.57515 z"
           style="font-style:normal;font-variant:normal;font-weight:normal;font-stretch:normal;font-size:61.002px;font-family:'Proxima Nova';-inkscape-font-specification:'Proxima Nova, Normal';font-variant-ligatures:normal;font-variant-caps:normal;font-variant-numeric:normal;font-variant-east-asian:normal;stroke-width:0.750025"
           id="path1246" />
        <path
           d="m 928.43066,-472.22681 c 2.68409,0 4.33114,-0.79302 5.49018,-1.89106 l -1.34204,-3.41611 c -0.61002,0.67102 -1.83006,1.22004 -3.1111,1.22004 -2.01307,0 -2.9891,-1.58605 -2.9891,-3.78213 v -18.3006 h 5.97819 v -4.02613 h -5.97819 v -8.05226 h -4.57515 v 8.05226 h -4.88016 v 4.02613 h 4.88016 v 19.27664 c 0,4.39214 2.19607,6.89322 6.52721,6.89322 z"
           style="font-style:normal;font-variant:normal;font-weight:normal;font-stretch:normal;font-size:61.002px;font-family:'Proxima Nova';-inkscape-font-specification:'Proxima Nova, Normal';font-variant-ligatures:normal;font-variant-caps:normal;font-variant-numeric:normal;font-variant-east-asian:normal;stroke-width:0.750025"
           id="path1248" />
        <path
           d="m 974.5434,-472.95883 h 4.57515 v -21.2897 c 0,-5.91719 -2.8671,-8.90629 -8.23527,-8.90629 -4.27014,0 -8.23527,2.80609 -9.88233,5.49018 -0.85402,-3.0501 -3.41611,-5.49018 -7.93026,-5.49018 -4.33114,0 -8.29627,3.1111 -9.51631,5.00216 v -4.27014 h -4.57515 v 29.46397 h 4.57515 v -21.53371 c 1.58606,-2.37908 4.75816,-4.57515 7.74726,-4.57515 3.84312,0 5.42917,2.37908 5.42917,6.1002 v 20.00866 h 4.57515 v -21.59471 c 1.52505,-2.31808 4.75816,-4.51415 7.80826,-4.51415 3.78212,0 5.42918,2.37908 5.42918,6.1002 z"
           style="font-style:normal;font-variant:normal;font-weight:normal;font-stretch:normal;font-size:61.002px;font-family:'Proxima Nova';-inkscape-font-specification:'Proxima Nova, Normal';font-variant-ligatures:normal;font-variant-caps:normal;font-variant-numeric:normal;font-variant-east-asian:normal;stroke-width:0.750025"
           id="path1250" />
        <path
           d="m 986.59701,-487.72132 c 0,9.21131 6.28321,15.49451 15.00649,15.49451 4.8192,0 8.7843,-1.58605 11.7124,-4.51415 l -2.1961,-2.98909 c -2.3181,2.37907 -5.7342,3.72112 -9.0893,3.72112 -6.34419,0 -10.24832,-4.63615 -10.61433,-10.18734 h 23.85183 v -1.15903 c 0,-8.84529 -5.2462,-15.79952 -14.1525,-15.79952 -8.41829,0 -14.51849,6.89322 -14.51849,15.4335 z m 14.45749,-11.65138 c 6.7102,0 9.6383,5.42918 9.6993,9.82132 h -19.33763 c 0.24401,-4.51414 3.35511,-9.82132 9.63833,-9.82132 z"
           style="font-style:normal;font-variant:normal;font-weight:normal;font-stretch:normal;font-size:61.002px;font-family:'Proxima Nova';-inkscape-font-specification:'Proxima Nova, Normal';font-variant-ligatures:normal;font-variant-caps:normal;font-variant-numeric:normal;font-variant-east-asian:normal;stroke-width:0.750025"
           id="path1252" />
        <path
           d="m 1042.5054,-472.95883 h 4.5751 v -20.67968 c 0,-6.40521 -3.2331,-9.51631 -9.3943,-9.51631 -4.3922,0 -8.4183,2.56208 -10.4924,5.00216 v -4.27014 h -4.5751 v 29.46397 h 4.5751 v -21.53371 c 1.7081,-2.37908 5.1242,-4.57515 8.7233,-4.57515 3.9652,0 6.5883,1.64706 6.5883,6.83223 z"
           style="font-style:normal;font-variant:normal;font-weight:normal;font-stretch:normal;font-size:61.002px;font-family:'Proxima Nova';-inkscape-font-specification:'Proxima Nova, Normal';font-variant-ligatures:normal;font-variant-caps:normal;font-variant-numeric:normal;font-variant-east-asian:normal;stroke-width:0.750025"
           id="path1254" />
        <path
           d="m 1063.6597,-472.22681 c 2.6841,0 4.3311,-0.79302 5.4902,-1.89106 l -1.3421,-3.41611 c -0.61,0.67102 -1.83,1.22004 -3.1111,1.22004 -2.013,0 -2.9891,-1.58605 -2.9891,-3.78213 v -18.3006 h 5.9782 v -4.02613 h -5.9782 v -8.05226 h -4.5751 v 8.05226 h -4.8802 v 4.02613 h 4.8802 v 19.27664 c 0,4.39214 2.1961,6.89322 6.5272,6.89322 z"
           style="font-style:normal;font-variant:normal;font-weight:normal;font-stretch:normal;font-size:61.002px;font-family:'Proxima Nova';-inkscape-font-specification:'Proxima Nova, Normal';font-variant-ligatures:normal;font-variant-caps:normal;font-variant-numeric:normal;font-variant-east-asian:normal;stroke-width:0.750025"
           id="path1256" />
        <path
           d="m 1102.8068,-472.22681 c 8.9673,0 14.5794,-6.95423 14.5794,-15.49451 0,-8.54028 -5.6121,-15.4335 -14.5794,-15.4335 -8.9673,0 -14.5795,6.89322 -14.5795,15.4335 0,8.54028 5.6122,15.49451 14.5795,15.49451 z m 0,-4.08713 c -6.2832,0 -9.8214,-5.36818 -9.8214,-11.40738 0,-5.97819 3.5382,-11.34637 9.8214,-11.34637 6.2832,0 9.7603,5.36818 9.7603,11.34637 0,6.0392 -3.4771,11.40738 -9.7603,11.40738 z"
           style="font-style:normal;font-variant:normal;font-weight:normal;font-stretch:normal;font-size:61.002px;font-family:'Proxima Nova';-inkscape-font-specification:'Proxima Nova, Normal';font-variant-ligatures:normal;font-variant-caps:normal;font-variant-numeric:normal;font-variant-east-asian:normal;stroke-width:0.750025"
           id="path1258" />
        <path
           d="m 1126.1258,-472.95883 h 4.5751 v -25.43784 h 5.9782 v -4.02613 h -5.9782 v -2.25707 c 0,-3.72112 1.6471,-5.79519 4.6362,-5.79519 1.037,0 1.891,0.24401 2.623,0.67102 l 1.1591,-3.41611 c -1.1591,-0.73203 -2.7451,-1.03704 -4.4532,-1.03704 -5.1241,0 -8.5402,3.47712 -8.5402,9.57732 v 2.25707 h -4.8802 v 4.02613 h 4.8802 z"
           style="font-style:normal;font-variant:normal;font-weight:normal;font-stretch:normal;font-size:61.002px;font-family:'Proxima Nova';-inkscape-font-specification:'Proxima Nova, Normal';font-variant-ligatures:normal;font-variant-caps:normal;font-variant-numeric:normal;font-variant-east-asian:normal;stroke-width:0.750025"
           id="path1260" />
        <path
           d="m 1177.1244,-472.22681 c 7.3812,0 12.2614,-3.41611 15.6775,-8.05226 l -4.3312,-2.37908 c -2.318,3.47711 -6.5272,5.91719 -11.3463,5.91719 -8.7233,0 -15.4945,-6.89322 -15.4945,-16.53154 0,-9.69932 6.7712,-16.53154 15.4945,-16.53154 4.8191,0 9.0283,2.50108 11.3463,5.91719 l 4.2702,-2.37907 c -3.2331,-4.57515 -8.2353,-8.05227 -15.6165,-8.05227 -11.5294,0 -20.7407,8.54028 -20.7407,21.04569 0,12.50541 9.2113,21.04569 20.7407,21.04569 z"
           style="font-style:normal;font-variant:normal;font-weight:normal;font-stretch:normal;font-size:61.002px;font-family:'Proxima Nova';-inkscape-font-specification:'Proxima Nova, Normal';font-variant-ligatures:normal;font-variant-caps:normal;font-variant-numeric:normal;font-variant-east-asian:normal;stroke-width:0.750025"
           id="path1262" />
        <path
           d="m 1211.9432,-472.22681 c 8.9672,0 14.5794,-6.95423 14.5794,-15.49451 0,-8.54028 -5.6122,-15.4335 -14.5794,-15.4335 -8.9673,0 -14.5795,6.89322 -14.5795,15.4335 0,8.54028 5.6122,15.49451 14.5795,15.49451 z m 0,-4.08713 c -6.2833,0 -9.8214,-5.36818 -9.8214,-11.40738 0,-5.97819 3.5381,-11.34637 9.8214,-11.34637 6.2832,0 9.7603,5.36818 9.7603,11.34637 0,6.0392 -3.4771,11.40738 -9.7603,11.40738 z"
           style="font-style:normal;font-variant:normal;font-weight:normal;font-stretch:normal;font-size:61.002px;font-family:'Proxima Nova';-inkscape-font-specification:'Proxima Nova, Normal';font-variant-ligatures:normal;font-variant-caps:normal;font-variant-numeric:normal;font-variant-east-asian:normal;stroke-width:0.750025"
           id="path1264" />
        <path
           d="m 1269.5453,-472.95883 h 4.5751 v -21.2897 c 0,-5.91719 -2.8671,-8.90629 -8.2353,-8.90629 -4.2701,0 -8.2352,2.80609 -9.8823,5.49018 -0.854,-3.0501 -3.4161,-5.49018 -7.9302,-5.49018 -4.3312,0 -8.2963,3.1111 -9.5164,5.00216 v -4.27014 h -4.5751 v 29.46397 h 4.5751 v -21.53371 c 1.5861,-2.37908 4.7582,-4.57515 7.7473,-4.57515 3.8431,0 5.4292,2.37908 5.4292,6.1002 v 20.00866 h 4.5751 v -21.59471 c 1.5251,-2.31808 4.7582,-4.51415 7.8083,-4.51415 3.7821,0 5.4292,2.37908 5.4292,6.1002 z"
           style="font-style:normal;font-variant:normal;font-weight:normal;font-stretch:normal;font-size:61.002px;font-family:'Proxima Nova';-inkscape-font-specification:'Proxima Nova, Normal';font-variant-ligatures:normal;font-variant-caps:normal;font-variant-numeric:normal;font-variant-east-asian:normal;stroke-width:0.750025"
           id="path1266" />
        <path
           d="m 1318.8711,-472.95883 h 4.5751 v -21.2897 c 0,-5.91719 -2.8671,-8.90629 -8.2353,-8.90629 -4.2701,0 -8.2352,2.80609 -9.8823,5.49018 -0.854,-3.0501 -3.4161,-5.49018 -7.9302,-5.49018 -4.3312,0 -8.2963,3.1111 -9.5163,5.00216 v -4.27014 h -4.5752 v 29.46397 h 4.5752 v -21.53371 c 1.586,-2.37908 4.7581,-4.57515 7.7472,-4.57515 3.8431,0 5.4292,2.37908 5.4292,6.1002 v 20.00866 h 4.5751 v -21.59471 c 1.5251,-2.31808 4.7582,-4.51415 7.8083,-4.51415 3.7821,0 5.4292,2.37908 5.4292,6.1002 z"
           style="font-style:normal;font-variant:normal;font-weight:normal;font-stretch:normal;font-size:61.002px;font-family:'Proxima Nova';-inkscape-font-specification:'Proxima Nova, Normal';font-variant-ligatures:normal;font-variant-caps:normal;font-variant-numeric:normal;font-variant-east-asian:normal;stroke-width:0.750025"
           id="path1268" />
        <path
           d="m 1330.9247,-487.72132 c 0,9.21131 6.2832,15.49451 15.0065,15.49451 4.8192,0 8.7843,-1.58605 11.7124,-4.51415 l -2.1961,-2.98909 c -2.3181,2.37907 -5.7342,3.72112 -9.0893,3.72112 -6.3442,0 -10.2483,-4.63615 -10.6143,-10.18734 h 23.8518 v -1.15903 c 0,-8.84529 -5.2462,-15.79952 -14.1525,-15.79952 -8.4183,0 -14.5185,6.89322 -14.5185,15.4335 z m 14.4575,-11.65138 c 6.7102,0 9.6383,5.42918 9.6993,9.82132 h -19.3376 c 0.244,-4.51414 3.3551,-9.82132 9.6383,-9.82132 z"
           style="font-style:normal;font-variant:normal;font-weight:normal;font-stretch:normal;font-size:61.002px;font-family:'Proxima Nova';-inkscape-font-specification:'Proxima Nova, Normal';font-variant-ligatures:normal;font-variant-caps:normal;font-variant-numeric:normal;font-variant-east-asian:normal;stroke-width:0.750025"
           id="path1270" />
        <path
           d="m 1366.9464,-472.95883 h 4.5751 v -20.86269 c 1.3421,-2.37907 5.1852,-4.69715 7.9913,-4.69715 0.732,0 1.281,0.061 1.83,0.18301 v -4.69716 c -4.0261,0 -7.4422,2.25708 -9.8213,5.36818 v -4.75816 h -4.5751 z"
           style="font-style:normal;font-variant:normal;font-weight:normal;font-stretch:normal;font-size:61.002px;font-family:'Proxima Nova';-inkscape-font-specification:'Proxima Nova, Normal';font-variant-ligatures:normal;font-variant-caps:normal;font-variant-numeric:normal;font-variant-east-asian:normal;stroke-width:0.750025"
           id="path1272" />
        <path
           d="m 1385.3737,-487.72132 c 0,8.78429 5.9172,15.49451 14.7015,15.49451 5.3682,0 8.5403,-2.19607 10.7974,-5.12417 l -3.0501,-2.80609 c -1.9521,2.62309 -4.4532,3.84313 -7.5033,3.84313 -6.2832,0 -10.1873,-4.88016 -10.1873,-11.40738 0,-6.52721 3.9041,-11.34637 10.1873,-11.34637 3.0501,0 5.5512,1.15904 7.5033,3.84313 l 3.0501,-2.80609 c -2.2571,-2.9281 -5.4292,-5.12417 -10.7974,-5.12417 -8.7843,0 -14.7015,6.71022 -14.7015,15.4335 z"
           style="font-style:normal;font-variant:normal;font-weight:normal;font-stretch:normal;font-size:61.002px;font-family:'Proxima Nova';-inkscape-font-specification:'Proxima Nova, Normal';font-variant-ligatures:normal;font-variant-caps:normal;font-variant-numeric:normal;font-variant-east-asian:normal;stroke-width:0.750025"
           id="path1274" />
        <path
           d="m 1415.5173,-487.72132 c 0,9.21131 6.2832,15.49451 15.0065,15.49451 4.8192,0 8.7843,-1.58605 11.7124,-4.51415 l -2.1961,-2.98909 c -2.3181,2.37907 -5.7342,3.72112 -9.0893,3.72112 -6.3442,0 -10.2483,-4.63615 -10.6143,-10.18734 h 23.8517 v -1.15903 c 0,-8.84529 -5.2461,-15.79952 -14.1524,-15.79952 -8.4183,0 -14.5185,6.89322 -14.5185,15.4335 z m 14.4575,-11.65138 c 6.7102,0 9.6383,5.42918 9.6993,9.82132 h -19.3376 c 0.244,-4.51414 3.3551,-9.82132 9.6383,-9.82132 z"
           style="font-style:normal;font-variant:normal;font-weight:normal;font-stretch:normal;font-size:61.002px;font-family:'Proxima Nova';-inkscape-font-specification:'Proxima Nova, Normal';font-variant-ligatures:normal;font-variant-caps:normal;font-variant-numeric:normal;font-variant-east-asian:normal;stroke-width:0.750025"
           id="path1276" />
      </g>
    </g>
  </g>
</svg>
